<svg width="24" height="24" viewBox="0 0 24 24" fill="none" xmlns="http://www.w3.org/2000/svg">
<path d="M20.25 1.5H3.75C3.15326 1.5 2.58097 1.73705 2.15901 2.15901C1.73705 2.58097 1.5 3.15326 1.5 3.75L1.5 20.25C1.5 20.8467 1.73705 21.419 2.15901 21.841C2.58097 22.2629 3.15326 22.5 3.75 22.5H10.1836V15.3605H7.23047V12H10.1836V9.43875C10.1836 6.52547 11.918 4.91625 14.5744 4.91625C15.8466 4.91625 17.1769 5.14313 17.1769 5.14313V8.0025H15.7111C14.2669 8.0025 13.8164 8.89875 13.8164 9.81797V12H17.0405L16.5248 15.3605H13.8164V22.5H20.25C20.8467 22.5 21.419 22.2629 21.841 21.841C22.2629 21.419 22.5 20.8467 22.5 20.25V3.75C22.5 3.15326 22.2629 2.58097 21.841 2.15901C21.419 1.73705 20.8467 1.5 20.25 1.5Z" fill="#262626"/>
</svg>
