<svg width="24" height="24" viewBox="0 0 24 24" fill="none" xmlns="http://www.w3.org/2000/svg">
<path d="M12.0043 6.60977C9.02305 6.60977 6.61836 9.01445 6.61836 11.9957C6.61836 14.977 9.02305 17.3816 12.0043 17.3816C14.9855 17.3816 17.3902 14.977 17.3902 11.9957C17.3902 9.01445 14.9855 6.60977 12.0043 6.60977ZM12.0043 15.4973C10.0777 15.4973 8.50273 13.927 8.50273 11.9957C8.50273 10.0645 10.073 8.49414 12.0043 8.49414C13.9355 8.49414 15.5059 10.0645 15.5059 11.9957C15.5059 13.927 13.9309 15.4973 12.0043 15.4973ZM18.8668 6.38945C18.8668 7.08789 18.3043 7.6457 17.6105 7.6457C16.9121 7.6457 16.3543 7.0832 16.3543 6.38945C16.3543 5.6957 16.9168 5.1332 17.6105 5.1332C18.3043 5.1332 18.8668 5.6957 18.8668 6.38945ZM22.434 7.66445C22.3543 5.98164 21.9699 4.49102 20.7371 3.26289C19.509 2.03477 18.0184 1.65039 16.3355 1.56602C14.6012 1.46758 9.40273 1.46758 7.66836 1.56602C5.99023 1.6457 4.49961 2.03008 3.2668 3.2582C2.03398 4.48633 1.6543 5.97695 1.56992 7.65977C1.47148 9.39414 1.47148 14.5926 1.56992 16.327C1.64961 18.0098 2.03398 19.5004 3.2668 20.7285C4.49961 21.9566 5.98555 22.341 7.66836 22.4254C9.40273 22.5238 14.6012 22.5238 16.3355 22.4254C18.0184 22.3457 19.509 21.9613 20.7371 20.7285C21.9652 19.5004 22.3496 18.0098 22.434 16.327C22.5324 14.5926 22.5324 9.39883 22.434 7.66445ZM20.1934 18.1879C19.8277 19.1066 19.1199 19.8145 18.1965 20.1848C16.8137 20.7332 13.5324 20.6066 12.0043 20.6066C10.4762 20.6066 7.19023 20.7285 5.81211 20.1848C4.89336 19.8191 4.18555 19.1113 3.81523 18.1879C3.2668 16.8051 3.39336 13.5238 3.39336 11.9957C3.39336 10.4676 3.27148 7.18164 3.81523 5.80352C4.18086 4.88477 4.88867 4.17695 5.81211 3.80664C7.19492 3.2582 10.4762 3.38477 12.0043 3.38477C13.5324 3.38477 16.8184 3.26289 18.1965 3.80664C19.1152 4.17227 19.823 4.88008 20.1934 5.80352C20.7418 7.18633 20.6152 10.4676 20.6152 11.9957C20.6152 13.5238 20.7418 16.8098 20.1934 18.1879Z" fill="#262626"/>
</svg>
