<svg width="22" height="22" viewBox="0 0 22 22" fill="none" xmlns="http://www.w3.org/2000/svg">
<g clip-path="url(#clip0_2788_10327)">
<rect width="21.8153" height="21.8153" rx="10.9077" fill="#FF0000"/>
<path fill-rule="evenodd" clip-rule="evenodd" d="M8.63186 7.67099C10.1479 7.55238 11.6708 7.55238 13.1869 7.67099L14.2052 7.75066C14.7725 7.79504 15.2365 8.22016 15.3303 8.78135C15.5649 10.1855 15.5649 11.6188 15.3303 13.0229C15.2365 13.5841 14.7725 14.0093 14.2052 14.0536L13.1869 14.1333C11.6708 14.2519 10.1479 14.2519 8.63186 14.1333L7.61349 14.0536C7.04626 14.0093 6.58222 13.5841 6.48846 13.0229C6.25385 11.6188 6.25385 10.1855 6.48846 8.78135C6.58222 8.22016 7.04626 7.79504 7.61349 7.75066L8.63186 7.67099ZM10.0004 12.0248V9.7795C10.0004 9.67352 10.116 9.60806 10.2069 9.66259L12.0779 10.7852C12.1662 10.8382 12.1662 10.9661 12.0779 11.0191L10.2069 12.1417C10.116 12.1962 10.0004 12.1308 10.0004 12.0248Z" fill="white"/>
<rect width="21.8153" height="21.8153" rx="10.9077" fill="#785600"/>
<g opacity="0.48">
<rect width="13.0892" height="13.0892" transform="translate(4.36523 4.36719)" fill="#785600"/>
<path d="M8.72266 7.10639V7.92447H13.0857V7.10639C13.0857 6.50398 12.5974 6.01562 11.995 6.01562H9.81342C9.21101 6.01562 8.72266 6.50398 8.72266 7.10639Z" stroke="#FFD874" stroke-width="0.545383"/>
<path d="M6.54102 15.0162V10.9258H15.5398V15.0162C15.5398 15.6186 15.0515 16.1069 14.4491 16.1069H7.63178C7.02937 16.1069 6.54102 15.6186 6.54102 15.0162Z" fill="#FFD874" stroke="#FFD874" stroke-width="0.545383"/>
<path d="M15.5388 7.65234H6.53999C5.93757 7.65234 5.44922 8.1407 5.44922 8.74311V9.56119C5.44922 10.766 6.42593 11.7427 7.63075 11.7427H14.448C15.6529 11.7427 16.6296 10.766 16.6296 9.56119V8.74311C16.6296 8.1407 16.1412 7.65234 15.5388 7.65234Z" fill="#FFBB0A" stroke="#FFBB0A" stroke-width="0.545383"/>
<circle cx="11.4468" cy="10.3891" r="0.545383" fill="#FFD874"/>
</g>
<g clip-path="url(#clip1_2788_10327)">
<path d="M9.27246 7.10639V7.92447H13.6355V7.10639C13.6355 6.50398 13.1472 6.01562 12.5448 6.01562H10.3632C9.76081 6.01562 9.27246 6.50398 9.27246 7.10639Z" stroke="#FFD874" stroke-width="0.545383"/>
<path d="M7.08887 15.0162V10.9258H16.0877V15.0162C16.0877 15.6186 15.5993 16.1069 14.9969 16.1069H8.17963C7.57722 16.1069 7.08887 15.6186 7.08887 15.0162Z" fill="#FFD874" stroke="#FFD874" stroke-width="0.545383"/>
<path d="M16.0886 7.65234H7.08979C6.48738 7.65234 5.99902 8.1407 5.99902 8.74311V9.56119C5.99902 10.766 6.97573 11.7427 8.18056 11.7427H14.9978C16.2027 11.7427 17.1794 10.766 17.1794 9.56119V8.74311C17.1794 8.1407 16.691 7.65234 16.0886 7.65234Z" fill="#FFBB0A" stroke="#FFBB0A" stroke-width="0.545383"/>
<circle cx="11.9946" cy="10.3891" r="0.545383" fill="#FFD874"/>
</g>
</g>
<defs>
<clipPath id="clip0_2788_10327">
<rect width="21.8153" height="21.8153" rx="10.9077" fill="white"/>
</clipPath>
<clipPath id="clip1_2788_10327">
<rect width="13.0892" height="13.0892" fill="white" transform="translate(4.90723 4.36719)"/>
</clipPath>
</defs>
</svg>
