<svg width="48" height="48" viewBox="0 0 48 48" fill="none" xmlns="http://www.w3.org/2000/svg">
<path d="M4 24C4 16.925 4 13.3875 6.1056 11.0258C6.44238 10.6481 6.81356 10.2987 7.21491 9.98174C9.72427 8 13.4828 8 21 8H27C34.5172 8 38.2757 8 40.7851 9.98174C41.1864 10.2987 41.5576 10.6481 41.8944 11.0258C44 13.3875 44 16.925 44 24C44 31.075 44 34.6125 41.8944 36.9742C41.5576 37.3519 41.1864 37.7013 40.7851 38.0183C38.2757 40 34.5172 40 27 40H21C13.4828 40 9.72427 40 7.21491 38.0183C6.81356 37.7013 6.44238 37.3519 6.1056 36.9742C4 34.6125 4 31.075 4 24Z" stroke="#FFBB0A" stroke-opacity="0.4" stroke-width="1.5" stroke-linecap="round" stroke-linejoin="round"/>
<path d="M26.0005 24C26.0005 27.3137 23.3142 30 20.0005 30C16.6868 30 14.0005 27.3137 14.0005 24C14.0005 20.6863 16.6868 18 20.0005 18C23.3142 18 26.0005 20.6863 26.0005 24Z" stroke="#FFBB0A" stroke-opacity="0.4" stroke-width="1.5"/>
<path d="M24 19.5278C25.0615 18.5777 26.4633 18 28 18C31.3137 18 34 20.6863 34 24C34 27.3137 31.3137 30 28 30C26.4633 30 25.0615 29.4223 24 28.4722" stroke="#FFBB0A" stroke-opacity="0.4" stroke-width="1.5"/>
</svg>
