<svg width="32" height="32" viewBox="0 0 32 32" fill="none" xmlns="http://www.w3.org/2000/svg">
<path d="M28.0003 14.6667C28.2094 14.5612 28.3912 14.4283 28.5526 14.2607C29.3337 13.45 29.3337 12.1452 29.3337 9.53569C29.3337 6.92614 29.3337 5.62137 28.5526 4.81068C27.7716 4 26.5145 4 24.0003 4L8.00033 4C5.48617 4 4.22909 4 3.44804 4.81068C2.66699 5.62136 2.66699 6.92614 2.66699 9.53569C2.66699 12.1452 2.66699 13.45 3.44804 14.2607C3.60949 14.4283 3.79129 14.5612 4.00033 14.6667" stroke="#FFBB0A" stroke-opacity="0.4" stroke-width="1.5" stroke-linecap="round"/>
<path d="M25.2466 18.5924L24.3528 13.7278C23.9668 11.6266 23.7738 10.5761 23.0094 9.95405C22.245 9.33203 21.1469 9.33203 18.9509 9.33203H13.0491C10.8531 9.33203 9.75503 9.33203 8.99064 9.95405C8.22625 10.5761 8.03322 11.6266 7.64717 13.7278L6.75341 18.5924C5.9521 22.9537 5.55145 25.1343 6.78519 26.5665C8.01892 27.9987 10.2981 27.9987 14.8563 27.9987H17.1437C21.7019 27.9987 23.9811 27.9987 25.2148 26.5665C26.4485 25.1343 26.0479 22.9537 25.2466 18.5924Z" stroke="#FFBB0A" stroke-opacity="0.4" stroke-width="1.5" stroke-linecap="round"/>
<path d="M14.667 9.33203L12.667 27.9987" stroke="#FFBB0A" stroke-opacity="0.4" stroke-width="1.5"/>
<path d="M20 21.332L20 22.6654" stroke="#FFBB0A" stroke-opacity="0.4" stroke-width="1.5" stroke-miterlimit="10" stroke-linecap="round" stroke-linejoin="round"/>
</svg>
