<svg width="21" height="22" viewBox="0 0 21 22" fill="none" xmlns="http://www.w3.org/2000/svg">
<path fill-rule="evenodd" clip-rule="evenodd" d="M4.33203 5.80552C4.33203 4.58058 4.33203 3.96811 4.71257 3.58757C5.09311 3.20703 5.70558 3.20703 6.93052 3.20703H10.8966C13.0115 3.20703 14.726 4.9521 14.726 7.10476C14.726 9.25741 13.0115 11.0025 10.8966 11.0025H4.33203V5.80552Z" stroke="#141B34" stroke-width="2.22727" stroke-linecap="round" stroke-linejoin="round"/>
<path d="M10.7664 11.0039H11.8388C13.9117 11.0039 15.5921 12.749 15.5921 14.9016C15.5921 17.0543 13.9117 18.7994 11.8388 18.7994H6.93052C5.70558 18.7994 5.09311 18.7994 4.71257 18.4188C4.33203 18.0383 4.33203 17.4258 4.33203 16.2009V11.0039" stroke="#141B34" stroke-width="2.22727" stroke-linecap="round" stroke-linejoin="round"/>
</svg>
