<svg width="22" height="23" viewBox="0 0 22 23" fill="none" xmlns="http://www.w3.org/2000/svg">
<path d="M10.1348 12.5H15.1348M7.13477 12.5H7.14375M12.1348 16.5H7.13477M15.1348 16.5H15.1258" stroke="#262626" stroke-width="1.5" stroke-linecap="round" stroke-linejoin="round"/>
<path d="M17.1348 1.5V3.5M5.13477 1.5V3.5" stroke="#262626" stroke-width="1.5" stroke-linecap="round" stroke-linejoin="round"/>
<path d="M1.63477 11.7432C1.63477 7.38594 1.63477 5.20728 2.88688 3.85364C4.139 2.5 6.15426 2.5 10.1848 2.5H12.0848C16.1153 2.5 18.1305 2.5 19.3826 3.85364C20.6348 5.20728 20.6348 7.38594 20.6348 11.7432V12.2568C20.6348 16.6141 20.6348 18.7927 19.3826 20.1464C18.1305 21.5 16.1153 21.5 12.0848 21.5H10.1848C6.15426 21.5 4.139 21.5 2.88688 20.1464C1.63477 18.7927 1.63477 16.6141 1.63477 12.2568V11.7432Z" stroke="#262626" stroke-width="1.5" stroke-linecap="round" stroke-linejoin="round"/>
<path d="M2.13477 7.5H20.1348" stroke="#262626" stroke-width="1.5" stroke-linecap="round" stroke-linejoin="round"/>
</svg>
