<svg width="40" height="41" viewBox="0 0 40 41" fill="none" xmlns="http://www.w3.org/2000/svg">
<rect y="0.683594" width="40" height="40" rx="20" fill="#785600"/>
<g clip-path="url(#clip0_3477_45504)">
<g style="mix-blend-mode:luminosity">
<path d="M14.5825 15.9215C17.5896 16.4516 19.3818 17.5605 20 18.1972C20.6182 17.5605 22.4104 16.4516 25.4175 15.9215C26.9409 15.6529 27.7026 15.5186 28.3513 16.0333C29 16.548 29 17.3838 29 19.0554V25.0627C29 26.5911 29 27.3554 28.5837 27.8325C28.1673 28.3096 27.2507 28.4712 25.4175 28.7944C23.7833 29.0825 22.5079 29.5415 21.5847 30.0028C20.6765 30.4567 20.2223 30.6836 20 30.6836C19.7777 30.6836 19.3235 30.4567 18.4153 30.0028C17.4921 29.5415 16.2167 29.0825 14.5825 28.7944C12.7493 28.4712 11.8327 28.3096 11.4163 27.8325C11 27.3554 11 26.5911 11 25.0627V19.0554C11 17.3838 11 16.548 11.6487 16.0333C12.2974 15.5186 13.0591 15.6529 14.5825 15.9215Z" fill="#FFE6A3" stroke="#FFBB0A" stroke-width="1.5" stroke-linecap="round" stroke-linejoin="round"/>
<path d="M20 17.6836L20 30.6836" stroke="#FFBB0A" stroke-width="1.5" stroke-linejoin="round"/>
<path d="M16.5 11.7422C17.5114 11.0716 18.7089 10.6836 19.9926 10.6836C21.2825 10.6836 22.4855 11.0754 23.5 11.752M21.6222 14.1836C21.1421 13.8938 20.5857 13.7282 19.9926 13.7282C19.4058 13.7282 18.855 13.8903 18.3784 14.1744" stroke="#FFBB0A" stroke-width="1.5" stroke-linecap="round"/>
</g>
<path d="M15.5825 15.9215C18.5896 16.4516 20.3818 17.5605 21 18.1972C21.6182 17.5605 23.4104 16.4516 26.4175 15.9215C27.9409 15.6529 28.7026 15.5186 29.3513 16.0333C30 16.548 30 17.3838 30 19.0554V25.0627C30 26.5911 30 27.3554 29.5837 27.8325C29.1673 28.3096 28.2507 28.4712 26.4175 28.7944C24.7833 29.0825 23.5079 29.5415 22.5847 30.0028C21.6765 30.4567 21.2223 30.6836 21 30.6836C20.7777 30.6836 20.3235 30.4567 19.4153 30.0028C18.4921 29.5415 17.2167 29.0825 15.5825 28.7944C13.7493 28.4712 12.8327 28.3096 12.4163 27.8325C12 27.3554 12 26.5911 12 25.0627V19.0554C12 17.3838 12 16.548 12.6487 16.0333C13.2974 15.5186 14.0591 15.6529 15.5825 15.9215Z" fill="#FFE6A3" stroke="#FFBB0A" stroke-width="1.5" stroke-linecap="round" stroke-linejoin="round"/>
<path d="M21 17.6836L21 30.6836" stroke="#FFBB0A" stroke-width="1.5" stroke-linejoin="round"/>
<path d="M17.5 11.7422C18.5114 11.0716 19.7089 10.6836 20.9926 10.6836C22.2825 10.6836 23.4855 11.0754 24.5 11.752M22.6222 14.1836C22.1421 13.8938 21.5857 13.7282 20.9926 13.7282C20.4058 13.7282 19.855 13.8903 19.3784 14.1744" stroke="#FFBB0A" stroke-width="1.5" stroke-linecap="round"/>
</g>
<defs>
<clipPath id="clip0_3477_45504">
<rect width="24" height="24" fill="white" transform="translate(8 8.68359)"/>
</clipPath>
</defs>
</svg>
