<svg width="40" height="41" viewBox="0 0 40 41" fill="none" xmlns="http://www.w3.org/2000/svg">
<rect y="0.863281" width="40" height="40" rx="20" fill="#785600"/>
<g style="mix-blend-mode:luminosity">
<path d="M20 27C18.6675 27.6224 16.9171 28 15 28C13.9341 28 12.9197 27.8833 12 27.6726C11.4088 27.5372 11.1132 27.4695 10.759 27.1892C10.557 27.0294 10.3048 26.7129 10.1941 26.4803C10 26.0725 10 25.677 10 24.886V14.114C10 13.1291 11.04 12.4527 12 12.6726C12.9197 12.8833 13.9341 13 15 13C16.9171 13 18.6675 12.6224 20 12C21.3325 11.3776 23.0829 11 25 11C26.0659 11 27.0803 11.1167 28 11.3274C28.5912 11.4628 28.8868 11.5305 29.241 11.8108C29.443 11.9706 29.6952 12.2871 29.8059 12.5197C30 12.9275 30 13.323 30 14.114V24.886C30 25.8709 28.96 26.5473 28 26.3274C27.0803 26.1167 26.0659 26 25 26C23.0829 26 21.3325 26.3776 20 27Z" fill="#FFE6A3" stroke="#FFBB0A" stroke-width="1.5"/>
<path d="M10 30C11.3325 30.6224 13.0829 31 15 31C16.9171 31 18.6675 30.6224 20 30C21.3325 29.3776 23.0829 29 25 29C26.9171 29 28.6675 29.3776 30 30" stroke="#FFBB0A" stroke-width="1.5" stroke-linecap="round"/>
<path d="M22.5 19.5C22.5 20.8807 21.3807 22 20 22C18.6193 22 17.5 20.8807 17.5 19.5C17.5 18.1193 18.6193 17 20 17C21.3807 17 22.5 18.1193 22.5 19.5Z" fill="#FFE6A3" stroke="#FFBB0A" stroke-width="1.5"/>
<path fill-rule="evenodd" clip-rule="evenodd" d="M13.5 20.5L13.5 20.509L13.5 20.5Z" fill="#FFE6A3"/>
<path d="M13.5 20.5L13.5 20.509" stroke="#FFBB0A" stroke-width="2" stroke-linecap="round" stroke-linejoin="round"/>
<path fill-rule="evenodd" clip-rule="evenodd" d="M26.5 18.4922L26.5 18.5012L26.5 18.4922Z" fill="#FFE6A3"/>
<path d="M26.5 18.4922L26.5 18.5012" stroke="#FFBB0A" stroke-width="2" stroke-linecap="round" stroke-linejoin="round"/>
</g>
<path d="M21 27C19.6675 27.6224 17.9171 28 16 28C14.9341 28 13.9197 27.8833 13 27.6726C12.4088 27.5372 12.1132 27.4695 11.759 27.1892C11.557 27.0294 11.3048 26.7129 11.1941 26.4803C11 26.0725 11 25.677 11 24.886V14.114C11 13.1291 12.04 12.4527 13 12.6726C13.9197 12.8833 14.9341 13 16 13C17.9171 13 19.6675 12.6224 21 12C22.3325 11.3776 24.0829 11 26 11C27.0659 11 28.0803 11.1167 29 11.3274C29.5912 11.4628 29.8868 11.5305 30.241 11.8108C30.443 11.9706 30.6952 12.2871 30.8059 12.5197C31 12.9275 31 13.323 31 14.114V24.886C31 25.8709 29.96 26.5473 29 26.3274C28.0803 26.1167 27.0659 26 26 26C24.0829 26 22.3325 26.3776 21 27Z" fill="#FFE6A3" stroke="#FFBB0A" stroke-width="1.5"/>
<path d="M11 30C12.3325 30.6224 14.0829 31 16 31C17.9171 31 19.6675 30.6224 21 30C22.3325 29.3776 24.0829 29 26 29C27.9171 29 29.6675 29.3776 31 30" stroke="#FFBB0A" stroke-width="1.5" stroke-linecap="round"/>
<path d="M23.5 19.5C23.5 20.8807 22.3807 22 21 22C19.6193 22 18.5 20.8807 18.5 19.5C18.5 18.1193 19.6193 17 21 17C22.3807 17 23.5 18.1193 23.5 19.5Z" fill="#FFE6A3" stroke="#FFBB0A" stroke-width="1.5"/>
<path fill-rule="evenodd" clip-rule="evenodd" d="M14.5 20.5L14.5 20.509L14.5 20.5Z" fill="#FFE6A3"/>
<path d="M14.5 20.5L14.5 20.509" stroke="#FFBB0A" stroke-width="2" stroke-linecap="round" stroke-linejoin="round"/>
<path fill-rule="evenodd" clip-rule="evenodd" d="M27.5 18.4922L27.5 18.5012L27.5 18.4922Z" fill="#FFE6A3"/>
<path d="M27.5 18.4922L27.5 18.5012" stroke="#FFBB0A" stroke-width="2" stroke-linecap="round" stroke-linejoin="round"/>
</svg>
