<svg width="40" height="41" viewBox="0 0 40 41" fill="none" xmlns="http://www.w3.org/2000/svg">
<rect y="0.183594" width="40" height="40" rx="20" fill="#785600"/>
<g clip-path="url(#clip0_3477_45578)">
<g style="mix-blend-mode:luminosity">
<path d="M10 20.5836C10 17.5666 10 16.0581 10.9463 15.1209C11.8925 14.1836 13.4155 14.1836 16.4615 14.1836H17.5385C20.5845 14.1836 22.1075 14.1836 23.0537 15.1209C24 16.0581 24 17.5666 24 20.5836V23.7836C24 26.8006 24 28.3091 23.0537 29.2463C22.1075 30.1836 20.5845 30.1836 17.5385 30.1836H16.4615C13.4155 30.1836 11.8925 30.1836 10.9463 29.2463C10 28.3091 10 26.8006 10 23.7836V20.5836Z" fill="#FFE6A3" stroke="#FFBB0A" stroke-width="1.5" stroke-linejoin="round"/>
<path d="M23.5376 24.1836H24.4608C27.072 24.1836 28.3776 24.1836 29.1888 23.3635C30 22.5434 30 21.2235 30 18.5836V15.7836C30 13.1437 30 11.8238 29.1888 11.0037C28.3776 10.1836 27.072 10.1836 24.4608 10.1836H23.5376C20.9264 10.1836 19.6208 10.1836 18.8096 11.0037C18.1002 11.7209 18.0112 12.8202 18 14.8503" stroke="#FFBB0A" stroke-width="1.5" stroke-linejoin="round"/>
<path d="M14 20.1836H17M14 25.1836H19" stroke="#FFBB0A" stroke-width="1.5" stroke-linecap="round"/>
<path d="M18.5 11.1836L22.5 14.6836" stroke="#FFBB0A" stroke-width="1.5" stroke-linejoin="round"/>
</g>
<path d="M11 20.5836C11 17.5666 11 16.0581 11.9463 15.1209C12.8925 14.1836 14.4155 14.1836 17.4615 14.1836H18.5385C21.5845 14.1836 23.1075 14.1836 24.0537 15.1209C25 16.0581 25 17.5666 25 20.5836V23.7836C25 26.8006 25 28.3091 24.0537 29.2463C23.1075 30.1836 21.5845 30.1836 18.5385 30.1836H17.4615C14.4155 30.1836 12.8925 30.1836 11.9463 29.2463C11 28.3091 11 26.8006 11 23.7836V20.5836Z" fill="#FFE6A3" stroke="#FFBB0A" stroke-width="1.5" stroke-linejoin="round"/>
<path d="M24.5376 24.1836H25.4608C28.072 24.1836 29.3776 24.1836 30.1888 23.3635C31 22.5434 31 21.2235 31 18.5836V15.7836C31 13.1437 31 11.8238 30.1888 11.0037C29.3776 10.1836 28.072 10.1836 25.4608 10.1836H24.5376C21.9264 10.1836 20.6208 10.1836 19.8096 11.0037C19.1002 11.7209 19.0112 12.8202 19 14.8503" stroke="#FFBB0A" stroke-width="1.5" stroke-linejoin="round"/>
<path d="M15 20.1836H18M15 25.1836H20" stroke="#FFBB0A" stroke-width="1.5" stroke-linecap="round"/>
<path d="M19.5 11.1836L23.5 14.6836" stroke="#FFBB0A" stroke-width="1.5" stroke-linejoin="round"/>
</g>
<defs>
<clipPath id="clip0_3477_45578">
<rect width="24" height="24" fill="white" transform="translate(8 8.18359)"/>
</clipPath>
</defs>
</svg>
