<svg width="170" height="48" viewBox="0 0 170 48" fill="none" xmlns="http://www.w3.org/2000/svg">
<path fill-rule="evenodd" clip-rule="evenodd" d="M22 46C34.1503 46 44 36.1503 44 24C44 11.8497 34.1503 2 22 2C9.84971 2 0 11.8497 0 24C0 36.1503 9.84971 46 22 46ZM28.8632 12.2485C29.1973 11.0619 28.0457 10.3601 26.994 11.1094L12.3124 21.5685C11.1718 22.3811 11.3512 24 12.5819 24H16.448V23.9701H23.9828L17.8433 26.1363L15.1368 35.7515C14.8027 36.9382 15.9542 37.6399 17.006 36.8906L31.6876 26.4315C32.8282 25.619 32.6487 24 31.4181 24H25.5553L28.8632 12.2485Z" fill="#155EEF"/>
<path d="M55.3799 33.9083V30.4283H58.1399V16.3883H55.3799V12.9083H66.1799C67.4599 12.9083 68.5699 13.1283 69.5099 13.5683C70.4699 13.9883 71.2099 14.5983 71.7299 15.3983C72.2699 16.1783 72.5399 17.1183 72.5399 18.2183V18.5183C72.5399 19.4783 72.3599 20.2683 71.9999 20.8883C71.6399 21.4883 71.2099 21.9583 70.7099 22.2983C70.2299 22.6183 69.7699 22.8483 69.3299 22.9883V23.5283C69.7699 23.6483 70.2499 23.8783 70.7699 24.2183C71.2899 24.5383 71.7299 25.0083 72.0899 25.6283C72.4699 26.2483 72.6599 27.0583 72.6599 28.0583V28.3583C72.6599 29.5183 72.3899 30.5183 71.8499 31.3583C71.3099 32.1783 70.5599 32.8083 69.5999 33.2483C68.6599 33.6883 67.5599 33.9083 66.2999 33.9083H55.3799ZM62.0999 30.3083H65.8199C66.6799 30.3083 67.3699 30.0983 67.8899 29.6783C68.4299 29.2583 68.6999 28.6583 68.6999 27.8783V27.5783C68.6999 26.7983 68.4399 26.1983 67.9199 25.7783C67.3999 25.3583 66.6999 25.1483 65.8199 25.1483H62.0999V30.3083ZM62.0999 21.5483H65.7599C66.5799 21.5483 67.2499 21.3383 67.7699 20.9183C68.3099 20.4983 68.5799 19.9183 68.5799 19.1783V18.8783C68.5799 18.1183 68.3199 17.5383 67.7999 17.1383C67.2799 16.7183 66.5999 16.5083 65.7599 16.5083H62.0999V21.5483Z" fill="#101828"/>
<path d="M81.6018 34.3283C80.1218 34.3283 78.7918 34.0283 77.6118 33.4283C76.4318 32.8283 75.5018 31.9583 74.8218 30.8183C74.1418 29.6783 73.8018 28.3083 73.8018 26.7083V26.2283C73.8018 24.6283 74.1418 23.2583 74.8218 22.1183C75.5018 20.9783 76.4318 20.1083 77.6118 19.5083C78.7918 18.9083 80.1218 18.6083 81.6018 18.6083C83.0818 18.6083 84.4118 18.9083 85.5918 19.5083C86.7718 20.1083 87.7018 20.9783 88.3818 22.1183C89.0618 23.2583 89.4018 24.6283 89.4018 26.2283V26.7083C89.4018 28.3083 89.0618 29.6783 88.3818 30.8183C87.7018 31.9583 86.7718 32.8283 85.5918 33.4283C84.4118 34.0283 83.0818 34.3283 81.6018 34.3283ZM81.6018 30.9683C82.7618 30.9683 83.7218 30.5983 84.4818 29.8583C85.2418 29.0983 85.6218 28.0183 85.6218 26.6183V26.3183C85.6218 24.9183 85.2418 23.8483 84.4818 23.1083C83.7418 22.3483 82.7818 21.9683 81.6018 21.9683C80.4418 21.9683 79.4818 22.3483 78.7218 23.1083C77.9618 23.8483 77.5818 24.9183 77.5818 26.3183V26.6183C77.5818 28.0183 77.9618 29.0983 78.7218 29.8583C79.4818 30.5983 80.4418 30.9683 81.6018 30.9683Z" fill="#101828"/>
<path d="M91.3909 33.9083V12.9083H95.1709V33.9083H91.3909Z" fill="#101828"/>
<path d="M103.56 33.9083C102.58 33.9083 101.78 33.6083 101.16 33.0083C100.56 32.3883 100.26 31.5683 100.26 30.5483V22.1483H96.5396V19.0283H100.26V14.4083H104.04V19.0283H108.12V22.1483H104.04V29.8883C104.04 30.4883 104.32 30.7883 104.88 30.7883H107.76V33.9083H103.56Z" fill="#101828"/>
<path d="M116.221 34.3283C114.281 34.3283 112.691 33.9083 111.451 33.0683C110.211 32.2283 109.461 31.0283 109.201 29.4683L112.681 28.5683C112.821 29.2683 113.051 29.8183 113.371 30.2183C113.711 30.6183 114.121 30.9083 114.601 31.0883C115.101 31.2483 115.641 31.3283 116.221 31.3283C117.101 31.3283 117.751 31.1783 118.171 30.8783C118.591 30.5583 118.801 30.1683 118.801 29.7083C118.801 29.2483 118.601 28.8983 118.201 28.6583C117.801 28.3983 117.161 28.1883 116.281 28.0283L115.441 27.8783C114.401 27.6783 113.451 27.4083 112.591 27.0683C111.731 26.7083 111.041 26.2183 110.521 25.5983C110.001 24.9783 109.741 24.1783 109.741 23.1983C109.741 21.7183 110.281 20.5883 111.361 19.8083C112.441 19.0083 113.861 18.6083 115.621 18.6083C117.281 18.6083 118.661 18.9783 119.761 19.7183C120.861 20.4583 121.581 21.4283 121.921 22.6283L118.411 23.7083C118.251 22.9483 117.921 22.4083 117.421 22.0883C116.941 21.7683 116.341 21.6083 115.621 21.6083C114.901 21.6083 114.351 21.7383 113.971 21.9983C113.591 22.2383 113.401 22.5783 113.401 23.0183C113.401 23.4983 113.601 23.8583 114.001 24.0983C114.401 24.3183 114.941 24.4883 115.621 24.6083L116.461 24.7583C117.581 24.9583 118.591 25.2283 119.491 25.5683C120.411 25.8883 121.131 26.3583 121.651 26.9783C122.191 27.5783 122.461 28.3983 122.461 29.4383C122.461 30.9983 121.891 32.2083 120.751 33.0683C119.631 33.9083 118.121 34.3283 116.221 34.3283Z" fill="#101828"/>
<path d="M124.274 33.9083V12.9083H128.054V20.8583H128.594C128.754 20.5383 129.004 20.2183 129.344 19.8983C129.684 19.5783 130.134 19.3183 130.694 19.1183C131.274 18.8983 132.004 18.7883 132.884 18.7883C134.044 18.7883 135.054 19.0583 135.914 19.5983C136.794 20.1183 137.474 20.8483 137.954 21.7883C138.434 22.7083 138.674 23.7883 138.674 25.0283V33.9083H134.894V25.3283C134.894 24.2083 134.614 23.3683 134.054 22.8083C133.514 22.2483 132.734 21.9683 131.714 21.9683C130.554 21.9683 129.654 22.3583 129.014 23.1383C128.374 23.8983 128.054 24.9683 128.054 26.3483V33.9083H124.274Z" fill="#101828"/>
<path d="M141.26 33.9083V19.0283H145.04V33.9083H141.26ZM143.15 17.2883C142.47 17.2883 141.89 17.0683 141.41 16.6283C140.95 16.1883 140.72 15.6083 140.72 14.8883C140.72 14.1683 140.95 13.5883 141.41 13.1483C141.89 12.7083 142.47 12.4883 143.15 12.4883C143.85 12.4883 144.43 12.7083 144.89 13.1483C145.35 13.5883 145.58 14.1683 145.58 14.8883C145.58 15.6083 145.35 16.1883 144.89 16.6283C144.43 17.0683 143.85 17.2883 143.15 17.2883Z" fill="#101828"/>
<path d="M150.189 33.9083V22.1483H146.409V19.0283H150.189V16.2683C150.189 15.2483 150.489 14.4383 151.089 13.8383C151.709 13.2183 152.509 12.9083 153.489 12.9083H157.389V16.0283H154.809C154.249 16.0283 153.969 16.3283 153.969 16.9283V19.0283H157.869V22.1483H153.969V33.9083H150.189Z" fill="#101828"/>
<path d="M164.702 33.9083C163.722 33.9083 162.922 33.6083 162.302 33.0083C161.702 32.3883 161.402 31.5683 161.402 30.5483V22.1483H157.682V19.0283H161.402V14.4083H165.182V19.0283H169.262V22.1483H165.182V29.8883C165.182 30.4883 165.462 30.7883 166.022 30.7883H168.902V33.9083H164.702Z" fill="#101828"/>
</svg>
