<svg width="197" height="48" viewBox="0 0 197 48" fill="none" xmlns="http://www.w3.org/2000/svg">
<path d="M30.4289 2H13.5711L0 15.5711V32.4289L13.5711 46H30.4289L44 32.4289V15.5711L30.4289 2ZM15.9036 32.641L7.20966 23.947L15.9036 15.253C19.1904 11.9663 24.5976 11.9663 27.8844 15.253L36.5783 23.947L27.8844 32.641C24.5976 35.9277 19.2964 35.9277 15.9036 32.641Z" fill="#444CE7"/>
<path d="M63.3395 34.2386C66.0395 34.2386 68.2595 32.8586 68.9495 30.7886V33.9986H72.9395V25.8986C72.9395 24.0686 71.4995 22.5086 69.5495 22.5086H63.8495V25.8986H67.8995C68.4095 25.8986 68.7395 26.2286 68.7395 26.7386C68.7395 28.6886 66.1595 30.5786 63.5495 30.5786C60.0695 30.5786 57.3095 27.8486 57.3095 23.4986C57.3095 19.1486 60.0695 16.6286 63.6395 16.6286C66.3395 16.6286 68.1995 18.0986 68.5295 20.3486H72.9995C72.7295 15.8486 68.9495 12.7586 63.6695 12.7586C58.1195 12.7586 53.0195 16.3286 53.0195 23.4986C53.0195 30.6686 57.9695 34.2386 63.3395 34.2386Z" fill="#101828"/>
<path d="M74.6523 33.9986H78.8223V12.3086H74.6523V33.9986Z" fill="#101828"/>
<path d="M87.8174 34.2386C92.4674 34.2386 95.7974 30.9386 95.7974 26.4386C95.7974 21.9386 92.4674 18.6386 87.8174 18.6386C83.1674 18.6386 79.8374 21.9386 79.8374 26.4386C79.8374 30.9386 83.1674 34.2386 87.8174 34.2386ZM87.8174 30.6386C85.5674 30.6386 84.0374 28.9286 84.0374 26.4386C84.0374 23.9186 85.5674 22.2086 87.8174 22.2086C90.0674 22.2086 91.5974 23.9186 91.5974 26.4386C91.5974 28.9286 90.0674 30.6386 87.8174 30.6386Z" fill="#101828"/>
<path d="M105.128 34.2386C109.598 34.2386 112.268 31.1486 112.268 26.4386C112.268 21.7286 109.598 18.6386 105.188 18.6386C103.298 18.6386 101.828 19.3586 100.988 20.4686V12.3086H96.8184V33.9986H100.988V32.3486C101.828 33.5186 103.388 34.2386 105.128 34.2386ZM104.468 30.6386C102.218 30.6386 100.748 28.9586 100.748 26.4386C100.748 23.8886 102.218 22.2086 104.468 22.2086C106.658 22.2086 108.158 23.8886 108.158 26.4386C108.158 28.9586 106.658 30.6386 104.468 30.6386Z" fill="#101828"/>
<path d="M119.249 18.6386C115.109 18.6386 112.649 21.0686 112.469 24.0986H116.189C116.249 22.8386 117.179 21.6986 119.009 21.6986C120.719 21.6986 121.709 22.5686 121.709 23.8286C121.709 24.4586 121.319 24.9386 120.569 24.9386H118.019C114.719 24.9386 112.499 26.7386 112.499 29.7086C112.499 32.2886 114.509 34.2386 117.449 34.2386C119.519 34.2386 121.199 33.3086 121.709 31.8986V33.9986H125.849V24.2786C125.849 20.8586 123.059 18.6386 119.249 18.6386ZM118.499 31.2086C117.329 31.2086 116.489 30.5186 116.489 29.5286C116.489 28.3586 117.389 27.5786 118.649 27.5786H121.709V27.7886C121.709 29.7086 120.539 31.2086 118.499 31.2086Z" fill="#101828"/>
<path d="M127.451 33.9986H131.621V12.3086H127.451V33.9986Z" fill="#101828"/>
<path d="M133.836 33.9986H142.416C146.856 33.9986 149.916 31.7186 149.916 27.7286C149.916 24.9686 148.296 23.2886 146.376 22.5386C147.606 21.8786 148.836 20.3786 148.836 18.3986C148.836 14.8886 145.986 12.9986 142.176 12.9986H133.836V33.9986ZM138.276 21.0086V16.5686H141.756C143.766 16.5686 144.666 17.3786 144.666 18.7886C144.666 20.1986 143.766 21.0086 141.846 21.0086H138.276ZM138.276 30.0986V24.8186H142.026C144.516 24.8186 145.626 25.7786 145.626 27.4886C145.626 29.1986 144.516 30.0986 142.026 30.0986H138.276Z" fill="#101828"/>
<path d="M157.171 18.6386C153.031 18.6386 150.571 21.0686 150.391 24.0986H154.111C154.171 22.8386 155.101 21.6986 156.931 21.6986C158.641 21.6986 159.631 22.5686 159.631 23.8286C159.631 24.4586 159.241 24.9386 158.491 24.9386H155.941C152.641 24.9386 150.421 26.7386 150.421 29.7086C150.421 32.2886 152.431 34.2386 155.371 34.2386C157.441 34.2386 159.121 33.3086 159.631 31.8986V33.9986H163.771V24.2786C163.771 20.8586 160.981 18.6386 157.171 18.6386ZM156.421 31.2086C155.251 31.2086 154.411 30.5186 154.411 29.5286C154.411 28.3586 155.311 27.5786 156.571 27.5786H159.631V27.7886C159.631 29.7086 158.461 31.2086 156.421 31.2086Z" fill="#101828"/>
<path d="M165.133 33.9986H169.333V25.7186C169.333 23.7686 170.623 22.3586 172.453 22.3586C174.193 22.3586 175.363 23.6786 175.363 25.5086V33.9986H179.563V24.5786C179.563 21.0986 177.343 18.6386 173.923 18.6386C171.853 18.6386 170.173 19.5086 169.333 20.9786V18.8786H165.133V33.9986Z" fill="#101828"/>
<path d="M191.533 33.9986H196.573L190.063 24.8186L196.093 18.8786H190.813L185.563 24.0386V12.3086H181.363V33.9986H185.563V29.2586L187.243 27.6086L191.533 33.9986Z" fill="#101828"/>
</svg>
