<svg width="167" height="48" viewBox="0 0 167 48" fill="none" xmlns="http://www.w3.org/2000/svg">
<path fill-rule="evenodd" clip-rule="evenodd" d="M19.7655 3.449C19.2605 3.34513 18.7396 3.34513 18.2345 3.449C17.6507 3.56907 17.1289 3.86133 16.7141 4.09368L16.601 4.15684L2.54153 11.9677C2.50266 11.9893 2.46261 12.0113 2.42157 12.0339C1.98243 12.2758 1.43029 12.5799 1.00627 13.04C0.639674 13.4378 0.362246 13.9093 0.192535 14.423C-0.00375985 15.0171 -0.00146325 15.6475 0.000363158 16.1488C0.000533889 16.1957 0.000700421 16.2414 0.000700421 16.2858V31.7078C0.000700421 31.7522 0.000533889 31.798 0.000363158 31.8448C-0.00146325 32.3462 -0.00375985 32.9765 0.192536 33.5706C0.362247 34.0843 0.639677 34.5558 1.00627 34.9536C1.43029 35.4137 1.98244 35.7178 2.42157 35.9597C2.46261 35.9823 2.50266 36.0044 2.54153 36.026L16.601 43.8368L16.7141 43.8999C17.1289 44.1323 17.6507 44.4246 18.2345 44.5446C18.7396 44.6485 19.2605 44.6485 19.7655 44.5446C20.3493 44.4245 20.8711 44.1323 21.2859 43.8999L21.399 43.8368L35.4585 36.026C35.4757 36.0164 35.4931 36.0068 35.5107 35.997C35.5329 35.9848 35.5555 35.9723 35.5784 35.9597C36.0176 35.7178 36.5697 35.4137 36.9937 34.9536C37.3603 34.5558 37.6378 34.0843 37.8075 33.5706C38.0038 32.9765 38.0015 32.3462 37.9996 31.8448C37.9995 31.798 37.9993 31.7522 37.9993 31.7078V16.2858C37.9993 16.2414 37.9995 16.1957 37.9996 16.1488C38.0015 15.6475 38.0038 15.0171 37.8075 14.423C37.6378 13.9093 37.3603 13.4378 36.9937 13.04C36.5697 12.5799 36.0176 12.2758 35.5784 12.0339L35.5769 12.0331C35.5364 12.0108 35.4968 11.989 35.4585 11.9677L21.399 4.15684L21.2859 4.09367C20.8711 3.86132 20.3493 3.56906 19.7655 3.449ZM18.4464 7.47852C18.7343 7.31856 18.8813 7.23774 18.9909 7.18486L19 7.18051L19.0091 7.18486C19.1187 7.23774 19.2657 7.31856 19.5536 7.47852L32.1871 14.4971L18.9999 21.8233L5.81285 14.4972L18.4464 7.47852ZM3.80056 17.7261L17.1 25.1147L17.1001 39.7671L4.38691 32.7043C4.08301 32.5354 3.92785 32.4483 3.81899 32.379L3.8098 32.3731L3.80911 32.3622C3.80135 32.2334 3.80056 32.0554 3.80056 31.7078V17.7261Z" fill="#101828"/>
<path d="M55.2908 30.3443H61.3388V33.9083H50.6738V14.9543H55.2908V30.3443Z" fill="#101828"/>
<path d="M65.593 17.2762C64.783 17.2762 64.117 17.0423 63.595 16.5743C63.091 16.0883 62.839 15.4943 62.839 14.7923C62.839 14.0723 63.091 13.4783 63.595 13.0103C64.117 12.5243 64.783 12.2812 65.593 12.2812C66.385 12.2812 67.033 12.5243 67.537 13.0103C68.059 13.4783 68.32 14.0723 68.32 14.7923C68.32 15.4943 68.059 16.0883 67.537 16.5743C67.033 17.0423 66.385 17.2762 65.593 17.2762ZM67.888 18.8423V33.9083H63.271V18.8423H67.888Z" fill="#101828"/>
<path d="M76.6879 18.6263C77.7499 18.6263 78.6769 18.8423 79.4689 19.2743C80.2789 19.7063 80.8999 20.2733 81.3319 20.9753V18.8423H85.9489V33.8813C85.9489 35.2673 85.6699 36.5183 85.1119 37.6343C84.5719 38.7682 83.7349 39.6683 82.6009 40.3343C81.4849 41.0003 80.0899 41.3333 78.4159 41.3333C76.1839 41.3333 74.3749 40.8023 72.9889 39.7403C71.6029 38.6963 70.8109 37.2743 70.6129 35.4743H75.1759C75.3199 36.0503 75.6619 36.5003 76.2019 36.8243C76.7419 37.1663 77.4079 37.3373 78.1999 37.3373C79.1539 37.3373 79.9099 37.0583 80.4679 36.5003C81.0439 35.9603 81.3319 35.0872 81.3319 33.8813V31.7483C80.8819 32.4503 80.2609 33.0263 79.4689 33.4763C78.6769 33.9083 77.7499 34.1243 76.6879 34.1243C75.4459 34.1243 74.3209 33.8092 73.3129 33.1793C72.3049 32.5312 71.5039 31.6223 70.9099 30.4523C70.3339 29.2643 70.0459 27.8963 70.0459 26.3483C70.0459 24.8003 70.3339 23.4413 70.9099 22.2713C71.5039 21.1013 72.3049 20.2013 73.3129 19.5713C74.3209 18.9413 75.4459 18.6263 76.6879 18.6263ZM81.3319 26.3753C81.3319 25.2233 81.0079 24.3143 80.3599 23.6483C79.7299 22.9823 78.9559 22.6493 78.0379 22.6493C77.1199 22.6493 76.3369 22.9823 75.6889 23.6483C75.0589 24.2963 74.7439 25.1963 74.7439 26.3483C74.7439 27.5003 75.0589 28.4183 75.6889 29.1023C76.3369 29.7683 77.1199 30.1013 78.0379 30.1013C78.9559 30.1013 79.7299 29.7683 80.3599 29.1023C81.0079 28.4363 81.3319 27.5273 81.3319 26.3753Z" fill="#101828"/>
<path d="M98.2801 18.6803C100.008 18.6803 101.394 19.2563 102.438 20.4083C103.482 21.5423 104.004 23.1083 104.004 25.1063V33.9083H99.4141V25.7273C99.4141 24.7193 99.1531 23.9363 98.6311 23.3783C98.1091 22.8203 97.4071 22.5413 96.5251 22.5413C95.6431 22.5413 94.9411 22.8203 94.4191 23.3783C93.8971 23.9363 93.6361 24.7193 93.6361 25.7273V33.9083H89.0191V13.9283H93.6361V20.8673C94.1041 20.2013 94.7431 19.6703 95.5531 19.2743C96.3631 18.8783 97.2721 18.6803 98.2801 18.6803Z" fill="#101828"/>
<path d="M115.339 29.9932V33.9083H112.99C111.316 33.9083 110.011 33.5033 109.075 32.6933C108.139 31.8652 107.671 30.5243 107.671 28.6702V22.6763H105.835V18.8423H107.671V15.1703H112.288V18.8423H115.312V22.6763H112.288V28.7243C112.288 29.1743 112.396 29.4983 112.612 29.6963C112.828 29.8943 113.188 29.9932 113.692 29.9932H115.339Z" fill="#101828"/>
<path d="M122.258 20.9753C122.69 20.2733 123.311 19.7063 124.121 19.2743C124.931 18.8423 125.858 18.6263 126.902 18.6263C128.144 18.6263 129.269 18.9413 130.277 19.5713C131.285 20.2013 132.077 21.1013 132.653 22.2713C133.247 23.4413 133.544 24.8003 133.544 26.3483C133.544 27.8963 133.247 29.2643 132.653 30.4523C132.077 31.6223 131.285 32.5312 130.277 33.1793C129.269 33.8092 128.144 34.1243 126.902 34.1243C125.84 34.1243 124.913 33.9172 124.121 33.5033C123.329 33.0713 122.708 32.5042 122.258 31.8022V33.9083H117.641V13.9283H122.258V20.9753ZM128.846 26.3483C128.846 25.1963 128.522 24.2963 127.874 23.6483C127.244 22.9823 126.461 22.6493 125.525 22.6493C124.607 22.6493 123.824 22.9823 123.176 23.6483C122.546 24.3143 122.231 25.2233 122.231 26.3753C122.231 27.5273 122.546 28.4363 123.176 29.1023C123.824 29.7683 124.607 30.1013 125.525 30.1013C126.443 30.1013 127.226 29.7683 127.874 29.1023C128.522 28.4183 128.846 27.5003 128.846 26.3483Z" fill="#101828"/>
<path d="M142.554 34.1243C141.078 34.1243 139.746 33.8092 138.558 33.1793C137.388 32.5493 136.461 31.6493 135.777 30.4792C135.111 29.3092 134.778 27.9413 134.778 26.3753C134.778 24.8273 135.12 23.4683 135.804 22.2983C136.488 21.1103 137.424 20.2013 138.612 19.5713C139.8 18.9413 141.132 18.6263 142.608 18.6263C144.084 18.6263 145.416 18.9413 146.604 19.5713C147.792 20.2013 148.728 21.1103 149.412 22.2983C150.096 23.4683 150.438 24.8273 150.438 26.3753C150.438 27.9233 150.087 29.2913 149.385 30.4792C148.701 31.6493 147.756 32.5493 146.55 33.1793C145.362 33.8092 144.03 34.1243 142.554 34.1243ZM142.554 30.1283C143.436 30.1283 144.183 29.8043 144.795 29.1562C145.425 28.5082 145.74 27.5813 145.74 26.3753C145.74 25.1693 145.434 24.2423 144.822 23.5943C144.228 22.9463 143.49 22.6223 142.608 22.6223C141.708 22.6223 140.961 22.9463 140.367 23.5943C139.773 24.2243 139.476 25.1513 139.476 26.3753C139.476 27.5813 139.764 28.5082 140.34 29.1562C140.934 29.8043 141.672 30.1283 142.554 30.1283Z" fill="#101828"/>
<path d="M161.528 33.9083L158.639 29.7233L156.209 33.9083H151.214L156.182 26.2133L151.079 18.8423H156.263L159.152 23.0003L161.582 18.8423H166.577L161.528 26.4293L166.712 33.9083H161.528Z" fill="#101828"/>
</svg>
