<svg width="167" height="48" viewBox="0 0 167 48" fill="none" xmlns="http://www.w3.org/2000/svg">
<circle cx="22.1943" cy="24.25" r="20.5" stroke="#6927DA" stroke-width="3"/>
<path d="M30.3264 32.3805C26.187 36.5199 21.4974 39.2221 17.3211 40.296C13.107 41.3796 9.71035 40.7558 7.69894 38.7444C5.68754 36.733 5.06375 33.3364 6.14737 29.1223C7.2213 24.9459 9.92351 20.2564 14.0629 16.117C18.2023 11.9776 22.8918 9.2754 27.0682 8.20148C31.2823 7.11785 34.6789 7.74164 36.6903 9.75305C38.7017 11.7645 39.3255 15.1611 38.2419 19.3752C37.168 23.5515 34.4658 28.2411 30.3264 32.3805Z" stroke="#6927DA" stroke-width="3"/>
<path d="M30.3258 16.119C34.4652 20.2583 37.1674 24.9479 38.2413 29.1242C39.3249 33.3383 38.7011 36.735 36.6897 38.7464C34.6783 40.7578 31.2817 41.3816 27.0676 40.2979C22.8912 39.224 18.2017 36.5218 14.0623 32.3824C9.92293 28.243 7.22071 23.5535 6.14679 19.3771C5.06317 15.163 5.68695 11.7664 7.69836 9.75499C9.70977 7.74358 13.1064 7.1198 17.3205 8.20342C21.4969 9.27734 26.1864 11.9796 30.3258 16.119Z" stroke="#6927DA" stroke-width="3"/>
<path d="M63.0441 34.2386C67.7541 34.2386 70.9341 31.7786 70.9341 27.8486C70.9341 19.5386 59.8941 23.0786 59.8941 18.6986C59.8941 17.4686 61.0041 16.6286 62.7741 16.6286C64.7841 16.6286 66.0441 17.7086 66.1941 19.3586H70.4841C70.3641 15.3686 67.3041 12.7586 62.7741 12.7586C58.5141 12.7586 55.5141 15.2186 55.5141 18.6986C55.5141 26.9486 66.4041 23.7986 66.4041 27.9086C66.4041 29.4986 65.0541 30.3386 63.0441 30.3386C60.8241 30.3386 59.4141 28.9886 59.2341 26.8586H54.9141C55.0941 31.3286 58.2741 34.2386 63.0441 34.2386Z" fill="#101828"/>
<path d="M71.9543 40.1186H76.1243V32.6486C76.9343 33.6686 78.4043 34.2386 80.1143 34.2386C84.4643 34.2386 87.4043 31.1486 87.4043 26.4386C87.4043 21.7286 84.7043 18.6386 80.4743 18.6386C78.5243 18.6386 77.0243 19.3586 76.1243 20.5286V18.8786H71.9543V40.1186ZM79.6043 30.6386C77.3543 30.6386 75.8843 28.9586 75.8843 26.4386C75.8843 23.8886 77.3543 22.2086 79.6043 22.2086C81.7943 22.2086 83.2943 23.8886 83.2943 26.4386C83.2943 28.9586 81.7943 30.6386 79.6043 30.6386Z" fill="#101828"/>
<path d="M88.4133 33.9986H92.5833V25.7186C92.5833 23.7686 93.8733 22.3586 95.7033 22.3586C97.4433 22.3586 98.6433 23.6786 98.6433 25.5086V33.9986H102.813V24.5786C102.813 21.0986 100.593 18.6386 97.2033 18.6386C95.1033 18.6386 93.4533 19.5086 92.5833 20.9786V12.3086H88.4133V33.9986Z" fill="#101828"/>
<path d="M114.479 28.8686C114.149 30.1586 113.039 30.8186 111.359 30.8186C109.259 30.8186 107.909 29.4986 107.609 27.3686H118.469C118.499 27.0386 118.529 26.5886 118.529 26.0186C118.529 22.5686 116.399 18.6386 111.059 18.6386C105.929 18.6386 103.589 22.5686 103.589 26.4086C103.589 30.2186 106.229 34.2386 111.359 34.2386C115.079 34.2386 117.959 32.1386 118.559 28.8686H114.479ZM111.059 21.6986C113.069 21.6986 114.239 23.0486 114.359 24.7286H107.669C108.029 22.6286 109.169 21.6986 111.059 21.6986Z" fill="#101828"/>
<path d="M129.465 22.3586V18.8786H127.313C125.483 18.8786 124.343 19.5086 123.533 21.3986V18.8786H119.333V33.9986H123.533V26.6486C123.533 24.0686 124.463 22.3586 126.533 22.3586H129.465Z" fill="#101828"/>
<path d="M143.865 18.8786H139.665V27.1586C139.665 29.0786 138.375 30.5186 136.545 30.5186C134.835 30.5186 133.635 29.1986 133.635 27.3686V18.8786H129.465V28.2986C129.465 31.7486 131.685 34.2386 135.075 34.2386C137.145 34.2386 138.825 33.3386 139.665 31.8986V33.9986H143.865V18.8786Z" fill="#101828"/>
<path d="M145.665 33.9986H149.835V12.3086H145.665V33.9986Z" fill="#101828"/>
<path d="M161.74 28.8686C161.41 30.1586 160.3 30.8186 158.62 30.8186C156.52 30.8186 155.17 29.4986 154.87 27.3686H165.73C165.76 27.0386 165.79 26.5886 165.79 26.0186C165.79 22.5686 163.66 18.6386 158.32 18.6386C153.19 18.6386 150.85 22.5686 150.85 26.4086C150.85 30.2186 153.49 34.2386 158.62 34.2386C162.34 34.2386 165.22 32.1386 165.82 28.8686H161.74ZM158.32 21.6986C160.33 21.6986 161.5 23.0486 161.62 24.7286H154.93C155.29 22.6286 156.43 21.6986 158.32 21.6986Z" fill="#101828"/>
</svg>
