<svg width="1174" height="765" viewBox="0 0 1174 765" fill="none" xmlns="http://www.w3.org/2000/svg">
<g filter="url(#filter0_ddddd_2908_25657)">
<rect x="420" y="397" width="250.43" height="234.348" rx="18.3802" fill="white"/>
<path d="M472.138 523.578V519.868L469.339 515.59H470.294L472.738 519.311H472.395L474.829 515.59H475.783L472.995 519.868V523.578H472.138ZM478.35 523.707C477.807 523.707 477.314 523.578 476.871 523.321C476.428 523.056 476.074 522.699 475.809 522.249C475.552 521.791 475.423 521.273 475.423 520.694C475.423 520.122 475.552 519.611 475.809 519.161C476.067 518.71 476.413 518.357 476.849 518.099C477.292 517.835 477.793 517.703 478.35 517.703C478.908 517.703 479.405 517.831 479.841 518.089C480.284 518.346 480.63 518.7 480.881 519.15C481.138 519.6 481.267 520.115 481.267 520.694C481.267 521.28 481.134 521.802 480.87 522.259C480.605 522.71 480.252 523.063 479.808 523.321C479.372 523.578 478.886 523.707 478.35 523.707ZM478.35 522.903C478.736 522.903 479.083 522.806 479.39 522.613C479.705 522.42 479.951 522.156 480.13 521.82C480.316 521.484 480.409 521.109 480.409 520.694C480.409 520.279 480.316 519.908 480.13 519.579C479.951 519.25 479.705 518.989 479.39 518.796C479.083 518.603 478.736 518.507 478.35 518.507C477.964 518.507 477.614 518.603 477.3 518.796C476.992 518.989 476.746 519.25 476.56 519.579C476.374 519.908 476.281 520.279 476.281 520.694C476.281 521.109 476.374 521.484 476.56 521.82C476.746 522.156 476.992 522.42 477.3 522.613C477.614 522.806 477.964 522.903 478.35 522.903ZM484.722 523.707C484.322 523.707 483.957 523.614 483.628 523.428C483.3 523.235 483.039 522.971 482.846 522.635C482.66 522.292 482.567 521.898 482.567 521.455V517.831H483.371V521.359C483.371 521.666 483.432 521.938 483.553 522.174C483.682 522.402 483.857 522.581 484.079 522.71C484.307 522.838 484.568 522.903 484.861 522.903C485.154 522.903 485.415 522.838 485.644 522.71C485.873 522.574 486.051 522.384 486.18 522.141C486.309 521.891 486.373 521.595 486.373 521.251V517.831H487.177V523.578H486.373V522.463L486.555 522.506C486.42 522.878 486.187 523.171 485.858 523.385C485.53 523.6 485.151 523.707 484.722 523.707ZM488.831 523.578V517.831H489.635V518.775L489.528 518.635C489.664 518.364 489.867 518.149 490.139 517.992C490.418 517.835 490.754 517.756 491.147 517.756H491.511V518.56H491.008C490.593 518.56 490.261 518.689 490.01 518.946C489.76 519.204 489.635 519.568 489.635 520.04V523.578H488.831ZM493.204 525.937C493.153 525.937 493.086 525.933 493 525.926C492.907 525.919 492.832 525.908 492.775 525.894V525.154C492.925 525.176 493.075 525.186 493.225 525.186C493.518 525.186 493.765 525.097 493.965 524.918C494.172 524.74 494.276 524.472 494.276 524.114V517.831H495.08V524.114C495.08 524.507 494.994 524.84 494.822 525.111C494.651 525.383 494.422 525.587 494.136 525.722C493.858 525.865 493.547 525.937 493.204 525.937ZM494.276 516.77V515.59H495.08V516.77H494.276ZM499.417 523.707C498.874 523.707 498.381 523.578 497.937 523.321C497.494 523.056 497.14 522.699 496.876 522.249C496.619 521.791 496.49 521.273 496.49 520.694C496.49 520.122 496.619 519.611 496.876 519.161C497.133 518.71 497.48 518.357 497.916 518.099C498.359 517.835 498.859 517.703 499.417 517.703C499.974 517.703 500.471 517.831 500.907 518.089C501.35 518.346 501.697 518.7 501.947 519.15C502.205 519.6 502.333 520.115 502.333 520.694C502.333 521.28 502.201 521.802 501.937 522.259C501.672 522.71 501.318 523.063 500.875 523.321C500.439 523.578 499.953 523.707 499.417 523.707ZM499.417 522.903C499.803 522.903 500.15 522.806 500.457 522.613C500.771 522.42 501.018 522.156 501.197 521.82C501.383 521.484 501.476 521.109 501.476 520.694C501.476 520.279 501.383 519.908 501.197 519.579C501.018 519.25 500.771 518.989 500.457 518.796C500.15 518.603 499.803 518.507 499.417 518.507C499.031 518.507 498.681 518.603 498.366 518.796C498.059 518.989 497.812 519.25 497.626 519.579C497.441 519.908 497.348 520.279 497.348 520.694C497.348 521.109 497.441 521.484 497.626 521.82C497.812 522.156 498.059 522.42 498.366 522.613C498.681 522.806 499.031 522.903 499.417 522.903ZM506.657 523.707C506.164 523.707 505.717 523.596 505.317 523.374C504.924 523.146 504.627 522.824 504.427 522.409L504.556 522.292V523.578H503.751V515.462H504.556V519.118L504.427 518.893C504.656 518.528 504.959 518.239 505.338 518.024C505.724 517.81 506.164 517.703 506.657 517.703C507.2 517.703 507.683 517.835 508.105 518.099C508.533 518.357 508.869 518.71 509.112 519.161C509.363 519.611 509.488 520.126 509.488 520.705C509.488 521.277 509.363 521.791 509.112 522.249C508.869 522.699 508.533 523.056 508.105 523.321C507.683 523.578 507.2 523.707 506.657 523.707ZM506.614 522.903C507 522.903 507.343 522.806 507.643 522.613C507.951 522.42 508.19 522.159 508.362 521.83C508.541 521.495 508.63 521.119 508.63 520.705C508.63 520.283 508.541 519.908 508.362 519.579C508.19 519.25 507.951 518.989 507.643 518.796C507.343 518.603 507 518.507 506.614 518.507C506.228 518.507 505.878 518.603 505.563 518.796C505.256 518.989 505.01 519.254 504.824 519.59C504.645 519.918 504.556 520.29 504.556 520.705C504.556 521.119 504.645 521.495 504.824 521.83C505.01 522.159 505.256 522.42 505.563 522.613C505.878 522.806 506.228 522.903 506.614 522.903ZM512.725 523.578V515.462H513.529V518.946L513.347 518.903C513.49 518.532 513.722 518.239 514.043 518.024C514.372 517.81 514.751 517.703 515.18 517.703C515.587 517.703 515.952 517.796 516.274 517.981C516.602 518.167 516.86 518.425 517.046 518.753C517.239 519.075 517.335 519.44 517.335 519.847V523.578H516.531V520.158C516.531 519.808 516.467 519.511 516.338 519.268C516.209 519.025 516.031 518.839 515.802 518.71C515.58 518.575 515.327 518.507 515.041 518.507C514.755 518.507 514.497 518.575 514.269 518.71C514.04 518.839 513.858 519.029 513.722 519.279C513.593 519.522 513.529 519.815 513.529 520.158V523.578H512.725ZM520.533 523.707C520.168 523.707 519.843 523.639 519.557 523.503C519.271 523.36 519.046 523.167 518.882 522.924C518.717 522.681 518.635 522.402 518.635 522.088C518.635 521.788 518.699 521.516 518.828 521.273C518.957 521.023 519.157 520.812 519.428 520.64C519.7 520.469 520.047 520.347 520.468 520.276L522.72 519.901V520.63L520.661 520.973C520.247 521.044 519.947 521.176 519.761 521.369C519.582 521.562 519.493 521.791 519.493 522.056C519.493 522.313 519.593 522.531 519.793 522.71C520 522.888 520.265 522.978 520.586 522.978C520.979 522.978 521.323 522.896 521.616 522.731C521.909 522.56 522.137 522.331 522.302 522.045C522.466 521.759 522.548 521.441 522.548 521.091V519.633C522.548 519.289 522.423 519.011 522.173 518.796C521.923 518.582 521.598 518.475 521.198 518.475C520.847 518.475 520.54 518.564 520.275 518.743C520.011 518.914 519.814 519.139 519.686 519.418L518.957 519.021C519.064 518.778 519.232 518.557 519.461 518.357C519.696 518.156 519.965 517.999 520.265 517.885C520.565 517.763 520.876 517.703 521.198 517.703C521.619 517.703 521.991 517.785 522.313 517.949C522.641 518.114 522.895 518.342 523.074 518.635C523.26 518.921 523.353 519.254 523.353 519.633V523.578H522.548V522.431L522.666 522.549C522.566 522.763 522.409 522.96 522.195 523.139C521.987 523.31 521.741 523.449 521.455 523.557C521.176 523.657 520.869 523.707 520.533 523.707ZM527.001 523.707C526.45 523.707 525.968 523.567 525.553 523.289C525.139 523.01 524.839 522.631 524.653 522.152L525.328 521.83C525.493 522.181 525.721 522.459 526.014 522.667C526.315 522.874 526.643 522.978 527.001 522.978C527.344 522.978 527.633 522.896 527.869 522.731C528.105 522.56 528.223 522.338 528.223 522.066C528.223 521.866 528.166 521.709 528.052 521.595C527.937 521.473 527.805 521.38 527.655 521.316C527.505 521.251 527.373 521.205 527.258 521.176L526.433 520.941C525.904 520.79 525.521 520.58 525.285 520.308C525.049 520.036 524.932 519.722 524.932 519.364C524.932 519.029 525.017 518.735 525.189 518.485C525.36 518.235 525.593 518.042 525.886 517.906C526.179 517.77 526.504 517.703 526.861 517.703C527.348 517.703 527.787 517.831 528.18 518.089C528.581 518.339 528.863 518.689 529.027 519.139L528.341 519.461C528.198 519.139 527.991 518.889 527.719 518.71C527.455 518.525 527.158 518.432 526.829 518.432C526.508 518.432 526.25 518.514 526.057 518.678C525.864 518.843 525.768 519.05 525.768 519.3C525.768 519.493 525.818 519.647 525.918 519.761C526.018 519.876 526.132 519.961 526.261 520.018C526.397 520.076 526.515 520.119 526.615 520.147L527.569 520.426C528.034 520.562 528.395 520.773 528.652 521.059C528.916 521.344 529.049 521.68 529.049 522.066C529.049 522.381 528.959 522.663 528.781 522.913C528.609 523.164 528.37 523.36 528.062 523.503C527.755 523.639 527.401 523.707 527.001 523.707ZM535.189 523.707C534.696 523.707 534.249 523.596 533.849 523.374C533.456 523.146 533.159 522.824 532.959 522.409L533.088 522.292V523.578H532.284V515.462H533.088V519.118L532.959 518.893C533.188 518.528 533.492 518.239 533.87 518.024C534.256 517.81 534.696 517.703 535.189 517.703C535.732 517.703 536.215 517.835 536.637 518.099C537.065 518.357 537.401 518.71 537.644 519.161C537.895 519.611 538.02 520.126 538.02 520.705C538.02 521.277 537.895 521.791 537.644 522.249C537.401 522.699 537.065 523.056 536.637 523.321C536.215 523.578 535.732 523.707 535.189 523.707ZM535.146 522.903C535.532 522.903 535.875 522.806 536.176 522.613C536.483 522.42 536.722 522.159 536.894 521.83C537.073 521.495 537.162 521.119 537.162 520.705C537.162 520.283 537.073 519.908 536.894 519.579C536.722 519.25 536.483 518.989 536.176 518.796C535.875 518.603 535.532 518.507 535.146 518.507C534.76 518.507 534.41 518.603 534.096 518.796C533.788 518.989 533.542 519.254 533.356 519.59C533.177 519.918 533.088 520.29 533.088 520.705C533.088 521.119 533.177 521.495 533.356 521.83C533.542 522.159 533.788 522.42 534.096 522.613C534.41 522.806 534.76 522.903 535.146 522.903ZM542.051 523.707C541.515 523.707 541.029 523.578 540.593 523.321C540.164 523.056 539.824 522.695 539.574 522.238C539.324 521.78 539.199 521.262 539.199 520.683C539.199 520.104 539.321 519.593 539.564 519.15C539.807 518.7 540.135 518.346 540.55 518.089C540.972 517.831 541.443 517.703 541.965 517.703C542.38 517.703 542.748 517.781 543.07 517.938C543.398 518.089 543.677 518.296 543.906 518.56C544.135 518.818 544.31 519.111 544.431 519.44C544.553 519.761 544.614 520.094 544.614 520.437C544.614 520.508 544.61 520.59 544.603 520.683C544.596 520.769 544.585 520.858 544.571 520.951H539.714V520.201H544.11L543.724 520.522C543.788 520.129 543.742 519.779 543.584 519.472C543.434 519.157 543.216 518.911 542.93 518.732C542.644 518.546 542.323 518.453 541.965 518.453C541.608 518.453 541.276 518.546 540.968 518.732C540.668 518.918 540.432 519.179 540.261 519.515C540.089 519.843 540.021 520.237 540.057 520.694C540.021 521.151 540.093 521.552 540.271 521.895C540.457 522.231 540.707 522.492 541.022 522.677C541.343 522.863 541.687 522.956 542.051 522.956C542.473 522.956 542.827 522.856 543.113 522.656C543.398 522.456 543.631 522.206 543.809 521.906L544.496 522.27C544.381 522.527 544.206 522.767 543.97 522.988C543.734 523.203 543.452 523.378 543.123 523.514C542.802 523.642 542.444 523.707 542.051 523.707ZM548.647 523.707C548.111 523.707 547.625 523.578 547.189 523.321C546.76 523.056 546.421 522.695 546.171 522.238C545.921 521.78 545.795 521.262 545.795 520.683C545.795 520.104 545.917 519.593 546.16 519.15C546.403 518.7 546.732 518.346 547.146 518.089C547.568 517.831 548.04 517.703 548.562 517.703C548.976 517.703 549.344 517.781 549.666 517.938C549.995 518.089 550.274 518.296 550.502 518.56C550.731 518.818 550.906 519.111 551.028 519.44C551.149 519.761 551.21 520.094 551.21 520.437C551.21 520.508 551.206 520.59 551.199 520.683C551.192 520.769 551.181 520.858 551.167 520.951H546.31V520.201H550.706L550.32 520.522C550.384 520.129 550.338 519.779 550.181 519.472C550.031 519.157 549.813 518.911 549.527 518.732C549.241 518.546 548.919 518.453 548.562 518.453C548.204 518.453 547.872 518.546 547.565 518.732C547.264 518.918 547.028 519.179 546.857 519.515C546.685 519.843 546.617 520.237 546.653 520.694C546.617 521.151 546.689 521.552 546.868 521.895C547.053 522.231 547.304 522.492 547.618 522.677C547.94 522.863 548.283 522.956 548.647 522.956C549.069 522.956 549.423 522.856 549.709 522.656C549.995 522.456 550.227 522.206 550.406 521.906L551.092 522.27C550.978 522.527 550.803 522.767 550.567 522.988C550.331 523.203 550.048 523.378 549.72 523.514C549.398 523.642 549.041 523.707 548.647 523.707ZM552.628 523.578V517.831H553.432V518.946L553.25 518.903C553.393 518.532 553.625 518.239 553.947 518.024C554.275 517.81 554.654 517.703 555.083 517.703C555.49 517.703 555.855 517.796 556.177 517.981C556.505 518.167 556.763 518.425 556.949 518.753C557.142 519.075 557.238 519.44 557.238 519.847V523.578H556.434V520.158C556.434 519.808 556.37 519.511 556.241 519.268C556.119 519.025 555.944 518.839 555.716 518.71C555.494 518.575 555.237 518.507 554.944 518.507C554.651 518.507 554.39 518.575 554.161 518.71C553.932 518.839 553.754 519.029 553.625 519.279C553.496 519.522 553.432 519.815 553.432 520.158V523.578H552.628ZM562.59 523.707C562.04 523.707 561.557 523.567 561.143 523.289C560.728 523.01 560.428 522.631 560.242 522.152L560.917 521.83C561.082 522.181 561.311 522.459 561.604 522.667C561.904 522.874 562.233 522.978 562.59 522.978C562.933 522.978 563.223 522.896 563.459 522.731C563.694 522.56 563.812 522.338 563.812 522.066C563.812 521.866 563.755 521.709 563.641 521.595C563.526 521.473 563.394 521.38 563.244 521.316C563.094 521.251 562.962 521.205 562.847 521.176L562.022 520.941C561.493 520.79 561.11 520.58 560.875 520.308C560.639 520.036 560.521 519.722 560.521 519.364C560.521 519.029 560.607 518.735 560.778 518.485C560.95 518.235 561.182 518.042 561.475 517.906C561.768 517.77 562.093 517.703 562.451 517.703C562.937 517.703 563.376 517.831 563.769 518.089C564.17 518.339 564.452 518.689 564.616 519.139L563.93 519.461C563.787 519.139 563.58 518.889 563.308 518.71C563.044 518.525 562.747 518.432 562.418 518.432C562.097 518.432 561.84 518.514 561.647 518.678C561.454 518.843 561.357 519.05 561.357 519.3C561.357 519.493 561.407 519.647 561.507 519.761C561.607 519.876 561.722 519.961 561.85 520.018C561.986 520.076 562.104 520.119 562.204 520.147L563.158 520.426C563.623 520.562 563.984 520.773 564.241 521.059C564.506 521.344 564.638 521.68 564.638 522.066C564.638 522.381 564.549 522.663 564.37 522.913C564.198 523.164 563.959 523.36 563.652 523.503C563.344 523.639 562.99 523.707 562.59 523.707ZM568.088 523.707C567.688 523.707 567.323 523.614 566.994 523.428C566.666 523.235 566.405 522.971 566.212 522.635C566.026 522.292 565.933 521.898 565.933 521.455V517.831H566.737V521.359C566.737 521.666 566.798 521.938 566.919 522.174C567.048 522.402 567.223 522.581 567.445 522.71C567.673 522.838 567.934 522.903 568.227 522.903C568.521 522.903 568.781 522.838 569.01 522.71C569.239 522.574 569.418 522.384 569.546 522.141C569.675 521.891 569.739 521.595 569.739 521.251V517.831H570.543V523.578H569.739V522.463L569.921 522.506C569.786 522.878 569.553 523.171 569.225 523.385C568.896 523.6 568.517 523.707 568.088 523.707ZM574.824 523.707C574.259 523.707 573.762 523.575 573.334 523.31C572.905 523.046 572.569 522.688 572.326 522.238C572.083 521.78 571.961 521.266 571.961 520.694C571.961 520.122 572.083 519.611 572.326 519.161C572.569 518.71 572.905 518.357 573.334 518.099C573.762 517.835 574.259 517.703 574.824 517.703C575.181 517.703 575.517 517.767 575.832 517.896C576.146 518.024 576.425 518.199 576.668 518.421C576.911 518.635 577.093 518.886 577.215 519.171L576.486 519.547C576.343 519.239 576.125 518.989 575.832 518.796C575.539 518.603 575.203 518.507 574.824 518.507C574.445 518.507 574.102 518.603 573.795 518.796C573.494 518.982 573.255 519.243 573.076 519.579C572.905 519.908 572.819 520.283 572.819 520.705C572.819 521.119 572.905 521.495 573.076 521.83C573.255 522.159 573.494 522.42 573.795 522.613C574.102 522.806 574.445 522.903 574.824 522.903C575.203 522.903 575.535 522.806 575.821 522.613C576.114 522.42 576.336 522.163 576.486 521.841L577.215 522.238C577.093 522.517 576.911 522.767 576.668 522.988C576.425 523.21 576.146 523.385 575.832 523.514C575.517 523.642 575.181 523.707 574.824 523.707ZM581.253 523.707C580.688 523.707 580.191 523.575 579.763 523.31C579.334 523.046 578.998 522.688 578.755 522.238C578.512 521.78 578.39 521.266 578.39 520.694C578.39 520.122 578.512 519.611 578.755 519.161C578.998 518.71 579.334 518.357 579.763 518.099C580.191 517.835 580.688 517.703 581.253 517.703C581.61 517.703 581.946 517.767 582.261 517.896C582.575 518.024 582.854 518.199 583.097 518.421C583.34 518.635 583.522 518.886 583.644 519.171L582.915 519.547C582.772 519.239 582.554 518.989 582.261 518.796C581.968 518.603 581.632 518.507 581.253 518.507C580.874 518.507 580.531 518.603 580.224 518.796C579.923 518.982 579.684 519.243 579.505 519.579C579.334 519.908 579.248 520.283 579.248 520.705C579.248 521.119 579.334 521.495 579.505 521.83C579.684 522.159 579.923 522.42 580.224 522.613C580.531 522.806 580.874 522.903 581.253 522.903C581.632 522.903 581.964 522.806 582.25 522.613C582.543 522.42 582.765 522.163 582.915 521.841L583.644 522.238C583.522 522.517 583.34 522.767 583.097 522.988C582.854 523.21 582.575 523.385 582.261 523.514C581.946 523.642 581.61 523.707 581.253 523.707ZM587.671 523.707C587.135 523.707 586.649 523.578 586.213 523.321C585.784 523.056 585.444 522.695 585.194 522.238C584.944 521.78 584.819 521.262 584.819 520.683C584.819 520.104 584.941 519.593 585.184 519.15C585.427 518.7 585.755 518.346 586.17 518.089C586.592 517.831 587.063 517.703 587.585 517.703C588 517.703 588.368 517.781 588.69 517.938C589.018 518.089 589.297 518.296 589.526 518.56C589.755 518.818 589.93 519.111 590.051 519.44C590.173 519.761 590.233 520.094 590.233 520.437C590.233 520.508 590.23 520.59 590.223 520.683C590.216 520.769 590.205 520.858 590.191 520.951H585.334V520.201H589.73L589.344 520.522C589.408 520.129 589.361 519.779 589.204 519.472C589.054 519.157 588.836 518.911 588.55 518.732C588.264 518.546 587.943 518.453 587.585 518.453C587.228 518.453 586.895 518.546 586.588 518.732C586.288 518.918 586.052 519.179 585.88 519.515C585.709 519.843 585.641 520.237 585.677 520.694C585.641 521.151 585.712 521.552 585.891 521.895C586.077 522.231 586.327 522.492 586.642 522.677C586.963 522.863 587.306 522.956 587.671 522.956C588.093 522.956 588.447 522.856 588.732 522.656C589.018 522.456 589.251 522.206 589.429 521.906L590.116 522.27C590.001 522.527 589.826 522.767 589.59 522.988C589.354 523.203 589.072 523.378 588.743 523.514C588.422 523.642 588.064 523.707 587.671 523.707ZM593.646 523.707C593.095 523.707 592.613 523.567 592.198 523.289C591.784 523.01 591.483 522.631 591.297 522.152L591.973 521.83C592.137 522.181 592.366 522.459 592.659 522.667C592.959 522.874 593.288 522.978 593.646 522.978C593.989 522.978 594.278 522.896 594.514 522.731C594.75 522.56 594.868 522.338 594.868 522.066C594.868 521.866 594.811 521.709 594.696 521.595C594.582 521.473 594.45 521.38 594.3 521.316C594.149 521.251 594.017 521.205 593.903 521.176L593.077 520.941C592.548 520.79 592.166 520.58 591.93 520.308C591.694 520.036 591.576 519.722 591.576 519.364C591.576 519.029 591.662 518.735 591.834 518.485C592.005 518.235 592.237 518.042 592.53 517.906C592.824 517.77 593.149 517.703 593.506 517.703C593.992 517.703 594.432 517.831 594.825 518.089C595.225 518.339 595.508 518.689 595.672 519.139L594.986 519.461C594.843 519.139 594.636 518.889 594.364 518.71C594.099 518.525 593.803 518.432 593.474 518.432C593.152 518.432 592.895 518.514 592.702 518.678C592.509 518.843 592.413 519.05 592.413 519.3C592.413 519.493 592.463 519.647 592.563 519.761C592.663 519.876 592.777 519.961 592.906 520.018C593.042 520.076 593.159 520.119 593.26 520.147L594.214 520.426C594.678 520.562 595.039 520.773 595.297 521.059C595.561 521.344 595.693 521.68 595.693 522.066C595.693 522.381 595.604 522.663 595.425 522.913C595.254 523.164 595.014 523.36 594.707 523.503C594.4 523.639 594.046 523.707 593.646 523.707ZM599.101 523.707C598.55 523.707 598.068 523.567 597.653 523.289C597.239 523.01 596.938 522.631 596.753 522.152L597.428 521.83C597.592 522.181 597.821 522.459 598.114 522.667C598.414 522.874 598.743 522.978 599.101 522.978C599.444 522.978 599.733 522.896 599.969 522.731C600.205 522.56 600.323 522.338 600.323 522.066C600.323 521.866 600.266 521.709 600.151 521.595C600.037 521.473 599.905 521.38 599.755 521.316C599.605 521.251 599.472 521.205 599.358 521.176L598.532 520.941C598.003 520.79 597.621 520.58 597.385 520.308C597.149 520.036 597.031 519.722 597.031 519.364C597.031 519.029 597.117 518.735 597.289 518.485C597.46 518.235 597.693 518.042 597.986 517.906C598.279 517.77 598.604 517.703 598.961 517.703C599.447 517.703 599.887 517.831 600.28 518.089C600.68 518.339 600.963 518.689 601.127 519.139L600.441 519.461C600.298 519.139 600.091 518.889 599.819 518.71C599.555 518.525 599.258 518.432 598.929 518.432C598.607 518.432 598.35 518.514 598.157 518.678C597.964 518.843 597.868 519.05 597.868 519.3C597.868 519.493 597.918 519.647 598.018 519.761C598.118 519.876 598.232 519.961 598.361 520.018C598.497 520.076 598.615 520.119 598.715 520.147L599.669 520.426C600.134 520.562 600.494 520.773 600.752 521.059C601.016 521.344 601.149 521.68 601.149 522.066C601.149 522.381 601.059 522.663 600.88 522.913C600.709 523.164 600.469 523.36 600.162 523.503C599.855 523.639 599.501 523.707 599.101 523.707ZM603.151 523.578V518.635H602.004V517.831H603.151V517.317C603.151 516.916 603.241 516.58 603.419 516.309C603.598 516.03 603.834 515.819 604.127 515.676C604.42 515.533 604.734 515.462 605.07 515.462C605.142 515.462 605.224 515.469 605.317 515.483C605.41 515.49 605.485 515.501 605.542 515.515V516.244C605.492 516.23 605.424 516.223 605.338 516.223C605.253 516.216 605.192 516.212 605.156 516.212C604.813 516.212 604.527 516.294 604.298 516.459C604.07 516.623 603.955 516.909 603.955 517.317V517.831H605.36V518.635H603.955V523.578H603.151ZM608.808 523.707C608.408 523.707 608.043 523.614 607.714 523.428C607.385 523.235 607.124 522.971 606.932 522.635C606.746 522.292 606.653 521.898 606.653 521.455V517.831H607.457V521.359C607.457 521.666 607.518 521.938 607.639 522.174C607.768 522.402 607.943 522.581 608.165 522.71C608.393 522.838 608.654 522.903 608.947 522.903C609.24 522.903 609.501 522.838 609.73 522.71C609.959 522.574 610.137 522.384 610.266 522.141C610.395 521.891 610.459 521.595 610.459 521.251V517.831H611.263V523.578H610.459V522.463L610.641 522.506C610.505 522.878 610.273 523.171 609.944 523.385C609.616 523.6 609.237 523.707 608.808 523.707ZM612.917 523.578V515.462H613.721V523.578H612.917ZM615.367 523.578V515.462H616.171V523.578H615.367ZM617.935 525.937C617.821 525.937 617.703 525.926 617.581 525.905C617.467 525.89 617.352 525.862 617.238 525.819V525.068C617.31 525.076 617.399 525.086 617.506 525.101C617.62 525.122 617.735 525.133 617.849 525.133C618.199 525.133 618.468 525.058 618.653 524.908C618.839 524.765 619.021 524.486 619.2 524.071L619.565 523.214L619.543 523.921L617.109 517.831H617.978L619.972 522.86H619.747L621.731 517.831H622.62L619.994 524.307C619.879 524.586 619.733 524.85 619.554 525.101C619.382 525.351 619.164 525.551 618.9 525.701C618.635 525.858 618.314 525.937 617.935 525.937ZM526.63 543.722V535.831H527.434V537.118L527.305 536.893C527.534 536.528 527.837 536.239 528.216 536.024C528.602 535.81 529.042 535.703 529.535 535.703C530.078 535.703 530.561 535.835 530.983 536.099C531.411 536.357 531.747 536.71 531.99 537.161C532.241 537.611 532.366 538.126 532.366 538.705C532.366 539.277 532.241 539.791 531.99 540.249C531.747 540.699 531.411 541.056 530.983 541.321C530.561 541.578 530.078 541.707 529.535 541.707C529.042 541.707 528.595 541.596 528.195 541.374C527.802 541.146 527.505 540.824 527.305 540.409L527.434 540.292V543.722H526.63ZM529.492 540.903C529.878 540.903 530.221 540.806 530.522 540.613C530.829 540.42 531.068 540.159 531.24 539.83C531.419 539.495 531.508 539.119 531.508 538.705C531.508 538.283 531.419 537.908 531.24 537.579C531.068 537.25 530.829 536.989 530.522 536.796C530.221 536.603 529.878 536.507 529.492 536.507C529.106 536.507 528.756 536.603 528.441 536.796C528.134 536.989 527.888 537.254 527.702 537.59C527.523 537.918 527.434 538.29 527.434 538.705C527.434 539.119 527.523 539.495 527.702 539.83C527.888 540.159 528.134 540.42 528.441 540.613C528.756 540.806 529.106 540.903 529.492 540.903ZM536.472 541.707C535.929 541.707 535.436 541.578 534.992 541.321C534.549 541.056 534.195 540.699 533.931 540.249C533.674 539.791 533.545 539.273 533.545 538.694C533.545 538.122 533.674 537.611 533.931 537.161C534.188 536.71 534.535 536.357 534.971 536.099C535.414 535.835 535.914 535.703 536.472 535.703C537.03 535.703 537.526 535.831 537.962 536.089C538.406 536.346 538.752 536.7 539.002 537.15C539.26 537.6 539.388 538.115 539.388 538.694C539.388 539.28 539.256 539.802 538.992 540.259C538.727 540.71 538.373 541.063 537.93 541.321C537.494 541.578 537.008 541.707 536.472 541.707ZM536.472 540.903C536.858 540.903 537.205 540.806 537.512 540.613C537.827 540.42 538.073 540.156 538.252 539.82C538.438 539.484 538.531 539.109 538.531 538.694C538.531 538.279 538.438 537.908 538.252 537.579C538.073 537.25 537.827 536.989 537.512 536.796C537.205 536.603 536.858 536.507 536.472 536.507C536.086 536.507 535.736 536.603 535.421 536.796C535.114 536.989 534.867 537.25 534.681 537.579C534.496 537.908 534.403 538.279 534.403 538.694C534.403 539.109 534.496 539.484 534.681 539.82C534.867 540.156 535.114 540.42 535.421 540.613C535.736 540.806 536.086 540.903 536.472 540.903ZM542.801 541.707C542.25 541.707 541.768 541.567 541.353 541.289C540.939 541.01 540.639 540.631 540.453 540.152L541.128 539.83C541.293 540.181 541.521 540.459 541.814 540.667C542.115 540.874 542.443 540.978 542.801 540.978C543.144 540.978 543.433 540.896 543.669 540.731C543.905 540.56 544.023 540.338 544.023 540.066C544.023 539.866 543.966 539.709 543.852 539.595C543.737 539.473 543.605 539.38 543.455 539.316C543.305 539.251 543.172 539.205 543.058 539.176L542.233 538.941C541.704 538.79 541.321 538.58 541.085 538.308C540.849 538.036 540.732 537.722 540.732 537.364C540.732 537.029 540.817 536.735 540.989 536.485C541.16 536.235 541.393 536.042 541.686 535.906C541.979 535.77 542.304 535.703 542.661 535.703C543.147 535.703 543.587 535.831 543.98 536.089C544.38 536.339 544.663 536.689 544.827 537.139L544.141 537.461C543.998 537.139 543.791 536.889 543.519 536.71C543.255 536.525 542.958 536.432 542.629 536.432C542.308 536.432 542.05 536.514 541.857 536.678C541.664 536.843 541.568 537.05 541.568 537.3C541.568 537.493 541.618 537.647 541.718 537.761C541.818 537.876 541.932 537.961 542.061 538.018C542.197 538.076 542.315 538.119 542.415 538.147L543.369 538.426C543.834 538.562 544.195 538.773 544.452 539.059C544.716 539.344 544.849 539.68 544.849 540.066C544.849 540.381 544.759 540.663 544.581 540.913C544.409 541.164 544.17 541.36 543.862 541.503C543.555 541.639 543.201 541.707 542.801 541.707ZM548.46 541.642C547.945 541.642 547.548 541.492 547.27 541.192C546.991 540.892 546.851 540.463 546.851 539.906V536.635H545.79V535.831H546.058C546.301 535.831 546.494 535.753 546.637 535.595C546.78 535.431 546.851 535.227 546.851 534.984V534.502H547.656V535.831H548.921V536.635H547.656V539.906C547.656 540.099 547.684 540.27 547.741 540.42C547.798 540.563 547.895 540.677 548.031 540.763C548.174 540.849 548.363 540.892 548.599 540.892C548.656 540.892 548.724 540.888 548.803 540.881C548.881 540.874 548.949 540.867 549.006 540.86V541.578C548.921 541.6 548.824 541.614 548.717 541.621C548.61 541.635 548.524 541.642 548.46 541.642ZM552.825 541.707C552.289 541.707 551.803 541.578 551.367 541.321C550.938 541.056 550.599 540.695 550.348 540.238C550.098 539.78 549.973 539.262 549.973 538.683C549.973 538.104 550.095 537.593 550.338 537.15C550.581 536.7 550.91 536.346 551.324 536.089C551.746 535.831 552.218 535.703 552.739 535.703C553.154 535.703 553.522 535.781 553.844 535.938C554.173 536.089 554.451 536.296 554.68 536.56C554.909 536.818 555.084 537.111 555.205 537.44C555.327 537.761 555.388 538.094 555.388 538.437C555.388 538.508 555.384 538.59 555.377 538.683C555.37 538.769 555.359 538.858 555.345 538.951H550.488V538.201H554.884L554.498 538.522C554.562 538.129 554.516 537.779 554.358 537.472C554.208 537.157 553.99 536.911 553.704 536.732C553.418 536.546 553.097 536.453 552.739 536.453C552.382 536.453 552.05 536.546 551.742 536.732C551.442 536.918 551.206 537.179 551.035 537.515C550.863 537.843 550.795 538.237 550.831 538.694C550.795 539.151 550.867 539.552 551.045 539.895C551.231 540.231 551.481 540.492 551.796 540.677C552.118 540.863 552.461 540.956 552.825 540.956C553.247 540.956 553.601 540.856 553.887 540.656C554.173 540.456 554.405 540.206 554.584 539.906L555.27 540.27C555.155 540.527 554.98 540.767 554.744 540.988C554.508 541.203 554.226 541.378 553.897 541.514C553.576 541.642 553.218 541.707 552.825 541.707ZM559.4 541.707C558.864 541.707 558.382 541.578 557.953 541.321C557.524 541.056 557.184 540.699 556.934 540.249C556.691 539.791 556.57 539.277 556.57 538.705C556.57 538.126 556.691 537.611 556.934 537.161C557.184 536.71 557.52 536.357 557.942 536.099C558.371 535.835 558.857 535.703 559.4 535.703C559.893 535.703 560.333 535.81 560.719 536.024C561.105 536.239 561.409 536.528 561.63 536.893L561.502 537.118V533.462H562.306V541.578H561.502V540.292L561.63 540.409C561.43 540.824 561.13 541.146 560.73 541.374C560.337 541.596 559.893 541.707 559.4 541.707ZM559.443 540.903C559.829 540.903 560.176 540.806 560.483 540.613C560.798 540.42 561.044 540.159 561.223 539.83C561.409 539.495 561.502 539.119 561.502 538.705C561.502 538.29 561.409 537.918 561.223 537.59C561.044 537.254 560.798 536.989 560.483 536.796C560.176 536.603 559.829 536.507 559.443 536.507C559.064 536.507 558.721 536.603 558.414 536.796C558.106 536.989 557.863 537.25 557.685 537.579C557.513 537.908 557.427 538.283 557.427 538.705C557.427 539.119 557.513 539.495 557.685 539.83C557.863 540.159 558.103 540.42 558.403 540.613C558.71 540.806 559.057 540.903 559.443 540.903ZM564.268 539.284L564.214 533.59H565.072L565.018 539.284H564.268ZM564.214 541.578V540.399H565.072V541.578H564.214Z" fill="#7B7B7B"/>
<g opacity="0.4">
<rect x="441.443" y="562.422" width="102.623" height="30.6337" rx="7.65842" fill="url(#paint0_linear_2908_25657)"/>
</g>
<g opacity="0.4">
<rect x="545.598" y="562.422" width="102.623" height="30.6337" rx="7.65842" fill="url(#paint1_linear_2908_25657)"/>
</g>
<path d="M569.391 465.484C570.324 464.398 570.977 463.101 571.295 461.705C571.613 460.31 571.585 458.858 571.214 457.475C570.844 456.092 570.142 454.821 569.169 453.771C568.196 452.721 566.981 451.925 565.63 451.451C565.895 450.044 565.812 448.594 565.39 447.226C564.967 445.858 564.217 444.615 563.205 443.602C562.192 442.59 560.948 441.84 559.581 441.418C558.213 440.995 556.763 440.913 555.356 441.178C554.882 439.827 554.086 438.612 553.036 437.639C551.986 436.665 550.715 435.963 549.332 435.593C547.949 435.222 546.497 435.195 545.101 435.513C543.705 435.831 542.408 436.485 541.323 437.419C540.237 436.486 538.94 435.832 537.544 435.515C536.148 435.197 534.696 435.224 533.313 435.595C531.931 435.965 530.659 436.668 529.609 437.641C528.56 438.614 527.763 439.828 527.289 441.179C525.882 440.915 524.432 440.998 523.065 441.42C521.697 441.843 520.454 442.593 519.442 443.605C518.43 444.618 517.68 445.862 517.258 447.229C516.835 448.597 516.753 450.047 517.017 451.453C515.667 451.927 514.452 452.724 513.479 453.774C512.506 454.824 511.804 456.095 511.433 457.478C511.063 458.86 511.035 460.312 511.353 461.708C511.671 463.104 512.324 464.401 513.257 465.487C512.324 466.573 511.67 467.87 511.352 469.266C511.035 470.662 511.062 472.114 511.433 473.497C511.803 474.88 512.506 476.151 513.479 477.201C514.453 478.25 515.668 479.047 517.019 479.52C516.754 480.927 516.836 482.377 517.259 483.745C517.681 485.113 518.431 486.356 519.443 487.368C520.456 488.381 521.699 489.13 523.067 489.553C524.435 489.975 525.885 490.057 527.292 489.792C527.766 491.143 528.562 492.357 529.612 493.33C530.662 494.303 531.933 495.006 533.316 495.376C534.699 495.747 536.151 495.774 537.546 495.456C538.942 495.139 540.239 494.485 541.325 493.553C542.411 494.485 543.708 495.139 545.104 495.457C546.5 495.775 547.952 495.747 549.335 495.377C550.718 495.006 551.989 494.303 553.039 493.33C554.089 492.357 554.885 491.142 555.359 489.791C556.765 490.056 558.216 489.973 559.583 489.551C560.951 489.128 562.195 488.378 563.207 487.366C564.219 486.354 564.969 485.11 565.392 483.742C565.814 482.375 565.897 480.925 565.632 479.518C566.982 479.044 568.197 478.247 569.17 477.197C570.143 476.148 570.846 474.876 571.216 473.493C571.586 472.111 571.614 470.658 571.296 469.263C570.978 467.867 570.324 466.57 569.391 465.484Z" fill="#4CAF50" fill-opacity="0.24"/>
<path d="M535.905 477.008L527.515 468.623C527.196 468.304 527.018 467.872 527.018 467.421C527.018 466.971 527.196 466.539 527.515 466.22L528.534 465.199C528.853 464.881 529.285 464.702 529.736 464.702C530.187 464.702 530.619 464.881 530.938 465.199L537.037 471.294L551.4 456.03C551.709 455.703 552.136 455.511 552.586 455.497C553.036 455.483 553.474 455.649 553.802 455.957L554.849 456.945C555.178 457.254 555.37 457.681 555.383 458.132C555.397 458.582 555.231 459.02 554.922 459.349L538.349 476.97C538.193 477.137 538.005 477.27 537.797 477.362C537.588 477.454 537.363 477.504 537.135 477.507C536.907 477.511 536.681 477.468 536.469 477.383C536.258 477.297 536.066 477.17 535.905 477.008Z" fill="white" fill-opacity="0.24"/>
<path d="M572.456 463.953C573.389 462.867 574.042 461.57 574.36 460.174C574.678 458.779 574.65 457.326 574.28 455.944C573.909 454.561 573.207 453.29 572.234 452.24C571.261 451.19 570.046 450.394 568.696 449.919C568.96 448.513 568.878 447.063 568.455 445.695C568.032 444.327 567.282 443.083 566.27 442.071C565.258 441.059 564.014 440.309 562.646 439.887C561.278 439.464 559.828 439.382 558.422 439.647C557.948 438.296 557.151 437.081 556.102 436.107C555.052 435.134 553.78 434.432 552.397 434.061C551.015 433.691 549.562 433.664 548.166 433.982C546.771 434.3 545.474 434.954 544.388 435.887C543.302 434.955 542.005 434.301 540.609 433.983C539.214 433.666 537.761 433.693 536.379 434.064C534.996 434.434 533.725 435.137 532.675 436.11C531.625 437.083 530.829 438.297 530.354 439.648C528.948 439.383 527.498 439.466 526.13 439.889C524.763 440.312 523.519 441.062 522.507 442.074C521.495 443.086 520.745 444.33 520.323 445.698C519.901 447.065 519.818 448.515 520.083 449.922C518.732 450.396 517.518 451.193 516.545 452.243C515.571 453.292 514.869 454.564 514.499 455.946C514.128 457.329 514.101 458.781 514.418 460.177C514.736 461.573 515.39 462.87 516.322 463.956C515.389 465.042 514.736 466.339 514.418 467.735C514.1 469.13 514.128 470.583 514.498 471.966C514.869 473.348 515.571 474.62 516.545 475.669C517.518 476.719 518.733 477.515 520.084 477.989C519.819 479.396 519.902 480.846 520.324 482.214C520.747 483.581 521.496 484.825 522.509 485.837C523.521 486.849 524.765 487.599 526.133 488.021C527.5 488.444 528.95 488.526 530.357 488.261C530.831 489.611 531.628 490.826 532.678 491.799C533.727 492.772 534.999 493.474 536.381 493.845C537.764 494.215 539.216 494.243 540.612 493.925C542.008 493.607 543.305 492.954 544.391 492.021C545.477 492.954 546.774 493.608 548.17 493.926C549.565 494.244 551.018 494.216 552.401 493.845C553.783 493.475 555.055 492.772 556.104 491.799C557.154 490.825 557.95 489.61 558.424 488.26C559.831 488.524 561.281 488.442 562.649 488.019C564.016 487.597 565.26 486.847 566.272 485.835C567.285 484.823 568.035 483.579 568.457 482.211C568.88 480.843 568.962 479.393 568.697 477.987C570.048 477.513 571.262 476.716 572.236 475.666C573.209 474.616 573.911 473.345 574.281 471.962C574.652 470.579 574.679 469.127 574.361 467.732C574.043 466.336 573.389 465.039 572.456 463.953Z" fill="#4CAF50"/>
<path d="M538.97 475.477L530.58 467.092C530.262 466.773 530.083 466.341 530.083 465.89C530.083 465.44 530.262 465.007 530.58 464.688L531.6 463.668C531.919 463.349 532.351 463.171 532.801 463.171C533.252 463.171 533.684 463.349 534.003 463.668L540.102 469.763L554.465 454.499C554.774 454.171 555.201 453.979 555.651 453.966C556.102 453.952 556.539 454.117 556.868 454.426L557.915 455.414C558.243 455.723 558.435 456.15 558.449 456.601C558.463 457.051 558.297 457.489 557.988 457.818L541.415 475.439C541.259 475.605 541.071 475.738 540.862 475.831C540.653 475.923 540.429 475.972 540.2 475.976C539.972 475.979 539.746 475.937 539.535 475.851C539.323 475.766 539.131 475.638 538.97 475.477Z" fill="white"/>
</g>
<defs>
<filter id="filter0_ddddd_2908_25657" x="-83.2712" y="0.0176468" width="1256.97" height="1240.89" filterUnits="userSpaceOnUse" color-interpolation-filters="sRGB">
<feFlood flood-opacity="0" result="BackgroundImageFix"/>
<feColorMatrix in="SourceAlpha" type="matrix" values="0 0 0 0 0 0 0 0 0 0 0 0 0 0 0 0 0 0 127 0" result="hardAlpha"/>
<feOffset dy="2.89106"/>
<feGaussianBlur stdDeviation="11.6759"/>
<feColorMatrix type="matrix" values="0 0 0 0 0 0 0 0 0 0 0 0 0 0 0 0 0 0 0.022144 0"/>
<feBlend mode="normal" in2="BackgroundImageFix" result="effect1_dropShadow_2908_25657"/>
<feColorMatrix in="SourceAlpha" type="matrix" values="0 0 0 0 0 0 0 0 0 0 0 0 0 0 0 0 0 0 127 0" result="hardAlpha"/>
<feOffset dy="12.9247"/>
<feGaussianBlur stdDeviation="26.9753"/>
<feColorMatrix type="matrix" values="0 0 0 0 0 0 0 0 0 0 0 0 0 0 0 0 0 0 0.035072 0"/>
<feBlend mode="normal" in2="effect1_dropShadow_2908_25657" result="effect2_dropShadow_2908_25657"/>
<feColorMatrix in="SourceAlpha" type="matrix" values="0 0 0 0 0 0 0 0 0 0 0 0 0 0 0 0 0 0 127 0" result="hardAlpha"/>
<feOffset dy="32.1417"/>
<feGaussianBlur stdDeviation="61.6004"/>
<feColorMatrix type="matrix" values="0 0 0 0 0 0 0 0 0 0 0 0 0 0 0 0 0 0 0.044928 0"/>
<feBlend mode="normal" in2="effect2_dropShadow_2908_25657" result="effect3_dropShadow_2908_25657"/>
<feColorMatrix in="SourceAlpha" type="matrix" values="0 0 0 0 0 0 0 0 0 0 0 0 0 0 0 0 0 0 127 0" result="hardAlpha"/>
<feOffset dy="62.5829"/>
<feGaussianBlur stdDeviation="131.253"/>
<feColorMatrix type="matrix" values="0 0 0 0 0 0 0 0 0 0 0 0 0 0 0 0 0 0 0.057856 0"/>
<feBlend mode="normal" in2="effect3_dropShadow_2908_25657" result="effect4_dropShadow_2908_25657"/>
<feColorMatrix in="SourceAlpha" type="matrix" values="0 0 0 0 0 0 0 0 0 0 0 0 0 0 0 0 0 0 127 0" result="hardAlpha"/>
<feOffset dy="106.289"/>
<feGaussianBlur stdDeviation="251.636"/>
<feColorMatrix type="matrix" values="0 0 0 0 0 0 0 0 0 0 0 0 0 0 0 0 0 0 0.08 0"/>
<feBlend mode="normal" in2="effect4_dropShadow_2908_25657" result="effect5_dropShadow_2908_25657"/>
<feBlend mode="normal" in="SourceGraphic" in2="effect5_dropShadow_2908_25657" result="shape"/>
</filter>
<linearGradient id="paint0_linear_2908_25657" x1="441.443" y1="577.739" x2="544.066" y2="577.739" gradientUnits="userSpaceOnUse">
<stop stop-color="white"/>
<stop offset="1" stop-color="#FFBB0A" stop-opacity="0.16"/>
</linearGradient>
<linearGradient id="paint1_linear_2908_25657" x1="545.598" y1="577.739" x2="648.22" y2="577.739" gradientUnits="userSpaceOnUse">
<stop stop-color="white"/>
<stop offset="1" stop-color="#FFBB0A" stop-opacity="0.16"/>
</linearGradient>
</defs>
</svg>
