<svg width="145" height="48" viewBox="0 0 145 48" fill="none" xmlns="http://www.w3.org/2000/svg">
<rect x="0.5" y="0.5" width="144" height="47" rx="6.5" fill="black"/>
<rect x="0.5" y="0.5" width="144" height="47" rx="6.5" stroke="#FCD873"/>
<path d="M98.5104 23.0404V25.7897H96.7752V27.5926H98.5104V33.7186C98.5104 35.8104 99.4633 36.6471 101.86 36.6471C102.282 36.6471 102.683 36.5973 103.034 36.5375V34.7545C102.733 34.7844 102.543 34.8043 102.212 34.8043C101.138 34.8043 100.667 34.3063 100.667 33.1707V27.5926H103.034V25.7897H100.667V23.0404H98.5104Z" fill="white"/>
<path d="M109.141 36.7965C112.33 36.7965 114.286 34.6748 114.286 31.1586C114.286 27.6623 112.32 25.5307 109.141 25.5307C105.951 25.5307 103.985 27.6623 103.985 31.1586C103.985 34.6748 105.941 36.7965 109.141 36.7965ZM109.141 34.894C107.265 34.894 106.212 33.5293 106.212 31.1586C106.212 28.8078 107.265 27.4332 109.141 27.4332C111.006 27.4332 112.07 28.8078 112.07 31.1586C112.07 33.5194 111.006 34.894 109.141 34.894Z" fill="white"/>
<path d="M115.96 36.5873H118.116V30.1824C118.116 28.6584 119.27 27.6324 120.904 27.6324C121.286 27.6324 121.928 27.7022 122.108 27.7619V25.6502C121.877 25.5904 121.466 25.5606 121.145 25.5606C119.721 25.5606 118.507 26.3375 118.196 27.4033H118.036V25.7399H115.96V36.5873Z" fill="white"/>
<path d="M127.463 27.3535C129.057 27.3535 130.1 28.4592 130.151 30.1625H124.634C124.754 28.4692 125.868 27.3535 127.463 27.3535ZM130.141 33.6588C129.739 34.5055 128.847 34.9736 127.543 34.9736C125.818 34.9736 124.704 33.7684 124.634 31.8658V31.7463H132.347V30.9992C132.347 27.5926 130.512 25.5307 127.473 25.5307C124.393 25.5307 122.437 27.732 122.437 31.1985C122.437 34.6649 124.353 36.7965 127.483 36.7965C129.98 36.7965 131.725 35.6012 132.217 33.6588H130.141Z" fill="white"/>
<path d="M84.3686 32.5815C84.5349 35.2452 86.77 36.9487 90.0967 36.9487C93.6521 36.9487 95.8769 35.1626 95.8769 32.3131C95.8769 30.0727 94.6086 28.8338 91.5314 28.1215L89.8784 27.7188C87.924 27.2646 87.1339 26.6554 87.1339 25.592C87.1339 24.2499 88.3606 23.3723 90.2007 23.3723C91.9472 23.3723 93.1531 24.2292 93.3714 25.6024H95.6377C95.5026 23.0936 93.2779 21.3281 90.2319 21.3281C86.9572 21.3281 84.774 23.0936 84.774 25.7469C84.774 27.9356 86.0111 29.2365 88.7245 29.8663L90.6581 30.3308C92.6437 30.7954 93.517 31.4768 93.517 32.6125C93.517 33.934 92.1447 34.8941 90.2735 34.8941C88.267 34.8941 86.874 33.9959 86.6765 32.5815H84.3686Z" fill="white"/>
<path d="M62.0297 25.5606C60.5453 25.5606 59.2614 26.2977 58.5994 27.5328H58.4389V25.7399H56.3627V40.1932H58.5192V34.9438H58.6897C59.2614 36.0893 60.4951 36.7666 62.0498 36.7666C64.8081 36.7666 66.5633 34.6051 66.5633 31.1586C66.5633 27.7121 64.8081 25.5606 62.0297 25.5606ZM61.4179 34.8442C59.6125 34.8442 58.4791 33.4297 58.4791 31.1686C58.4791 28.8975 59.6125 27.483 61.4279 27.483C63.2534 27.483 64.3467 28.8676 64.3467 31.1586C64.3467 33.4596 63.2534 34.8442 61.4179 34.8442Z" fill="white"/>
<path d="M74.1092 25.5606C72.6247 25.5606 71.3409 26.2977 70.6789 27.5328H70.5184V25.7399H68.4422V40.1932H70.5986V34.9438H70.7691C71.3409 36.0893 72.5746 36.7666 74.1292 36.7666C76.8875 36.7666 78.6428 34.6051 78.6428 31.1586C78.6428 27.7121 76.8875 25.5606 74.1092 25.5606ZM73.4973 34.8442C71.6919 34.8442 70.5585 33.4297 70.5585 31.1686C70.5585 28.8975 71.6919 27.483 73.5074 27.483C75.3328 27.483 76.4261 28.8676 76.4261 31.1586C76.4261 33.4596 75.3328 34.8442 73.4973 34.8442Z" fill="white"/>
<path d="M52.4936 36.5873H54.9678L49.5516 21.6895H47.0462L41.6299 36.5873H44.0209L45.4036 32.6331H51.1214L52.4936 36.5873ZM48.1793 24.3944H48.356L50.5288 30.6922H45.9962L48.1793 24.3944Z" fill="white"/>
<path d="M43.0781 10.4513V17.6381H45.691C47.8474 17.6381 49.0962 16.3183 49.0962 14.0223C49.0962 11.7611 47.8374 10.4513 45.691 10.4513H43.0781ZM44.2015 11.4673H45.5656C47.0651 11.4673 47.9528 12.4136 47.9528 14.0372C47.9528 15.6857 47.0801 16.6221 45.5656 16.6221H44.2015V11.4673Z" fill="white"/>
<path d="M52.9207 17.7427C54.5155 17.7427 55.4934 16.6818 55.4934 14.9237C55.4934 13.1756 54.5104 12.1098 52.9207 12.1098C51.3259 12.1098 50.3429 13.1756 50.3429 14.9237C50.3429 16.6818 51.3209 17.7427 52.9207 17.7427ZM52.9207 16.7914C51.9829 16.7914 51.4563 16.1091 51.4563 14.9237C51.4563 13.7483 51.9829 13.061 52.9207 13.061C53.8535 13.061 54.3851 13.7483 54.3851 14.9237C54.3851 16.1041 53.8535 16.7914 52.9207 16.7914Z" fill="white"/>
<path d="M63.8214 12.2144H62.7432L61.7702 16.3531H61.685L60.5616 12.2144H59.5285L58.4051 16.3531H58.3249L57.347 12.2144H56.2537L57.7582 17.6381H58.8665L59.9899 13.6437H60.0752L61.2035 17.6381H62.3219L63.8214 12.2144Z" fill="white"/>
<path d="M65.0631 17.6381H66.1414V14.4655C66.1414 13.6188 66.6479 13.0909 67.4453 13.0909C68.2427 13.0909 68.6238 13.5242 68.6238 14.3958V17.6381H69.7021V14.1269C69.7021 12.8369 69.03 12.1098 67.8114 12.1098C66.9889 12.1098 66.4473 12.4733 66.1815 13.076H66.1012V12.2144H65.0631V17.6381Z" fill="white"/>
<path d="M71.4002 17.6381H72.4784V10.0977H71.4002V17.6381Z" fill="white"/>
<path d="M76.5336 17.7427C78.1284 17.7427 79.1063 16.6818 79.1063 14.9237C79.1063 13.1756 78.1233 12.1098 76.5336 12.1098C74.9388 12.1098 73.9558 13.1756 73.9558 14.9237C73.9558 16.6818 74.9338 17.7427 76.5336 17.7427ZM76.5336 16.7914C75.5957 16.7914 75.0692 16.1091 75.0692 14.9237C75.0692 13.7483 75.5957 13.061 76.5336 13.061C77.4664 13.061 77.998 13.7483 77.998 14.9237C77.998 16.1041 77.4664 16.7914 76.5336 16.7914Z" fill="white"/>
<path d="M82.3189 16.8263C81.7322 16.8263 81.3059 16.5424 81.3059 16.0543C81.3059 15.5762 81.6469 15.3222 82.3992 15.2724L83.7332 15.1877V15.6409C83.7332 16.3133 83.1314 16.8263 82.3189 16.8263ZM82.0431 17.7277C82.7603 17.7277 83.357 17.4189 83.683 16.8761H83.7683V17.6381H84.8064V13.9326C84.8064 12.7871 84.0341 12.1098 82.665 12.1098C81.4262 12.1098 80.5436 12.7074 80.4333 13.6388H81.4764C81.5968 13.2553 82.013 13.0361 82.6148 13.0361C83.352 13.0361 83.7332 13.3599 83.7332 13.9326V14.4008L82.2537 14.4854C80.9548 14.5651 80.2226 15.1279 80.2226 16.1041C80.2226 17.0952 80.9899 17.7277 82.0431 17.7277Z" fill="white"/>
<path d="M88.4654 17.7277C89.2176 17.7277 89.8546 17.3741 90.1805 16.7814H90.2658V17.6381H91.2989V10.0977H90.2207V13.076H90.1404C89.8445 12.4783 89.2126 12.1247 88.4654 12.1247C87.0862 12.1247 86.1986 13.2104 86.1986 14.9237C86.1986 16.642 87.0762 17.7277 88.4654 17.7277ZM88.7713 13.0859C89.674 13.0859 90.2407 13.7981 90.2407 14.9287C90.2407 16.0643 89.679 16.7665 88.7713 16.7665C87.8586 16.7665 87.3119 16.0742 87.3119 14.9237C87.3119 13.7832 87.8636 13.0859 88.7713 13.0859Z" fill="white"/>
<path d="M98.2909 17.7427C99.8857 17.7427 100.864 16.6818 100.864 14.9237C100.864 13.1756 99.8807 12.1098 98.2909 12.1098C96.6961 12.1098 95.7131 13.1756 95.7131 14.9237C95.7131 16.6818 96.6911 17.7427 98.2909 17.7427ZM98.2909 16.7914C97.3531 16.7914 96.8265 16.1091 96.8265 14.9237C96.8265 13.7483 97.3531 13.061 98.2909 13.061C99.2237 13.061 99.7553 13.7483 99.7553 14.9237C99.7553 16.1041 99.2237 16.7914 98.2909 16.7914Z" fill="white"/>
<path d="M102.291 17.6381H103.369V14.4655C103.369 13.6188 103.876 13.0909 104.673 13.0909C105.47 13.0909 105.852 13.5242 105.852 14.3958V17.6381H106.93V14.1269C106.93 12.8369 106.258 12.1098 105.039 12.1098C104.217 12.1098 103.675 12.4733 103.409 13.076H103.329V12.2144H102.291V17.6381Z" fill="white"/>
<path d="M111.896 10.8646V12.2393H111.028V13.1407H111.896V16.2037C111.896 17.2496 112.372 17.668 113.571 17.668C113.781 17.668 113.982 17.6431 114.158 17.6132V16.7217C114.007 16.7366 113.912 16.7466 113.746 16.7466C113.21 16.7466 112.974 16.4976 112.974 15.9298V13.1407H114.158V12.2393H112.974V10.8646H111.896Z" fill="white"/>
<path d="M115.605 17.6381H116.683V14.4705C116.683 13.6487 117.175 13.0959 118.057 13.0959C118.82 13.0959 119.226 13.5342 119.226 14.4008V17.6381H120.304V14.1368C120.304 12.8469 119.587 12.1147 118.423 12.1147C117.601 12.1147 117.024 12.4783 116.758 13.0859H116.673V10.0977H115.605V17.6381Z" fill="white"/>
<path d="M124.194 13.0212C124.991 13.0212 125.513 13.574 125.538 14.4257H122.779C122.84 13.579 123.396 13.0212 124.194 13.0212ZM125.533 16.1738C125.332 16.5972 124.886 16.8312 124.234 16.8312C123.371 16.8312 122.814 16.2286 122.779 15.2773V15.2176H126.636V14.844C126.636 13.1407 125.718 12.1098 124.199 12.1098C122.659 12.1098 121.681 13.2104 121.681 14.9437C121.681 16.6769 122.639 17.7427 124.204 17.7427C125.452 17.7427 126.325 17.145 126.571 16.1738H125.533Z" fill="white"/>
<path d="M29.9289 24.3613C29.9551 22.3441 31.0459 20.4354 32.7764 19.3788C31.6847 17.8304 29.8562 16.8487 27.9538 16.7896C25.9247 16.5781 23.9576 17.9954 22.9236 17.9954C21.8696 17.9954 20.2776 16.8106 18.5633 16.8456C16.3288 16.9173 14.2457 18.179 13.1586 20.1191C10.8216 24.1372 12.5648 30.0424 14.8033 33.2904C15.9233 34.8808 17.2323 36.6573 18.9451 36.5943C20.6211 36.5253 21.2471 35.5329 23.2702 35.5329C25.2745 35.5329 25.8618 36.5943 27.6093 36.5543C29.4078 36.5253 30.5409 34.9568 31.6216 33.3513C32.4263 32.2181 33.0455 30.9656 33.4563 29.6403C31.3428 28.7525 29.9314 26.6402 29.9289 24.3613Z" fill="white"/>
<path d="M26.6282 14.6536C27.6088 13.4845 28.0919 11.9819 27.9749 10.4648C26.4767 10.6211 25.0929 11.3322 24.099 12.4564C23.1272 13.5548 22.6214 15.031 22.7171 16.49C24.2157 16.5054 25.689 15.8136 26.6282 14.6536Z" fill="white"/>
</svg>
