<svg width="162" height="48" viewBox="0 0 162 48" fill="none" xmlns="http://www.w3.org/2000/svg">
<rect x="0.5" y="0.5" width="161" height="47" rx="4.5" fill="black"/>
<rect x="0.5" y="0.5" width="161" height="47" rx="4.5" stroke="#FCD873"/>
<path d="M81.7628 26.1018C78.9404 26.1018 76.64 28.2486 76.64 31.2054C76.64 34.1442 78.9404 36.309 81.7628 36.309C84.5864 36.309 86.8868 34.1442 86.8868 31.2054C86.8856 28.2486 84.5852 26.1018 81.7628 26.1018ZM81.7628 34.3002C80.216 34.3002 78.8828 33.0246 78.8828 31.2066C78.8828 29.3694 80.2172 28.113 81.7628 28.113C83.3096 28.113 84.6428 29.3694 84.6428 31.2066C84.6428 33.0234 83.3096 34.3002 81.7628 34.3002ZM70.586 26.1018C67.7636 26.1018 65.4632 28.2486 65.4632 31.2054C65.4632 34.1442 67.7636 36.309 70.586 36.309C73.4096 36.309 75.71 34.1442 75.71 31.2054C75.71 28.2486 73.4096 26.1018 70.586 26.1018ZM70.586 34.3002C69.0392 34.3002 67.706 33.0246 67.706 31.2066C67.706 29.3694 69.0404 28.113 70.586 28.113C72.1328 28.113 73.466 29.3694 73.466 31.2066C73.4672 33.0234 72.1328 34.3002 70.586 34.3002ZM57.2924 27.669V29.8338H62.474C62.3192 31.0518 61.9136 31.941 61.2944 32.559C60.5408 33.3126 59.3612 34.1442 57.2924 34.1442C54.1028 34.1442 51.6092 31.5726 51.6092 28.383C51.6092 25.1934 54.1028 22.6218 57.2924 22.6218C59.0132 22.6218 60.2696 23.2986 61.1972 24.1686L62.7248 22.641C61.4288 21.4038 59.7092 20.457 57.2924 20.457C52.9232 20.457 49.25 24.0138 49.25 28.383C49.25 32.7522 52.9232 36.309 57.2924 36.309C59.6504 36.309 61.43 35.535 62.8208 34.0854C64.2512 32.655 64.6964 30.6438 64.6964 29.0202C64.6964 28.5186 64.658 28.0542 64.58 27.6678H57.2924V27.669ZM111.662 29.3502C111.237 28.2102 109.941 26.1018 107.293 26.1018C104.664 26.1018 102.478 28.1706 102.478 31.2054C102.478 34.0662 104.644 36.309 107.544 36.309C109.882 36.309 111.236 34.8786 111.798 34.047L110.058 32.8866C109.478 33.7374 108.685 34.2978 107.544 34.2978C106.404 34.2978 105.591 33.7758 105.069 32.751L111.894 29.9286L111.662 29.3502ZM104.702 31.0518C104.644 29.079 106.23 28.0746 107.371 28.0746C108.26 28.0746 109.014 28.5198 109.266 29.157L104.702 31.0518ZM99.1544 36.0006H101.396V20.9994H99.1544V36.0006ZM95.48 27.243H95.4032C94.9004 26.643 93.9332 26.1018 92.7164 26.1018C90.164 26.1018 87.8252 28.3446 87.8252 31.2258C87.8252 34.0866 90.164 36.3102 92.7164 36.3102C93.9344 36.3102 94.9004 35.769 95.4032 35.151H95.48V35.8854C95.48 37.8378 94.436 38.8818 92.7548 38.8818C91.382 38.8818 90.5312 37.8966 90.1832 37.065L88.2308 37.8774C88.7912 39.2298 90.2792 40.893 92.7548 40.893C95.384 40.893 97.6076 39.3462 97.6076 35.5758V26.4126H95.4812V27.243H95.48ZM92.9096 34.3002C91.3628 34.3002 90.068 33.0042 90.068 31.2258C90.068 29.427 91.3628 28.113 92.9096 28.113C94.436 28.113 95.6348 29.427 95.6348 31.2258C95.6348 33.0042 94.436 34.3002 92.9096 34.3002ZM122.167 20.9994H116.802V36.0006H119.04V30.3174H122.166C124.647 30.3174 127.088 28.521 127.088 25.659C127.088 22.797 124.648 20.9994 122.167 20.9994ZM122.224 28.2294H119.04V23.0874H122.224C123.898 23.0874 124.849 24.4734 124.849 25.659C124.849 26.8206 123.898 28.2294 122.224 28.2294ZM136.063 26.0754C134.442 26.0754 132.763 26.7894 132.068 28.3722L134.055 29.2014C134.48 28.3722 135.272 28.101 136.101 28.101C137.259 28.101 138.436 28.7958 138.456 30.0306V30.1854C138.05 29.9538 137.181 29.607 136.12 29.607C133.978 29.607 131.797 30.7842 131.797 32.9838C131.797 34.9914 133.554 36.2838 135.522 36.2838C137.026 36.2838 137.857 35.6082 138.378 34.8162H138.454V35.9742H140.617V30.2226C140.618 27.561 138.628 26.0754 136.063 26.0754ZM135.792 34.2966C135.06 34.2966 134.036 33.9294 134.036 33.0222C134.036 31.8642 135.31 31.4202 136.411 31.4202C137.394 31.4202 137.858 31.6326 138.456 31.9218C138.282 33.3126 137.085 34.2966 135.792 34.2966ZM148.491 26.403L145.924 32.907H145.848L143.184 26.403H140.772L144.766 35.493L142.489 40.5498H144.824L150.981 26.403H148.491ZM128.324 36.0006H130.562V20.9994H128.324V36.0006Z" fill="white"/>
<path d="M56.9013 12.2918C56.9013 13.2974 56.6037 14.0978 56.0073 14.6954C55.3305 15.4058 54.4473 15.761 53.3625 15.761C52.3233 15.761 51.4389 15.401 50.7129 14.681C49.9857 13.9598 49.6221 13.067 49.6221 12.0014C49.6221 10.9346 49.9857 10.0418 50.7129 9.32182C51.4389 8.60062 52.3233 8.24063 53.3625 8.24063C53.8785 8.24063 54.3717 8.34143 54.8397 8.54183C55.3089 8.74343 55.6845 9.01103 55.9653 9.34583L55.3329 9.97943C54.8565 9.40943 54.2001 9.12503 53.3613 9.12503C52.6029 9.12503 51.9477 9.39143 51.3945 9.92423C50.8413 10.457 50.5653 11.1494 50.5653 12.0002C50.5653 12.851 50.8413 13.5434 51.3945 14.0762C51.9477 14.609 52.6029 14.8754 53.3613 14.8754C54.1653 14.8754 54.8361 14.6078 55.3725 14.0714C55.7205 13.7222 55.9221 13.2362 55.9761 12.6134H53.3613V11.7482H56.8497C56.8857 11.9366 56.9013 12.1178 56.9013 12.2918Z" fill="white"/>
<path d="M62.4334 9.28469H59.155V11.5671H62.1118V12.4323H59.155V14.7147H62.4334V15.6003H58.2298V8.40029H62.4334V9.28469Z" fill="white"/>
<path d="M66.3344 15.6003H65.4093V9.28469H63.398V8.40029H68.3456V9.28469H66.3344V15.6003Z" fill="white"/>
<path d="M71.9252 15.6003V8.40029H72.8504V15.6003H71.9252Z" fill="white"/>
<path d="M76.9534 15.6003H76.0282V9.28469H74.017V8.40029H78.9646V9.28469H76.9534V15.6003Z" fill="white"/>
<path d="M88.3303 14.6703C87.6223 15.3975 86.7427 15.7611 85.6903 15.7611C84.6379 15.7611 83.7583 15.3975 83.0515 14.6703C82.3435 13.9431 81.9907 13.0527 81.9907 12.0003C81.9907 10.9479 82.3435 10.0575 83.0515 9.33028C83.7583 8.60308 84.6379 8.23828 85.6903 8.23828C86.7367 8.23828 87.6151 8.60428 88.3255 9.33508C89.0359 10.0659 89.3911 10.9539 89.3911 12.0003C89.3911 13.0527 89.0371 13.9431 88.3303 14.6703ZM83.7343 14.0667C84.2671 14.6067 84.9187 14.8755 85.6903 14.8755C86.4619 14.8755 87.1147 14.6055 87.6463 14.0667C88.1791 13.5267 88.4467 12.8379 88.4467 12.0003C88.4467 11.1627 88.1791 10.4739 87.6463 9.93388C87.1147 9.39388 86.4619 9.12508 85.6903 9.12508C84.9187 9.12508 84.2671 9.39508 83.7343 9.93388C83.2027 10.4739 82.9351 11.1627 82.9351 12.0003C82.9351 12.8379 83.2027 13.5267 83.7343 14.0667Z" fill="white"/>
<path d="M90.6895 15.6003V8.40029H91.8152L95.3144 14.0007H95.354L95.3144 12.6135V8.40029H96.2395V15.6003H95.2735L91.6124 9.72749H91.5727L91.6124 11.1147V15.6003H90.6895Z" fill="white"/>
<path d="M56.9013 12.2918C56.9013 13.2974 56.6037 14.0978 56.0073 14.6954C55.3305 15.4058 54.4473 15.761 53.3625 15.761C52.3233 15.761 51.4389 15.401 50.7129 14.681C49.9857 13.9598 49.6221 13.067 49.6221 12.0014C49.6221 10.9346 49.9857 10.0418 50.7129 9.32182C51.4389 8.60062 52.3233 8.24063 53.3625 8.24063C53.8785 8.24063 54.3717 8.34143 54.8397 8.54183C55.3089 8.74343 55.6845 9.01103 55.9653 9.34583L55.3329 9.97943C54.8565 9.40943 54.2001 9.12503 53.3613 9.12503C52.6029 9.12503 51.9477 9.39143 51.3945 9.92423C50.8413 10.457 50.5653 11.1494 50.5653 12.0002C50.5653 12.851 50.8413 13.5434 51.3945 14.0762C51.9477 14.609 52.6029 14.8754 53.3613 14.8754C54.1653 14.8754 54.8361 14.6078 55.3725 14.0714C55.7205 13.7222 55.9221 13.2362 55.9761 12.6134H53.3613V11.7482H56.8497C56.8857 11.9366 56.9013 12.1178 56.9013 12.2918Z" stroke="white" stroke-width="0.2" stroke-miterlimit="10"/>
<path d="M62.4334 9.28469H59.155V11.5671H62.1118V12.4323H59.155V14.7147H62.4334V15.6003H58.2298V8.40029H62.4334V9.28469Z" stroke="white" stroke-width="0.2" stroke-miterlimit="10"/>
<path d="M66.3344 15.6003H65.4093V9.28469H63.398V8.40029H68.3456V9.28469H66.3344V15.6003Z" stroke="white" stroke-width="0.2" stroke-miterlimit="10"/>
<path d="M71.9252 15.6003V8.40029H72.8504V15.6003H71.9252Z" stroke="white" stroke-width="0.2" stroke-miterlimit="10"/>
<path d="M76.9534 15.6003H76.0282V9.28469H74.017V8.40029H78.9646V9.28469H76.9534V15.6003Z" stroke="white" stroke-width="0.2" stroke-miterlimit="10"/>
<path d="M88.3303 14.6703C87.6223 15.3975 86.7427 15.7611 85.6903 15.7611C84.6379 15.7611 83.7583 15.3975 83.0515 14.6703C82.3435 13.9431 81.9907 13.0527 81.9907 12.0003C81.9907 10.9479 82.3435 10.0575 83.0515 9.33028C83.7583 8.60308 84.6379 8.23828 85.6903 8.23828C86.7367 8.23828 87.6151 8.60428 88.3255 9.33508C89.0359 10.0659 89.3911 10.9539 89.3911 12.0003C89.3911 13.0527 89.0371 13.9431 88.3303 14.6703ZM83.7343 14.0667C84.2671 14.6067 84.9187 14.8755 85.6903 14.8755C86.4619 14.8755 87.1147 14.6055 87.6463 14.0667C88.1791 13.5267 88.4467 12.8379 88.4467 12.0003C88.4467 11.1627 88.1791 10.4739 87.6463 9.93388C87.1147 9.39388 86.4619 9.12508 85.6903 9.12508C84.9187 9.12508 84.2671 9.39508 83.7343 9.93388C83.2027 10.4739 82.9351 11.1627 82.9351 12.0003C82.9351 12.8379 83.2027 13.5267 83.7343 14.0667Z" stroke="white" stroke-width="0.2" stroke-miterlimit="10"/>
<path d="M90.6895 15.6003V8.40029H91.8152L95.3144 14.0007H95.354L95.3144 12.6135V8.40029H96.2395V15.6003H95.2735L91.6124 9.72749H91.5727L91.6124 11.1147V15.6003H90.6895Z" stroke="white" stroke-width="0.2" stroke-miterlimit="10"/>
<g filter="url(#filter0_ii_2788_10477)">
<path d="M12.5234 9.04854C12.1742 9.41814 11.9678 9.99174 11.9678 10.7345V37.2737C11.9678 38.0177 12.1742 38.5901 12.5234 38.9597L12.6122 39.0461L27.479 24.1793V24.0041V23.8289L12.6122 8.96094L12.5234 9.04854Z" fill="url(#paint0_linear_2788_10477)"/>
<path d="M32.4333 29.1347L27.4785 24.1775V24.0023V23.8271L32.4345 18.8711L32.5461 18.9347L38.4177 22.2707C40.0941 23.2235 40.0941 24.7823 38.4177 25.7363L32.5461 29.0723L32.4333 29.1347Z" fill="url(#paint1_linear_2788_10477)"/>
<g filter="url(#filter1_i_2788_10477)">
<path d="M32.5466 29.0727L27.4778 24.0039L12.5234 38.9595C13.0754 39.5451 13.9886 39.6171 15.017 39.0339L32.5466 29.0727Z" fill="url(#paint2_linear_2788_10477)"/>
</g>
<path d="M32.5466 18.9336L15.017 8.9736C13.9886 8.3892 13.0754 8.4624 12.5234 9.048L27.479 24.0036L32.5466 18.9336Z" fill="url(#paint3_linear_2788_10477)"/>
</g>
<defs>
<filter id="filter0_ii_2788_10477" x="11.9678" y="8.57031" width="27.707" height="30.8672" filterUnits="userSpaceOnUse" color-interpolation-filters="sRGB">
<feFlood flood-opacity="0" result="BackgroundImageFix"/>
<feBlend mode="normal" in="SourceGraphic" in2="BackgroundImageFix" result="shape"/>
<feColorMatrix in="SourceAlpha" type="matrix" values="0 0 0 0 0 0 0 0 0 0 0 0 0 0 0 0 0 0 127 0" result="hardAlpha"/>
<feOffset dy="-0.15"/>
<feComposite in2="hardAlpha" operator="arithmetic" k2="-1" k3="1"/>
<feColorMatrix type="matrix" values="0 0 0 0 0 0 0 0 0 0 0 0 0 0 0 0 0 0 0.12 0"/>
<feBlend mode="normal" in2="shape" result="effect1_innerShadow_2788_10477"/>
<feColorMatrix in="SourceAlpha" type="matrix" values="0 0 0 0 0 0 0 0 0 0 0 0 0 0 0 0 0 0 127 0" result="hardAlpha"/>
<feOffset dy="0.15"/>
<feComposite in2="hardAlpha" operator="arithmetic" k2="-1" k3="1"/>
<feColorMatrix type="matrix" values="0 0 0 0 1 0 0 0 0 1 0 0 0 0 1 0 0 0 0.25 0"/>
<feBlend mode="normal" in2="effect1_innerShadow_2788_10477" result="effect2_innerShadow_2788_10477"/>
</filter>
<filter id="filter1_i_2788_10477" x="12.5234" y="24.0039" width="20.0234" height="15.4336" filterUnits="userSpaceOnUse" color-interpolation-filters="sRGB">
<feFlood flood-opacity="0" result="BackgroundImageFix"/>
<feBlend mode="normal" in="SourceGraphic" in2="BackgroundImageFix" result="shape"/>
<feColorMatrix in="SourceAlpha" type="matrix" values="0 0 0 0 0 0 0 0 0 0 0 0 0 0 0 0 0 0 127 0" result="hardAlpha"/>
<feOffset dy="-0.15"/>
<feComposite in2="hardAlpha" operator="arithmetic" k2="-1" k3="1"/>
<feColorMatrix type="matrix" values="0 0 0 0 0 0 0 0 0 0 0 0 0 0 0 0 0 0 0.08 0"/>
<feBlend mode="normal" in2="shape" result="effect1_innerShadow_2788_10477"/>
</filter>
<linearGradient id="paint0_linear_2788_10477" x1="26.1611" y1="10.4537" x2="6.02274" y2="30.5921" gradientUnits="userSpaceOnUse">
<stop stop-color="#00A0FF"/>
<stop offset="0.0066" stop-color="#00A1FF"/>
<stop offset="0.2601" stop-color="#00BEFF"/>
<stop offset="0.5122" stop-color="#00D2FF"/>
<stop offset="0.7604" stop-color="#00DFFF"/>
<stop offset="1" stop-color="#00E3FF"/>
</linearGradient>
<linearGradient id="paint1_linear_2788_10477" x1="40.5999" y1="24.0023" x2="11.5648" y2="24.0023" gradientUnits="userSpaceOnUse">
<stop stop-color="#FFE000"/>
<stop offset="0.4087" stop-color="#FFBD00"/>
<stop offset="0.7754" stop-color="#FFA500"/>
<stop offset="1" stop-color="#FF9C00"/>
</linearGradient>
<linearGradient id="paint2_linear_2788_10477" x1="29.794" y1="26.7566" x2="2.48377" y2="54.0668" gradientUnits="userSpaceOnUse">
<stop stop-color="#FF3A44"/>
<stop offset="1" stop-color="#C31162"/>
</linearGradient>
<linearGradient id="paint3_linear_2788_10477" x1="8.75712" y1="0.213363" x2="20.9519" y2="12.4081" gradientUnits="userSpaceOnUse">
<stop stop-color="#32A071"/>
<stop offset="0.0685" stop-color="#2DA771"/>
<stop offset="0.4762" stop-color="#15CF74"/>
<stop offset="0.8009" stop-color="#06E775"/>
<stop offset="1" stop-color="#00F076"/>
</linearGradient>
</defs>
</svg>
