<svg width="82" height="80" viewBox="0 0 82 80" fill="none" xmlns="http://www.w3.org/2000/svg">
<path d="M76.0707 40.4224C77.2884 39.0044 78.1417 37.3107 78.5567 35.4882C78.9716 33.6658 78.9356 31.7696 78.4518 29.9642C77.968 28.1588 77.051 26.4987 75.7804 25.128C74.5098 23.7572 72.9239 22.7171 71.1603 22.098C71.5059 20.2611 71.398 18.3676 70.846 16.5818C70.2941 14.796 69.3148 13.1718 67.993 11.8502C66.6712 10.5286 65.0469 9.54942 63.261 8.99769C61.4751 8.44597 59.5816 8.33833 57.7447 8.68412C57.1261 6.92014 56.0862 5.33382 54.7154 4.06289C53.3446 2.79196 51.6844 1.87484 49.8787 1.39115C48.0731 0.90745 46.1766 0.871807 44.3541 1.28731C42.5315 1.70281 40.8379 2.5569 39.4204 3.77542C38.0024 2.55774 36.3087 1.70442 34.4862 1.28949C32.6638 0.874563 30.7676 0.910558 28.9622 1.39435C27.1568 1.87815 25.4967 2.79513 24.126 4.06575C22.7552 5.33637 21.7151 6.92225 21.096 8.68582C19.2592 8.3406 17.3659 8.44872 15.5803 9.00081C13.7947 9.55291 12.1708 10.5323 10.8494 11.854C9.52802 13.1758 8.54904 14.7999 7.9974 16.5857C7.44576 18.3714 7.33813 20.2647 7.68383 22.1014C5.92025 22.7206 4.33436 23.7606 3.06374 25.1314C1.79312 26.5022 0.876133 28.1622 0.392339 29.9676C-0.0914546 31.773 -0.127455 33.6692 0.287473 35.4916C0.702401 37.3141 1.55574 39.0078 2.77342 40.4258C1.55536 41.8437 0.701768 43.5375 0.286722 45.3602C-0.128324 47.1828 -0.0922921 49.0792 0.391714 50.8848C0.875719 52.6903 1.79306 54.3505 3.06412 55.7211C4.33517 57.0918 5.92155 58.1315 7.68553 58.7501C7.33954 60.5869 7.44705 62.4804 7.99876 64.2662C8.55046 66.052 9.52969 67.6762 10.8514 68.9977C12.1732 70.3193 13.7975 71.2983 15.5833 71.8498C17.3692 72.4013 19.2627 72.5085 21.0995 72.1623C21.7186 73.9259 22.7586 75.5118 24.1294 76.7824C25.5002 78.053 27.1602 78.97 28.9656 79.4538C30.771 79.9376 32.6672 79.9736 34.4896 79.5586C36.3121 79.1437 38.0058 78.2904 39.4238 77.0727C40.8418 78.2908 42.5356 79.1444 44.3582 79.5594C46.1808 79.9745 48.0772 79.9384 49.8828 79.4544C51.6883 78.9704 53.3485 78.0531 54.7191 76.782C56.0898 75.5109 57.1295 73.9246 57.7481 72.1606C59.585 72.5065 61.4785 72.3989 63.2643 71.8472C65.0501 71.2955 66.6744 70.3163 67.9961 68.9946C69.3177 67.673 70.2969 66.0487 70.8486 64.2629C71.4003 62.477 71.5079 60.5835 71.162 58.7467C72.9257 58.1277 74.5118 57.0877 75.7824 55.7169C77.0531 54.3461 77.9701 52.6859 78.4537 50.8803C78.9374 49.0748 78.9731 47.1786 78.5579 45.3561C78.1426 43.5337 77.2889 41.8401 76.0707 40.4224Z" fill="#FF0000" fill-opacity="0.24"/>
<path d="M49 32.3281L48.1737 45.6949C47.9626 49.1101 47.857 50.8176 47.001 52.0453C46.5778 52.6522 46.0329 53.1645 45.4009 53.5495C44.1228 54.3281 42.412 54.3281 38.9903 54.3281C35.5642 54.3281 33.8511 54.3281 32.5721 53.548C31.9397 53.1624 31.3947 52.6492 30.9716 52.0412C30.1158 50.8116 30.0126 49.1016 29.8061 45.6817L29 32.3281" stroke="white" stroke-width="2.5" stroke-linecap="round"/>
<path d="M27 32.3307H51M44.4076 32.3307L43.4974 30.453C42.8928 29.2057 42.5904 28.5821 42.069 28.1931C41.9533 28.1069 41.8308 28.0301 41.7027 27.9637C41.1252 27.6641 40.4322 27.6641 39.046 27.6641C37.6251 27.6641 36.9146 27.6641 36.3276 27.9762C36.1975 28.0454 36.0733 28.1253 35.9564 28.215C35.4289 28.6197 35.1342 29.2661 34.5448 30.5591L33.7372 32.3307" stroke="white" stroke-width="2.5" stroke-linecap="round"/>
<path d="M35.6665 47L35.6665 39" stroke="white" stroke-width="2.5" stroke-linecap="round"/>
<path d="M42.3335 47L42.3335 39" stroke="white" stroke-width="2.5" stroke-linecap="round"/>
<path d="M78.9145 39.4224C80.1322 38.0044 80.9855 36.3107 81.4004 34.4882C81.8153 32.6658 81.7793 30.7696 81.2955 28.9642C80.8118 27.1588 79.8948 25.4987 78.6241 24.128C77.3535 22.7572 75.7677 21.7171 74.0041 21.098C74.3496 19.2611 74.2417 17.3676 73.6898 15.5818C73.1378 13.796 72.1585 12.1718 70.8367 10.8502C69.5149 9.52856 67.8906 8.54942 66.1048 7.99769C64.3189 7.44597 62.4254 7.33833 60.5885 7.68412C59.9698 5.92014 58.93 4.33382 57.5592 3.06289C56.1884 1.79196 54.5281 0.87484 52.7225 0.391145C50.9168 -0.0925496 49.0204 -0.128193 47.1978 0.287309C45.3753 0.70281 43.6817 1.5569 42.2641 2.77542C40.8461 1.55774 39.1524 0.704418 37.33 0.289491C35.5075 -0.125437 33.6113 -0.089442 31.806 0.394352C30.0006 0.878145 28.3405 1.79513 26.9697 3.06575C25.5989 4.33637 24.5589 5.92225 23.9398 7.68582C22.103 7.3406 20.2096 7.44872 18.4241 8.00081C16.6385 8.55291 15.0146 9.5323 13.6932 10.854C12.3718 12.1758 11.3928 13.7999 10.8412 15.5857C10.2895 17.3714 10.1819 19.2647 10.5276 21.1014C8.764 21.7206 7.17811 22.7606 5.90749 24.1314C4.63687 25.5022 3.71988 27.1622 3.23609 28.9676C2.7523 30.773 2.7163 32.6692 3.13122 34.4916C3.54615 36.3141 4.39949 38.0078 5.61717 39.4258C4.39911 40.8437 3.54552 42.5375 3.13047 44.3602C2.71543 46.1828 2.75146 48.0792 3.23546 49.8848C3.71947 51.6903 4.63681 53.3505 5.90787 54.7211C7.17892 56.0918 8.7653 57.1315 10.5293 57.7501C10.1833 59.5869 10.2908 61.4804 10.8425 63.2662C11.3942 65.052 12.3734 66.6762 13.6952 67.9977C15.0169 69.3193 16.6412 70.2983 18.4271 70.8498C20.213 71.4013 22.1065 71.5085 23.9432 71.1623C24.5623 72.9259 25.6024 74.5118 26.9731 75.7824C28.3439 77.053 30.004 77.97 31.8094 78.4538C33.6148 78.9376 35.5109 78.9736 37.3334 78.5586C39.1558 78.1437 40.8495 77.2904 42.2675 76.0727C43.6855 77.2908 45.3793 78.1444 47.202 78.5594C49.0246 78.9745 50.921 78.9384 52.7265 78.4544C54.5321 77.9704 56.1922 77.0531 57.5629 75.782C58.9335 74.5109 59.9733 72.9246 60.5919 71.1606C62.4287 71.5065 64.3222 71.3989 66.1081 70.8472C67.8939 70.2955 69.5181 69.3163 70.8398 67.9946C72.1615 66.673 73.1407 65.0487 73.6924 63.2629C74.2441 61.477 74.3517 59.5835 74.0058 57.7467C75.7695 57.1277 77.3555 56.0877 78.6262 54.7169C79.8969 53.3461 80.8138 51.6859 81.2975 49.8803C81.7811 48.0748 81.8169 46.1786 81.4016 44.3561C80.9863 42.5337 80.1326 40.8401 78.9145 39.4224Z" fill="#FF0000"/>
<path d="M51.8438 31.3281L51.0174 44.6949C50.8063 48.1101 50.7008 49.8176 49.8448 51.0453C49.4215 51.6522 48.8766 52.1645 48.2447 52.5495C46.9666 53.3281 45.2557 53.3281 41.8341 53.3281C38.4079 53.3281 36.6948 53.3281 35.4158 52.548C34.7835 52.1624 34.2384 51.6492 33.8153 51.0412C32.9596 49.8116 32.8564 48.1016 32.6499 44.6817L31.8438 31.3281" stroke="white" stroke-width="2.5" stroke-linecap="round"/>
<path d="M29.8438 31.3307H53.8438M47.2514 31.3307L46.3412 29.453C45.7365 28.2057 45.4342 27.5821 44.9127 27.1931C44.797 27.1069 44.6745 27.0301 44.5464 26.9637C43.969 26.6641 43.2759 26.6641 41.8898 26.6641C40.4689 26.6641 39.7584 26.6641 39.1713 26.9762C39.0412 27.0454 38.9171 27.1253 38.8001 27.215C38.2726 27.6197 37.9779 28.2661 37.3886 29.5591L36.581 31.3307" stroke="white" stroke-width="2.5" stroke-linecap="round"/>
<path d="M38.5103 46L38.5103 38" stroke="white" stroke-width="2.5" stroke-linecap="round"/>
<path d="M45.1772 46L45.1772 38" stroke="white" stroke-width="2.5" stroke-linecap="round"/>
</svg>
