<svg width="61" height="54" viewBox="0 0 61 54" fill="none" xmlns="http://www.w3.org/2000/svg">
<g clip-path="url(#clip0_4342_48892)">
<rect y="0.929688" width="60.8265" height="52.137" rx="6.31963" fill="#FFB800"/>
<path d="M41.0773 3.97373C41.0773 8.99095 44.0784 14.6381 39.4974 14.6381C34.9165 14.6381 24.4883 8.99095 24.4883 3.97373C24.4883 -1.04348 28.2019 -5.11074 32.7828 -5.11074C37.3637 -5.11074 44.2371 -7.87543 41.0773 3.97373Z" fill="#FFC107"/>
<path d="M13.2159 42.2639C6.71448 50.6951 16.9973 59.5091 11.2252 59.5091C5.45317 59.5091 -7.68652 50.3772 -7.68652 42.2639C-7.68652 34.1507 -3.00735 27.5736 2.7647 27.5736C8.53675 27.5736 22.5136 23.047 13.2159 42.2639Z" fill="#FFC107"/>
<path d="M73.0392 31.8889C66.5377 40.3201 76.8205 49.1341 71.0485 49.1341C65.2764 49.1341 52.1367 40.0022 52.1367 31.8889C52.1367 23.7757 56.8159 17.1986 62.5879 17.1986C68.36 17.1986 82.3368 12.672 73.0392 31.8889Z" fill="#FFC107"/>
<path d="M22.9092 22.2656L28.3702 25.3599C30.3834 26.5006 31.234 26.5006 33.2473 25.3599L38.7083 22.2656" stroke="#FEFEFE" stroke-width="1.18493" stroke-linejoin="round"/>
<path d="M22.9216 28.1693C22.9733 30.591 22.9991 31.8018 23.8926 32.6987C24.7862 33.5957 26.0298 33.6269 28.5169 33.6894C30.0498 33.7279 31.5676 33.7279 33.1005 33.6894C35.5877 33.6269 36.8313 33.5957 37.7248 32.6987C38.6184 31.8018 38.6442 30.591 38.6958 28.1693C38.7124 27.3907 38.7124 26.6167 38.6958 25.838C38.6442 23.4164 38.6184 22.2056 37.7248 21.3086C36.8313 20.4117 35.5877 20.3804 33.1005 20.318C31.5676 20.2794 30.0498 20.2794 28.5169 20.3179C26.0298 20.3804 24.7862 20.4117 23.8926 21.3086C22.9991 22.2056 22.9733 23.4164 22.9216 25.838C22.905 26.6166 22.905 27.3907 22.9216 28.1693Z" stroke="#FEFEFE" stroke-width="1.18493" stroke-linejoin="round"/>
</g>
<defs>
<clipPath id="clip0_4342_48892">
<rect y="0.929688" width="60.8265" height="52.137" rx="6.31963" fill="white"/>
</clipPath>
</defs>
</svg>
