<svg width="61" height="53" viewBox="0 0 61 53" fill="none" xmlns="http://www.w3.org/2000/svg">
<g clip-path="url(#clip0_4342_48897)">
<rect width="60.8265" height="52.137" rx="6.31963" fill="#FFB800"/>
<path d="M41.0773 3.04404C41.0773 8.06126 44.0784 13.7084 39.4974 13.7084C34.9165 13.7084 24.4883 8.06126 24.4883 3.04404C24.4883 -1.97317 28.2019 -6.04043 32.7828 -6.04043C37.3637 -6.04043 44.2371 -8.80512 41.0773 3.04404Z" fill="#FFC107"/>
<path d="M13.2159 41.3343C6.71448 49.7654 16.9973 58.5794 11.2252 58.5794C5.45317 58.5794 -7.68652 49.4475 -7.68652 41.3343C-7.68652 33.221 -3.00735 26.6439 2.7647 26.6439C8.53675 26.6439 22.5136 22.1173 13.2159 41.3343Z" fill="#FFC107"/>
<path d="M73.0392 30.9593C66.5377 39.3904 76.8205 48.2044 71.0485 48.2044C65.2764 48.2044 52.1367 39.0725 52.1367 30.9593C52.1367 22.846 56.8159 16.2689 62.5879 16.2689C68.36 16.2689 82.3368 11.7423 73.0392 30.9593Z" fill="#FFC107"/>
<path d="M24.3134 26.0259C23.5645 24.72 23.2029 23.6537 22.9849 22.5729C22.6624 20.9743 23.4004 19.4127 24.6229 18.4163C25.1396 17.9952 25.7319 18.1391 26.0374 18.6872L26.7272 19.9247C27.2739 20.9056 27.5473 21.396 27.4931 21.9159C27.4388 22.4359 27.0702 22.8594 26.3328 23.7063L24.3134 26.0259ZM24.3134 26.0259C25.8293 28.669 28.2081 31.0491 30.8543 32.5667M30.8543 32.5667C32.1601 33.3156 33.2264 33.6772 34.3073 33.8953C35.9058 34.2177 37.4674 33.4798 38.4638 32.2572C38.8849 31.7406 38.741 31.1483 38.1929 30.8427L36.9554 30.153C35.9746 29.6062 35.4842 29.3329 34.9642 29.3871C34.4443 29.4413 34.0208 29.81 33.1738 30.5473L30.8543 32.5667Z" stroke="#FEFEFE" stroke-width="1.18493" stroke-linejoin="round"/>
<path d="M32.3887 21.9888C33.513 22.4663 34.414 23.3672 34.8914 24.4915M32.9053 18.1719C35.6995 18.9782 37.9018 21.1804 38.7083 23.9746" stroke="#FEFEFE" stroke-width="1.18493" stroke-linecap="round"/>
</g>
<defs>
<clipPath id="clip0_4342_48897">
<rect width="60.8265" height="52.137" rx="6.31963" fill="white"/>
</clipPath>
</defs>
</svg>
