<svg width="40" height="40" viewBox="0 0 40 40" fill="none" xmlns="http://www.w3.org/2000/svg">
<g clip-path="url(#clip0_4607_5069)">
<rect width="40" height="40" rx="20" fill="#785600"/>
<path opacity="0.48" d="M32 31.4C32.9777 33.2667 33.4667 40.0667 33.4667 40.0667H6C6 40.0667 6.48893 33.2667 7.46667 31.4C8.62371 29.1911 15.5894 26.4843 18.4788 25.4399C19.2927 25.1457 20.1739 25.1457 20.9879 25.4399C23.8773 26.4843 30.843 29.1911 32 31.4Z" fill="#FFD874"/>
<path d="M33 31.4C33.9777 33.2667 34.4667 40.0667 34.4667 40.0667H7C7 40.0667 7.48893 33.2667 8.46667 31.4C9.62371 29.1911 16.5894 26.4843 19.4788 25.4399C20.2927 25.1457 21.1739 25.1457 21.9879 25.4399C24.8773 26.4843 31.843 29.1911 33 31.4Z" fill="#FFD874"/>
<path opacity="0.48" d="M26 17C26 20.3137 23.3137 23 20 23C16.6863 23 14 20.3137 14 17C14 13.6863 16.6863 11 20 11C23.3137 11 26 13.6863 26 17Z" fill="#FFBB0A" stroke="#FFBB0A"/>
<path d="M27 17C27 20.3137 24.3137 23 21 23C17.6863 23 15 20.3137 15 17C15 13.6863 17.6863 11 21 11C24.3137 11 27 13.6863 27 17Z" fill="#FFBB0A" stroke="#FFBB0A"/>
</g>
<defs>
<clipPath id="clip0_4607_5069">
<rect width="40" height="40" rx="20" fill="white"/>
</clipPath>
</defs>
</svg>
