<svg width="17" height="17" viewBox="0 0 17 17" fill="none" xmlns="http://www.w3.org/2000/svg">
<path d="M7.46851 9.16406H10.8018M5.46851 9.16406H5.47449M8.80184 11.8307H5.46851M10.8018 11.8307H10.7959" stroke="#F6F6F6" stroke-linecap="round" stroke-linejoin="round"/>
<path d="M12.135 1.83203V3.16536M4.13501 1.83203V3.16536" stroke="#F6F6F6" stroke-linecap="round" stroke-linejoin="round"/>
<path d="M1.80176 8.66216C1.80176 5.75729 1.80176 4.30486 2.6365 3.40243C3.47125 2.5 4.81475 2.5 7.50176 2.5H8.76842C11.4554 2.5 12.7989 2.5 13.6337 3.40243C14.4684 4.30486 14.4684 5.75729 14.4684 8.66216V9.0045C14.4684 11.9094 14.4684 13.3618 13.6337 14.2642C12.7989 15.1667 11.4554 15.1667 8.76842 15.1667H7.50176C4.81475 15.1667 3.47125 15.1667 2.6365 14.2642C1.80176 13.3618 1.80176 11.9094 1.80176 9.0045V8.66216Z" stroke="#F6F6F6" stroke-linecap="round" stroke-linejoin="round"/>
<path d="M2.13501 5.83203H14.135" stroke="#F6F6F6" stroke-linecap="round" stroke-linejoin="round"/>
</svg>
