<svg width="68" height="56" viewBox="0 0 68 56" fill="none" xmlns="http://www.w3.org/2000/svg">
<path d="M8.54029 59.2884C16.9756 59.2884 28.2227 56.4767 28.2227 36.7943V14.3001C28.2227 10.7854 26.097 8.62876 22.5991 8.67656H11.3521C7.83734 8.67656 5.72852 10.7854 5.72852 14.2214V31.1707C5.72852 34.6854 7.83734 36.7943 11.3521 36.7943C14.1638 36.7943 14.1638 36.7943 14.1638 39.606V42.4178C14.1638 45.2296 11.3521 48.0414 8.54029 48.0414C5.72852 48.0414 5.72852 48.0639 5.72852 50.9403V56.4767C5.72852 59.2884 5.72852 59.2884 8.54029 59.2884ZM42.2815 59.2884C50.7169 59.2884 61.9639 56.4767 61.9639 36.7943V14.3001C61.9639 10.7854 59.8354 8.62876 56.3404 8.67656H45.0933C41.5786 8.67656 39.4698 10.7854 39.4698 14.2214V31.1707C39.4698 34.6854 41.5786 36.7943 45.0933 36.7943H47.2021C47.2021 43.1208 47.9051 48.0414 39.4698 48.0414V56.4767C39.4698 59.2884 39.4698 59.2884 42.2815 59.2884Z" stroke="#FFBB0A" stroke-width="0.674825" stroke-linecap="round" stroke-linejoin="round"/>
</svg>
