<svg width="223" height="40" viewBox="0 0 223 40" fill="none" xmlns="http://www.w3.org/2000/svg">
<path d="M35.1547 37.7331L25.1709 18.8164L29.3746 19.0791L39.3584 37.7331H35.1547Z" fill="black" stroke="black" stroke-width="0.525464"/>
<path d="M19.1266 2.26562L26.2204 15.4022H22.0166L19.1266 10.1476L17.0247 13.3004L30.1613 37.7345L7.8291 37.4717L15.1856 24.5979L17.0247 28.5388L14.1347 34.0562H23.8558L13.0837 13.3004L19.1266 2.26562Z" fill="#FFBB0A" stroke="#FFBB0A" stroke-width="0.525464"/>
<path d="M12.0347 16.9805L1 37.4736H5.46645L14.1366 20.6587L12.0347 16.9805Z" fill="black" stroke="black" stroke-width="0.525464"/>
<path d="M52.3384 18L57.8784 4H60.7584L66.2584 18H62.8184L60.1784 10.9C60.0717 10.62 59.9651 10.32 59.8584 10C59.7517 9.68 59.6451 9.35333 59.5384 9.02C59.4317 8.67333 59.3251 8.34 59.2184 8.02C59.1251 7.68667 59.0451 7.38 58.9784 7.1L59.5784 7.08C59.4984 7.41333 59.4051 7.74 59.2984 8.06C59.2051 8.38 59.1051 8.7 58.9984 9.02C58.9051 9.32667 58.7984 9.64 58.6784 9.96C58.5584 10.2667 58.4451 10.5867 58.3384 10.92L55.6984 18H52.3384ZM54.9784 15.32L56.0384 12.76H62.4784L63.5184 15.32H54.9784ZM70.0051 18V4H73.0451L80.3851 14L79.7251 13.9C79.6585 13.46 79.6051 13.04 79.5651 12.64C79.5251 12.24 79.4851 11.8467 79.4451 11.46C79.4185 11.0733 79.3918 10.68 79.3651 10.28C79.3518 9.88 79.3385 9.44667 79.3251 8.98C79.3251 8.51333 79.3251 8.00667 79.3251 7.46V4H82.6251V18H79.5451L71.8851 7.68L72.9051 7.82C72.9718 8.46 73.0251 9.00667 73.0651 9.46C73.1185 9.9 73.1585 10.2933 73.1851 10.64C73.2251 10.9867 73.2518 11.3 73.2651 11.58C73.2785 11.86 73.2851 12.14 73.2851 12.42C73.2985 12.6867 73.3051 12.9867 73.3051 13.32V18H70.0051ZM86.3579 18L91.8979 4H94.7779L100.278 18H96.8379L94.1979 10.9C94.0913 10.62 93.9846 10.32 93.8779 10C93.7713 9.68 93.6646 9.35333 93.5579 9.02C93.4513 8.67333 93.3446 8.34 93.2379 8.02C93.1446 7.68667 93.0646 7.38 92.9979 7.1L93.5979 7.08C93.5179 7.41333 93.4246 7.74 93.3179 8.06C93.2246 8.38 93.1246 8.7 93.0179 9.02C92.9246 9.32667 92.8179 9.64 92.6979 9.96C92.5779 10.2667 92.4646 10.5867 92.3579 10.92L89.7179 18H86.3579ZM88.9979 15.32L90.0579 12.76H96.4979L97.5379 15.32H88.9979ZM104.025 18V4H107.425V15H113.665V18H104.025ZM124.202 18.2C123.135 18.2 122.162 18.02 121.282 17.66C120.402 17.3 119.635 16.7933 118.982 16.14C118.328 15.4867 117.822 14.72 117.462 13.84C117.102 12.96 116.922 11.9933 116.922 10.94C116.922 9.88667 117.102 8.92 117.462 8.04C117.822 7.16 118.328 6.39333 118.982 5.74C119.635 5.08667 120.402 4.58 121.282 4.22C122.162 3.86 123.128 3.68 124.182 3.68C125.235 3.68 126.202 3.86 127.082 4.22C127.962 4.58 128.728 5.08667 129.382 5.74C130.035 6.39333 130.535 7.16 130.882 8.04C131.242 8.92 131.422 9.88667 131.422 10.94C131.422 11.98 131.242 12.9467 130.882 13.84C130.535 14.72 130.035 15.4867 129.382 16.14C128.728 16.7933 127.962 17.3 127.082 17.66C126.202 18.02 125.242 18.2 124.202 18.2ZM124.182 15C124.728 15 125.228 14.9 125.682 14.7C126.148 14.5 126.548 14.22 126.882 13.86C127.228 13.4867 127.495 13.0533 127.682 12.56C127.868 12.0667 127.962 11.5267 127.962 10.94C127.962 10.3533 127.868 9.81333 127.682 9.32C127.495 8.82667 127.228 8.4 126.882 8.04C126.548 7.66667 126.148 7.38 125.682 7.18C125.228 6.98 124.728 6.88 124.182 6.88C123.635 6.88 123.128 6.98 122.662 7.18C122.208 7.38 121.808 7.66667 121.462 8.04C121.115 8.4 120.848 8.82667 120.662 9.32C120.488 9.81333 120.402 10.3533 120.402 10.94C120.402 11.5267 120.488 12.0733 120.662 12.58C120.848 13.0733 121.115 13.5 121.462 13.86C121.808 14.22 122.208 14.5 122.662 14.7C123.128 14.9 123.635 15 124.182 15ZM142.552 18.2C141.432 18.2 140.419 18.02 139.512 17.66C138.605 17.3 137.825 16.7933 137.172 16.14C136.519 15.4867 136.019 14.72 135.672 13.84C135.325 12.9467 135.152 11.98 135.152 10.94C135.152 9.9 135.332 8.94667 135.692 8.08C136.065 7.2 136.592 6.43333 137.272 5.78C137.952 5.12667 138.752 4.62 139.672 4.26C140.605 3.9 141.619 3.72 142.712 3.72C143.485 3.72 144.212 3.82 144.892 4.02C145.585 4.22 146.212 4.49333 146.772 4.84C147.332 5.18667 147.805 5.58667 148.192 6.04L146.132 8.22C145.799 7.9 145.452 7.63333 145.092 7.42C144.745 7.20667 144.372 7.04 143.972 6.92C143.572 6.78667 143.145 6.72 142.692 6.72C142.105 6.72 141.565 6.82667 141.072 7.04C140.592 7.25333 140.165 7.55333 139.792 7.94C139.432 8.31333 139.152 8.76 138.952 9.28C138.752 9.78667 138.652 10.34 138.652 10.94C138.652 11.54 138.759 12.1 138.972 12.62C139.185 13.14 139.479 13.5933 139.852 13.98C140.225 14.3533 140.665 14.6533 141.172 14.88C141.692 15.0933 142.245 15.2 142.832 15.2C143.245 15.2 143.632 15.1333 143.992 15C144.365 14.8667 144.685 14.6867 144.952 14.46C145.219 14.2333 145.432 13.9667 145.592 13.66C145.752 13.34 145.832 13 145.832 12.64V12.12L146.272 12.8H142.412V10.14H148.992C149.019 10.2867 149.039 10.4867 149.052 10.74C149.065 10.9933 149.072 11.24 149.072 11.48C149.085 11.72 149.092 11.9 149.092 12.02C149.092 12.9267 148.925 13.76 148.592 14.52C148.272 15.2667 147.819 15.9133 147.232 16.46C146.645 17.0067 145.952 17.4333 145.152 17.74C144.352 18.0467 143.485 18.2 142.552 18.2ZM159.597 18.12C158.437 18.12 157.403 17.8867 156.497 17.42C155.59 16.94 154.877 16.2867 154.357 15.46C153.85 14.6333 153.597 13.6867 153.597 12.62V4H157.037V12.44C157.037 12.9467 157.15 13.4067 157.377 13.82C157.603 14.22 157.91 14.54 158.297 14.78C158.683 15.0067 159.117 15.12 159.597 15.12C160.103 15.12 160.55 15.0067 160.937 14.78C161.337 14.54 161.657 14.22 161.897 13.82C162.137 13.4067 162.257 12.9467 162.257 12.44V4H165.577V12.62C165.577 13.6867 165.317 14.6333 164.797 15.46C164.29 16.2867 163.583 16.94 162.677 17.42C161.77 17.8867 160.743 18.12 159.597 18.12ZM170.989 18V4H180.749V6.9H174.289V15.1H180.949V18H170.989ZM172.589 12.26V9.5H179.849V12.26H172.589Z" fill="#FFBB0A"/>
<path d="M58.7584 38.2C57.8384 38.2 57.0051 38.0933 56.2584 37.88C55.5251 37.6533 54.8717 37.3333 54.2984 36.92C53.7251 36.4933 53.2117 35.9933 52.7584 35.42L54.8184 33.08C55.4851 33.9733 56.1517 34.5733 56.8184 34.88C57.4984 35.1867 58.1984 35.34 58.9184 35.34C59.2784 35.34 59.6051 35.2933 59.8984 35.2C60.1917 35.1067 60.4184 34.9733 60.5784 34.8C60.7384 34.6133 60.8184 34.3867 60.8184 34.12C60.8184 33.92 60.7651 33.74 60.6584 33.58C60.5651 33.42 60.4317 33.28 60.2584 33.16C60.0851 33.04 59.8784 32.9333 59.6384 32.84C59.3984 32.7333 59.1451 32.6467 58.8784 32.58C58.6117 32.5 58.3384 32.4333 58.0584 32.38C57.2851 32.2067 56.6117 31.9933 56.0384 31.74C55.4651 31.4867 54.9851 31.18 54.5984 30.82C54.2251 30.4467 53.9451 30.0267 53.7584 29.56C53.5717 29.08 53.4784 28.5467 53.4784 27.96C53.4784 27.3333 53.6184 26.76 53.8984 26.24C54.1917 25.7067 54.5784 25.2533 55.0584 24.88C55.5517 24.4933 56.1184 24.2 56.7584 24C57.3984 23.7867 58.0651 23.68 58.7584 23.68C59.6784 23.68 60.4651 23.78 61.1184 23.98C61.7851 24.1667 62.3517 24.44 62.8184 24.8C63.2984 25.16 63.7051 25.5933 64.0384 26.1L61.9384 28.12C61.6584 27.7733 61.3517 27.4867 61.0184 27.26C60.6984 27.0333 60.3517 26.86 59.9784 26.74C59.6184 26.62 59.2451 26.56 58.8584 26.56C58.4584 26.56 58.1117 26.6133 57.8184 26.72C57.5384 26.8133 57.3184 26.9533 57.1584 27.14C56.9984 27.3133 56.9184 27.5267 56.9184 27.78C56.9184 28.0067 56.9851 28.2 57.1184 28.36C57.2517 28.52 57.4317 28.6667 57.6584 28.8C57.8851 28.92 58.1451 29.0267 58.4384 29.12C58.7317 29.2 59.0384 29.2667 59.3584 29.32C60.0917 29.4667 60.7517 29.66 61.3384 29.9C61.9384 30.14 62.4517 30.4333 62.8784 30.78C63.3184 31.1267 63.6517 31.54 63.8784 32.02C64.1184 32.4867 64.2384 33.0333 64.2384 33.66C64.2384 34.6333 63.9984 35.46 63.5184 36.14C63.0517 36.8067 62.4051 37.32 61.5784 37.68C60.7651 38.0267 59.8251 38.2 58.7584 38.2ZM91.4742 38V24H94.8742V38H91.4742ZM82.7942 38V24H86.1942V38H82.7942ZM84.1142 32.54L84.1342 29.5H93.2742V32.54H84.1142ZM114.1 38V35.14H116.46V26.86H114.1V24H122.24V26.86H119.86V35.14H122.24V38H114.1ZM141.474 38V24H144.874V38H141.474ZM143.054 32.64V29.8H150.294V32.64H143.054ZM143.054 27V24H151.114V27H143.054ZM173.17 38V27H169.01V24H180.83V27H176.57V38H173.17ZM203.876 38.2C202.956 38.2 202.122 38.0933 201.376 37.88C200.642 37.6533 199.989 37.3333 199.416 36.92C198.842 36.4933 198.329 35.9933 197.876 35.42L199.936 33.08C200.602 33.9733 201.269 34.5733 201.936 34.88C202.616 35.1867 203.316 35.34 204.036 35.34C204.396 35.34 204.722 35.2933 205.016 35.2C205.309 35.1067 205.536 34.9733 205.696 34.8C205.856 34.6133 205.936 34.3867 205.936 34.12C205.936 33.92 205.882 33.74 205.776 33.58C205.682 33.42 205.549 33.28 205.376 33.16C205.202 33.04 204.996 32.9333 204.756 32.84C204.516 32.7333 204.262 32.6467 203.996 32.58C203.729 32.5 203.456 32.4333 203.176 32.38C202.402 32.2067 201.729 31.9933 201.156 31.74C200.582 31.4867 200.102 31.18 199.716 30.82C199.342 30.4467 199.062 30.0267 198.876 29.56C198.689 29.08 198.596 28.5467 198.596 27.96C198.596 27.3333 198.736 26.76 199.016 26.24C199.309 25.7067 199.696 25.2533 200.176 24.88C200.669 24.4933 201.236 24.2 201.876 24C202.516 23.7867 203.182 23.68 203.876 23.68C204.796 23.68 205.582 23.78 206.236 23.98C206.902 24.1667 207.469 24.44 207.936 24.8C208.416 25.16 208.822 25.5933 209.156 26.1L207.056 28.12C206.776 27.7733 206.469 27.4867 206.136 27.26C205.816 27.0333 205.469 26.86 205.096 26.74C204.736 26.62 204.362 26.56 203.976 26.56C203.576 26.56 203.229 26.6133 202.936 26.72C202.656 26.8133 202.436 26.9533 202.276 27.14C202.116 27.3133 202.036 27.5267 202.036 27.78C202.036 28.0067 202.102 28.2 202.236 28.36C202.369 28.52 202.549 28.6667 202.776 28.8C203.002 28.92 203.262 29.0267 203.556 29.12C203.849 29.2 204.156 29.2667 204.476 29.32C205.209 29.4667 205.869 29.66 206.456 29.9C207.056 30.14 207.569 30.4333 207.996 30.78C208.436 31.1267 208.769 31.54 208.996 32.02C209.236 32.4867 209.356 33.0333 209.356 33.66C209.356 34.6333 209.116 35.46 208.636 36.14C208.169 36.8067 207.522 37.32 206.696 37.68C205.882 38.0267 204.942 38.2 203.876 38.2Z" fill="#262626"/>
</svg>
