<svg width="40" height="41" viewBox="0 0 40 41" fill="none" xmlns="http://www.w3.org/2000/svg">
<rect y="0.683594" width="40" height="40" rx="20" fill="#785600"/>
<g style="mix-blend-mode:luminosity">
<path d="M13.1584 20.1746C13.0849 21.5706 13.1694 23.0566 11.9221 23.992C11.3416 24.4274 11 25.1106 11 25.8363C11 26.8344 11.7818 27.6836 12.8 27.6836H27.2C28.2182 27.6836 29 26.8344 29 25.8363C29 25.1106 28.6584 24.4274 28.0779 23.992C26.8306 23.0566 26.9151 21.5706 26.8416 20.1746C26.6501 16.5358 23.6438 13.6836 20 13.6836C16.3562 13.6836 13.3499 16.5358 13.1584 20.1746Z" fill="#FFE090" stroke="#FFBB0A" stroke-width="1.5" stroke-linecap="round" stroke-linejoin="round"/>
<path d="M18.5 11.8086C18.5 12.637 19.1716 13.6836 20 13.6836C20.8284 13.6836 21.5 12.637 21.5 11.8086C21.5 10.9802 20.8284 10.6836 20 10.6836C19.1716 10.6836 18.5 10.9802 18.5 11.8086Z" stroke="#FFBB0A" stroke-width="1.5"/>
<path d="M23 27.6836C23 29.3404 21.6569 30.6836 20 30.6836C18.3431 30.6836 17 29.3404 17 27.6836" stroke="#FFBB0A" stroke-width="1.5" stroke-linecap="round" stroke-linejoin="round"/>
</g>
<path d="M14.1584 20.1746C14.0849 21.5706 14.1694 23.0566 12.9221 23.992C12.3416 24.4274 12 25.1106 12 25.8363C12 26.8344 12.7818 27.6836 13.8 27.6836H28.2C29.2182 27.6836 30 26.8344 30 25.8363C30 25.1106 29.6584 24.4274 29.0779 23.992C27.8306 23.0566 27.9151 21.5706 27.8416 20.1746C27.6501 16.5358 24.6438 13.6836 21 13.6836C17.3562 13.6836 14.3499 16.5358 14.1584 20.1746Z" fill="#FFE090" stroke="#FFBB0A" stroke-width="1.5" stroke-linecap="round" stroke-linejoin="round"/>
<path d="M19.5 11.8086C19.5 12.637 20.1716 13.6836 21 13.6836C21.8284 13.6836 22.5 12.637 22.5 11.8086C22.5 10.9802 21.8284 10.6836 21 10.6836C20.1716 10.6836 19.5 10.9802 19.5 11.8086Z" stroke="#FFBB0A" stroke-width="1.5"/>
<path d="M24 27.6836C24 29.3404 22.6569 30.6836 21 30.6836C19.3431 30.6836 18 29.3404 18 27.6836" stroke="#FFBB0A" stroke-width="1.5" stroke-linecap="round" stroke-linejoin="round"/>
</svg>
