<svg width="40" height="41" viewBox="0 0 40 41" fill="none" xmlns="http://www.w3.org/2000/svg">
<rect y="0.773438" width="40" height="40" rx="20" fill="#785600"/>
<g opacity="0.48">
<rect width="24" height="24" transform="translate(8 8.77344)" fill="#785600"/>
<path d="M16 13.7734V15.2734H24V13.7734C24 12.6689 23.1046 11.7734 22 11.7734H18C16.8954 11.7734 16 12.6689 16 13.7734Z" stroke="#FFE090"/>
<path d="M12 28.2734V20.7734H28.5V28.2734C28.5 29.378 27.6046 30.2734 26.5 30.2734H14C12.8954 30.2734 12 29.378 12 28.2734Z" fill="#FFE090" stroke="#FFE090"/>
<path d="M28.5 14.7734H12C10.8954 14.7734 10 15.6689 10 16.7734V18.2734C10 20.4826 11.7909 22.2734 14 22.2734H26.5C28.7091 22.2734 30.5 20.4826 30.5 18.2734V16.7734C30.5 15.6689 29.6046 14.7734 28.5 14.7734Z" fill="#FFBB0A" stroke="#FFBB0A"/>
<circle cx="21" cy="19.7734" r="1" fill="#FFE090"/>
</g>
<path d="M17 13.7734V15.2734H25V13.7734C25 12.6689 24.1046 11.7734 23 11.7734H19C17.8954 11.7734 17 12.6689 17 13.7734Z" stroke="#FFBB0A"/>
<path d="M13 28.2734V20.7734H29.5V28.2734C29.5 29.378 28.6046 30.2734 27.5 30.2734H15C13.8954 30.2734 13 29.378 13 28.2734Z" fill="#FFE090" stroke="#FFBB0A"/>
<path d="M29.5 14.7734H13C11.8954 14.7734 11 15.6689 11 16.7734V18.2734C11 20.4826 12.7909 22.2734 15 22.2734H27.5C29.7091 22.2734 31.5 20.4826 31.5 18.2734V16.7734C31.5 15.6689 30.6046 14.7734 29.5 14.7734Z" fill="#FFBB0A" stroke="#FFBB0A"/>
<circle cx="22" cy="19.7734" r="0.5" fill="#FFE090" stroke="#FFBB0A"/>
</svg>
