<svg width="40" height="41" viewBox="0 0 40 41" fill="none" xmlns="http://www.w3.org/2000/svg">
<rect y="0.183594" width="40" height="40" rx="20" fill="#785600"/>
<g clip-path="url(#clip0_3477_45864)">
<g style="mix-blend-mode:luminosity">
<path d="M10 26.1836C10 24.6432 10 23.8729 10.3467 23.3071C10.5407 22.9905 10.8069 22.7243 11.1235 22.5303C11.6893 22.1836 12.4596 22.1836 14 22.1836C15.5404 22.1836 16.3107 22.1836 16.8765 22.5303C17.1931 22.7243 17.4593 22.9905 17.6533 23.3071C18 23.8729 18 24.6432 18 26.1836C18 27.724 18 28.4943 17.6533 29.0601C17.4593 29.3767 17.1931 29.6429 16.8765 29.8369C16.3107 30.1836 15.5404 30.1836 14 30.1836C12.4596 30.1836 11.6893 30.1836 11.1235 29.8369C10.8069 29.6429 10.5407 29.3767 10.3467 29.0601C10 28.4943 10 27.724 10 26.1836Z" fill="#FFE090" stroke="#FFBB0A" stroke-width="1.5"/>
<path d="M22 26.1836C22 24.6432 22 23.8729 22.3467 23.3071C22.5407 22.9905 22.8069 22.7243 23.1235 22.5303C23.6893 22.1836 24.4596 22.1836 26 22.1836C27.5404 22.1836 28.3107 22.1836 28.8765 22.5303C29.1931 22.7243 29.4593 22.9905 29.6533 23.3071C30 23.8729 30 24.6432 30 26.1836C30 27.724 30 28.4943 29.6533 29.0601C29.4593 29.3767 29.1931 29.6429 28.8765 29.8369C28.3107 30.1836 27.5404 30.1836 26 30.1836C24.4596 30.1836 23.6893 30.1836 23.1235 29.8369C22.8069 29.6429 22.5407 29.3767 22.3467 29.0601C22 28.4943 22 27.724 22 26.1836Z" fill="#FFE090" stroke="#FFBB0A" stroke-width="1.5"/>
<path d="M10 14.1836C10 12.6432 10 11.8729 10.3467 11.3071C10.5407 10.9905 10.8069 10.7243 11.1235 10.5303C11.6893 10.1836 12.4596 10.1836 14 10.1836C15.5404 10.1836 16.3107 10.1836 16.8765 10.5303C17.1931 10.7243 17.4593 10.9905 17.6533 11.3071C18 11.8729 18 12.6432 18 14.1836C18 15.724 18 16.4943 17.6533 17.0601C17.4593 17.3767 17.1931 17.6429 16.8765 17.8369C16.3107 18.1836 15.5404 18.1836 14 18.1836C12.4596 18.1836 11.6893 18.1836 11.1235 17.8369C10.8069 17.6429 10.5407 17.3767 10.3467 17.0601C10 16.4943 10 15.724 10 14.1836Z" fill="#FFE090" stroke="#FFBB0A" stroke-width="1.5"/>
<path d="M22 14.1836C22 12.6432 22 11.8729 22.3467 11.3071C22.5407 10.9905 22.8069 10.7243 23.1235 10.5303C23.6893 10.1836 24.4596 10.1836 26 10.1836C27.5404 10.1836 28.3107 10.1836 28.8765 10.5303C29.1931 10.7243 29.4593 10.9905 29.6533 11.3071C30 11.8729 30 12.6432 30 14.1836C30 15.724 30 16.4943 29.6533 17.0601C29.4593 17.3767 29.1931 17.6429 28.8765 17.8369C28.3107 18.1836 27.5404 18.1836 26 18.1836C24.4596 18.1836 23.6893 18.1836 23.1235 17.8369C22.8069 17.6429 22.5407 17.3767 22.3467 17.0601C22 16.4943 22 15.724 22 14.1836Z" fill="#FFE090" stroke="#FFBB0A" stroke-width="1.5"/>
</g>
<path d="M11 26.1836C11 24.6432 11 23.8729 11.3467 23.3071C11.5407 22.9905 11.8069 22.7243 12.1235 22.5303C12.6893 22.1836 13.4596 22.1836 15 22.1836C16.5404 22.1836 17.3107 22.1836 17.8765 22.5303C18.1931 22.7243 18.4593 22.9905 18.6533 23.3071C19 23.8729 19 24.6432 19 26.1836C19 27.724 19 28.4943 18.6533 29.0601C18.4593 29.3767 18.1931 29.6429 17.8765 29.8369C17.3107 30.1836 16.5404 30.1836 15 30.1836C13.4596 30.1836 12.6893 30.1836 12.1235 29.8369C11.8069 29.6429 11.5407 29.3767 11.3467 29.0601C11 28.4943 11 27.724 11 26.1836Z" fill="#FFE090" stroke="#FFBB0A" stroke-width="1.5"/>
<path d="M23 26.1836C23 24.6432 23 23.8729 23.3467 23.3071C23.5407 22.9905 23.8069 22.7243 24.1235 22.5303C24.6893 22.1836 25.4596 22.1836 27 22.1836C28.5404 22.1836 29.3107 22.1836 29.8765 22.5303C30.1931 22.7243 30.4593 22.9905 30.6533 23.3071C31 23.8729 31 24.6432 31 26.1836C31 27.724 31 28.4943 30.6533 29.0601C30.4593 29.3767 30.1931 29.6429 29.8765 29.8369C29.3107 30.1836 28.5404 30.1836 27 30.1836C25.4596 30.1836 24.6893 30.1836 24.1235 29.8369C23.8069 29.6429 23.5407 29.3767 23.3467 29.0601C23 28.4943 23 27.724 23 26.1836Z" fill="#FFE090" stroke="#FFBB0A" stroke-width="1.5"/>
<path d="M11 14.1836C11 12.6432 11 11.8729 11.3467 11.3071C11.5407 10.9905 11.8069 10.7243 12.1235 10.5303C12.6893 10.1836 13.4596 10.1836 15 10.1836C16.5404 10.1836 17.3107 10.1836 17.8765 10.5303C18.1931 10.7243 18.4593 10.9905 18.6533 11.3071C19 11.8729 19 12.6432 19 14.1836C19 15.724 19 16.4943 18.6533 17.0601C18.4593 17.3767 18.1931 17.6429 17.8765 17.8369C17.3107 18.1836 16.5404 18.1836 15 18.1836C13.4596 18.1836 12.6893 18.1836 12.1235 17.8369C11.8069 17.6429 11.5407 17.3767 11.3467 17.0601C11 16.4943 11 15.724 11 14.1836Z" fill="#FFE090" stroke="#FFBB0A" stroke-width="1.5"/>
<path d="M23 14.1836C23 12.6432 23 11.8729 23.3467 11.3071C23.5407 10.9905 23.8069 10.7243 24.1235 10.5303C24.6893 10.1836 25.4596 10.1836 27 10.1836C28.5404 10.1836 29.3107 10.1836 29.8765 10.5303C30.1931 10.7243 30.4593 10.9905 30.6533 11.3071C31 11.8729 31 12.6432 31 14.1836C31 15.724 31 16.4943 30.6533 17.0601C30.4593 17.3767 30.1931 17.6429 29.8765 17.8369C29.3107 18.1836 28.5404 18.1836 27 18.1836C25.4596 18.1836 24.6893 18.1836 24.1235 17.8369C23.8069 17.6429 23.5407 17.3767 23.3467 17.0601C23 16.4943 23 15.724 23 14.1836Z" fill="#FFE090" stroke="#FFBB0A" stroke-width="1.5"/>
</g>
<defs>
<clipPath id="clip0_3477_45864">
<rect width="24" height="24" fill="white" transform="translate(8 8.18359)"/>
</clipPath>
</defs>
</svg>
