<svg width="40" height="40" viewBox="0 0 40 40" fill="none" xmlns="http://www.w3.org/2000/svg">
<rect width="40" height="40" rx="20" fill="#785600"/>
<g style="mix-blend-mode:luminosity">
<path d="M26.5 11.7266H14L11.5 13.7266V25.7266L13.5 28.7266H26L28.5 26.7266L29 14.7266L26.5 11.7266Z" fill="#FFE090" stroke="#FFE090"/>
<path d="M20 16.2266V24.2266M24 20.2266L16 20.2266" stroke="#FFBB0A" stroke-width="1.5" stroke-linecap="round" stroke-linejoin="round"/>
<path d="M10.5 20.2266C10.5 15.7482 10.5 13.509 11.8912 12.1178C13.2825 10.7266 15.5217 10.7266 20 10.7266C24.4783 10.7266 26.7175 10.7266 28.1088 12.1178C29.5 13.509 29.5 15.7482 29.5 20.2266C29.5 24.7049 29.5 26.9441 28.1088 28.3353C26.7175 29.7266 24.4783 29.7266 20 29.7266C15.5217 29.7266 13.2825 29.7266 11.8912 28.3353C10.5 26.9441 10.5 24.7049 10.5 20.2266Z" stroke="#FFBB0A" stroke-width="1.5"/>
</g>
<path d="M27.5 11.7266H15L12.5 13.7266V25.7266L14.5 28.7266H27L29.5 26.7266L30 14.7266L27.5 11.7266Z" fill="#FFE090" stroke="#FFE090"/>
<path d="M21 16.2266V24.2266M25 20.2266L17 20.2266" stroke="#FFBB0A" stroke-width="1.5" stroke-linecap="round" stroke-linejoin="round"/>
<path d="M11.5 20.2266C11.5 15.7482 11.5 13.509 12.8912 12.1178C14.2825 10.7266 16.5217 10.7266 21 10.7266C25.4783 10.7266 27.7175 10.7266 29.1088 12.1178C30.5 13.509 30.5 15.7482 30.5 20.2266C30.5 24.7049 30.5 26.9441 29.1088 28.3353C27.7175 29.7266 25.4783 29.7266 21 29.7266C16.5217 29.7266 14.2825 29.7266 12.8912 28.3353C11.5 26.9441 11.5 24.7049 11.5 20.2266Z" stroke="#FFBB0A" stroke-width="1.5"/>
</svg>
