<svg width="40" height="41" viewBox="0 0 40 41" fill="none" xmlns="http://www.w3.org/2000/svg">
<rect y="0.683594" width="40" height="40" rx="20" fill="#785600"/>
<g style="mix-blend-mode:luminosity">
<path d="M10.1582 20.6562C10.1582 16.1779 10.1582 13.9387 11.5494 12.5475C12.9407 11.1562 15.1799 11.1562 19.6582 11.1562C24.1365 11.1562 26.3757 11.1562 27.767 12.5475C29.1582 13.9387 29.1582 16.1779 29.1582 20.6562C29.1582 25.1346 29.1582 27.3738 27.767 28.765C26.3757 30.1562 24.1365 30.1562 19.6582 30.1562C15.1799 30.1562 12.9407 30.1562 11.5494 28.765C10.1582 27.3738 10.1582 25.1346 10.1582 20.6562Z" fill="#FFE090" stroke="#FFBB0A" stroke-width="1.5"/>
<path d="M23.9082 24.6562C23.9082 25.0705 24.244 25.4062 24.6582 25.4062C25.0724 25.4062 25.4082 25.0705 25.4082 24.6562H23.9082ZM25.4082 16.6562C25.4082 16.242 25.0724 15.9062 24.6582 15.9062C24.244 15.9062 23.9082 16.242 23.9082 16.6562H25.4082ZM19.996 17.6171C19.6983 17.3292 19.2235 17.3371 18.9355 17.6349C18.6476 17.9326 18.6555 18.4074 18.9533 18.6954L19.996 17.6171ZM20.6888 19.3304L21.2102 18.7913L21.2102 18.7913L20.6888 19.3304ZM20.6888 21.9821L21.2102 22.5212L21.2102 22.5212L20.6888 21.9821ZM18.9533 22.6171C18.6555 22.9051 18.6476 23.3799 18.9355 23.6776C19.2235 23.9754 19.6983 23.9833 19.996 23.6954L18.9533 22.6171ZM14.6582 19.9062C14.244 19.9062 13.9082 20.242 13.9082 20.6562C13.9082 21.0705 14.244 21.4062 14.6582 21.4062L14.6582 19.9062ZM25.4082 24.6562V16.6562H23.9082V24.6562H25.4082ZM18.9533 18.6954L20.1674 19.8696L21.2102 18.7913L19.996 17.6171L18.9533 18.6954ZM20.1674 21.4429L18.9533 22.6171L19.996 23.6954L21.2102 22.5212L20.1674 21.4429ZM20.1674 19.8696C20.506 20.197 20.7041 20.3908 20.827 20.5466C20.9372 20.6862 20.9082 20.6998 20.9082 20.6562H22.4082C22.4082 20.2243 22.2177 19.8875 22.0047 19.6176C21.8044 19.3638 21.5179 19.0889 21.2102 18.7913L20.1674 19.8696ZM21.2102 22.5212C21.5179 22.2236 21.8044 21.9487 22.0047 21.695C22.2177 21.425 22.4082 21.0882 22.4082 20.6562H20.9082C20.9082 20.6127 20.9372 20.6263 20.827 20.7659C20.7041 20.9217 20.506 21.1155 20.1674 21.4429L21.2102 22.5212ZM21.6582 19.9062L14.6582 19.9062L14.6582 21.4062H21.6582V19.9062Z" fill="#FFBB0A"/>
</g>
<path d="M11.1582 20.6562C11.1582 16.1779 11.1582 13.9387 12.5494 12.5475C13.9407 11.1562 16.1799 11.1562 20.6582 11.1562C25.1365 11.1562 27.3757 11.1562 28.767 12.5475C30.1582 13.9387 30.1582 16.1779 30.1582 20.6562C30.1582 25.1346 30.1582 27.3738 28.767 28.765C27.3757 30.1562 25.1365 30.1562 20.6582 30.1562C16.1799 30.1562 13.9407 30.1562 12.5494 28.765C11.1582 27.3738 11.1582 25.1346 11.1582 20.6562Z" fill="#FFE090" stroke="#FFBB0A" stroke-width="1.5"/>
<path d="M24.9082 24.6562C24.9082 25.0705 25.244 25.4062 25.6582 25.4062C26.0724 25.4062 26.4082 25.0705 26.4082 24.6562H24.9082ZM26.4082 16.6562C26.4082 16.242 26.0724 15.9062 25.6582 15.9062C25.244 15.9062 24.9082 16.242 24.9082 16.6562H26.4082ZM20.996 17.6171C20.6983 17.3292 20.2235 17.3371 19.9355 17.6349C19.6476 17.9326 19.6555 18.4074 19.9533 18.6954L20.996 17.6171ZM21.6888 19.3304L22.2102 18.7913L22.2102 18.7913L21.6888 19.3304ZM21.6888 21.9821L22.2102 22.5212L22.2102 22.5212L21.6888 21.9821ZM19.9533 22.6171C19.6555 22.9051 19.6476 23.3799 19.9355 23.6776C20.2235 23.9754 20.6983 23.9833 20.996 23.6954L19.9533 22.6171ZM15.6582 19.9062C15.244 19.9062 14.9082 20.242 14.9082 20.6562C14.9082 21.0705 15.244 21.4062 15.6582 21.4062L15.6582 19.9062ZM26.4082 24.6562V16.6562H24.9082V24.6562H26.4082ZM19.9533 18.6954L21.1674 19.8696L22.2102 18.7913L20.996 17.6171L19.9533 18.6954ZM21.1674 21.4429L19.9533 22.6171L20.996 23.6954L22.2102 22.5212L21.1674 21.4429ZM21.1674 19.8696C21.506 20.197 21.7041 20.3908 21.827 20.5466C21.9372 20.6862 21.9082 20.6998 21.9082 20.6562H23.4082C23.4082 20.2243 23.2177 19.8875 23.0047 19.6176C22.8044 19.3638 22.5179 19.0889 22.2102 18.7913L21.1674 19.8696ZM22.2102 22.5212C22.5179 22.2236 22.8044 21.9487 23.0047 21.695C23.2177 21.425 23.4082 21.0882 23.4082 20.6562H21.9082C21.9082 20.6127 21.9372 20.6263 21.827 20.7659C21.7041 20.9217 21.506 21.1155 21.1674 21.4429L22.2102 22.5212ZM22.6582 19.9062L15.6582 19.9062L15.6582 21.4062H22.6582V19.9062Z" fill="#FFBB0A"/>
</svg>
