<svg width="143" height="101" viewBox="0 0 143 101" fill="none" xmlns="http://www.w3.org/2000/svg">
<g opacity="0.24" filter="url(#filter0_f_4556_55161)">
<g style="mix-blend-mode:luminosity">
<path d="M54.7939 28.6836L58.2058 44.7355L30.8025 78.5221L15.7616 81.7192L23.7228 119.174L107.952 101.27L94.3039 37.0626L54.7939 28.6836Z" fill="#FFBB0A" stroke="#FFBB0A" stroke-width="5.47018"/>
<path d="M127.413 104.039L113.453 42.462C112.211 36.987 111.591 34.2494 109.506 32.3698C107.421 30.4902 104.288 29.8428 98.021 28.548L72.7302 23.3225C65.9704 21.9258 64.659 23.1641 65.9698 28.9458L70.4919 48.8918" stroke="#FFBB0A" stroke-width="8.20527" stroke-linecap="round" stroke-linejoin="round"/>
<path d="M31.8627 123.332L22.7674 83.2153C21.9313 79.5275 22.6736 78.5727 27.066 77.6855L42.9935 74.4684" stroke="#FFBB0A" stroke-width="8.20527" stroke-linecap="round" stroke-linejoin="round"/>
<path d="M132.731 102.951L26.5474 124.398" stroke="#FFBB0A" stroke-width="8.20527" stroke-linecap="round" stroke-linejoin="round"/>
<path d="M76.1032 49.1263L54.8665 53.4157C41.6891 56.0773 39.4624 58.9418 41.9707 70.0051L53.0871 119.037L106.179 108.313L95.0625 59.2815C92.5542 48.2182 89.2806 46.4647 76.1032 49.1263Z" fill="white" stroke="white" stroke-width="8.20527" stroke-linejoin="round"/>
<path d="M64.2246 70.2031L74.843 68.0584M67.2564 83.5755L77.8747 81.4307M70.2881 96.9478L80.9065 94.8031" stroke="#FFBB0A" stroke-width="8.20527" stroke-linecap="round" stroke-linejoin="round"/>
</g>
<path d="M48.7734 29.957L52.1853 46.0089L24.782 79.7956L9.74109 82.9926L17.7023 120.447L101.931 102.544L88.2834 38.336L48.7734 29.957Z" fill="#FFBB0A" stroke="#FFBB0A" stroke-width="5.47018"/>
<path d="M121.04 105.336L107.08 43.7589C105.838 38.2838 105.218 35.5463 103.133 33.6667C101.048 31.7871 97.9149 31.1397 91.648 29.8448L66.3572 24.6194C59.5973 23.2227 58.2859 24.461 59.5967 30.2426L64.1188 50.1887" stroke="#FFBB0A" stroke-width="8.20527" stroke-linecap="round" stroke-linejoin="round"/>
<path d="M25.4896 124.629L16.3944 84.5121C15.5583 80.8243 16.3005 79.8695 20.693 78.9823L36.6205 75.7652" stroke="#FFBB0A" stroke-width="8.20527" stroke-linecap="round" stroke-linejoin="round"/>
<path d="M126.358 104.248L20.1743 125.695" stroke="#FFBB0A" stroke-width="8.20527" stroke-linecap="round" stroke-linejoin="round"/>
<path d="M69.7302 50.4232L48.4935 54.7126C35.3161 57.3742 33.0894 60.2386 35.5977 71.302L46.7141 120.334L99.8059 109.61L88.6895 60.5784C86.1812 49.515 82.9075 47.7616 69.7302 50.4232Z" fill="white" stroke="white" stroke-width="8.20527" stroke-linejoin="round"/>
<path d="M57.8516 71.5L68.4699 69.3553M60.8833 84.8723L71.5017 82.7276M63.9151 98.2447L74.5334 96.1" stroke="#FFBB0A" stroke-width="8.20527" stroke-linecap="round" stroke-linejoin="round"/>
</g>
<g style="mix-blend-mode:luminosity">
<path d="M65.9775 15.3702L69.3895 31.4222L45.6475 64.4306L32.2709 67.2739L40.2321 104.728L115.141 88.8059L101.493 24.5983L65.9775 15.3702Z" fill="#FFBB0A" stroke="#FFBB0A" stroke-width="5.47018"/>
<path d="M133.286 92.0015L119.417 30.4051C118.184 24.9283 117.568 22.1899 115.662 20.2724C113.755 18.3548 110.939 17.64 105.307 16.2103L82.5756 10.4408C76.4999 8.89867 75.3552 10.1015 76.6574 15.885L81.1496 35.8374" stroke="#FFBB0A" stroke-width="8.20527" stroke-linecap="round" stroke-linejoin="round"/>
<path d="M48.2846 109.057L39.2495 68.9276C38.4189 65.2386 39.0611 64.3051 42.9686 63.521L57.1375 60.6777" stroke="#FFBB0A" stroke-width="8.20527" stroke-linecap="round" stroke-linejoin="round"/>
<path d="M138.016 91.0448L43.5562 110" stroke="#FFBB0A" stroke-width="8.20527" stroke-linecap="round" stroke-linejoin="round"/>
<path d="M86.1722 36.2016L67.2803 39.9927C55.5578 42.345 53.6313 45.1456 56.123 56.2125L67.1659 105.26L114.396 95.7824L103.353 46.7349C100.861 35.668 97.8947 33.8493 86.1722 36.2016Z" fill="white" stroke="white" stroke-width="8.20527" stroke-linejoin="round"/>
<path d="M76.0249 56.9062L85.4709 55.0107M79.0366 70.2828L88.4826 68.3873M82.0483 83.6594L91.4943 81.7639" stroke="#FFBB0A" stroke-width="8.20527" stroke-linecap="round" stroke-linejoin="round"/>
</g>
<path d="M71.54 14.6515L74.952 30.7034L51.21 63.7118L37.8334 66.5551L45.7946 104.01L120.704 88.0872L107.056 23.8795L71.54 14.6515Z" fill="#FFBB0A" stroke="#FFBB0A" stroke-width="5.47018"/>
<path d="M127.178 92.0874L113.31 30.491C112.076 25.0142 111.46 22.2758 109.554 20.3583C107.648 18.4408 104.831 17.7259 99.1986 16.2963L76.4677 10.5267C70.392 8.98461 69.2473 10.1875 70.5494 15.9709L75.0417 35.9233" stroke="#FFBB0A" stroke-width="8.20527" stroke-linecap="round" stroke-linejoin="round"/>
<path d="M42.1767 109.143L33.1416 69.0136C32.311 65.3246 32.9532 64.391 36.8607 63.6069L51.0296 60.7636" stroke="#FFBB0A" stroke-width="8.20527" stroke-linecap="round" stroke-linejoin="round"/>
<path d="M131.908 91.1307L37.4482 110.086" stroke="#FFBB0A" stroke-width="8.20527" stroke-linecap="round" stroke-linejoin="round"/>
<path d="M80.0643 36.2875L61.1724 40.0786C49.4499 42.4309 47.5234 45.2316 50.0151 56.2985L61.058 105.346L108.288 95.8684L97.245 46.8209C94.7533 35.754 91.7868 33.9352 80.0643 36.2875Z" fill="white" stroke="white" stroke-width="8.20527" stroke-linejoin="round"/>
<path d="M69.917 56.9922L79.363 55.0967M72.9287 70.3688L82.3747 68.4733M75.9404 83.7454L85.3864 81.8499" stroke="#FFBB0A" stroke-width="8.20527" stroke-linecap="round" stroke-linejoin="round"/>
<defs>
<filter id="filter0_f_4556_55161" x="1.82965" y="14.0513" width="139.692" height="120.397" filterUnits="userSpaceOnUse" color-interpolation-filters="sRGB">
<feFlood flood-opacity="0" result="BackgroundImageFix"/>
<feBlend mode="normal" in="SourceGraphic" in2="BackgroundImageFix" result="shape"/>
<feGaussianBlur stdDeviation="2.33371" result="effect1_foregroundBlur_4556_55161"/>
</filter>
</defs>
</svg>
