<svg width="250" height="114" viewBox="0 0 250 114" fill="none" xmlns="http://www.w3.org/2000/svg">
<g clip-path="url(#clip0_4554_52584)">
<rect width="250" height="114" rx="22.876" fill="#FFBC0B" fill-opacity="0.14"/>
<rect width="87.2149" height="120.099" transform="translate(80.8926 -2.85938)" fill="white"/>
<line x1="89.4712" y1="26.2744" x2="158.814" y2="26.2744" stroke="#FFF5DA" stroke-width="0.357438"/>
<line x1="89.4712" y1="26.2744" x2="158.814" y2="26.2744" stroke="#FFF5DA" stroke-width="0.357438"/>
<line x1="89.4712" y1="49.8603" x2="158.814" y2="49.8603" stroke="#FFF5DA" stroke-width="0.357438"/>
<line x1="89.4712" y1="49.8603" x2="158.814" y2="49.8603" stroke="#FFF5DA" stroke-width="0.357438"/>
<line x1="89.4712" y1="73.4541" x2="158.814" y2="73.4541" stroke="#FFF5DA" stroke-width="0.357438"/>
<line x1="89.4712" y1="73.4541" x2="158.814" y2="73.4541" stroke="#FFF5DA" stroke-width="0.357438"/>
<line x1="89.4712" y1="96.3291" x2="158.814" y2="96.3291" stroke="#FFF5DA" stroke-width="0.357438"/>
<line x1="89.4712" y1="96.3291" x2="158.814" y2="96.3291" stroke="#FFF5DA" stroke-width="0.357438"/>
<g clip-path="url(#clip1_4554_52584)">
<rect x="89.4712" y="5.71875" width="12.1529" height="12.1529" rx="6.07645" fill="#FF0000"/>
<path fill-rule="evenodd" clip-rule="evenodd" d="M94.2799 9.99487C95.1244 9.92879 95.9728 9.92879 96.8174 9.99487L97.3847 10.0393C97.7007 10.064 97.9592 10.3008 98.0114 10.6134C98.1421 11.3956 98.1421 12.1941 98.0114 12.9763C97.9592 13.289 97.7007 13.5258 97.3847 13.5505L96.8174 13.5949C95.9728 13.661 95.1244 13.661 94.2799 13.5949L93.7126 13.5505C93.3966 13.5258 93.138 13.289 93.0858 12.9763C92.9551 12.1941 92.9551 11.3956 93.0858 10.6134C93.138 10.3008 93.3966 10.064 93.7126 10.0393L94.2799 9.99487ZM95.0422 12.4203V11.1695C95.0422 11.1104 95.1066 11.074 95.1573 11.1043L96.1996 11.7298C96.2488 11.7593 96.2488 11.8305 96.1996 11.86L95.1573 12.4854C95.1066 12.5158 95.0422 12.4793 95.0422 12.4203Z" fill="white"/>
<rect x="89.4717" y="5.71875" width="12.1529" height="12.1529" rx="6.07645" fill="#785600"/>
<g opacity="0.48" clip-path="url(#clip2_4554_52584)">
<rect width="7.29174" height="7.29174" transform="translate(91.9028 8.14844)" fill="#785600"/>
<path d="M94.332 9.67014V10.1259H96.7626V9.67014C96.7626 9.33455 96.4906 9.0625 96.155 9.0625H94.9397C94.6041 9.0625 94.332 9.33455 94.332 9.67014Z" stroke="#FFD874" stroke-width="0.303822"/>
<path d="M93.1167 14.0755V11.7969H98.1298V14.0755C98.1298 14.4111 97.8577 14.6832 97.5221 14.6832H93.7243C93.3888 14.6832 93.1167 14.4111 93.1167 14.0755Z" fill="#FFD874" stroke="#FFD874" stroke-width="0.303822"/>
<path d="M98.13 9.97656H93.1169C92.7813 9.97656 92.5093 10.2486 92.5093 10.5842V11.0399C92.5093 11.7111 93.0534 12.2552 93.7246 12.2552H97.5223C98.1935 12.2552 98.7376 11.7111 98.7376 11.0399V10.5842C98.7376 10.2486 98.4656 9.97656 98.13 9.97656Z" fill="#FFBB0A" stroke="#FFBB0A" stroke-width="0.303822"/>
<circle cx="95.8512" cy="11.4913" r="0.303822" fill="#FFD874"/>
</g>
<g clip-path="url(#clip3_4554_52584)">
<path d="M94.6367 9.67014V10.1259H97.0673V9.67014C97.0673 9.33455 96.7952 9.0625 96.4597 9.0625H95.2444C94.9088 9.0625 94.6367 9.33455 94.6367 9.67014Z" stroke="#FFD874" stroke-width="0.303822"/>
<path d="M93.4214 14.0755V11.7969H98.4345V14.0755C98.4345 14.4111 98.1624 14.6832 97.8268 14.6832H94.029C93.6934 14.6832 93.4214 14.4111 93.4214 14.0755Z" fill="#FFD874" stroke="#FFD874" stroke-width="0.303822"/>
<path d="M98.4347 9.97656H93.4216C93.086 9.97656 92.814 10.2486 92.814 10.5842V11.0399C92.814 11.7111 93.3581 12.2552 94.0293 12.2552H97.827C98.4982 12.2552 99.0423 11.7111 99.0423 11.0399V10.5842C99.0423 10.2486 98.7703 9.97656 98.4347 9.97656Z" fill="#FFBB0A" stroke="#FFBB0A" stroke-width="0.303822"/>
<circle cx="96.1559" cy="11.4913" r="0.303822" fill="#FFD874"/>
</g>
</g>
<g clip-path="url(#clip4_4554_52584)">
<rect x="89.4712" y="31.4531" width="12.1529" height="12.1529" rx="6.07645" fill="#FF0000"/>
<path fill-rule="evenodd" clip-rule="evenodd" d="M94.2799 35.7214C95.1244 35.6554 95.9728 35.6554 96.8174 35.7214L97.3847 35.7658C97.7007 35.7905 97.9592 36.0274 98.0114 36.34C98.1421 37.1222 98.1421 37.9207 98.0114 38.7029C97.9592 39.0155 97.7007 39.2524 97.3847 39.2771L96.8174 39.3215C95.9728 39.3875 95.1244 39.3875 94.2799 39.3215L93.7126 39.2771C93.3966 39.2524 93.138 39.0155 93.0858 38.7029C92.9551 37.9207 92.9551 37.1222 93.0858 36.34C93.138 36.0274 93.3966 35.7905 93.7126 35.7658L94.2799 35.7214ZM95.0422 38.1468V36.896C95.0422 36.837 95.1066 36.8005 95.1573 36.8309L96.1996 37.4563C96.2488 37.4858 96.2488 37.5571 96.1996 37.5866L95.1573 38.212C95.1066 38.2424 95.0422 38.2059 95.0422 38.1468Z" fill="white"/>
<rect x="89.4717" y="31.4531" width="12.1529" height="12.1529" rx="6.07645" fill="#785600"/>
<g opacity="0.48">
<rect width="7.29174" height="7.29174" transform="translate(91.9028 33.8828)" fill="#785600"/>
<path d="M94.332 35.4045V35.8603H96.7626V35.4045C96.7626 35.0689 96.4906 34.7969 96.155 34.7969H94.9397C94.6041 34.7969 94.332 35.0689 94.332 35.4045Z" stroke="#FFD874" stroke-width="0.303822"/>
<path d="M93.1167 39.8099V37.5312H98.1298V39.8099C98.1298 40.1455 97.8577 40.4176 97.5221 40.4176H93.7243C93.3888 40.4176 93.1167 40.1455 93.1167 39.8099Z" fill="#FFD874" stroke="#FFD874" stroke-width="0.303822"/>
<path d="M98.13 35.7109H93.1169C92.7813 35.7109 92.5093 35.983 92.5093 36.3186V36.7743C92.5093 37.4455 93.0534 37.9896 93.7246 37.9896H97.5223C98.1935 37.9896 98.7376 37.4455 98.7376 36.7743V36.3186C98.7376 35.983 98.4656 35.7109 98.13 35.7109Z" fill="#FFBB0A" stroke="#FFBB0A" stroke-width="0.303822"/>
<circle cx="95.8512" cy="37.2257" r="0.303822" fill="#FFD874"/>
</g>
<g clip-path="url(#clip5_4554_52584)">
<path d="M94.6367 35.4045V35.8603H97.0673V35.4045C97.0673 35.0689 96.7952 34.7969 96.4597 34.7969H95.2444C94.9088 34.7969 94.6367 35.0689 94.6367 35.4045Z" stroke="#FFD874" stroke-width="0.303822"/>
<path d="M93.4214 39.8099V37.5312H98.4345V39.8099C98.4345 40.1455 98.1624 40.4176 97.8268 40.4176H94.029C93.6934 40.4176 93.4214 40.1455 93.4214 39.8099Z" fill="#FFD874" stroke="#FFD874" stroke-width="0.303822"/>
<path d="M98.4347 35.7109H93.4216C93.086 35.7109 92.814 35.983 92.814 36.3186V36.7743C92.814 37.4455 93.3581 37.9896 94.0293 37.9896H97.827C98.4982 37.9896 99.0423 37.4455 99.0423 36.7743V36.3186C99.0423 35.983 98.7703 35.7109 98.4347 35.7109Z" fill="#FFBB0A" stroke="#FFBB0A" stroke-width="0.303822"/>
<circle cx="96.1559" cy="37.2257" r="0.303822" fill="#FFD874"/>
</g>
</g>
<g clip-path="url(#clip6_4554_52584)">
<rect x="89.4712" y="55.0469" width="12.1529" height="12.1529" rx="6.07645" fill="#FF0000"/>
<path fill-rule="evenodd" clip-rule="evenodd" d="M94.2799 59.323C95.1244 59.2569 95.9728 59.2569 96.8174 59.323L97.3847 59.3674C97.7007 59.3921 97.9592 59.6289 98.0114 59.9416C98.1421 60.7238 98.1421 61.5222 98.0114 62.3045C97.9592 62.6171 97.7007 62.8539 97.3847 62.8786L96.8174 62.923C95.9728 62.9891 95.1244 62.9891 94.2799 62.923L93.7126 62.8786C93.3966 62.8539 93.138 62.6171 93.0858 62.3045C92.9551 61.5222 92.9551 60.7238 93.0858 59.9416C93.138 59.6289 93.3966 59.3921 93.7126 59.3674L94.2799 59.323ZM95.0422 61.7484V60.4976C95.0422 60.4386 95.1066 60.4021 95.1573 60.4325L96.1996 61.0579C96.2488 61.0874 96.2488 61.1586 96.1996 61.1881L95.1573 61.8135C95.1066 61.8439 95.0422 61.8075 95.0422 61.7484Z" fill="white"/>
<rect x="89.4717" y="55.0469" width="12.1529" height="12.1529" rx="6.07645" fill="#785600"/>
<g opacity="0.48" clip-path="url(#clip7_4554_52584)">
<rect width="7.29174" height="7.29174" transform="translate(91.9028 57.4766)" fill="#785600"/>
<path d="M94.332 58.9983V59.454H96.7626V58.9983C96.7626 58.6627 96.4906 58.3906 96.155 58.3906H94.9397C94.6041 58.3906 94.332 58.6627 94.332 58.9983Z" stroke="#FFD874" stroke-width="0.303822"/>
<path d="M93.1167 63.4037V61.125H98.1298V63.4037C98.1298 63.7393 97.8577 64.0113 97.5221 64.0113H93.7243C93.3888 64.0113 93.1167 63.7393 93.1167 63.4037Z" fill="#FFD874" stroke="#FFD874" stroke-width="0.303822"/>
<path d="M98.13 59.3047H93.1169C92.7813 59.3047 92.5093 59.5767 92.5093 59.9123V60.3681C92.5093 61.0393 93.0534 61.5834 93.7246 61.5834H97.5223C98.1935 61.5834 98.7376 61.0393 98.7376 60.3681V59.9123C98.7376 59.5767 98.4656 59.3047 98.13 59.3047Z" fill="#FFBB0A" stroke="#FFBB0A" stroke-width="0.303822"/>
<circle cx="95.8512" cy="60.8194" r="0.303822" fill="#FFD874"/>
</g>
<g clip-path="url(#clip8_4554_52584)">
<path d="M94.6367 58.9983V59.454H97.0673V58.9983C97.0673 58.6627 96.7952 58.3906 96.4597 58.3906H95.2444C94.9088 58.3906 94.6367 58.6627 94.6367 58.9983Z" stroke="#FFD874" stroke-width="0.303822"/>
<path d="M93.4214 63.4037V61.125H98.4345V63.4037C98.4345 63.7393 98.1624 64.0113 97.8268 64.0113H94.029C93.6934 64.0113 93.4214 63.7393 93.4214 63.4037Z" fill="#FFD874" stroke="#FFD874" stroke-width="0.303822"/>
<path d="M98.4347 59.3047H93.4216C93.086 59.3047 92.814 59.5767 92.814 59.9123V60.3681C92.814 61.0393 93.3581 61.5834 94.0293 61.5834H97.827C98.4982 61.5834 99.0423 61.0393 99.0423 60.3681V59.9123C99.0423 59.5767 98.7703 59.3047 98.4347 59.3047Z" fill="#FFBB0A" stroke="#FFBB0A" stroke-width="0.303822"/>
<circle cx="96.1559" cy="60.8194" r="0.303822" fill="#FFD874"/>
</g>
</g>
<g clip-path="url(#clip9_4554_52584)">
<rect x="89.4712" y="78.6406" width="12.1529" height="12.1529" rx="6.07645" fill="#FF0000"/>
<path fill-rule="evenodd" clip-rule="evenodd" d="M94.2799 82.9167C95.1244 82.8507 95.9728 82.8507 96.8174 82.9167L97.3847 82.9611C97.7007 82.9858 97.9592 83.2227 98.0114 83.5353C98.1421 84.3175 98.1421 85.116 98.0114 85.8982C97.9592 86.2108 97.7007 86.4477 97.3847 86.4724L96.8174 86.5168C95.9728 86.5828 95.1244 86.5828 94.2799 86.5168L93.7126 86.4724C93.3966 86.4477 93.138 86.2108 93.0858 85.8982C92.9551 85.116 92.9551 84.3175 93.0858 83.5353C93.138 83.2227 93.3966 82.9858 93.7126 82.9611L94.2799 82.9167ZM95.0422 85.3422V84.0914C95.0422 84.0323 95.1066 83.9958 95.1573 84.0262L96.1996 84.6516C96.2488 84.6811 96.2488 84.7524 96.1996 84.7819L95.1573 85.4073C95.1066 85.4377 95.0422 85.4012 95.0422 85.3422Z" fill="white"/>
<rect x="89.4717" y="78.6406" width="12.1529" height="12.1529" rx="6.07645" fill="#785600"/>
<g opacity="0.48" clip-path="url(#clip10_4554_52584)">
<rect width="7.29174" height="7.29174" transform="translate(91.9028 81.0703)" fill="#785600"/>
<path d="M94.332 82.592V83.0478H96.7626V82.592C96.7626 82.2564 96.4906 81.9844 96.155 81.9844H94.9397C94.6041 81.9844 94.332 82.2564 94.332 82.592Z" stroke="#FFD874" stroke-width="0.303822"/>
<path d="M93.1167 86.9974V84.7188H98.1298V86.9974C98.1298 87.333 97.8577 87.6051 97.5221 87.6051H93.7243C93.3888 87.6051 93.1167 87.333 93.1167 86.9974Z" fill="#FFD874" stroke="#FFD874" stroke-width="0.303822"/>
<path d="M98.13 82.8984H93.1169C92.7813 82.8984 92.5093 83.1705 92.5093 83.5061V83.9618C92.5093 84.633 93.0534 85.1771 93.7246 85.1771H97.5223C98.1935 85.1771 98.7376 84.633 98.7376 83.9618V83.5061C98.7376 83.1705 98.4656 82.8984 98.13 82.8984Z" fill="#FFBB0A" stroke="#FFBB0A" stroke-width="0.303822"/>
<circle cx="95.8512" cy="84.4132" r="0.303822" fill="#FFD874"/>
</g>
<g clip-path="url(#clip11_4554_52584)">
<path d="M94.6367 82.592V83.0478H97.0673V82.592C97.0673 82.2564 96.7952 81.9844 96.4597 81.9844H95.2444C94.9088 81.9844 94.6367 82.2564 94.6367 82.592Z" stroke="#FFD874" stroke-width="0.303822"/>
<path d="M93.4214 86.9974V84.7188H98.4345V86.9974C98.4345 87.333 98.1624 87.6051 97.8268 87.6051H94.029C93.6934 87.6051 93.4214 87.333 93.4214 86.9974Z" fill="#FFD874" stroke="#FFD874" stroke-width="0.303822"/>
<path d="M98.4347 82.8984H93.4216C93.086 82.8984 92.814 83.1705 92.814 83.5061V83.9618C92.814 84.633 93.3581 85.1771 94.0293 85.1771H97.827C98.4982 85.1771 99.0423 84.633 99.0423 83.9618V83.5061C99.0423 83.1705 98.7703 82.8984 98.4347 82.8984Z" fill="#FFBB0A" stroke="#FFBB0A" stroke-width="0.303822"/>
<circle cx="96.1559" cy="84.4132" r="0.303822" fill="#FFD874"/>
</g>
</g>
<g clip-path="url(#clip12_4554_52584)">
<rect x="89.4712" y="102.227" width="12.1529" height="12.1529" rx="6.07645" fill="#FF0000"/>
<path fill-rule="evenodd" clip-rule="evenodd" d="M94.2799 106.503C95.1244 106.437 95.9728 106.437 96.8174 106.503L97.3847 106.547C97.7007 106.572 97.9592 106.809 98.0114 107.121C98.1421 107.903 98.1421 108.702 98.0114 109.484C97.9592 109.797 97.7007 110.034 97.3847 110.058L96.8174 110.103C95.9728 110.169 95.1244 110.169 94.2799 110.103L93.7126 110.058C93.3966 110.034 93.138 109.797 93.0858 109.484C92.9551 108.702 92.9551 107.903 93.0858 107.121C93.138 106.809 93.3966 106.572 93.7126 106.547L94.2799 106.503ZM95.0422 108.928V107.677C95.0422 107.618 95.1066 107.582 95.1573 107.612L96.1996 108.238C96.2488 108.267 96.2488 108.338 96.1996 108.368L95.1573 108.993C95.1066 109.024 95.0422 108.987 95.0422 108.928Z" fill="white"/>
<rect x="89.4717" y="102.227" width="12.1529" height="12.1529" rx="6.07645" fill="#785600"/>
<g opacity="0.48" clip-path="url(#clip13_4554_52584)">
<rect width="7.29174" height="7.29174" transform="translate(91.9028 104.656)" fill="#785600"/>
<path d="M94.332 106.178V106.634H96.7626V106.178C96.7626 105.842 96.4906 105.57 96.155 105.57H94.9397C94.6041 105.57 94.332 105.842 94.332 106.178Z" stroke="#FFD874" stroke-width="0.303822"/>
<path d="M93.1167 110.583V108.305H98.1298V110.583C98.1298 110.919 97.8577 111.191 97.5221 111.191H93.7243C93.3888 111.191 93.1167 110.919 93.1167 110.583Z" fill="#FFD874" stroke="#FFD874" stroke-width="0.303822"/>
<path d="M98.13 106.484H93.1169C92.7813 106.484 92.5093 106.756 92.5093 107.092V107.548C92.5093 108.219 93.0534 108.763 93.7246 108.763H97.5223C98.1935 108.763 98.7376 108.219 98.7376 107.548V107.092C98.7376 106.756 98.4656 106.484 98.13 106.484Z" fill="#FFBB0A" stroke="#FFBB0A" stroke-width="0.303822"/>
<circle cx="95.8512" cy="107.999" r="0.303822" fill="#FFD874"/>
</g>
<g clip-path="url(#clip14_4554_52584)">
<path d="M94.6367 106.178V106.634H97.0673V106.178C97.0673 105.842 96.7952 105.57 96.4597 105.57H95.2444C94.9088 105.57 94.6367 105.842 94.6367 106.178Z" stroke="#FFD874" stroke-width="0.303822"/>
<path d="M93.4214 110.583V108.305H98.4345V110.583C98.4345 110.919 98.1624 111.191 97.8268 111.191H94.029C93.6934 111.191 93.4214 110.919 93.4214 110.583Z" fill="#FFD874" stroke="#FFD874" stroke-width="0.303822"/>
<path d="M98.4347 106.484H93.4216C93.086 106.484 92.814 106.756 92.814 107.092V107.548C92.814 108.219 93.3581 108.763 94.0293 108.763H97.827C98.4982 108.763 99.0423 108.219 99.0423 107.548V107.092C99.0423 106.756 98.7703 106.484 98.4347 106.484Z" fill="#FFBB0A" stroke="#FFBB0A" stroke-width="0.303822"/>
<circle cx="96.1559" cy="107.999" r="0.303822" fill="#FFD874"/>
</g>
</g>
<rect x="105.913" y="7.14844" width="50.0413" height="3.57438" rx="1.42975" fill="#FFBB0A"/>
<rect x="105.913" y="32.8828" width="50.0413" height="3.57438" rx="1.42975" fill="#FFBB0A"/>
<rect x="105.913" y="56.4766" width="50.0413" height="3.57438" rx="1.42975" fill="#FFBB0A"/>
<rect x="105.913" y="80.0703" width="50.0413" height="3.57438" rx="1.42975" fill="#FFBB0A"/>
<rect x="105.913" y="103.656" width="50.0413" height="3.57438" rx="1.42975" fill="#FFBB0A"/>
<rect x="105.913" y="12.8672" width="15.7273" height="2.14463" rx="1.07231" fill="#FFDE88"/>
<rect x="105.913" y="38.6016" width="15.7273" height="2.14463" rx="1.07231" fill="#FFDE88"/>
<rect x="105.913" y="62.1953" width="15.7273" height="2.14463" rx="1.07231" fill="#FFDE88"/>
<rect x="105.913" y="85.7891" width="15.7273" height="2.14463" rx="1.07231" fill="#FFDE88"/>
<rect x="105.913" y="109.375" width="15.7273" height="2.14463" rx="1.07231" fill="#FFDE88"/>
</g>
<defs>
<clipPath id="clip0_4554_52584">
<rect width="250" height="114" rx="22.876" fill="white"/>
</clipPath>
<clipPath id="clip1_4554_52584">
<rect x="89.4712" y="5.71875" width="12.1529" height="12.1529" rx="6.07645" fill="white"/>
</clipPath>
<clipPath id="clip2_4554_52584">
<rect width="7.29174" height="7.29174" fill="white" transform="translate(91.9028 8.14844)"/>
</clipPath>
<clipPath id="clip3_4554_52584">
<rect width="7.29174" height="7.29174" fill="white" transform="translate(92.2065 8.14844)"/>
</clipPath>
<clipPath id="clip4_4554_52584">
<rect x="89.4712" y="31.4531" width="12.1529" height="12.1529" rx="6.07645" fill="white"/>
</clipPath>
<clipPath id="clip5_4554_52584">
<rect width="7.29174" height="7.29174" fill="white" transform="translate(92.2065 33.8828)"/>
</clipPath>
<clipPath id="clip6_4554_52584">
<rect x="89.4712" y="55.0469" width="12.1529" height="12.1529" rx="6.07645" fill="white"/>
</clipPath>
<clipPath id="clip7_4554_52584">
<rect width="7.29174" height="7.29174" fill="white" transform="translate(91.9028 57.4766)"/>
</clipPath>
<clipPath id="clip8_4554_52584">
<rect width="7.29174" height="7.29174" fill="white" transform="translate(92.2065 57.4766)"/>
</clipPath>
<clipPath id="clip9_4554_52584">
<rect x="89.4712" y="78.6406" width="12.1529" height="12.1529" rx="6.07645" fill="white"/>
</clipPath>
<clipPath id="clip10_4554_52584">
<rect width="7.29174" height="7.29174" fill="white" transform="translate(91.9028 81.0703)"/>
</clipPath>
<clipPath id="clip11_4554_52584">
<rect width="7.29174" height="7.29174" fill="white" transform="translate(92.2065 81.0703)"/>
</clipPath>
<clipPath id="clip12_4554_52584">
<rect x="89.4712" y="102.227" width="12.1529" height="12.1529" rx="6.07645" fill="white"/>
</clipPath>
<clipPath id="clip13_4554_52584">
<rect width="7.29174" height="7.29174" fill="white" transform="translate(91.9028 104.656)"/>
</clipPath>
<clipPath id="clip14_4554_52584">
<rect width="7.29174" height="7.29174" fill="white" transform="translate(92.2065 104.656)"/>
</clipPath>
</defs>
</svg>
