<svg width="304" height="101" viewBox="0 0 304 101" fill="none" xmlns="http://www.w3.org/2000/svg">
<g clip-path="url(#clip0_4556_53689)">
<rect width="304" height="101" rx="17.5168" fill="#C69F3A"/>
<path d="M37.0405 34.5156L40.4826 24.7281H42.4007L45.8427 34.5156H44.1874L43.4385 32.3216H39.4578L38.6958 34.5156H37.0405ZM39.9045 30.9422H42.9656L41.2314 25.8185H41.665L39.9045 30.9422ZM49.8871 34.6733C49.204 34.6733 48.5909 34.5112 48.0479 34.1872C47.5136 33.8544 47.0888 33.4077 46.7735 32.8471C46.467 32.2866 46.3137 31.656 46.3137 30.9553C46.3137 30.2547 46.4714 29.6241 46.7867 29.0635C47.102 28.503 47.5268 28.0607 48.061 27.7366C48.5953 27.4126 49.1996 27.2505 49.874 27.2505C50.4433 27.2505 50.9469 27.3644 51.3848 27.5921C51.8228 27.8198 52.1687 28.1351 52.4227 28.538L52.1994 28.8796V24.5705H53.6708V34.5156H52.2651V33.0705L52.4358 33.3464C52.1906 33.7755 51.8403 34.104 51.3848 34.3317C50.9294 34.5594 50.4302 34.6733 49.8871 34.6733ZM50.0317 33.2938C50.4433 33.2938 50.8112 33.1931 51.1352 32.9917C51.468 32.7902 51.7264 32.5143 51.9103 32.164C52.103 31.8049 52.1994 31.402 52.1994 30.9553C52.1994 30.5087 52.103 30.1101 51.9103 29.7598C51.7264 29.4095 51.468 29.1336 51.1352 28.9321C50.8112 28.7307 50.4433 28.63 50.0317 28.63C49.62 28.63 49.2478 28.7307 48.915 28.9321C48.5821 29.1336 48.3238 29.4095 48.1398 29.7598C47.9559 30.1101 47.864 30.5087 47.864 30.9553C47.864 31.402 47.9559 31.8049 48.1398 32.164C48.3238 32.5143 48.5778 32.7902 48.9018 32.9917C49.2346 33.1931 49.6113 33.2938 50.0317 33.2938ZM58.6883 34.6733C58.0052 34.6733 57.3921 34.5112 56.8491 34.1872C56.3148 33.8544 55.89 33.4077 55.5747 32.8471C55.2682 32.2866 55.1149 31.656 55.1149 30.9553C55.1149 30.2547 55.2725 29.6241 55.5878 29.0635C55.9031 28.503 56.3279 28.0607 56.8622 27.7366C57.3965 27.4126 58.0008 27.2505 58.6752 27.2505C59.2445 27.2505 59.7481 27.3644 60.186 27.5921C60.6239 27.8198 60.9699 28.1351 61.2239 28.538L61.0005 28.8796V24.5705H62.472V34.5156H61.0662V33.0705L61.237 33.3464C60.9918 33.7755 60.6414 34.104 60.186 34.3317C59.7306 34.5594 59.2313 34.6733 58.6883 34.6733ZM58.8328 33.2938C59.2445 33.2938 59.6123 33.1931 59.9364 32.9917C60.2692 32.7902 60.5276 32.5143 60.7115 32.164C60.9042 31.8049 61.0005 31.402 61.0005 30.9553C61.0005 30.5087 60.9042 30.1101 60.7115 29.7598C60.5276 29.4095 60.2692 29.1336 59.9364 28.9321C59.6123 28.7307 59.2445 28.63 58.8328 28.63C58.4212 28.63 58.049 28.7307 57.7161 28.9321C57.3833 29.1336 57.1249 29.4095 56.941 29.7598C56.7571 30.1101 56.6651 30.5087 56.6651 30.9553C56.6651 31.402 56.7571 31.8049 56.941 32.164C57.1249 32.5143 57.3789 32.7902 57.703 32.9917C58.0358 33.1931 58.4124 33.2938 58.8328 33.2938ZM71.2049 34.6733C70.513 34.6733 69.8692 34.5463 69.2736 34.2923C68.6868 34.0383 68.1745 33.688 67.7365 33.2413C67.3074 32.7858 66.9702 32.2516 66.7249 31.6385C66.4797 31.0254 66.3571 30.351 66.3571 29.6153C66.3571 28.8883 66.4753 28.2183 66.7118 27.6052C66.957 26.9834 67.2986 26.4491 67.7365 26.0025C68.1745 25.547 68.6868 25.1967 69.2736 24.9514C69.8605 24.6974 70.5042 24.5705 71.2049 24.5705C71.8968 24.5705 72.5143 24.6887 73.0573 24.9252C73.6091 25.1616 74.0733 25.4726 74.4499 25.8579C74.8265 26.2345 75.098 26.6462 75.2644 27.0929L73.8718 27.7498C73.6616 27.2242 73.3244 26.7995 72.8602 26.4754C72.4048 26.1426 71.853 25.9762 71.2049 25.9762C70.5568 25.9762 69.9831 26.1294 69.4838 26.436C68.9846 26.7425 68.5949 27.1673 68.3146 27.7103C68.0431 28.2534 67.9073 28.8883 67.9073 29.6153C67.9073 30.3422 68.0431 30.9816 68.3146 31.5334C68.5949 32.0764 68.9846 32.5012 69.4838 32.8077C69.9831 33.1055 70.5568 33.2544 71.2049 33.2544C71.853 33.2544 72.4048 33.0924 72.8602 32.7683C73.3244 32.4443 73.6616 32.0195 73.8718 31.494L75.2644 32.1509C75.098 32.5888 74.8265 33.0004 74.4499 33.3858C74.0733 33.7712 73.6091 34.0821 73.0573 34.3186C72.5143 34.555 71.8968 34.6733 71.2049 34.6733ZM80.0147 34.6733C79.3315 34.6733 78.7053 34.5112 78.136 34.1872C77.5755 33.8631 77.1288 33.4208 76.796 32.8603C76.4631 32.2997 76.2967 31.6648 76.2967 30.9553C76.2967 30.2371 76.4631 29.6022 76.796 29.0504C77.1288 28.4898 77.5755 28.0519 78.136 27.7366C78.6965 27.4126 79.3228 27.2505 80.0147 27.2505C80.7153 27.2505 81.3416 27.4126 81.8934 27.7366C82.4539 28.0519 82.8962 28.4898 83.2203 29.0504C83.5531 29.6022 83.7195 30.2371 83.7195 30.9553C83.7195 31.6735 83.5531 32.3129 83.2203 32.8734C82.8874 33.434 82.4408 33.8763 81.8802 34.2003C81.3197 34.5156 80.6978 34.6733 80.0147 34.6733ZM80.0147 33.2938C80.4351 33.2938 80.8073 33.1931 81.1314 32.9917C81.4554 32.7902 81.7094 32.5143 81.8934 32.164C82.086 31.8049 82.1824 31.402 82.1824 30.9553C82.1824 30.5087 82.086 30.1101 81.8934 29.7598C81.7094 29.4095 81.4554 29.1336 81.1314 28.9321C80.8073 28.7307 80.4351 28.63 80.0147 28.63C79.603 28.63 79.2308 28.7307 78.898 28.9321C78.5739 29.1336 78.3155 29.4095 78.1229 29.7598C77.9389 30.1101 77.847 30.5087 77.847 30.9553C77.847 31.402 77.9389 31.8049 78.1229 32.164C78.3155 32.5143 78.5739 32.7902 78.898 32.9917C79.2308 33.1931 79.603 33.2938 80.0147 33.2938ZM85.1688 34.5156V27.4082H86.5877V28.9453L86.4038 28.7088C86.5527 28.2271 86.8242 27.8636 87.2183 27.6184C87.6124 27.3731 88.0635 27.2505 88.5715 27.2505C89.1408 27.2505 89.6444 27.4038 90.0823 27.7103C90.529 28.0081 90.8268 28.4066 90.9757 28.9059L90.5552 28.9453C90.7654 28.376 91.0851 27.9512 91.5143 27.6709C91.9522 27.3907 92.4514 27.2505 93.012 27.2505C93.5025 27.2505 93.9448 27.3644 94.3389 27.5921C94.7418 27.8198 95.0614 28.1351 95.2979 28.538C95.5344 28.9409 95.6526 29.4007 95.6526 29.9175V34.5156H94.1681V30.3247C94.1681 29.9656 94.1024 29.6635 93.971 29.4182C93.8484 29.1642 93.6732 28.9716 93.4455 28.8402C93.2266 28.7 92.9682 28.63 92.6704 28.63C92.3726 28.63 92.1099 28.7 91.8821 28.8402C91.6544 28.9716 91.4749 29.1642 91.3435 29.4182C91.2121 29.6722 91.1464 29.9744 91.1464 30.3247V34.5156H89.675V30.3247C89.675 29.9656 89.6093 29.6635 89.478 29.4182C89.3553 29.1642 89.1802 28.9716 88.9525 28.8402C88.7335 28.7 88.4707 28.63 88.1642 28.63C87.8664 28.63 87.6037 28.7 87.3759 28.8402C87.1482 28.9716 86.9687 29.1642 86.8373 29.4182C86.7147 29.6722 86.6534 29.9744 86.6534 30.3247V34.5156H85.1688ZM97.2416 37.1431V27.4082H98.6604V28.8796L98.4896 28.538C98.7524 28.1351 99.1027 27.8198 99.5407 27.5921C99.9786 27.3644 100.478 27.2505 101.038 27.2505C101.713 27.2505 102.317 27.4126 102.851 27.7366C103.394 28.0607 103.819 28.503 104.126 29.0635C104.441 29.6241 104.599 30.2547 104.599 30.9553C104.599 31.656 104.441 32.2866 104.126 32.8471C103.819 33.4077 103.399 33.8544 102.864 34.1872C102.33 34.5112 101.722 34.6733 101.038 34.6733C100.487 34.6733 99.983 34.5594 99.5275 34.3317C99.0808 34.104 98.7349 33.7755 98.4896 33.3464L98.7261 33.0705V37.1431H97.2416ZM100.894 33.2938C101.314 33.2938 101.686 33.1931 102.011 32.9917C102.335 32.7902 102.589 32.5143 102.773 32.164C102.965 31.8049 103.062 31.402 103.062 30.9553C103.062 30.5087 102.965 30.1101 102.773 29.7598C102.589 29.4095 102.335 29.1336 102.011 28.9321C101.686 28.7307 101.314 28.63 100.894 28.63C100.482 28.63 100.11 28.7307 99.7771 28.9321C99.4531 29.1336 99.1947 29.4095 99.002 29.7598C98.8181 30.1101 98.7261 30.5087 98.7261 30.9553C98.7261 31.402 98.8181 31.8049 99.002 32.164C99.1947 32.5143 99.4531 32.7902 99.7771 32.9917C100.11 33.1931 100.482 33.2938 100.894 33.2938ZM108.171 34.6733C107.689 34.6733 107.265 34.5901 106.897 34.4237C106.538 34.2485 106.257 34.012 106.056 33.7142C105.854 33.4077 105.754 33.0486 105.754 32.6369C105.754 32.2516 105.837 31.9056 106.003 31.5991C106.179 31.2925 106.446 31.0342 106.805 30.824C107.164 30.6138 107.615 30.4649 108.158 30.3773L110.628 29.97V31.1393L108.447 31.5202C108.053 31.5903 107.764 31.7173 107.58 31.9012C107.396 32.0764 107.304 32.3041 107.304 32.5844C107.304 32.8559 107.405 33.0792 107.606 33.2544C107.816 33.4208 108.083 33.504 108.408 33.504C108.81 33.504 109.161 33.4164 109.459 33.2413C109.765 33.0661 110.002 32.834 110.168 32.545C110.334 32.2472 110.418 31.9188 110.418 31.5597V29.7335C110.418 29.3832 110.286 29.0985 110.023 28.8796C109.769 28.6519 109.428 28.538 108.999 28.538C108.605 28.538 108.259 28.6431 107.961 28.8533C107.672 29.0548 107.457 29.3175 107.317 29.6416L106.082 29.0241C106.214 28.6738 106.428 28.3672 106.726 28.1045C107.024 27.833 107.37 27.6228 107.764 27.4739C108.167 27.325 108.591 27.2505 109.038 27.2505C109.599 27.2505 110.094 27.3556 110.523 27.5658C110.961 27.776 111.298 28.0694 111.534 28.446C111.78 28.8139 111.902 29.2431 111.902 29.7335V34.5156H110.483V33.2281L110.785 33.2676C110.619 33.5566 110.404 33.8062 110.142 34.0164C109.888 34.2266 109.594 34.3886 109.261 34.5025C108.937 34.6163 108.574 34.6733 108.171 34.6733ZM113.638 34.5156V27.4082H115.057V28.8008L114.886 28.6168C115.061 28.1702 115.341 27.833 115.727 27.6052C116.112 27.3688 116.559 27.2505 117.067 27.2505C117.592 27.2505 118.057 27.3644 118.459 27.5921C118.862 27.8198 119.178 28.1351 119.405 28.538C119.633 28.9409 119.747 29.4051 119.747 29.9306V34.5156H118.276V30.3247C118.276 29.9656 118.21 29.6635 118.078 29.4182C117.947 29.1642 117.759 28.9716 117.514 28.8402C117.277 28.7 117.006 28.63 116.699 28.63C116.392 28.63 116.117 28.7 115.871 28.8402C115.635 28.9716 115.451 29.1642 115.32 29.4182C115.188 29.6722 115.122 29.9744 115.122 30.3247V34.5156H113.638ZM121.838 37.4059C121.663 37.4059 121.488 37.3884 121.313 37.3533C121.146 37.3271 120.993 37.2833 120.853 37.222V35.9476C120.958 35.9739 121.085 35.9958 121.234 36.0133C121.383 36.0396 121.527 36.0527 121.667 36.0527C122.079 36.0527 122.381 35.9608 122.574 35.7768C122.775 35.6017 122.955 35.3302 123.112 34.9623L123.585 33.885L123.559 35.1331L120.485 27.4082H122.075L124.347 33.3332H123.809L126.068 27.4082H127.671L124.531 35.2907C124.365 35.7111 124.155 36.079 123.901 36.3943C123.655 36.7184 123.362 36.968 123.02 37.1431C122.688 37.3183 122.294 37.4059 121.838 37.4059Z" fill="white"/>
<g opacity="0.24" filter="url(#filter0_f_4556_53689)">
<g style="mix-blend-mode:luminosity">
<path d="M208.223 35.5195L211.635 51.5714L184.231 85.3581L169.191 88.5551L177.152 126.01L261.381 108.106L247.733 43.8985L208.223 35.5195Z" fill="#FFBB0A" stroke="#FFBB0A" stroke-width="5.47018"/>
<path d="M280.842 110.875L266.882 49.2979C265.64 43.8229 265.02 41.0854 262.935 39.2058C260.851 37.3262 257.717 36.6787 251.45 35.3839L226.159 30.1585C219.4 28.7618 218.088 30.0001 219.399 35.7817L223.921 55.7277" stroke="#FFBB0A" stroke-width="8.20527" stroke-linecap="round" stroke-linejoin="round"/>
<path d="M185.292 130.168L176.197 90.0512C175.361 86.3634 176.103 85.4086 180.495 84.5214L196.423 81.3043" stroke="#FFBB0A" stroke-width="8.20527" stroke-linecap="round" stroke-linejoin="round"/>
<path d="M229.532 55.9622L208.296 60.2517C195.118 62.9133 192.892 65.7777 195.4 76.8411L206.516 125.873L259.608 115.149L248.492 66.1175C245.983 55.0541 242.71 53.3006 229.532 55.9622Z" fill="white" stroke="white" stroke-width="8.20527" stroke-linejoin="round"/>
<path d="M217.654 77.0391L228.272 74.8943M220.686 90.4114L231.304 88.2667M223.717 103.784L234.336 101.639" stroke="#FFBB0A" stroke-width="8.20527" stroke-linecap="round" stroke-linejoin="round"/>
</g>
<path d="M202.202 36.7929L205.614 52.8448L178.211 86.6315L163.17 89.8286L171.131 127.283L255.36 109.38L241.712 45.172L202.202 36.7929Z" fill="#FFBB0A" stroke="#FFBB0A" stroke-width="5.47018"/>
<path d="M274.469 112.172L260.508 50.5948C259.267 45.1198 258.647 42.3823 256.562 40.5026C254.477 38.623 251.344 37.9756 245.077 36.6808L219.786 31.4553C213.026 30.0587 211.715 31.297 213.026 37.0786L217.548 57.0246" stroke="#FFBB0A" stroke-width="8.20527" stroke-linecap="round" stroke-linejoin="round"/>
<path d="M178.919 131.465L169.823 91.3481C168.987 87.6603 169.729 86.7055 174.122 85.8183L190.049 82.6012" stroke="#FFBB0A" stroke-width="8.20527" stroke-linecap="round" stroke-linejoin="round"/>
<path d="M223.159 57.2591L201.922 61.5485C188.745 64.2101 186.518 67.0746 189.027 78.138L200.143 127.17L253.235 116.446L242.118 67.4144C239.61 56.351 236.337 54.5975 223.159 57.2591Z" fill="white" stroke="white" stroke-width="8.20527" stroke-linejoin="round"/>
<path d="M211.281 78.3359L221.899 76.1912M214.312 91.7083L224.931 89.5636M217.344 105.081L227.962 102.936" stroke="#FFBB0A" stroke-width="8.20527" stroke-linecap="round" stroke-linejoin="round"/>
</g>
<g style="mix-blend-mode:luminosity">
<path d="M219.407 22.2062L222.819 38.2581L199.077 71.2665L185.7 74.1098L193.662 111.564L268.571 95.6419L254.923 31.4342L219.407 22.2062Z" fill="#FFBB0A" stroke="#FFBB0A" stroke-width="5.47018"/>
<path d="M286.715 98.8374L272.847 37.241C271.614 31.7642 270.997 29.0258 269.091 27.1083C267.185 25.1908 264.368 24.4759 258.736 23.0463L236.005 17.2767C229.929 15.7346 228.784 16.9375 230.087 22.7209L234.579 42.6733" stroke="#FFBB0A" stroke-width="8.20527" stroke-linecap="round" stroke-linejoin="round"/>
<path d="M201.714 115.893L192.679 75.7636C191.849 72.0746 192.491 71.141 196.398 70.3569L210.567 67.5136" stroke="#FFBB0A" stroke-width="8.20527" stroke-linecap="round" stroke-linejoin="round"/>
<path d="M291.446 97.8807L196.986 116.836" stroke="#FFBB0A" stroke-width="8.20527" stroke-linecap="round" stroke-linejoin="round"/>
<path d="M239.601 43.0375L220.709 46.8286C208.987 49.1809 207.061 51.9816 209.552 63.0485L220.595 112.096L267.825 102.618L256.782 53.5709C254.29 42.504 251.324 40.6852 239.601 43.0375Z" fill="white" stroke="white" stroke-width="8.20527" stroke-linejoin="round"/>
<path d="M229.455 63.7422L238.901 61.8467M232.466 77.1188L241.912 75.2233M235.478 90.4954L244.924 88.5999" stroke="#FFBB0A" stroke-width="8.20527" stroke-linecap="round" stroke-linejoin="round"/>
</g>
<path d="M224.969 21.4874L228.381 37.5393L204.639 70.5478L191.262 73.3911L199.224 110.846L274.133 94.9231L260.485 30.7155L224.969 21.4874Z" fill="#FFBB0A" stroke="#FFBB0A" stroke-width="5.47018"/>
<path d="M280.607 98.9233L266.739 37.327C265.505 31.8502 264.889 29.1118 262.983 27.1942C261.076 25.2767 258.26 24.5619 252.628 23.1322L229.897 17.3627C223.821 15.8205 222.676 17.0234 223.978 22.8069L228.471 42.7593" stroke="#FFBB0A" stroke-width="8.20527" stroke-linecap="round" stroke-linejoin="round"/>
<path d="M195.606 115.979L186.571 75.8495C185.74 72.1605 186.383 71.227 190.29 70.4429L204.459 67.5996" stroke="#FFBB0A" stroke-width="8.20527" stroke-linecap="round" stroke-linejoin="round"/>
<path d="M285.337 97.9667L190.878 116.922" stroke="#FFBB0A" stroke-width="8.20527" stroke-linecap="round" stroke-linejoin="round"/>
<path d="M233.493 43.1235L214.601 46.9145C202.879 49.2669 200.952 52.0675 203.444 63.1344L214.487 112.182L261.717 102.704L250.674 53.6568C248.182 42.5899 245.216 40.7711 233.493 43.1235Z" fill="white" stroke="white" stroke-width="8.20527" stroke-linejoin="round"/>
<path d="M223.346 63.8281L232.792 61.9326M226.358 77.2047L235.804 75.3092M229.369 90.5813L238.815 88.6858" stroke="#FFBB0A" stroke-width="8.20527" stroke-linecap="round" stroke-linejoin="round"/>
</g>
<defs>
<filter id="filter0_f_4556_53689" x="155.259" y="20.8873" width="139.692" height="120.397" filterUnits="userSpaceOnUse" color-interpolation-filters="sRGB">
<feFlood flood-opacity="0" result="BackgroundImageFix"/>
<feBlend mode="normal" in="SourceGraphic" in2="BackgroundImageFix" result="shape"/>
<feGaussianBlur stdDeviation="2.33371" result="effect1_foregroundBlur_4556_53689"/>
</filter>
<clipPath id="clip0_4556_53689">
<rect width="304" height="101" rx="17.5168" fill="white"/>
</clipPath>
</defs>
</svg>
