<svg width="304" height="101" viewBox="0 0 304 101" fill="none" xmlns="http://www.w3.org/2000/svg">
<g clip-path="url(#clip0_4556_53661)">
<rect width="304" height="101" rx="17.5168" fill="#8F7B47"/>
<path d="M37.0116 34V24.2125H40.5719C41.2288 24.2125 41.8068 24.3351 42.3061 24.5803C42.814 24.8168 43.2082 25.1671 43.4884 25.6313C43.7687 26.0868 43.9088 26.6342 43.9088 27.2735C43.9088 27.9041 43.7643 28.4472 43.4753 28.9026C43.195 29.358 42.8053 29.7084 42.3061 29.9536C41.8068 30.1989 41.2288 30.3215 40.5719 30.3215H38.5618V34H37.0116ZM38.5618 28.942H40.6113C40.9616 28.942 41.2682 28.872 41.5309 28.7318C41.7937 28.5917 41.9995 28.399 42.1484 28.1538C42.2973 27.8998 42.3717 27.602 42.3717 27.2604C42.3717 26.9188 42.2973 26.6254 42.1484 26.3802C41.9995 26.1262 41.7937 25.9335 41.5309 25.8021C41.2682 25.662 40.9616 25.5919 40.6113 25.5919H38.5618V28.942ZM48.5327 34.1577C47.8495 34.1577 47.2233 33.9956 46.654 33.6716C46.0935 33.3475 45.6468 32.9052 45.314 32.3447C44.9811 31.7841 44.8147 31.1491 44.8147 30.4397C44.8147 29.7215 44.9811 29.0865 45.314 28.5348C45.6468 27.9742 46.0935 27.5363 46.654 27.221C47.2145 26.8969 47.8408 26.7349 48.5327 26.7349C49.2333 26.7349 49.8596 26.8969 50.4113 27.221C50.9719 27.5363 51.4142 27.9742 51.7382 28.5348C52.0711 29.0865 52.2375 29.7215 52.2375 30.4397C52.2375 31.1579 52.0711 31.7973 51.7382 32.3578C51.4054 32.9183 50.9587 33.3606 50.3982 33.6847C49.8377 34 49.2158 34.1577 48.5327 34.1577ZM48.5327 32.7782C48.9531 32.7782 49.3253 32.6775 49.6494 32.476C49.9734 32.2746 50.2274 31.9987 50.4113 31.6484C50.604 31.2893 50.7004 30.8864 50.7004 30.4397C50.7004 29.993 50.604 29.5945 50.4113 29.2442C50.2274 28.8938 49.9734 28.618 49.6494 28.4165C49.3253 28.2151 48.9531 28.1143 48.5327 28.1143C48.121 28.1143 47.7488 28.2151 47.416 28.4165C47.0919 28.618 46.8335 28.8938 46.6409 29.2442C46.4569 29.5945 46.365 29.993 46.365 30.4397C46.365 30.8864 46.4569 31.2893 46.6409 31.6484C46.8335 31.9987 47.0919 32.2746 47.416 32.476C47.7488 32.6775 48.121 32.7782 48.5327 32.7782ZM56.3143 34.1577C55.5874 34.1577 54.948 33.9781 54.3963 33.619C53.8532 33.2599 53.4722 32.7782 53.2533 32.1739L54.3963 31.6352C54.5889 32.0381 54.8517 32.3578 55.1845 32.5943C55.5261 32.8308 55.9027 32.949 56.3143 32.949C56.6647 32.949 56.9493 32.8702 57.1683 32.7125C57.3872 32.5549 57.4967 32.3403 57.4967 32.0688C57.4967 31.8936 57.4486 31.7535 57.3522 31.6484C57.2559 31.5345 57.1333 31.4425 56.9844 31.3725C56.8442 31.3024 56.6997 31.2499 56.5508 31.2148L55.4341 30.8995C54.821 30.7244 54.3612 30.4616 54.0547 30.1113C53.7569 29.7522 53.608 29.3361 53.608 28.8632C53.608 28.434 53.7175 28.0618 53.9364 27.7465C54.1554 27.4224 54.4576 27.1728 54.8429 26.9977C55.2283 26.8225 55.6618 26.7349 56.1436 26.7349C56.7917 26.7349 57.3697 26.8969 57.8777 27.221C58.3857 27.5363 58.7448 27.9786 58.955 28.5479L57.812 29.0865C57.6719 28.745 57.4486 28.4734 57.142 28.272C56.8442 28.0706 56.507 27.9698 56.1304 27.9698C55.8064 27.9698 55.548 28.0487 55.3553 28.2063C55.1626 28.3552 55.0663 28.5523 55.0663 28.7975C55.0663 28.9639 55.1101 29.104 55.1976 29.2179C55.2852 29.323 55.3991 29.4106 55.5392 29.4807C55.6794 29.542 55.8239 29.5945 55.9728 29.6383L57.1289 29.9799C57.7157 30.1463 58.1667 30.4091 58.4821 30.7681C58.7974 31.1185 58.955 31.5389 58.955 32.0294C58.955 32.4498 58.8411 32.822 58.6134 33.1461C58.3945 33.4614 58.0879 33.711 57.6938 33.8949C57.2997 34.0701 56.8398 34.1577 56.3143 34.1577ZM63.4838 34.0788C62.7393 34.0788 62.1613 33.8686 61.7496 33.4482C61.338 33.0278 61.1322 32.4366 61.1322 31.6746V28.2326H59.8841V26.8926H60.0811C60.414 26.8926 60.6723 26.7962 60.8563 26.6035C61.0402 26.4108 61.1322 26.1481 61.1322 25.8153V25.2635H62.6167V26.8926H64.2326V28.2326H62.6167V31.609C62.6167 31.8542 62.6561 32.0644 62.7349 32.2396C62.8138 32.406 62.9408 32.5373 63.1159 32.6337C63.2911 32.7213 63.5188 32.7651 63.7991 32.7651C63.8692 32.7651 63.948 32.7607 64.0356 32.7519C64.1231 32.7432 64.2064 32.7344 64.2852 32.7257V34C64.1626 34.0175 64.0268 34.035 63.8779 34.0526C63.729 34.0701 63.5976 34.0788 63.4838 34.0788ZM70.1587 34.1577C69.677 34.1577 69.2522 34.0744 68.8844 33.908C68.5253 33.7329 68.245 33.4964 68.0436 33.1986C67.8421 32.8921 67.7414 32.533 67.7414 32.1213C67.7414 31.736 67.8246 31.39 67.991 31.0834C68.1662 30.7769 68.4333 30.5185 68.7924 30.3083C69.1515 30.0981 69.6026 29.9492 70.1456 29.8617L72.6155 29.4544V30.6236L70.4346 31.0046C70.0405 31.0747 69.7515 31.2017 69.5675 31.3856C69.3836 31.5608 69.2916 31.7885 69.2916 32.0688C69.2916 32.3403 69.3924 32.5636 69.5938 32.7388C69.804 32.9052 70.0711 32.9884 70.3952 32.9884C70.7981 32.9884 71.1484 32.9008 71.4462 32.7257C71.7528 32.5505 71.9892 32.3184 72.1556 32.0294C72.322 31.7316 72.4053 31.4031 72.4053 31.044V29.2179C72.4053 28.8676 72.2739 28.5829 72.0111 28.364C71.7571 28.1362 71.4156 28.0224 70.9864 28.0224C70.5923 28.0224 70.2463 28.1275 69.9485 28.3377C69.6595 28.5391 69.4449 28.8019 69.3048 29.1259L68.0698 28.5085C68.2012 28.1581 68.4158 27.8516 68.7136 27.5888C69.0114 27.3173 69.3573 27.1071 69.7515 26.9582C70.1543 26.8093 70.5791 26.7349 71.0258 26.7349C71.5863 26.7349 72.0812 26.84 72.5104 27.0502C72.9483 27.2604 73.2855 27.5538 73.522 27.9304C73.7672 28.2983 73.8898 28.7274 73.8898 29.2179V34H72.4709V32.7125L72.7731 32.7519C72.6067 33.041 72.3921 33.2906 72.1294 33.5008C71.8754 33.711 71.582 33.873 71.2491 33.9869C70.9251 34.1007 70.5616 34.1577 70.1587 34.1577ZM77.6331 34V32.5549H78.198C78.6359 32.5549 78.9863 32.4279 79.249 32.1739C79.5118 31.9111 79.6432 31.5608 79.6432 31.1229V24.2125H81.1803V31.0703C81.1803 31.6659 81.0576 32.1826 80.8124 32.6206C80.5759 33.0585 80.23 33.4 79.7745 33.6453C79.3279 33.8818 78.8023 34 78.198 34H77.6331ZM86.4701 34.1577C85.7869 34.1577 85.1607 33.9956 84.5914 33.6716C84.0309 33.3475 83.5842 32.9052 83.2514 32.3447C82.9186 31.7841 82.7522 31.1491 82.7522 30.4397C82.7522 29.7215 82.9186 29.0865 83.2514 28.5348C83.5842 27.9742 84.0309 27.5363 84.5914 27.221C85.152 26.8969 85.7782 26.7349 86.4701 26.7349C87.1708 26.7349 87.797 26.8969 88.3488 27.221C88.9093 27.5363 89.3516 27.9742 89.6757 28.5348C90.0085 29.0865 90.1749 29.7215 90.1749 30.4397C90.1749 31.1579 90.0085 31.7973 89.6757 32.3578C89.3429 32.9183 88.8962 33.3606 88.3356 33.6847C87.7751 34 87.1533 34.1577 86.4701 34.1577ZM86.4701 32.7782C86.8905 32.7782 87.2627 32.6775 87.5868 32.476C87.9109 32.2746 88.1648 31.9987 88.3488 31.6484C88.5415 31.2893 88.6378 30.8864 88.6378 30.4397C88.6378 29.993 88.5415 29.5945 88.3488 29.2442C88.1648 28.8938 87.9109 28.618 87.5868 28.4165C87.2627 28.2151 86.8905 28.1143 86.4701 28.1143C86.0584 28.1143 85.6862 28.2151 85.3534 28.4165C85.0293 28.618 84.771 28.8938 84.5783 29.2442C84.3944 29.5945 84.3024 29.993 84.3024 30.4397C84.3024 30.8864 84.3944 31.2893 84.5783 31.6484C84.771 31.9987 85.0293 32.2746 85.3534 32.476C85.6862 32.6775 86.0584 32.7782 86.4701 32.7782ZM95.421 34.1577C94.8692 34.1577 94.3656 34.0438 93.9102 33.8161C93.4635 33.5884 93.1176 33.2599 92.8723 32.8308L93.0431 32.5549V34H91.6242V24.0548H93.1088V28.364L92.8723 28.0224C93.1351 27.6195 93.4854 27.3042 93.9233 27.0765C94.3612 26.8488 94.8605 26.7349 95.421 26.7349C96.0954 26.7349 96.6997 26.8969 97.234 27.221C97.777 27.5451 98.2018 27.9874 98.5084 28.5479C98.8237 29.1084 98.9813 29.739 98.9813 30.4397C98.9813 31.1404 98.8237 31.771 98.5084 32.3315C98.2018 32.8921 97.7814 33.3387 97.2471 33.6716C96.7129 33.9956 96.1042 34.1577 95.421 34.1577ZM95.2765 32.7782C95.6969 32.7782 96.0691 32.6775 96.3932 32.476C96.7173 32.2746 96.9713 31.9987 97.1552 31.6484C97.3479 31.2893 97.4442 30.8864 97.4442 30.4397C97.4442 29.993 97.3479 29.5945 97.1552 29.2442C96.9713 28.8938 96.7173 28.618 96.3932 28.4165C96.0691 28.2151 95.6969 28.1143 95.2765 28.1143C94.8649 28.1143 94.4926 28.2151 94.1598 28.4165C93.8357 28.618 93.5774 28.8938 93.3847 29.2442C93.2008 29.5945 93.1088 29.993 93.1088 30.4397C93.1088 30.8864 93.2008 31.2893 93.3847 31.6484C93.5774 31.9987 93.8357 32.2746 94.1598 32.476C94.4926 32.6775 94.8649 32.7782 95.2765 32.7782Z" fill="white"/>
<g opacity="0.24" filter="url(#filter0_f_4556_53661)">
<g clip-path="url(#clip1_4556_53661)">
<path d="M179.323 48.4379L180.742 55.1121L216.337 47.546L214.919 40.8719C213.874 35.9572 209.043 32.8199 204.128 33.8645L186.331 37.6476C181.416 38.6922 178.278 43.5232 179.323 48.4379Z" stroke="#FFD874" stroke-width="4.54883"/>
<path d="M175.239 116.73L168.146 83.3594L241.562 67.7544L248.655 101.125C249.699 106.04 246.562 110.871 241.647 111.916L186.03 123.737C181.115 124.782 176.284 121.645 175.239 116.73Z" fill="#FFD874" stroke="#FFD874" stroke-width="4.54883"/>
<path d="M235.887 41.0582L162.471 56.6632C157.556 57.7078 154.419 62.5388 155.464 67.4535L156.882 74.1277C158.972 83.9571 168.634 90.2317 178.463 88.1424L234.081 76.3204C243.91 74.2311 250.185 64.5691 248.096 54.7397L246.677 48.0656C245.632 43.1509 240.801 40.0136 235.887 41.0582Z" fill="#FFBB0A" stroke="#FFBB0A" stroke-width="4.54883"/>
<circle cx="207.245" cy="70.4021" r="4.54883" transform="rotate(-12 207.245 70.4021)" fill="#FFD874"/>
<g style="mix-blend-mode:luminosity" clip-path="url(#clip2_4556_53661)">
<path d="M175.417 49.2739L176.835 55.948L212.431 48.382L211.012 41.7078C209.967 36.7931 205.136 33.6558 200.222 34.7005L182.424 38.4835C177.509 39.5281 174.372 44.3591 175.417 49.2739Z" stroke="#FFD874" stroke-width="4.54883"/>
<path d="M171.333 117.566L164.24 84.1953L237.655 68.5903L244.748 101.961C245.793 106.876 242.656 111.707 237.741 112.751L182.123 124.573C177.208 125.618 172.377 122.481 171.333 117.566Z" fill="#FFD874" stroke="#FFD874" stroke-width="4.54883"/>
<path d="M231.98 41.8941L158.565 57.4991C153.65 58.5438 150.513 63.3748 151.557 68.2895L152.976 74.9636C155.065 84.793 164.727 91.0676 174.557 88.9783L230.175 77.1564C240.004 75.0671 246.279 65.4051 244.189 55.5757L242.771 48.9015C241.726 43.9868 236.895 40.8495 231.98 41.8941Z" fill="#FFBB0A" stroke="#FFBB0A" stroke-width="4.54883"/>
<circle cx="203.339" cy="71.2381" r="4.54883" transform="rotate(-12 203.339 71.2381)" fill="#FFD874"/>
</g>
</g>
</g>
<g clip-path="url(#clip3_4556_53661)">
<path d="M201.793 37.3754L203.212 44.0496L238.807 36.4835L237.388 29.8094C236.344 24.8947 231.513 21.7574 226.598 22.802L208.8 26.5851C203.886 27.6297 200.748 32.4607 201.793 37.3754Z" stroke="#FFD874" stroke-width="4.54883"/>
<path d="M197.709 105.668L190.616 72.2969L264.031 56.6919L271.124 90.0626C272.169 94.9773 269.032 99.8084 264.117 100.853L208.499 112.675C203.585 113.72 198.754 110.582 197.709 105.668Z" fill="#FFD874" stroke="#FFD874" stroke-width="4.54883"/>
<path d="M258.356 29.9957L184.941 45.6007C180.026 46.6453 176.889 51.4763 177.934 56.391L179.352 63.0652C181.441 72.8946 191.103 79.1692 200.933 77.0799L256.551 65.2579C266.38 63.1686 272.655 53.5066 270.565 43.6772L269.147 37.0031C268.102 32.0884 263.271 28.9511 258.356 29.9957Z" fill="#FFBB0A" stroke="#FFBB0A" stroke-width="4.54883"/>
<circle cx="229.715" cy="59.3396" r="4.54883" transform="rotate(-12 229.715 59.3396)" fill="#FFD874"/>
<g style="mix-blend-mode:luminosity" clip-path="url(#clip4_4556_53661)">
<path d="M197.886 38.2114L199.305 44.8855L234.9 37.3195L233.481 30.6453C232.437 25.7306 227.606 22.5933 222.691 23.638L204.893 27.421C199.979 28.4656 196.841 33.2966 197.886 38.2114Z" stroke="#FFD874" stroke-width="4.54883"/>
<path d="M193.802 106.504L186.709 73.1328L260.124 57.5278L267.218 90.8986C268.262 95.8133 265.125 100.644 260.21 101.689L204.592 113.511C199.678 114.556 194.847 111.418 193.802 106.504Z" fill="#FFD874" stroke="#FFD874" stroke-width="4.54883"/>
<path d="M254.449 30.8316L181.034 46.4366C176.119 47.4813 172.982 52.3123 174.027 57.227L175.445 63.9011C177.534 73.7305 187.197 80.0051 197.026 77.9158L252.644 66.0939C262.473 64.0046 268.748 54.3426 266.658 44.5132L265.24 37.839C264.195 32.9243 259.364 29.787 254.449 30.8316Z" fill="#FFBB0A" stroke="#FFBB0A" stroke-width="4.54883"/>
<circle cx="225.808" cy="60.1755" r="4.54883" transform="rotate(-12 225.808 60.1755)" fill="#FFD874"/>
</g>
</g>
</g>
<defs>
<filter id="filter0_f_4556_53661" x="133.675" y="5.74485" width="140.135" height="140.135" filterUnits="userSpaceOnUse" color-interpolation-filters="sRGB">
<feFlood flood-opacity="0" result="BackgroundImageFix"/>
<feBlend mode="normal" in="SourceGraphic" in2="BackgroundImageFix" result="shape"/>
<feGaussianBlur stdDeviation="2.66273" result="effect1_foregroundBlur_4556_53661"/>
</filter>
<clipPath id="clip0_4556_53661">
<rect width="304" height="101" rx="17.5168" fill="white"/>
</clipPath>
<clipPath id="clip1_4556_53661">
<rect width="109.172" height="109.172" fill="white" transform="translate(139 33.7656) rotate(-12)"/>
</clipPath>
<clipPath id="clip2_4556_53661">
<rect width="109.172" height="109.172" fill="white" transform="translate(135.094 34.6016) rotate(-12)"/>
</clipPath>
<clipPath id="clip3_4556_53661">
<rect width="109.172" height="109.172" fill="white" transform="translate(161.469 22.6953) rotate(-12)"/>
</clipPath>
<clipPath id="clip4_4556_53661">
<rect width="109.172" height="109.172" fill="white" transform="translate(157.563 23.5312) rotate(-12)"/>
</clipPath>
</defs>
</svg>
