<svg width="340" height="116" viewBox="0 0 340 116" fill="none" xmlns="http://www.w3.org/2000/svg">
<g clip-path="url(#clip0_4798_50442)">
<rect width="340" height="116" rx="16" fill="#FFBC0B" fill-opacity="0.14"/>
<path d="M182.161 70.9988C182.968 70.0636 183.534 68.9467 183.809 67.7448C184.084 66.5429 184.06 65.2924 183.739 64.1017C183.419 62.9111 182.811 61.8163 181.969 60.9122C181.126 60.0082 180.075 59.3223 178.906 58.914C179.135 57.7026 179.064 56.4538 178.698 55.2761C178.332 54.0983 177.683 53.0272 176.806 52.1556C175.93 51.284 174.853 50.6383 173.67 50.2744C172.486 49.9106 171.231 49.8396 170.013 50.0676C169.603 48.9043 168.913 47.8581 168.005 47.02C167.096 46.1818 165.996 45.577 164.799 45.258C163.602 44.939 162.344 44.9155 161.136 45.1895C159.928 45.4635 158.806 46.0268 157.866 46.8304C156.926 46.0273 155.803 45.4646 154.595 45.1909C153.387 44.9173 152.13 44.941 150.933 45.2601C149.736 45.5791 148.636 46.1839 147.727 47.0218C146.819 47.8598 146.129 48.9057 145.719 50.0688C144.501 49.8411 143.246 49.9124 142.062 50.2765C140.879 50.6406 139.802 51.2865 138.926 52.1582C138.05 53.0298 137.401 54.101 137.036 55.2786C136.67 56.4563 136.599 57.705 136.828 58.9163C135.659 59.3246 134.608 60.0105 133.765 60.9145C132.923 61.8185 132.315 62.9133 131.994 64.104C131.674 65.2946 131.65 66.5451 131.925 67.747C132.2 68.9489 132.766 70.0659 133.573 71.0011C132.765 71.9362 132.2 73.0532 131.924 74.2553C131.649 75.4573 131.673 76.7079 131.994 77.8987C132.315 79.0894 132.923 80.1843 133.766 81.0882C134.608 81.9922 135.66 82.6779 136.829 83.0858C136.6 84.2972 136.671 85.5459 137.037 86.7237C137.402 87.9014 138.052 88.9725 138.928 89.8441C139.804 90.7156 140.881 91.3613 142.064 91.725C143.248 92.0887 144.503 92.1594 145.721 91.9311C146.131 93.0942 146.821 94.1401 147.73 94.978C148.638 95.816 149.739 96.4207 150.935 96.7398C152.132 97.0588 153.389 97.0826 154.597 96.8089C155.805 96.5353 156.928 95.9725 157.868 95.1695C158.808 95.9728 159.931 96.5357 161.139 96.8094C162.347 97.0832 163.604 97.0594 164.801 96.7402C165.998 96.421 167.099 95.816 168.007 94.9778C168.916 94.1395 169.605 93.0933 170.015 91.93C171.233 92.1581 172.488 92.0871 173.672 91.7233C174.856 91.3594 175.932 90.7137 176.808 89.842C177.685 88.9704 178.334 87.8992 178.699 86.7215C179.065 85.5437 179.136 84.295 178.907 83.0836C180.076 82.6754 181.128 81.9895 181.97 81.0854C182.812 80.1814 183.42 79.0865 183.741 77.8958C184.061 76.7051 184.085 75.4545 183.81 74.2526C183.534 73.0507 182.969 71.9338 182.161 70.9988Z" fill="#4CAF50"/>
<path d="M153.176 80.9232L145.914 73.7028C145.638 73.4281 145.483 73.0559 145.483 72.6678C145.483 72.2797 145.638 71.9075 145.914 71.6329L146.796 70.754C147.072 70.4798 147.446 70.3258 147.836 70.3258C148.226 70.3258 148.601 70.4798 148.877 70.754L154.156 76.0026L166.588 62.8586C166.856 62.5762 167.225 62.4109 167.615 62.3991C168.005 62.3873 168.383 62.5298 168.668 62.7955L169.574 63.6462C169.858 63.9124 170.024 64.28 170.036 64.6681C170.048 65.0562 169.904 65.4332 169.637 65.7161L155.292 80.8905C155.157 81.0338 154.994 81.1485 154.813 81.2279C154.633 81.3074 154.438 81.3499 154.241 81.3529C154.043 81.356 153.847 81.3195 153.665 81.2457C153.482 81.1719 153.315 81.0622 153.176 80.9232Z" fill="white"/>
<path d="M128.295 5.49884C128.702 5.1212 128.987 4.67015 129.126 4.1848C129.264 3.69945 129.252 3.19447 129.091 2.71366C128.929 2.23285 128.623 1.79075 128.198 1.42569C127.773 1.06063 127.244 0.783644 126.654 0.618764C126.77 0.129555 126.734 -0.37472 126.549 -0.850312C126.365 -1.3259 126.038 -1.75845 125.596 -2.11042C125.154 -2.46238 124.612 -2.72315 124.015 -2.87008C123.418 -3.01701 122.786 -3.04568 122.172 -2.95359C121.965 -3.42337 121.618 -3.84583 121.16 -4.1843C120.702 -4.52277 120.147 -4.76702 119.544 -4.89583C118.94 -5.02465 118.307 -5.03414 117.698 -4.92348C117.089 -4.81283 116.523 -4.58537 116.049 -4.26086C115.575 -4.58515 115.01 -4.8124 114.401 -4.9229C113.792 -5.03341 113.158 -5.02382 112.555 -4.89498C111.952 -4.76613 111.397 -4.52193 110.939 -4.18354C110.481 -3.84515 110.133 -3.4228 109.927 -2.95313C109.313 -3.04507 108.68 -3.01628 108.084 -2.86925C107.487 -2.72222 106.945 -2.46139 106.503 -2.10939C106.061 -1.75739 105.734 -1.32484 105.55 -0.849275C105.366 -0.373708 105.33 0.13052 105.445 0.619674C104.856 0.784554 104.326 1.06154 103.902 1.4266C103.477 1.79166 103.171 2.23376 103.009 2.71457C102.847 3.19538 102.835 3.70036 102.974 4.18571C103.113 4.67106 103.398 5.12211 103.805 5.49975C103.398 5.87738 103.112 6.32847 102.974 6.81387C102.835 7.29927 102.847 7.80431 103.009 8.28516C103.171 8.76601 103.477 9.20814 103.902 9.57316C104.326 9.93819 104.856 10.2151 105.446 10.3798C105.33 10.869 105.366 11.3733 105.551 11.8489C105.735 12.3244 106.062 12.757 106.504 13.1089C106.945 13.4609 107.488 13.7216 108.085 13.8685C108.681 14.0154 109.314 14.0439 109.928 13.9517C110.135 14.4214 110.482 14.8437 110.94 15.1821C111.398 15.5205 111.953 15.7647 112.556 15.8936C113.159 16.0224 113.793 16.032 114.402 15.9215C115.011 15.811 115.577 15.5837 116.05 15.2595C116.524 15.5838 117.09 15.8112 117.699 15.9217C118.308 16.0322 118.942 16.0226 119.545 15.8937C120.148 15.7648 120.703 15.5205 121.161 15.182C121.619 14.8435 121.966 14.4211 122.173 13.9513C122.787 14.0434 123.419 14.0147 124.016 13.8678C124.613 13.7209 125.155 13.4601 125.597 13.1081C126.039 12.7561 126.366 12.3236 126.55 11.848C126.735 11.3724 126.77 10.8681 126.655 10.3789C127.244 10.2141 127.774 9.93711 128.199 9.57203C128.623 9.20696 128.93 8.76482 129.091 8.28398C129.253 7.80314 129.265 7.29814 129.126 6.81279C128.987 6.32744 128.702 5.87641 128.295 5.49884Z" fill="#4CAF50"/>
<path d="M113.685 9.50412L110.025 6.58836C109.886 6.47745 109.808 6.32714 109.808 6.17042C109.808 6.01371 109.886 5.86339 110.025 5.75249L110.469 5.39758C110.608 5.28685 110.797 5.22466 110.994 5.22466C111.19 5.22466 111.379 5.28685 111.518 5.39758L114.179 7.51705L120.445 2.20926C120.58 2.09522 120.766 2.02849 120.963 2.02371C121.159 2.01894 121.35 2.0765 121.493 2.18378L121.95 2.52732C122.093 2.63481 122.177 2.78324 122.183 2.93998C122.189 3.09672 122.117 3.24894 121.982 3.36318L114.751 9.49093C114.683 9.54876 114.601 9.59509 114.51 9.62717C114.419 9.65924 114.321 9.6764 114.222 9.67764C114.122 9.67887 114.023 9.66414 113.931 9.63433C113.839 9.60452 113.755 9.56024 113.685 9.50412Z" fill="white"/>
<path d="M94.6883 111.5C94.9789 111.23 95.1826 110.908 95.2816 110.561C95.3807 110.215 95.3721 109.854 95.2566 109.51C95.1411 109.167 94.9223 108.851 94.619 108.59C94.3157 108.329 93.9372 108.132 93.5162 108.014C93.5987 107.664 93.573 107.304 93.4412 106.964C93.3095 106.625 93.0757 106.316 92.7602 106.064C92.4447 105.813 92.057 105.626 91.6308 105.522C91.2045 105.417 90.7526 105.396 90.3141 105.462C90.1664 105.126 89.9182 104.824 89.5911 104.583C89.2639 104.341 88.8676 104.166 88.4366 104.074C88.0056 103.982 87.553 103.976 87.118 104.055C86.6829 104.134 86.2787 104.296 85.9403 104.528C85.6019 104.296 85.1976 104.134 84.7626 104.055C84.3276 103.976 83.875 103.983 83.4441 104.075C83.0132 104.167 82.617 104.342 82.2898 104.583C81.9626 104.825 81.7144 105.127 81.5666 105.462C81.1282 105.397 80.6762 105.417 80.2501 105.522C79.8239 105.627 79.4363 105.813 79.1209 106.065C78.8055 106.316 78.5718 106.625 78.4401 106.965C78.3085 107.305 78.2828 107.665 78.3653 108.014C77.9443 108.132 77.5658 108.33 77.2625 108.591C76.9592 108.852 76.7404 109.168 76.6249 109.511C76.5094 109.854 76.5008 110.215 76.5999 110.562C76.6989 110.909 76.9026 111.231 77.1932 111.501C76.9025 111.77 76.6988 112.093 76.5997 112.439C76.5006 112.786 76.5092 113.147 76.6247 113.49C76.7403 113.834 76.9592 114.15 77.2626 114.411C77.566 114.671 77.9446 114.869 78.3657 114.987C78.2831 115.336 78.3088 115.696 78.4404 116.036C78.5721 116.376 78.8059 116.685 79.1213 116.936C79.4368 117.188 79.8245 117.374 80.2508 117.479C80.677 117.584 81.129 117.604 81.5674 117.538C81.7152 117.874 81.9634 118.176 82.2906 118.417C82.6178 118.659 83.014 118.834 83.4449 118.926C83.8759 119.018 84.3285 119.024 84.7634 118.946C85.1984 118.867 85.6027 118.704 85.9412 118.473C86.2796 118.704 86.6839 118.867 87.1189 118.946C87.554 119.025 88.0066 119.018 88.4376 118.926C88.8685 118.834 89.2648 118.659 89.5919 118.417C89.9191 118.175 90.1673 117.874 90.3149 117.538C90.7534 117.604 91.2053 117.583 91.6316 117.478C92.0578 117.373 92.4455 117.187 92.761 116.936C93.0764 116.684 93.3101 116.375 93.4418 116.036C93.5735 115.696 93.5992 115.336 93.5166 114.986C93.9376 114.868 94.3162 114.671 94.6195 114.41C94.9228 114.149 95.1416 113.833 95.2571 113.49C95.3725 113.146 95.381 112.785 95.2819 112.439C95.1828 112.092 94.979 111.77 94.6883 111.5Z" fill="#4CAF50"/>
<path d="M84.2513 114.367L81.6364 112.284C81.5372 112.205 81.4814 112.098 81.4814 111.986C81.4814 111.874 81.5372 111.767 81.6364 111.687L81.9541 111.434C82.0535 111.355 82.1882 111.31 82.3287 111.31C82.4691 111.31 82.6039 111.355 82.7033 111.434L84.6041 112.948L89.0806 109.156C89.1769 109.075 89.3099 109.027 89.4502 109.024C89.5906 109.02 89.727 109.061 89.8293 109.138L90.1556 109.383C90.2579 109.46 90.3178 109.566 90.3221 109.678C90.3264 109.79 90.2747 109.899 90.1784 109.981L85.0131 114.358C84.9645 114.399 84.9059 114.432 84.8409 114.455C84.7759 114.478 84.7058 114.49 84.6347 114.491C84.5636 114.492 84.4931 114.482 84.4272 114.46C84.3613 114.439 84.3015 114.407 84.2513 114.367Z" fill="white"/>
<path d="M341.263 93.9999C341.534 93.7481 341.724 93.4474 341.816 93.1238C341.909 92.8002 341.901 92.4635 341.793 92.1429C341.685 91.8223 341.481 91.5276 341.198 91.2842C340.915 91.0408 340.562 90.8561 340.169 90.7462C340.246 90.42 340.222 90.0838 340.099 89.7667C339.976 89.4496 339.758 89.1612 339.463 88.9266C339.169 88.6919 338.807 88.518 338.409 88.4201C338.011 88.3221 337.589 88.303 337.18 88.3644C337.042 88.0512 336.811 87.7695 336.505 87.5439C336.2 87.3182 335.83 87.1553 335.428 87.0695C335.026 86.9836 334.603 86.9772 334.197 87.051C333.791 87.1248 333.414 87.2764 333.098 87.4928C332.782 87.2766 332.405 87.1251 331.999 87.0514C331.593 86.9777 331.171 86.9841 330.768 87.07C330.366 87.1559 329.996 87.3187 329.691 87.5444C329.386 87.77 329.154 88.0516 329.016 88.3647C328.607 88.3034 328.185 88.3226 327.787 88.4206C327.389 88.5187 327.028 88.6926 326.733 88.9273C326.439 89.1619 326.221 89.4503 326.098 89.7674C325.975 90.0845 325.951 90.4207 326.028 90.7468C325.635 90.8567 325.282 91.0414 324.999 91.2848C324.716 91.5282 324.512 91.823 324.404 92.1435C324.296 92.4641 324.288 92.8008 324.38 93.1244C324.473 93.448 324.663 93.7487 324.934 94.0005C324.663 94.2523 324.473 94.553 324.38 94.8766C324.288 95.2003 324.296 95.537 324.404 95.8576C324.511 96.1782 324.716 96.473 324.999 96.7163C325.282 96.9597 325.636 97.1443 326.029 97.2542C325.951 97.5803 325.975 97.9165 326.098 98.2336C326.221 98.5507 326.439 98.8391 326.734 99.0737C327.028 99.3084 327.39 99.4822 327.788 99.5802C328.186 99.6781 328.608 99.6971 329.017 99.6357C329.155 99.9488 329.386 100.23 329.692 100.456C329.997 100.682 330.367 100.844 330.769 100.93C331.171 101.016 331.594 101.023 332 100.949C332.406 100.875 332.783 100.724 333.099 100.508C333.415 100.724 333.792 100.875 334.198 100.949C334.604 101.023 335.027 101.016 335.429 100.93C335.831 100.845 336.201 100.682 336.506 100.456C336.812 100.23 337.043 99.9486 337.181 99.6354C337.59 99.6968 338.012 99.6777 338.41 99.5797C338.808 99.4817 339.169 99.3079 339.464 99.0732C339.758 98.8385 339.976 98.5501 340.099 98.233C340.222 97.9159 340.246 97.5797 340.169 97.2536C340.562 97.1437 340.915 96.959 341.198 96.7156C341.482 96.4722 341.686 96.1774 341.794 95.8568C341.901 95.5362 341.909 95.1995 341.817 94.8759C341.724 94.5523 341.534 94.2516 341.263 93.9999Z" fill="#4CAF50"/>
<path d="M331.522 96.6751L329.081 94.7311C328.989 94.6571 328.937 94.5569 328.937 94.4524C328.937 94.3479 328.989 94.2477 329.081 94.1738L329.378 93.9371C329.47 93.8633 329.596 93.8218 329.727 93.8218C329.858 93.8218 329.984 93.8633 330.077 93.9371L331.851 95.3502L336.029 91.8114C336.119 91.7354 336.243 91.6909 336.374 91.6877C336.505 91.6845 336.632 91.7229 336.728 91.7944L337.032 92.0234C337.128 92.0951 337.184 92.1941 337.188 92.2986C337.192 92.4031 337.143 92.5046 337.054 92.5807L332.233 96.6663C332.187 96.7048 332.133 96.7357 332.072 96.7571C332.011 96.7785 331.946 96.7899 331.88 96.7908C331.813 96.7916 331.747 96.7818 331.686 96.7619C331.624 96.742 331.569 96.7125 331.522 96.6751Z" fill="white"/>
<path d="M36.8178 47.4999C37.7285 46.6547 38.3667 45.645 38.677 44.5587C38.9873 43.4723 38.9604 42.342 38.5985 41.2658C38.2367 40.1896 37.5509 39.2 36.6007 38.3828C35.6504 37.5657 34.4643 36.9457 33.1454 36.5767C33.4038 35.4817 33.3231 34.3529 32.9103 33.2884C32.4975 32.2239 31.7651 31.2557 30.7766 30.4679C29.788 29.68 28.5732 29.0964 27.2376 28.7675C25.902 28.4386 24.4858 28.3744 23.1121 28.5806C22.6494 27.529 21.8717 26.5834 20.8465 25.8258C19.8213 25.0682 18.5796 24.5215 17.2292 24.2332C15.8788 23.9448 14.4605 23.9236 13.0974 24.1713C11.7344 24.4189 10.4678 24.9281 9.4076 25.6544C8.3471 24.9286 7.08042 24.4199 5.71745 24.1726C4.35447 23.9252 2.93634 23.9467 1.58612 24.2351C0.235901 24.5235 -1.00565 25.0701 -2.03082 25.8275C-3.056 26.5849 -3.83383 27.5303 -4.29685 28.5816C-5.67058 28.3758 -7.08656 28.4402 -8.42197 28.7693C-9.75737 29.0984 -10.9719 29.6823 -11.9601 30.4702C-12.9484 31.2581 -13.6805 32.2262 -14.0931 33.2907C-14.5057 34.3552 -14.5862 35.4838 -14.3276 36.5787C-15.6466 36.9478 -16.8326 37.5678 -17.7829 38.3849C-18.7332 39.202 -19.419 40.1916 -19.7808 41.2678C-20.1426 42.344 -20.1695 43.4743 -19.8592 44.5607C-19.5489 45.6471 -18.9107 46.6567 -18 47.502C-18.911 48.3472 -19.5494 49.3569 -19.8598 50.4434C-20.1702 51.5299 -20.1432 52.6604 -19.7813 53.7367C-19.4193 54.813 -18.7332 55.8026 -17.7826 56.6196C-16.832 57.4367 -15.6456 58.0565 -14.3263 58.4252C-14.5851 59.5202 -14.5047 60.6489 -14.0921 61.7134C-13.6795 62.7779 -12.9471 63.7461 -11.9586 64.5339C-10.9701 65.3217 -9.75533 65.9053 -8.4197 66.234C-7.08407 66.5628 -5.66796 66.6267 -4.29429 66.4203C-3.83127 67.4716 -3.05344 68.417 -2.02826 69.1744C-1.00309 69.9318 0.238459 70.4784 1.58868 70.7668C2.9389 71.0552 4.35701 71.0767 5.71999 70.8293C7.08297 70.582 8.34966 70.0733 9.41016 69.3475C10.4706 70.0736 11.7374 70.5824 13.1005 70.8298C14.4636 71.0772 15.8819 71.0557 17.2323 70.7672C18.5826 70.4787 19.8242 69.9319 20.8493 69.1742C21.8744 68.4165 22.652 67.4708 23.1146 66.4193C24.4884 66.6255 25.9045 66.5614 27.2401 66.2325C28.5757 65.9036 29.7904 65.3199 30.7789 64.5321C31.7673 63.7442 32.4997 62.776 32.9123 61.7114C33.3249 60.6469 33.4053 59.5182 33.1466 58.4232C34.4657 58.0542 35.6519 57.4343 36.6022 56.6171C37.5525 55.7999 38.2383 54.8103 38.6 53.734C38.9617 52.6577 38.9884 51.5274 38.6779 50.441C38.3673 49.3546 37.7288 48.3451 36.8178 47.4999Z" fill="#4CAF50"/>
<path d="M4.11541 56.4708L-4.07787 49.9444C-4.38882 49.6961 -4.56348 49.3597 -4.56348 49.0089C-4.56348 48.6581 -4.38882 48.3217 -4.07787 48.0734L-3.08246 47.279C-2.77101 47.0312 -2.3489 46.892 -1.9088 46.892C-1.4687 46.892 -1.04658 47.0312 -0.735132 47.279L5.22071 52.0231L19.2472 40.1425C19.549 39.8872 19.9655 39.7379 20.4054 39.7272C20.8452 39.7165 21.2725 39.8453 21.5932 40.0855L22.6155 40.8544C22.9361 41.095 23.1237 41.4272 23.1372 41.7781C23.1506 42.1289 22.9887 42.4696 22.687 42.7254L6.50236 56.4413C6.34997 56.5708 6.16648 56.6745 5.9628 56.7463C5.75912 56.8181 5.53942 56.8565 5.31674 56.8592C5.09406 56.862 4.87295 56.829 4.66657 56.7623C4.4602 56.6956 4.27276 56.5965 4.11541 56.4708Z" fill="white"/>
<path d="M302.435 6.9999C303.561 5.74097 304.35 4.23728 304.734 2.61928C305.117 1.00127 305.084 -0.682177 304.637 -2.28503C304.189 -3.88789 303.342 -5.36175 302.167 -6.57874C300.992 -7.79574 299.526 -8.71911 297.895 -9.26877C298.215 -10.8996 298.115 -12.5807 297.605 -14.1662C297.094 -15.7517 296.189 -17.1937 294.967 -18.367C293.745 -19.5404 292.243 -20.4097 290.592 -20.8995C288.941 -21.3893 287.19 -21.4849 285.492 -21.1779C284.92 -22.744 283.958 -24.1524 282.691 -25.2807C281.424 -26.4091 279.889 -27.2233 278.219 -27.6527C276.55 -28.0822 274.796 -28.1138 273.111 -27.7449C271.426 -27.376 269.861 -26.6178 268.55 -25.5359C267.239 -26.617 265.673 -27.3746 263.988 -27.743C262.303 -28.1114 260.55 -28.0794 258.881 -27.6499C257.212 -27.2204 255.677 -26.4063 254.409 -25.2782C253.142 -24.1501 252.18 -22.7421 251.608 -21.1764C249.91 -21.4829 248.159 -21.3869 246.508 -20.8967C244.858 -20.4066 243.356 -19.537 242.134 -18.3636C240.913 -17.1901 240.008 -15.7482 239.498 -14.1628C238.988 -12.5774 238.888 -10.8964 239.208 -9.26574C237.577 -8.71608 236.111 -7.7927 234.936 -6.57571C233.761 -5.35872 232.914 -3.88486 232.466 -2.282C232.019 -0.679144 231.986 1.00431 232.369 2.62231C232.753 4.24032 233.542 5.74401 234.668 7.00294C233.542 8.26183 232.752 9.76562 232.369 11.3838C231.985 13.002 232.018 14.6856 232.466 16.2886C232.913 17.8916 233.761 19.3655 234.936 20.5824C236.112 21.7993 237.578 22.7224 239.209 23.2716C238.889 24.9023 238.989 26.5834 239.499 28.1689C240.009 29.7544 240.914 31.1963 242.136 32.3696C243.358 33.543 244.86 34.4121 246.511 34.9017C248.162 35.3914 249.913 35.4866 251.611 35.1792C252.184 36.745 253.145 38.1529 254.413 39.281C255.68 40.4091 257.215 41.2232 258.884 41.6527C260.553 42.0823 262.306 42.1142 263.991 41.7458C265.676 41.3774 267.242 40.6199 268.553 39.5388C269.864 40.6202 271.43 41.378 273.115 41.7465C274.8 42.115 276.554 42.083 278.223 41.6533C279.892 41.2236 281.427 40.4091 282.694 39.2807C283.962 38.1522 284.923 36.7438 285.495 35.1777C287.193 35.4848 288.944 35.3893 290.595 34.8995C292.246 34.4096 293.748 33.5403 294.97 32.3669C296.192 31.1935 297.097 29.7515 297.607 28.166C298.117 26.5805 298.217 24.8994 297.897 23.2686C299.528 22.7191 300.994 21.7957 302.169 20.5787C303.344 19.3616 304.191 17.8877 304.639 16.2847C305.086 14.6817 305.119 12.9982 304.735 11.3802C304.351 9.76219 303.562 8.25859 302.435 6.9999Z" fill="#4CAF50"/>
<path d="M262.007 20.3602L251.879 10.6399C251.494 10.2702 251.278 9.7691 251.278 9.24665C251.278 8.72421 251.494 8.22311 251.879 7.85339L253.109 6.67021C253.494 6.30108 254.016 6.09376 254.56 6.09376C255.104 6.09376 255.626 6.30108 256.011 6.67021L263.374 13.7359L280.714 -3.95866C281.087 -4.33882 281.602 -4.56128 282.146 -4.57721C282.689 -4.59313 283.218 -4.40122 283.614 -4.04361L284.878 -2.89835C285.274 -2.54001 285.506 -2.04519 285.523 -1.52267C285.539 -1.00015 285.339 -0.492684 284.966 -0.111821L264.958 20.3162C264.77 20.509 264.543 20.6634 264.291 20.7704C264.039 20.8773 263.768 20.9345 263.493 20.9386C263.217 20.9427 262.944 20.8936 262.689 20.7943C262.434 20.6949 262.202 20.5473 262.007 20.3602Z" fill="white"/>
</g>
<defs>
<clipPath id="clip0_4798_50442">
<rect width="340" height="116" rx="16" fill="white"/>
</clipPath>
</defs>
</svg>
