<svg width="93" height="93" viewBox="0 0 93 93" fill="none" xmlns="http://www.w3.org/2000/svg">
<g clip-path="url(#clip0_4377_40876)">
<rect x="0.444092" y="0.445312" width="92.5496" height="92.5496" rx="46.2748" fill="#785600"/>
<path opacity="0.48" d="M74.4838 73.097C76.746 77.416 77.8773 93.1494 77.8773 93.1494H14.3265C14.3265 93.1494 15.4578 77.416 17.72 73.097C20.6051 67.5891 39.0992 60.7433 44.5759 58.8157C45.5701 58.4658 46.6337 58.4658 47.6279 58.8157C53.1046 60.7433 71.5987 67.5891 74.4838 73.097Z" fill="#FFD874"/>
<path d="M76.7975 73.097C79.0597 77.416 80.191 93.1494 80.191 93.1494H16.6403C16.6403 93.1494 17.7715 77.416 20.0337 73.097C22.9188 67.5891 41.4129 60.7433 46.8896 58.8157C47.8838 58.4658 48.9475 58.4658 49.9416 58.8157C55.4184 60.7433 73.9124 67.5891 76.7975 73.097Z" fill="#FFD874"/>
<path opacity="0.48" d="M60.6013 39.777C60.6013 47.444 54.3859 53.6594 46.7189 53.6594C39.0518 53.6594 32.8364 47.444 32.8364 39.777C32.8364 32.1099 39.0518 25.8945 46.7189 25.8945C54.3859 25.8945 60.6013 32.1099 60.6013 39.777Z" fill="#FFBB0A" stroke="#FFBB0A" stroke-width="1.21776"/>
<path d="M62.915 39.777C62.915 47.444 56.6996 53.6594 49.0326 53.6594C41.3655 53.6594 35.1501 47.444 35.1501 39.777C35.1501 32.1099 41.3655 25.8945 49.0326 25.8945C56.6996 25.8945 62.915 32.1099 62.915 39.777Z" fill="#FFBB0A" stroke="#FFBB0A" stroke-width="1.21776"/>
</g>
<rect x="5.31512" y="5.31635" width="82.8076" height="82.8076" rx="41.4038" stroke="white" stroke-width="9.74207"/>
<defs>
<clipPath id="clip0_4377_40876">
<rect x="0.444092" y="0.445312" width="92.5496" height="92.5496" rx="46.2748" fill="white"/>
</clipPath>
</defs>
</svg>
