<svg width="28" height="28" viewBox="0 0 28 28" fill="none" xmlns="http://www.w3.org/2000/svg">
<rect width="28" height="28" rx="14" fill="#FFBB0A" fill-opacity="0.1"/>
<path d="M7.66675 14.0052H12.3542M12.1667 8.17188H9.33341C8.54774 8.17188 8.1549 8.17188 7.91083 8.41595C7.66675 8.66003 7.66675 9.05287 7.66675 9.83854V18.1719C7.66675 18.9575 7.66675 19.3504 7.91083 19.5945C8.1549 19.8385 8.54774 19.8385 9.33342 19.8385H12.1667C13.8236 19.8385 15.1667 18.5327 15.1667 16.9219C15.1667 15.311 13.8236 14.0052 12.1667 14.0052C13.8236 14.0052 15.1667 12.6994 15.1667 11.0885C15.1667 9.47771 13.8236 8.17188 12.1667 8.17188Z" stroke="#FFBB0A" stroke-linecap="round" stroke-linejoin="round"/>
<path d="M22.6667 9.83594H19.3334M17.6667 15.6693H24.3334C24.3334 13.9682 22.841 12.3359 21.0001 12.3359C19.1591 12.3359 17.6667 13.9682 17.6667 15.6693ZM17.6667 15.6693V16.5026C17.6667 18.3436 19.1591 19.8359 21.0001 19.8359C22.2339 19.8359 23.3111 19.1656 23.8875 18.1693" stroke="#FFBB0A" stroke-linecap="round" stroke-linejoin="round"/>
</svg>
