<svg width="17" height="17" viewBox="0 0 17 17" fill="none" xmlns="http://www.w3.org/2000/svg">
<g clip-path="url(#clip0_4321_37674)">
<rect width="17" height="17" rx="8.5" fill="#FF0000"/>
<path fill-rule="evenodd" clip-rule="evenodd" d="M6.72525 5.98338C7.90664 5.89096 9.09343 5.89096 10.2748 5.98338L11.0684 6.04547C11.5104 6.08005 11.872 6.41134 11.9451 6.84865C12.1279 7.94285 12.1279 9.0598 11.9451 10.154C11.872 10.5913 11.5104 10.9226 11.0684 10.9572L10.2748 11.0193C9.09343 11.1117 7.90663 11.1117 6.72525 11.0193L5.93167 10.9572C5.48964 10.9226 5.12803 10.5913 5.05496 10.154C4.87214 9.0598 4.87214 7.94285 5.05496 6.84865C5.12803 6.41134 5.48964 6.08005 5.93167 6.04547L6.72525 5.98338ZM7.79169 9.37617V7.62648C7.79169 7.54389 7.88179 7.49288 7.9526 7.53537L9.41068 8.41021C9.47945 8.45148 9.47945 8.55116 9.41068 8.59243L7.95261 9.46727C7.88179 9.50977 7.79169 9.45875 7.79169 9.37617Z" fill="white"/>
<rect width="17" height="17" rx="8.5" fill="#785600"/>
<g style="mix-blend-mode:luminosity">
<path d="M12.4896 6.53516H5.26465L5.68965 12.4852H12.0646L12.4896 6.53516Z" fill="#FFD874" stroke="#FFD874" stroke-width="0.425"/>
<path d="M12.49 6.75H5.05249L5.47749 8.2375L7.17749 8.875L9.93999 9.0875L12.49 7.8125V6.75Z" fill="#FFBB0A" stroke="#FFBB0A" stroke-width="0.425"/>
<g clip-path="url(#clip1_4321_37674)">
<path d="M8.02783 9.01979C8.02783 8.88805 8.02783 8.82217 8.04231 8.76813C8.08161 8.62146 8.19617 8.50691 8.34283 8.46761C8.39688 8.45312 8.46275 8.45312 8.5945 8.45312H9.16117C9.29291 8.45312 9.35878 8.45312 9.41283 8.46761C9.55949 8.50691 9.67405 8.62146 9.71335 8.76813C9.72783 8.82217 9.72783 8.88805 9.72783 9.01979V9.30313C9.72783 9.77257 9.34727 10.1531 8.87783 10.1531C8.40839 10.1531 8.02783 9.77257 8.02783 9.30313V9.01979Z" fill="#FFD874" stroke="#FFBB0A" stroke-width="0.6375" stroke-linecap="round" stroke-linejoin="round"/>
<path d="M9.64349 9.30312C9.77593 9.26465 9.92615 9.21832 10.1018 9.16414L11.8746 8.61745C12.5055 8.42287 12.8143 8.08379 12.8815 7.49678C12.9116 7.23422 12.9266 7.10294 12.9055 6.99547C12.8452 6.6888 12.5876 6.44013 12.2444 6.35719C12.1241 6.32812 11.9731 6.32812 11.6711 6.32812H6.08455C5.78256 6.32812 5.63156 6.32812 5.51128 6.35719C5.16805 6.44013 4.9105 6.6888 4.8502 6.99547C4.82907 7.10294 4.8441 7.23422 4.87415 7.49678C4.94133 8.08379 5.25014 8.42287 5.88108 8.61745L7.65381 9.16414C7.82951 9.21832 7.97974 9.26465 8.11217 9.30313" stroke="#FFBB0A" stroke-width="0.6375"/>
<path d="M5.24956 8.45312L5.16616 9.37634C5.01665 11.0312 4.9419 11.8587 5.42148 12.3872C5.90105 12.9156 6.72672 12.9156 8.37806 12.9156H9.37765C11.029 12.9156 11.8547 12.9156 12.3342 12.3872C12.8138 11.8587 12.7391 11.0313 12.5896 9.37634L12.5062 8.45312" stroke="#FFBB0A" stroke-width="0.6375" stroke-linecap="round" stroke-linejoin="round"/>
<path d="M10.3654 6.11484L10.3325 6.00226C10.1689 5.44124 10.0871 5.16073 9.89232 5.00029C9.69754 4.83984 9.43882 4.83984 8.92138 4.83984H8.83439C8.31694 4.83984 8.05822 4.83984 7.86344 5.00029C7.66866 5.16073 7.58685 5.44124 7.42322 6.00226L7.39038 6.11484" stroke="#FFBB0A" stroke-width="0.6375"/>
</g>
</g>
<path d="M12.9169 6.52734H5.69189L6.11689 12.4773H12.4919L12.9169 6.52734Z" fill="#FFD874" stroke="#FFD874" stroke-width="0.425"/>
<path d="M12.9185 6.74609H5.48096L5.90596 8.23359L7.60596 8.87109L10.3685 9.08359L12.9185 7.80859V6.74609Z" fill="#FFBB0A" stroke="#FFBB0A" stroke-width="0.425"/>
<g clip-path="url(#clip2_4321_37674)">
<path d="M8.45557 9.01198C8.45557 8.88023 8.45557 8.81436 8.47005 8.76031C8.50935 8.61365 8.6239 8.49909 8.77057 8.45979C8.82461 8.44531 8.89049 8.44531 9.02223 8.44531H9.5889C9.72065 8.44531 9.78652 8.44531 9.84056 8.45979C9.98723 8.49909 10.1018 8.61365 10.1411 8.76031C10.1556 8.81436 10.1556 8.88023 10.1556 9.01198V9.29531C10.1556 9.76475 9.77501 10.1453 9.30557 10.1453C8.83612 10.1453 8.45557 9.76475 8.45557 9.29531V9.01198Z" fill="#FFD874" stroke="#FFBB0A" stroke-width="0.6375" stroke-linecap="round" stroke-linejoin="round"/>
<path d="M10.0712 9.29531C10.2037 9.25684 10.3539 9.21051 10.5296 9.15633L12.3023 8.60963C12.9333 8.41506 13.2421 8.07598 13.3093 7.48897C13.3393 7.2264 13.3543 7.09512 13.3332 6.98766C13.2729 6.68099 13.0153 6.43232 12.6721 6.34938C12.5518 6.32031 12.4008 6.32031 12.0988 6.32031H6.51228C6.21029 6.32031 6.0593 6.32031 5.93902 6.34938C5.59579 6.43232 5.33824 6.68099 5.27794 6.98766C5.25681 7.09512 5.27183 7.2264 5.30188 7.48896C5.36906 8.07598 5.67787 8.41506 6.30881 8.60963L8.08155 9.15633C8.25724 9.21051 8.40747 9.25684 8.53991 9.29531" stroke="#FFBB0A" stroke-width="0.6375"/>
<path d="M5.67729 8.44531L5.59389 9.36853C5.44438 11.0234 5.36963 11.8509 5.84921 12.3794C6.32879 12.9078 7.15446 12.9078 8.8058 12.9078H9.80538C11.4567 12.9078 12.2824 12.9078 12.762 12.3794C13.2416 11.8509 13.1668 11.0234 13.0173 9.36853L12.9339 8.44531" stroke="#FFBB0A" stroke-width="0.6375" stroke-linecap="round" stroke-linejoin="round"/>
<path d="M10.7931 6.10703L10.7603 5.99444C10.5966 5.43343 10.5148 5.15292 10.3201 4.99248C10.1253 4.83203 9.86655 4.83203 9.34911 4.83203H9.26212C8.74468 4.83203 8.48596 4.83203 8.29118 4.99248C8.0964 5.15292 8.01458 5.43343 7.85095 5.99444L7.81812 6.10703" stroke="#FFBB0A" stroke-width="0.6375"/>
</g>
</g>
<defs>
<clipPath id="clip0_4321_37674">
<rect width="17" height="17" rx="8.5" fill="white"/>
</clipPath>
<clipPath id="clip1_4321_37674">
<rect width="10.2" height="10.2" fill="white" transform="translate(3.77783 3.77734)"/>
</clipPath>
<clipPath id="clip2_4321_37674">
<rect width="10.2" height="10.2" fill="white" transform="translate(4.20557 3.76953)"/>
</clipPath>
</defs>
</svg>
