<svg width="29" height="29" viewBox="0 0 29 29" fill="none" xmlns="http://www.w3.org/2000/svg">
<rect width="28.6667" height="28.6667" rx="14.3333" fill="#FFBB0A" fill-opacity="0.1"/>
<path d="M8.08333 12.25H7.66667C6.88099 12.25 6.48816 12.25 6.24408 12.4941C6 12.7382 6 13.131 6 13.9167V21C6 21.7857 6 22.1785 6.24408 22.4226C6.48816 22.6667 6.88099 22.6667 7.66667 22.6667H8.08333C8.86901 22.6667 9.26184 22.6667 9.50592 22.4226C9.75 22.1785 9.75 21.7857 9.75 21V13.9167C9.75 13.131 9.75 12.7382 9.50592 12.4941C9.26184 12.25 8.86901 12.25 8.08333 12.25Z" stroke="#FFBB0A"/>
<path d="M9.75 7.875C9.75 8.91053 8.91053 9.75 7.875 9.75C6.83947 9.75 6 8.91053 6 7.875C6 6.83947 6.83947 6 7.875 6C8.91053 6 9.75 6.83947 9.75 7.875Z" stroke="#FFBB0A"/>
<path d="M14.605 12.25H13.9167C13.131 12.25 12.7382 12.25 12.4941 12.4941C12.25 12.7382 12.25 13.131 12.25 13.9167V21C12.25 21.7857 12.25 22.1785 12.4941 22.4226C12.7382 22.6667 13.131 22.6667 13.9167 22.6667H14.3334C15.119 22.6667 15.5119 22.6667 15.7559 22.4226C16 22.1785 16 21.7857 16 21L16 18.0834C16 16.7027 16.4401 15.5834 17.7399 15.5834C18.3898 15.5834 18.9166 16.1431 18.9166 16.8334V20.5834C18.9166 21.3691 18.9166 21.7619 19.1607 22.006C19.4048 22.2501 19.7976 22.2501 20.5833 22.2501H20.9989C21.7844 22.2501 22.1772 22.2501 22.4213 22.0061C22.6653 21.7621 22.6654 21.3693 22.6656 20.5838L22.6667 16.0002C22.6667 13.9291 20.697 12.2502 18.7473 12.2502C17.6374 12.2502 16.6472 12.7942 16 13.645C16 13.1199 16 12.8574 15.886 12.6625C15.8137 12.5391 15.711 12.4363 15.5875 12.3641C15.3926 12.25 15.1301 12.25 14.605 12.25Z" stroke="#FFBB0A" stroke-linejoin="round"/>
</svg>
