<svg width="20" height="20" viewBox="0 0 20 20" fill="none" xmlns="http://www.w3.org/2000/svg">
<g clip-path="url(#clip0_4321_37659)">
<path d="M11.7282 3.23918C12.3492 2.56637 12.6597 2.22997 12.9896 2.03374C13.7857 1.56027 14.766 1.54554 15.5754 1.9949C15.9108 2.18114 16.2309 2.50807 16.8709 3.16194C17.511 3.8158 17.8311 4.14274 18.0134 4.48541C18.4533 5.31223 18.4388 6.31363 17.9754 7.12689C17.7833 7.46393 17.454 7.78112 16.7953 8.41548L8.95894 15.9632C7.71081 17.1654 7.08675 17.7664 6.3068 18.0711C5.52685 18.3757 4.66942 18.3533 2.95455 18.3085L2.72123 18.3024C2.19917 18.2887 1.93814 18.2819 1.7864 18.1097C1.63467 17.9375 1.65538 17.6716 1.69681 17.1398L1.71931 16.851C1.83592 15.3543 1.89423 14.6059 2.1865 13.9332C2.47878 13.2604 2.98294 12.7142 3.99127 11.6217L11.7282 3.23918Z" stroke="#FFBB0A" stroke-width="1.5" stroke-linejoin="round"/>
<path d="M10.8335 3.33594L16.6668 9.16927" stroke="#FFBB0A" stroke-width="1.5" stroke-linejoin="round"/>
<path d="M11.6667 18.3359L18.3334 18.3359" stroke="#FFBB0A" stroke-width="1.5" stroke-linecap="round" stroke-linejoin="round"/>
</g>
<defs>
<clipPath id="clip0_4321_37659">
<rect width="20" height="20" fill="white"/>
</clipPath>
</defs>
</svg>
