<svg width="28" height="28" viewBox="0 0 28 28" fill="none" xmlns="http://www.w3.org/2000/svg">
<rect width="27.8333" height="27.8333" rx="13.9167" fill="#FFBB0A" fill-opacity="0.1"/>
<path d="M6 13.9167C6 10.1847 6 8.31874 7.15937 7.15937C8.31874 6 10.1847 6 13.9167 6C17.6486 6 19.5146 6 20.674 7.15937C21.8333 8.31874 21.8333 10.1847 21.8333 13.9167C21.8333 17.6486 21.8333 19.5146 20.674 20.674C19.5146 21.8333 17.6486 21.8333 13.9167 21.8333C10.1847 21.8333 8.31874 21.8333 7.15937 20.674C6 19.5146 6 17.6486 6 13.9167Z" stroke="#FFBB0A" stroke-linejoin="round"/>
<path d="M12.5958 13.613C12.8691 13.6521 13.1224 13.4622 13.1615 13.1889C13.2006 12.9155 13.0107 12.6622 12.7374 12.6231L12.5958 13.613ZM18.4999 12.3385C18.7761 12.3385 18.9999 12.1147 18.9999 11.8385C18.9999 11.5624 18.7761 11.3385 18.4999 11.3385V12.3385ZM15.6666 8.92188C15.6666 8.64573 15.4427 8.42188 15.1666 8.42188C14.8904 8.42188 14.6666 8.64573 14.6666 8.92188H15.6666ZM14.6666 16.0052C14.6666 17.3399 13.5846 18.4219 12.2499 18.4219V19.4219C14.1369 19.4219 15.6666 17.8922 15.6666 16.0052H14.6666ZM12.2499 18.4219C10.9152 18.4219 9.83325 17.3399 9.83325 16.0052H8.83325C8.83325 17.8922 10.3629 19.4219 12.2499 19.4219V18.4219ZM9.83325 16.0052C9.83325 14.6705 10.9152 13.5885 12.2499 13.5885V12.5885C10.3629 12.5885 8.83325 14.1182 8.83325 16.0052H9.83325ZM12.2499 13.5885C12.3676 13.5885 12.4831 13.5969 12.5958 13.613L12.7374 12.6231C12.5779 12.6003 12.4151 12.5885 12.2499 12.5885V13.5885ZM18.4999 11.3385C17.8225 11.3385 17.1004 11.0605 16.5497 10.6005C15.9994 10.1409 15.6666 9.54186 15.6666 8.92188H14.6666C14.6666 9.91272 15.195 10.772 15.9087 11.368C16.6219 11.9637 17.5665 12.3385 18.4999 12.3385V11.3385ZM14.6666 8.92188V16.0052H15.6666V8.92188H14.6666Z" fill="#FFBB0A"/>
</svg>
