<svg width="98" height="65" viewBox="0 0 98 65" fill="none" xmlns="http://www.w3.org/2000/svg">
<path d="M0 32.5C-5.62545e-07 36.768 1.26742 40.9941 3.7299 44.9372C6.19238 48.8803 9.80169 52.4631 14.3518 55.481C18.9018 58.4989 24.3036 60.8928 30.2485 62.5261C36.1935 64.1594 42.5652 65 49 65C55.4348 65 61.8065 64.1594 67.7515 62.5261C73.6964 60.8928 79.0982 58.4989 83.6482 55.481C88.1983 52.4631 91.8076 48.8803 94.2701 44.9372C96.7326 40.9941 98 36.768 98 32.5H49L0 32.5Z" fill="black"/>
<path d="M51 40.5L51 50.5M51 40.5C50.2998 40.5 48.9915 42.4943 48.5 43M51 40.5C51.7002 40.5 53.0085 42.4943 53.5 43" stroke="white" stroke-width="1.5" stroke-linecap="round" stroke-linejoin="round"/>
<path d="M59 52.5C59 54.982 58.482 55.5 56 55.5H46C43.518 55.5 43 54.982 43 52.5" stroke="white" stroke-width="1.5" stroke-linecap="round" stroke-linejoin="round"/>
</svg>
