<svg width="867" height="765" viewBox="0 0 867 765" fill="none" xmlns="http://www.w3.org/2000/svg">
<g filter="url(#filter0_ddddd_2910_27691)">
<rect x="504" y="397" width="250.43" height="234.348" rx="18.3802" fill="white"/>
<path d="M540.908 529.129C540.401 529.129 539.94 529.032 539.525 528.839C539.11 528.646 538.76 528.389 538.474 528.067C538.188 527.738 537.985 527.377 537.863 526.984L538.635 526.695C538.821 527.238 539.11 527.653 539.504 527.939C539.897 528.217 540.365 528.357 540.908 528.357C541.251 528.357 541.551 528.303 541.809 528.196C542.073 528.082 542.277 527.924 542.42 527.724C542.563 527.524 542.634 527.292 542.634 527.027C542.634 526.634 542.527 526.33 542.313 526.116C542.098 525.901 541.791 525.737 541.391 525.623L539.954 525.194C539.389 525.029 538.953 524.754 538.646 524.368C538.346 523.982 538.195 523.543 538.195 523.049C538.195 522.628 538.299 522.256 538.506 521.934C538.714 521.606 538.996 521.348 539.353 521.162C539.718 520.977 540.129 520.884 540.586 520.884C541.065 520.884 541.494 520.973 541.873 521.152C542.259 521.323 542.584 521.552 542.849 521.838C543.113 522.124 543.303 522.442 543.417 522.792L542.666 523.092C542.495 522.621 542.227 522.263 541.862 522.02C541.505 521.777 541.083 521.656 540.597 521.656C540.29 521.656 540.018 521.709 539.782 521.816C539.554 521.924 539.375 522.077 539.246 522.277C539.118 522.478 539.053 522.713 539.053 522.985C539.053 523.314 539.157 523.611 539.364 523.875C539.571 524.132 539.889 524.325 540.318 524.454L541.584 524.829C542.213 525.015 542.688 525.283 543.01 525.633C543.331 525.984 543.492 526.423 543.492 526.952C543.492 527.381 543.381 527.76 543.16 528.089C542.945 528.41 542.641 528.664 542.248 528.85C541.862 529.036 541.416 529.129 540.908 529.129ZM547.228 529.064C546.714 529.064 546.317 528.914 546.038 528.614C545.759 528.314 545.62 527.885 545.62 527.327V524.057H544.559V523.253H544.827C545.07 523.253 545.263 523.174 545.406 523.017C545.549 522.853 545.62 522.649 545.62 522.406V521.924H546.424V523.253H547.689V524.057H546.424V527.327C546.424 527.52 546.453 527.692 546.51 527.842C546.567 527.985 546.664 528.099 546.8 528.185C546.942 528.271 547.132 528.314 547.368 528.314C547.425 528.314 547.493 528.31 547.571 528.303C547.65 528.296 547.718 528.289 547.775 528.282V529C547.689 529.021 547.593 529.036 547.486 529.043C547.378 529.057 547.293 529.064 547.228 529.064ZM549.187 529V523.253H549.991V524.197L549.884 524.057C550.02 523.786 550.224 523.571 550.495 523.414C550.774 523.257 551.11 523.178 551.503 523.178H551.868V523.982H551.364C550.949 523.982 550.617 524.111 550.367 524.368C550.116 524.626 549.991 524.99 549.991 525.462V529H549.187ZM555.426 529.129C554.89 529.129 554.404 529 553.968 528.743C553.539 528.478 553.2 528.117 552.949 527.66C552.699 527.202 552.574 526.684 552.574 526.105C552.574 525.526 552.696 525.015 552.939 524.572C553.182 524.122 553.51 523.768 553.925 523.51C554.347 523.253 554.819 523.124 555.34 523.124C555.755 523.124 556.123 523.203 556.445 523.36C556.773 523.51 557.052 523.718 557.281 523.982C557.51 524.24 557.685 524.533 557.806 524.861C557.928 525.183 557.989 525.515 557.989 525.859C557.989 525.93 557.985 526.012 557.978 526.105C557.971 526.191 557.96 526.28 557.946 526.373H553.089V525.623H557.485L557.099 525.944C557.163 525.551 557.117 525.201 556.959 524.894C556.809 524.579 556.591 524.332 556.305 524.154C556.019 523.968 555.698 523.875 555.34 523.875C554.983 523.875 554.651 523.968 554.343 524.154C554.043 524.34 553.807 524.6 553.636 524.936C553.464 525.265 553.396 525.658 553.432 526.116C553.396 526.573 553.468 526.974 553.646 527.317C553.832 527.653 554.082 527.914 554.397 528.099C554.718 528.285 555.062 528.378 555.426 528.378C555.848 528.378 556.202 528.278 556.488 528.078C556.773 527.878 557.006 527.628 557.184 527.327L557.871 527.692C557.756 527.949 557.581 528.189 557.345 528.41C557.109 528.625 556.827 528.8 556.498 528.936C556.177 529.064 555.819 529.129 555.426 529.129ZM560.964 529.129C560.599 529.129 560.274 529.061 559.988 528.925C559.702 528.782 559.477 528.589 559.312 528.346C559.148 528.103 559.066 527.824 559.066 527.51C559.066 527.209 559.13 526.938 559.259 526.695C559.387 526.445 559.588 526.234 559.859 526.062C560.131 525.891 560.478 525.769 560.899 525.698L563.151 525.322V526.052L561.092 526.395C560.678 526.466 560.377 526.598 560.192 526.791C560.013 526.984 559.924 527.213 559.924 527.478C559.924 527.735 560.024 527.953 560.224 528.132C560.431 528.31 560.696 528.4 561.017 528.4C561.41 528.4 561.753 528.317 562.046 528.153C562.34 527.981 562.568 527.753 562.733 527.467C562.897 527.181 562.979 526.863 562.979 526.513V525.054C562.979 524.711 562.854 524.433 562.604 524.218C562.354 524.004 562.029 523.896 561.628 523.896C561.278 523.896 560.971 523.986 560.706 524.164C560.442 524.336 560.245 524.561 560.117 524.84L559.387 524.443C559.495 524.2 559.663 523.979 559.891 523.778C560.127 523.578 560.395 523.421 560.696 523.307C560.996 523.185 561.307 523.124 561.628 523.124C562.05 523.124 562.422 523.207 562.743 523.371C563.072 523.535 563.326 523.764 563.505 524.057C563.69 524.343 563.783 524.676 563.783 525.054V529H562.979V527.853L563.097 527.971C562.997 528.185 562.84 528.382 562.625 528.56C562.418 528.732 562.172 528.871 561.886 528.979C561.607 529.079 561.3 529.129 560.964 529.129ZM565.437 529V523.253H566.242V524.347L566.113 524.186C566.27 523.85 566.502 523.589 566.81 523.403C567.124 523.217 567.467 523.124 567.839 523.124C568.282 523.124 568.683 523.25 569.04 523.5C569.397 523.75 569.651 524.075 569.801 524.475L569.576 524.486C569.719 524.043 569.966 523.707 570.316 523.478C570.673 523.242 571.066 523.124 571.495 523.124C571.881 523.124 572.235 523.217 572.557 523.403C572.885 523.589 573.146 523.846 573.339 524.175C573.54 524.497 573.64 524.861 573.64 525.269V529H572.835V525.58C572.835 525.23 572.771 524.933 572.642 524.69C572.521 524.447 572.353 524.261 572.139 524.132C571.924 523.996 571.677 523.929 571.399 523.929C571.127 523.929 570.881 523.996 570.659 524.132C570.437 524.261 570.262 524.45 570.134 524.701C570.005 524.944 569.941 525.237 569.941 525.58V529H569.136V525.58C569.136 525.23 569.072 524.933 568.943 524.69C568.822 524.447 568.654 524.261 568.44 524.132C568.225 523.996 567.978 523.929 567.7 523.929C567.421 523.929 567.171 523.996 566.949 524.132C566.735 524.261 566.563 524.45 566.435 524.701C566.306 524.944 566.242 525.237 566.242 525.58V529H565.437ZM575.175 529V520.884H575.979V529H575.175ZM577.625 529V523.253H578.429V529H577.625ZM577.625 522.192V521.012H578.429V522.192H577.625ZM580.075 529V523.253H580.879V524.368L580.697 524.325C580.84 523.954 581.072 523.661 581.394 523.446C581.723 523.232 582.102 523.124 582.53 523.124C582.938 523.124 583.302 523.217 583.624 523.403C583.953 523.589 584.21 523.846 584.396 524.175C584.589 524.497 584.686 524.861 584.686 525.269V529H583.881V525.58C583.881 525.23 583.817 524.933 583.688 524.69C583.567 524.447 583.392 524.261 583.163 524.132C582.941 523.996 582.684 523.929 582.391 523.929C582.098 523.929 581.837 523.996 581.608 524.132C581.38 524.261 581.201 524.45 581.072 524.701C580.944 524.944 580.879 525.237 580.879 525.58V529H580.075ZM588.837 529.129C588.301 529.129 587.815 529 587.379 528.743C586.95 528.478 586.611 528.117 586.361 527.66C586.111 527.202 585.985 526.684 585.985 526.105C585.985 525.526 586.107 525.015 586.35 524.572C586.593 524.122 586.922 523.768 587.336 523.51C587.758 523.253 588.23 523.124 588.752 523.124C589.166 523.124 589.534 523.203 589.856 523.36C590.185 523.51 590.464 523.718 590.692 523.982C590.921 524.24 591.096 524.533 591.218 524.861C591.339 525.183 591.4 525.515 591.4 525.859C591.4 525.93 591.396 526.012 591.389 526.105C591.382 526.191 591.371 526.28 591.357 526.373H586.5V525.623H590.896L590.51 525.944C590.574 525.551 590.528 525.201 590.371 524.894C590.221 524.579 590.003 524.332 589.717 524.154C589.431 523.968 589.109 523.875 588.752 523.875C588.394 523.875 588.062 523.968 587.755 524.154C587.454 524.34 587.218 524.6 587.047 524.936C586.875 525.265 586.807 525.658 586.843 526.116C586.807 526.573 586.879 526.974 587.058 527.317C587.243 527.653 587.494 527.914 587.808 528.099C588.13 528.285 588.473 528.378 588.837 528.378C589.259 528.378 589.613 528.278 589.899 528.078C590.185 527.878 590.417 527.628 590.596 527.327L591.282 527.692C591.168 527.949 590.993 528.189 590.757 528.41C590.521 528.625 590.238 528.8 589.91 528.936C589.588 529.064 589.231 529.129 588.837 529.129ZM596.838 529.064C596.323 529.064 595.926 528.914 595.647 528.614C595.369 528.314 595.229 527.885 595.229 527.327V524.057H594.168V523.253H594.436C594.679 523.253 594.872 523.174 595.015 523.017C595.158 522.853 595.229 522.649 595.229 522.406V521.924H596.033V523.253H597.299V524.057H596.033V527.327C596.033 527.52 596.062 527.692 596.119 527.842C596.176 527.985 596.273 528.099 596.409 528.185C596.552 528.271 596.741 528.314 596.977 528.314C597.034 528.314 597.102 528.31 597.181 528.303C597.259 528.296 597.327 528.289 597.384 528.282V529C597.299 529.021 597.202 529.036 597.095 529.043C596.988 529.057 596.902 529.064 596.838 529.064ZM600.354 529.129C599.989 529.129 599.664 529.061 599.378 528.925C599.092 528.782 598.867 528.589 598.702 528.346C598.538 528.103 598.456 527.824 598.456 527.51C598.456 527.209 598.52 526.938 598.649 526.695C598.777 526.445 598.978 526.234 599.249 526.062C599.521 525.891 599.868 525.769 600.289 525.698L602.541 525.322V526.052L600.482 526.395C600.068 526.466 599.767 526.598 599.582 526.791C599.403 526.984 599.314 527.213 599.314 527.478C599.314 527.735 599.414 527.953 599.614 528.132C599.821 528.31 600.086 528.4 600.407 528.4C600.8 528.4 601.143 528.317 601.436 528.153C601.73 527.981 601.958 527.753 602.123 527.467C602.287 527.181 602.369 526.863 602.369 526.513V525.054C602.369 524.711 602.244 524.433 601.994 524.218C601.744 524.004 601.419 523.896 601.018 523.896C600.668 523.896 600.361 523.986 600.096 524.164C599.832 524.336 599.635 524.561 599.507 524.84L598.777 524.443C598.885 524.2 599.053 523.979 599.281 523.778C599.517 523.578 599.785 523.421 600.086 523.307C600.386 523.185 600.697 523.124 601.018 523.124C601.44 523.124 601.812 523.207 602.133 523.371C602.462 523.535 602.716 523.764 602.895 524.057C603.08 524.343 603.173 524.676 603.173 525.054V529H602.369V527.853L602.487 527.971C602.387 528.185 602.23 528.382 602.015 528.56C601.808 528.732 601.562 528.871 601.276 528.979C600.997 529.079 600.69 529.129 600.354 529.129ZM604.827 529V520.884H605.632V529H604.827ZM609.894 529.129C609.358 529.129 608.871 529 608.435 528.743C608.007 528.478 607.667 528.117 607.417 527.66C607.167 527.202 607.042 526.684 607.042 526.105C607.042 525.526 607.163 525.015 607.406 524.572C607.649 524.122 607.978 523.768 608.393 523.51C608.814 523.253 609.286 523.124 609.808 523.124C610.222 523.124 610.591 523.203 610.912 523.36C611.241 523.51 611.52 523.718 611.748 523.982C611.977 524.24 612.152 524.533 612.274 524.861C612.395 525.183 612.456 525.515 612.456 525.859C612.456 525.93 612.453 526.012 612.445 526.105C612.438 526.191 612.428 526.28 612.413 526.373H607.556V525.623H611.952L611.566 525.944C611.631 525.551 611.584 525.201 611.427 524.894C611.277 524.579 611.059 524.332 610.773 524.154C610.487 523.968 610.165 523.875 609.808 523.875C609.45 523.875 609.118 523.968 608.811 524.154C608.511 524.34 608.275 524.6 608.103 524.936C607.932 525.265 607.864 525.658 607.899 526.116C607.864 526.573 607.935 526.974 608.114 527.317C608.3 527.653 608.55 527.914 608.864 528.099C609.186 528.285 609.529 528.378 609.894 528.378C610.315 528.378 610.669 528.278 610.955 528.078C611.241 527.878 611.473 527.628 611.652 527.327L612.338 527.692C612.224 527.949 612.049 528.189 611.813 528.41C611.577 528.625 611.295 528.8 610.966 528.936C610.644 529.064 610.287 529.129 609.894 529.129ZM613.874 529V523.253H614.678V524.368L614.496 524.325C614.639 523.954 614.871 523.661 615.193 523.446C615.521 523.232 615.9 523.124 616.329 523.124C616.737 523.124 617.101 523.217 617.423 523.403C617.752 523.589 618.009 523.846 618.195 524.175C618.388 524.497 618.484 524.861 618.484 525.269V529H617.68V525.58C617.68 525.23 617.616 524.933 617.487 524.69C617.366 524.447 617.191 524.261 616.962 524.132C616.74 523.996 616.483 523.929 616.19 523.929C615.897 523.929 615.636 523.996 615.407 524.132C615.178 524.261 615 524.45 614.871 524.701C614.742 524.944 614.678 525.237 614.678 525.58V529H613.874ZM622.218 529.064C621.703 529.064 621.307 528.914 621.028 528.614C620.749 528.314 620.61 527.885 620.61 527.327V524.057H619.548V523.253H619.816C620.059 523.253 620.252 523.174 620.395 523.017C620.538 522.853 620.61 522.649 620.61 522.406V521.924H621.414V523.253H622.679V524.057H621.414V527.327C621.414 527.52 621.443 527.692 621.5 527.842C621.557 527.985 621.653 528.099 621.789 528.185C621.932 528.271 622.122 528.314 622.357 528.314C622.415 528.314 622.483 528.31 622.561 528.303C622.64 528.296 622.708 528.289 622.765 528.282V529C622.679 529.021 622.583 529.036 622.475 529.043C622.368 529.057 622.282 529.064 622.218 529.064ZM627.661 529.129C627.296 529.129 626.971 529.061 626.685 528.925C626.399 528.782 626.174 528.589 626.009 528.346C625.845 528.103 625.763 527.824 625.763 527.51C625.763 527.209 625.827 526.938 625.956 526.695C626.085 526.445 626.285 526.234 626.556 526.062C626.828 525.891 627.175 525.769 627.596 525.698L629.848 525.322V526.052L627.789 526.395C627.375 526.466 627.075 526.598 626.889 526.791C626.71 526.984 626.621 527.213 626.621 527.478C626.621 527.735 626.721 527.953 626.921 528.132C627.128 528.31 627.393 528.4 627.714 528.4C628.107 528.4 628.45 528.317 628.744 528.153C629.037 527.981 629.265 527.753 629.43 527.467C629.594 527.181 629.676 526.863 629.676 526.513V525.054C629.676 524.711 629.551 524.433 629.301 524.218C629.051 524.004 628.726 523.896 628.325 523.896C627.975 523.896 627.668 523.986 627.403 524.164C627.139 524.336 626.942 524.561 626.814 524.84L626.085 524.443C626.192 524.2 626.36 523.979 626.588 523.778C626.824 523.578 627.092 523.421 627.393 523.307C627.693 523.185 628.004 523.124 628.325 523.124C628.747 523.124 629.119 523.207 629.44 523.371C629.769 523.535 630.023 523.764 630.202 524.057C630.388 524.343 630.48 524.676 630.48 525.054V529H629.676V527.853L629.794 527.971C629.694 528.185 629.537 528.382 629.323 528.56C629.115 528.732 628.869 528.871 628.583 528.979C628.304 529.079 627.997 529.129 627.661 529.129ZM634.761 529.129C634.197 529.129 633.7 528.996 633.271 528.732C632.842 528.467 632.506 528.11 632.263 527.66C632.02 527.202 631.899 526.688 631.899 526.116C631.899 525.544 632.02 525.033 632.263 524.583C632.506 524.132 632.842 523.778 633.271 523.521C633.7 523.257 634.197 523.124 634.761 523.124C635.119 523.124 635.455 523.189 635.769 523.317C636.084 523.446 636.362 523.621 636.605 523.843C636.848 524.057 637.031 524.307 637.152 524.593L636.423 524.969C636.28 524.661 636.062 524.411 635.769 524.218C635.476 524.025 635.14 523.929 634.761 523.929C634.382 523.929 634.039 524.025 633.732 524.218C633.432 524.404 633.192 524.665 633.014 525.001C632.842 525.33 632.756 525.705 632.756 526.127C632.756 526.541 632.842 526.916 633.014 527.252C633.192 527.581 633.432 527.842 633.732 528.035C634.039 528.228 634.382 528.325 634.761 528.325C635.14 528.325 635.473 528.228 635.758 528.035C636.051 527.842 636.273 527.585 636.423 527.263L637.152 527.66C637.031 527.939 636.848 528.189 636.605 528.41C636.362 528.632 636.084 528.807 635.769 528.936C635.455 529.064 635.119 529.129 634.761 529.129ZM643.259 531.144V527.713L643.388 527.831C643.188 528.246 642.888 528.568 642.488 528.796C642.094 529.018 641.651 529.129 641.158 529.129C640.622 529.129 640.139 529 639.711 528.743C639.282 528.478 638.942 528.121 638.692 527.67C638.449 527.213 638.327 526.698 638.327 526.127C638.327 525.548 638.449 525.033 638.692 524.583C638.942 524.132 639.278 523.778 639.7 523.521C640.129 523.257 640.615 523.124 641.158 523.124C641.651 523.124 642.091 523.232 642.477 523.446C642.863 523.661 643.167 523.95 643.388 524.315L643.259 524.54V523.253H644.064V531.144H643.259ZM641.201 528.325C641.587 528.325 641.934 528.228 642.241 528.035C642.555 527.842 642.802 527.581 642.981 527.252C643.167 526.916 643.259 526.541 643.259 526.127C643.259 525.712 643.167 525.34 642.981 525.011C642.802 524.676 642.555 524.411 642.241 524.218C641.934 524.025 641.587 523.929 641.201 523.929C640.822 523.929 640.479 524.025 640.172 524.218C639.864 524.411 639.621 524.672 639.443 525.001C639.271 525.33 639.185 525.705 639.185 526.127C639.185 526.541 639.271 526.916 639.443 527.252C639.621 527.581 639.861 527.842 640.161 528.035C640.468 528.228 640.815 528.325 641.201 528.325ZM647.752 529.129C647.352 529.129 646.987 529.036 646.658 528.85C646.329 528.657 646.069 528.392 645.876 528.056C645.69 527.713 645.597 527.32 645.597 526.877V523.253H646.401V526.781C646.401 527.088 646.462 527.36 646.583 527.595C646.712 527.824 646.887 528.003 647.109 528.132C647.337 528.26 647.598 528.325 647.891 528.325C648.184 528.325 648.445 528.26 648.674 528.132C648.903 527.996 649.081 527.806 649.21 527.563C649.339 527.313 649.403 527.016 649.403 526.673V523.253H650.207V529H649.403V527.885L649.585 527.928C649.449 528.3 649.217 528.593 648.888 528.807C648.56 529.021 648.181 529.129 647.752 529.129ZM651.861 529V523.253H652.665V529H651.861ZM651.861 522.192V521.012H652.665V522.192H651.861ZM656.305 529.129C655.755 529.129 655.272 528.989 654.858 528.711C654.443 528.432 654.143 528.053 653.957 527.574L654.633 527.252C654.797 527.603 655.026 527.881 655.319 528.089C655.619 528.296 655.948 528.4 656.305 528.4C656.648 528.4 656.938 528.317 657.174 528.153C657.41 527.981 657.528 527.76 657.528 527.488C657.528 527.288 657.47 527.131 657.356 527.016C657.242 526.895 657.109 526.802 656.959 526.738C656.809 526.673 656.677 526.627 656.563 526.598L655.737 526.362C655.208 526.212 654.826 526.001 654.59 525.73C654.354 525.458 654.236 525.144 654.236 524.786C654.236 524.45 654.322 524.157 654.493 523.907C654.665 523.657 654.897 523.464 655.19 523.328C655.483 523.192 655.808 523.124 656.166 523.124C656.652 523.124 657.091 523.253 657.485 523.51C657.885 523.761 658.167 524.111 658.332 524.561L657.645 524.883C657.502 524.561 657.295 524.311 657.024 524.132C656.759 523.946 656.462 523.854 656.134 523.854C655.812 523.854 655.555 523.936 655.362 524.1C655.169 524.265 655.072 524.472 655.072 524.722C655.072 524.915 655.122 525.069 655.222 525.183C655.322 525.297 655.437 525.383 655.565 525.44C655.701 525.498 655.819 525.54 655.919 525.569L656.873 525.848C657.338 525.984 657.699 526.194 657.956 526.48C658.221 526.766 658.353 527.102 658.353 527.488C658.353 527.803 658.264 528.085 658.085 528.335C657.913 528.585 657.674 528.782 657.367 528.925C657.059 529.061 656.705 529.129 656.305 529.129ZM659.766 529V523.253H660.57V529H659.766ZM659.766 522.192V521.012H660.57V522.192H659.766ZM664.414 529.064C663.9 529.064 663.503 528.914 663.224 528.614C662.945 528.314 662.806 527.885 662.806 527.327V524.057H661.744V523.253H662.012C662.256 523.253 662.448 523.174 662.591 523.017C662.734 522.853 662.806 522.649 662.806 522.406V521.924H663.61V523.253H664.875V524.057H663.61V527.327C663.61 527.52 663.639 527.692 663.696 527.842C663.753 527.985 663.849 528.099 663.985 528.185C664.128 528.271 664.318 528.314 664.554 528.314C664.611 528.314 664.679 528.31 664.757 528.303C664.836 528.296 664.904 528.289 664.961 528.282V529C664.875 529.021 664.779 529.036 664.671 529.043C664.564 529.057 664.478 529.064 664.414 529.064ZM666.373 529V523.253H667.177V529H666.373ZM666.373 522.192V521.012H667.177V522.192H666.373ZM671.514 529.129C670.971 529.129 670.478 529 670.035 528.743C669.591 528.478 669.238 528.121 668.973 527.67C668.716 527.213 668.587 526.695 668.587 526.116C668.587 525.544 668.716 525.033 668.973 524.583C669.231 524.132 669.577 523.778 670.013 523.521C670.456 523.257 670.957 523.124 671.514 523.124C672.072 523.124 672.569 523.253 673.005 523.51C673.448 523.768 673.794 524.122 674.045 524.572C674.302 525.022 674.431 525.537 674.431 526.116C674.431 526.702 674.298 527.224 674.034 527.681C673.769 528.132 673.416 528.485 672.972 528.743C672.536 529 672.05 529.129 671.514 529.129ZM671.514 528.325C671.9 528.325 672.247 528.228 672.554 528.035C672.869 527.842 673.115 527.578 673.294 527.242C673.48 526.906 673.573 526.53 673.573 526.116C673.573 525.701 673.48 525.33 673.294 525.001C673.115 524.672 672.869 524.411 672.554 524.218C672.247 524.025 671.9 523.929 671.514 523.929C671.128 523.929 670.778 524.025 670.464 524.218C670.156 524.411 669.91 524.672 669.724 525.001C669.538 525.33 669.445 525.701 669.445 526.116C669.445 526.53 669.538 526.906 669.724 527.242C669.91 527.578 670.156 527.842 670.464 528.035C670.778 528.228 671.128 528.325 671.514 528.325ZM675.849 529V523.253H676.653V524.368L676.471 524.325C676.614 523.954 676.846 523.661 677.168 523.446C677.496 523.232 677.875 523.124 678.304 523.124C678.711 523.124 679.076 523.217 679.398 523.403C679.726 523.589 679.984 523.846 680.17 524.175C680.363 524.497 680.459 524.861 680.459 525.269V529H679.655V525.58C679.655 525.23 679.591 524.933 679.462 524.69C679.34 524.447 679.165 524.261 678.937 524.132C678.715 523.996 678.458 523.929 678.165 523.929C677.872 523.929 677.611 523.996 677.382 524.132C677.153 524.261 676.975 524.45 676.846 524.701C676.717 524.944 676.653 525.237 676.653 525.58V529H675.849ZM686.904 529L684.931 523.253H685.842L687.472 528.282H687.15L688.684 523.253H689.488L691.021 528.282H690.699L692.34 523.253H693.24L691.268 529H690.463L688.973 524.079H689.198L687.708 529H686.904ZM694.183 529V523.253H694.987V529H694.183ZM694.183 522.192V521.012H694.987V522.192H694.183ZM698.831 529.064C698.316 529.064 697.919 528.914 697.641 528.614C697.362 528.314 697.222 527.885 697.222 527.327V524.057H696.161V523.253H696.429C696.672 523.253 696.865 523.174 697.008 523.017C697.151 522.853 697.222 522.649 697.222 522.406V521.924H698.027V523.253H699.292V524.057H698.027V527.327C698.027 527.52 698.055 527.692 698.112 527.842C698.169 527.985 698.266 528.099 698.402 528.185C698.545 528.271 698.734 528.314 698.97 528.314C699.027 528.314 699.095 528.31 699.174 528.303C699.252 528.296 699.32 528.289 699.377 528.282V529C699.292 529.021 699.195 529.036 699.088 529.043C698.981 529.057 698.895 529.064 698.831 529.064ZM700.79 529V520.884H701.594V524.368L701.411 524.325C701.554 523.954 701.787 523.661 702.108 523.446C702.437 523.232 702.816 523.124 703.245 523.124C703.652 523.124 704.017 523.217 704.338 523.403C704.667 523.589 704.925 523.846 705.11 524.175C705.303 524.497 705.4 524.861 705.4 525.269V529H704.596V525.58C704.596 525.23 704.531 524.933 704.403 524.69C704.274 524.447 704.095 524.261 703.867 524.132C703.645 523.996 703.391 523.929 703.105 523.929C702.819 523.929 702.562 523.996 702.333 524.132C702.105 524.261 701.922 524.45 701.787 524.701C701.658 524.944 701.594 525.237 701.594 525.58V529H700.79ZM711.449 529.129C710.905 529.129 710.412 529 709.969 528.743C709.526 528.478 709.172 528.121 708.908 527.67C708.65 527.213 708.522 526.695 708.522 526.116C708.522 525.544 708.65 525.033 708.908 524.583C709.165 524.132 709.512 523.778 709.948 523.521C710.391 523.257 710.891 523.124 711.449 523.124C712.006 523.124 712.503 523.253 712.939 523.51C713.382 523.768 713.729 524.122 713.979 524.572C714.236 525.022 714.365 525.537 714.365 526.116C714.365 526.702 714.233 527.224 713.968 527.681C713.704 528.132 713.35 528.485 712.907 528.743C712.471 529 711.985 529.129 711.449 529.129ZM711.449 528.325C711.835 528.325 712.181 528.228 712.489 528.035C712.803 527.842 713.05 527.578 713.229 527.242C713.414 526.906 713.507 526.53 713.507 526.116C713.507 525.701 713.414 525.33 713.229 525.001C713.05 524.672 712.803 524.411 712.489 524.218C712.181 524.025 711.835 523.929 711.449 523.929C711.063 523.929 710.712 524.025 710.398 524.218C710.091 524.411 709.844 524.672 709.658 525.001C709.472 525.33 709.379 525.701 709.379 526.116C709.379 526.53 709.472 526.906 709.658 527.242C709.844 527.578 710.091 527.842 710.398 528.035C710.712 528.228 711.063 528.325 711.449 528.325ZM717.82 529.129C717.42 529.129 717.056 529.036 716.727 528.85C716.398 528.657 716.137 528.392 715.944 528.056C715.758 527.713 715.665 527.32 715.665 526.877V523.253H716.469V526.781C716.469 527.088 716.53 527.36 716.652 527.595C716.78 527.824 716.955 528.003 717.177 528.132C717.406 528.26 717.667 528.325 717.96 528.325C718.253 528.325 718.514 528.26 718.742 528.132C718.971 527.996 719.15 527.806 719.279 527.563C719.407 527.313 719.472 527.016 719.472 526.673V523.253H720.276V529H719.472V527.885L719.654 527.928C719.518 528.3 719.286 528.593 718.957 528.807C718.628 529.021 718.249 529.129 717.82 529.129ZM721.929 529V523.253H722.734V524.197L722.626 524.057C722.762 523.786 722.966 523.571 723.237 523.414C723.516 523.257 723.852 523.178 724.245 523.178H724.61V523.982H724.106C723.691 523.982 723.359 524.111 723.109 524.368C722.859 524.626 722.734 524.99 722.734 525.462V529H721.929ZM562.103 549.144V541.253H562.907V542.54L562.778 542.315C563.007 541.95 563.311 541.661 563.689 541.446C564.075 541.232 564.515 541.124 565.008 541.124C565.551 541.124 566.034 541.257 566.456 541.521C566.884 541.778 567.22 542.132 567.463 542.583C567.714 543.033 567.839 543.548 567.839 544.127C567.839 544.698 567.714 545.213 567.463 545.67C567.22 546.121 566.884 546.478 566.456 546.743C566.034 547 565.551 547.129 565.008 547.129C564.515 547.129 564.068 547.018 563.668 546.796C563.275 546.568 562.978 546.246 562.778 545.831L562.907 545.713V549.144H562.103ZM564.965 546.325C565.351 546.325 565.694 546.228 565.995 546.035C566.302 545.842 566.541 545.581 566.713 545.252C566.892 544.916 566.981 544.541 566.981 544.127C566.981 543.705 566.892 543.33 566.713 543.001C566.541 542.672 566.302 542.411 565.995 542.218C565.694 542.025 565.351 541.929 564.965 541.929C564.579 541.929 564.229 542.025 563.915 542.218C563.607 542.411 563.361 542.676 563.175 543.011C562.996 543.34 562.907 543.712 562.907 544.127C562.907 544.541 562.996 544.916 563.175 545.252C563.361 545.581 563.607 545.842 563.915 546.035C564.229 546.228 564.579 546.325 564.965 546.325ZM569.254 547V538.884H570.058V547H569.254ZM573.366 547.129C573.001 547.129 572.676 547.061 572.39 546.925C572.104 546.782 571.879 546.589 571.715 546.346C571.55 546.103 571.468 545.824 571.468 545.51C571.468 545.209 571.532 544.938 571.661 544.695C571.79 544.445 571.99 544.234 572.262 544.062C572.533 543.891 572.88 543.769 573.302 543.698L575.553 543.322V544.052L573.495 544.395C573.08 544.466 572.78 544.598 572.594 544.791C572.415 544.984 572.326 545.213 572.326 545.478C572.326 545.735 572.426 545.953 572.626 546.132C572.833 546.31 573.098 546.4 573.419 546.4C573.813 546.4 574.156 546.317 574.449 546.153C574.742 545.981 574.971 545.753 575.135 545.467C575.299 545.181 575.382 544.863 575.382 544.513V543.054C575.382 542.711 575.256 542.433 575.006 542.218C574.756 542.004 574.431 541.896 574.031 541.896C573.68 541.896 573.373 541.986 573.109 542.164C572.844 542.336 572.648 542.561 572.519 542.84L571.79 542.443C571.897 542.2 572.065 541.979 572.294 541.778C572.53 541.578 572.798 541.421 573.098 541.307C573.398 541.185 573.709 541.124 574.031 541.124C574.452 541.124 574.824 541.207 575.146 541.371C575.474 541.535 575.728 541.764 575.907 542.057C576.093 542.343 576.186 542.676 576.186 543.054V547H575.382V545.853L575.5 545.971C575.399 546.185 575.242 546.382 575.028 546.56C574.82 546.732 574.574 546.871 574.288 546.979C574.009 547.079 573.702 547.129 573.366 547.129ZM579.933 547.064C579.418 547.064 579.022 546.914 578.743 546.614C578.464 546.314 578.325 545.885 578.325 545.327V542.057H577.263V541.253H577.531C577.774 541.253 577.967 541.174 578.11 541.017C578.253 540.853 578.325 540.649 578.325 540.406V539.924H579.129V541.253H580.394V542.057H579.129V545.327C579.129 545.52 579.157 545.692 579.215 545.842C579.272 545.985 579.368 546.099 579.504 546.185C579.647 546.271 579.836 546.314 580.072 546.314C580.13 546.314 580.197 546.31 580.276 546.303C580.355 546.296 580.423 546.289 580.48 546.282V547C580.394 547.021 580.298 547.036 580.19 547.043C580.083 547.057 579.997 547.064 579.933 547.064ZM582.481 547V542.057H581.334V541.253H582.481V540.738C582.481 540.338 582.571 540.002 582.75 539.731C582.928 539.452 583.164 539.241 583.457 539.098C583.75 538.955 584.065 538.884 584.401 538.884C584.472 538.884 584.554 538.891 584.647 538.905C584.74 538.912 584.815 538.923 584.872 538.937V539.666C584.822 539.652 584.755 539.645 584.669 539.645C584.583 539.638 584.522 539.634 584.486 539.634C584.143 539.634 583.857 539.716 583.629 539.881C583.4 540.045 583.286 540.331 583.286 540.738V541.253H584.69V542.057H583.286V547H582.481ZM588.468 547.129C587.924 547.129 587.431 547 586.988 546.743C586.545 546.478 586.191 546.121 585.926 545.67C585.669 545.213 585.54 544.695 585.54 544.116C585.54 543.544 585.669 543.033 585.926 542.583C586.184 542.132 586.53 541.778 586.966 541.521C587.41 541.257 587.91 541.124 588.468 541.124C589.025 541.124 589.522 541.253 589.958 541.51C590.401 541.768 590.748 542.122 590.998 542.572C591.255 543.022 591.384 543.537 591.384 544.116C591.384 544.702 591.252 545.224 590.987 545.681C590.723 546.132 590.369 546.485 589.926 546.743C589.49 547 589.004 547.129 588.468 547.129ZM588.468 546.325C588.853 546.325 589.2 546.228 589.508 546.035C589.822 545.842 590.069 545.578 590.247 545.242C590.433 544.906 590.526 544.53 590.526 544.116C590.526 543.701 590.433 543.33 590.247 543.001C590.069 542.672 589.822 542.411 589.508 542.218C589.2 542.025 588.853 541.929 588.468 541.929C588.082 541.929 587.731 542.025 587.417 542.218C587.109 542.411 586.863 542.672 586.677 543.001C586.491 543.33 586.398 543.701 586.398 544.116C586.398 544.53 586.491 544.906 586.677 545.242C586.863 545.578 587.109 545.842 587.417 546.035C587.731 546.228 588.082 546.325 588.468 546.325ZM592.802 547V541.253H593.606V542.197L593.499 542.057C593.635 541.786 593.838 541.571 594.11 541.414C594.389 541.257 594.725 541.178 595.118 541.178H595.482V541.982H594.979C594.564 541.982 594.232 542.111 593.981 542.368C593.731 542.626 593.606 542.99 593.606 543.462V547H592.802ZM596.425 547V541.253H597.229V542.347L597.1 542.186C597.258 541.85 597.49 541.589 597.797 541.403C598.112 541.217 598.455 541.124 598.827 541.124C599.27 541.124 599.67 541.25 600.027 541.5C600.385 541.75 600.638 542.075 600.789 542.475L600.563 542.486C600.706 542.043 600.953 541.707 601.303 541.478C601.661 541.242 602.054 541.124 602.483 541.124C602.869 541.124 603.222 541.217 603.544 541.403C603.873 541.589 604.134 541.846 604.327 542.175C604.527 542.497 604.627 542.861 604.627 543.269V547H603.823V543.58C603.823 543.23 603.759 542.933 603.63 542.69C603.508 542.447 603.34 542.261 603.126 542.132C602.912 541.996 602.665 541.929 602.386 541.929C602.115 541.929 601.868 541.996 601.646 542.132C601.425 542.261 601.25 542.45 601.121 542.701C600.992 542.944 600.928 543.237 600.928 543.58V547H600.124V543.58C600.124 543.23 600.06 542.933 599.931 542.69C599.809 542.447 599.641 542.261 599.427 542.132C599.213 541.996 598.966 541.929 598.687 541.929C598.408 541.929 598.158 541.996 597.937 542.132C597.722 542.261 597.551 542.45 597.422 542.701C597.293 542.944 597.229 543.237 597.229 543.58V547H596.425ZM606.441 547V545.821H607.299V547H606.441ZM614.815 547.129C614.251 547.129 613.733 547.029 613.261 546.828C612.789 546.621 612.378 546.335 612.028 545.971C611.685 545.599 611.417 545.163 611.224 544.663C611.031 544.162 610.934 543.612 610.934 543.011C610.934 542.411 611.031 541.861 611.224 541.36C611.417 540.86 611.685 540.424 612.028 540.052C612.378 539.681 612.789 539.395 613.261 539.195C613.733 538.987 614.251 538.884 614.815 538.884C615.359 538.884 615.845 538.98 616.274 539.173C616.71 539.366 617.074 539.616 617.367 539.924C617.667 540.224 617.882 540.542 618.011 540.878L617.206 541.232C617.006 540.767 616.699 540.395 616.284 540.117C615.877 539.831 615.387 539.688 614.815 539.688C614.229 539.688 613.708 539.827 613.25 540.106C612.793 540.385 612.435 540.774 612.178 541.275C611.921 541.768 611.792 542.347 611.792 543.011C611.792 543.669 611.921 544.248 612.178 544.748C612.435 545.249 612.793 545.638 613.25 545.917C613.708 546.189 614.229 546.325 614.815 546.325C615.387 546.325 615.877 546.185 616.284 545.906C616.699 545.628 617.006 545.256 617.206 544.791L618.011 545.145C617.882 545.474 617.667 545.792 617.367 546.099C617.074 546.4 616.71 546.646 616.274 546.839C615.845 547.032 615.359 547.129 614.815 547.129ZM622.015 547.129C621.472 547.129 620.979 547 620.535 546.743C620.092 546.478 619.738 546.121 619.474 545.67C619.217 545.213 619.088 544.695 619.088 544.116C619.088 543.544 619.217 543.033 619.474 542.583C619.731 542.132 620.078 541.778 620.514 541.521C620.957 541.257 621.457 541.124 622.015 541.124C622.573 541.124 623.069 541.253 623.505 541.51C623.948 541.768 624.295 542.122 624.545 542.572C624.803 543.022 624.931 543.537 624.931 544.116C624.931 544.702 624.799 545.224 624.535 545.681C624.27 546.132 623.916 546.485 623.473 546.743C623.037 547 622.551 547.129 622.015 547.129ZM622.015 546.325C622.401 546.325 622.748 546.228 623.055 546.035C623.369 545.842 623.616 545.578 623.795 545.242C623.981 544.906 624.074 544.53 624.074 544.116C624.074 543.701 623.981 543.33 623.795 543.001C623.616 542.672 623.369 542.411 623.055 542.218C622.748 542.025 622.401 541.929 622.015 541.929C621.629 541.929 621.279 542.025 620.964 542.218C620.657 542.411 620.41 542.672 620.224 543.001C620.039 543.33 619.946 543.701 619.946 544.116C619.946 544.53 620.039 544.906 620.224 545.242C620.41 545.578 620.657 545.842 620.964 546.035C621.279 546.228 621.629 546.325 622.015 546.325ZM626.35 547V541.253H627.154V542.368L626.971 542.325C627.114 541.954 627.347 541.661 627.668 541.446C627.997 541.232 628.376 541.124 628.805 541.124C629.212 541.124 629.577 541.217 629.898 541.403C630.227 541.589 630.485 541.846 630.67 542.175C630.863 542.497 630.96 542.861 630.96 543.269V547H630.156V543.58C630.156 543.23 630.091 542.933 629.963 542.69C629.841 542.447 629.666 542.261 629.437 542.132C629.216 541.996 628.958 541.929 628.665 541.929C628.372 541.929 628.111 541.996 627.883 542.132C627.654 542.261 627.475 542.45 627.347 542.701C627.218 542.944 627.154 543.237 627.154 543.58V547H626.35ZM634.694 547.064C634.179 547.064 633.782 546.914 633.504 546.614C633.225 546.314 633.085 545.885 633.085 545.327V542.057H632.024V541.253H632.292C632.535 541.253 632.728 541.174 632.871 541.017C633.014 540.853 633.085 540.649 633.085 540.406V539.924H633.89V541.253H635.155V542.057H633.89V545.327C633.89 545.52 633.918 545.692 633.975 545.842C634.032 545.985 634.129 546.099 634.265 546.185C634.408 546.271 634.597 546.314 634.833 546.314C634.89 546.314 634.958 546.31 635.037 546.303C635.115 546.296 635.183 546.289 635.24 546.282V547C635.155 547.021 635.058 547.036 634.951 547.043C634.844 547.057 634.758 547.064 634.694 547.064ZM638.21 547.129C637.845 547.129 637.52 547.061 637.234 546.925C636.948 546.782 636.723 546.589 636.558 546.346C636.394 546.103 636.312 545.824 636.312 545.51C636.312 545.209 636.376 544.938 636.505 544.695C636.634 544.445 636.834 544.234 637.105 544.062C637.377 543.891 637.724 543.769 638.145 543.698L640.397 543.322V544.052L638.338 544.395C637.924 544.466 637.624 544.598 637.438 544.791C637.259 544.984 637.17 545.213 637.17 545.478C637.17 545.735 637.27 545.953 637.47 546.132C637.677 546.31 637.942 546.4 638.263 546.4C638.656 546.4 638.999 546.317 639.293 546.153C639.586 545.981 639.814 545.753 639.979 545.467C640.143 545.181 640.225 544.863 640.225 544.513V543.054C640.225 542.711 640.1 542.433 639.85 542.218C639.6 542.004 639.275 541.896 638.874 541.896C638.524 541.896 638.217 541.986 637.952 542.164C637.688 542.336 637.491 542.561 637.363 542.84L636.634 542.443C636.741 542.2 636.909 541.979 637.137 541.778C637.373 541.578 637.641 541.421 637.942 541.307C638.242 541.185 638.553 541.124 638.874 541.124C639.296 541.124 639.668 541.207 639.989 541.371C640.318 541.535 640.572 541.764 640.751 542.057C640.937 542.343 641.029 542.676 641.029 543.054V547H640.225V545.853L640.343 545.971C640.243 546.185 640.086 546.382 639.872 546.56C639.664 546.732 639.418 546.871 639.132 546.979C638.853 547.079 638.546 547.129 638.21 547.129ZM645.31 547.129C644.746 547.129 644.249 546.996 643.82 546.732C643.391 546.467 643.055 546.11 642.812 545.66C642.569 545.202 642.448 544.688 642.448 544.116C642.448 543.544 642.569 543.033 642.812 542.583C643.055 542.132 643.391 541.778 643.82 541.521C644.249 541.257 644.746 541.124 645.31 541.124C645.668 541.124 646.004 541.189 646.318 541.317C646.633 541.446 646.911 541.621 647.154 541.843C647.397 542.057 647.58 542.307 647.701 542.593L646.972 542.969C646.829 542.661 646.611 542.411 646.318 542.218C646.025 542.025 645.689 541.929 645.31 541.929C644.931 541.929 644.588 542.025 644.281 542.218C643.981 542.404 643.741 542.665 643.563 543.001C643.391 543.33 643.305 543.705 643.305 544.127C643.305 544.541 643.391 544.916 643.563 545.252C643.741 545.581 643.981 545.842 644.281 546.035C644.588 546.228 644.931 546.325 645.31 546.325C645.689 546.325 646.022 546.228 646.307 546.035C646.601 545.842 646.822 545.585 646.972 545.263L647.701 545.66C647.58 545.939 647.397 546.189 647.154 546.41C646.911 546.632 646.633 546.807 646.318 546.936C646.004 547.064 645.668 547.129 645.31 547.129ZM651.31 547.064C650.796 547.064 650.399 546.914 650.12 546.614C649.841 546.314 649.702 545.885 649.702 545.327V542.057H648.641V541.253H648.909C649.152 541.253 649.345 541.174 649.488 541.017C649.631 540.853 649.702 540.649 649.702 540.406V539.924H650.506V541.253H651.771V542.057H650.506V545.327C650.506 545.52 650.535 545.692 650.592 545.842C650.649 545.985 650.746 546.099 650.881 546.185C651.024 546.271 651.214 546.314 651.45 546.314C651.507 546.314 651.575 546.31 651.653 546.303C651.732 546.296 651.8 546.289 651.857 546.282V547C651.771 547.021 651.675 547.036 651.568 547.043C651.46 547.057 651.375 547.064 651.31 547.064ZM657.128 547.129C656.728 547.129 656.363 547.036 656.035 546.85C655.706 546.657 655.445 546.392 655.252 546.056C655.066 545.713 654.973 545.32 654.973 544.877V541.253H655.777V544.781C655.777 545.088 655.838 545.36 655.959 545.595C656.088 545.824 656.263 546.003 656.485 546.132C656.714 546.26 656.974 546.325 657.268 546.325C657.561 546.325 657.822 546.26 658.05 546.132C658.279 545.996 658.458 545.806 658.586 545.563C658.715 545.313 658.779 545.016 658.779 544.673V541.253H659.583V547H658.779V545.885L658.962 545.928C658.826 546.3 658.593 546.593 658.265 546.807C657.936 547.021 657.557 547.129 657.128 547.129ZM663.231 547.129C662.681 547.129 662.199 546.989 661.784 546.711C661.369 546.432 661.069 546.053 660.883 545.574L661.559 545.252C661.723 545.603 661.952 545.881 662.245 546.089C662.545 546.296 662.874 546.4 663.231 546.4C663.575 546.4 663.864 546.317 664.1 546.153C664.336 545.981 664.454 545.76 664.454 545.488C664.454 545.288 664.397 545.131 664.282 545.016C664.168 544.895 664.036 544.802 663.885 544.738C663.735 544.673 663.603 544.627 663.489 544.598L662.663 544.362C662.134 544.212 661.752 544.001 661.516 543.73C661.28 543.458 661.162 543.144 661.162 542.786C661.162 542.45 661.248 542.157 661.419 541.907C661.591 541.657 661.823 541.464 662.116 541.328C662.409 541.192 662.735 541.124 663.092 541.124C663.578 541.124 664.018 541.253 664.411 541.51C664.811 541.761 665.093 542.111 665.258 542.561L664.572 542.883C664.429 542.561 664.221 542.311 663.95 542.132C663.685 541.946 663.389 541.854 663.06 541.854C662.738 541.854 662.481 541.936 662.288 542.1C662.095 542.265 661.998 542.472 661.998 542.722C661.998 542.915 662.048 543.069 662.149 543.183C662.249 543.297 662.363 543.383 662.492 543.44C662.627 543.498 662.745 543.54 662.845 543.569L663.8 543.848C664.264 543.984 664.625 544.194 664.883 544.48C665.147 544.766 665.279 545.102 665.279 545.488C665.279 545.803 665.19 546.085 665.011 546.335C664.84 546.585 664.6 546.782 664.293 546.925C663.986 547.061 663.632 547.129 663.231 547.129ZM670.712 547.064C670.198 547.064 669.801 546.914 669.522 546.614C669.243 546.314 669.104 545.885 669.104 545.327V542.057H668.042V541.253H668.31C668.554 541.253 668.746 541.174 668.889 541.017C669.032 540.853 669.104 540.649 669.104 540.406V539.924H669.908V541.253H671.173V542.057H669.908V545.327C669.908 545.52 669.937 545.692 669.994 545.842C670.051 545.985 670.147 546.099 670.283 546.185C670.426 546.271 670.616 546.314 670.852 546.314C670.909 546.314 670.977 546.31 671.055 546.303C671.134 546.296 671.202 546.289 671.259 546.282V547C671.173 547.021 671.077 547.036 670.969 547.043C670.862 547.057 670.776 547.064 670.712 547.064ZM675.153 547.129C674.609 547.129 674.116 547 673.673 546.743C673.23 546.478 672.876 546.121 672.612 545.67C672.354 545.213 672.226 544.695 672.226 544.116C672.226 543.544 672.354 543.033 672.612 542.583C672.869 542.132 673.216 541.778 673.652 541.521C674.095 541.257 674.595 541.124 675.153 541.124C675.71 541.124 676.207 541.253 676.643 541.51C677.086 541.768 677.433 542.122 677.683 542.572C677.94 543.022 678.069 543.537 678.069 544.116C678.069 544.702 677.937 545.224 677.672 545.681C677.408 546.132 677.054 546.485 676.611 546.743C676.175 547 675.689 547.129 675.153 547.129ZM675.153 546.325C675.539 546.325 675.885 546.228 676.193 546.035C676.507 545.842 676.754 545.578 676.933 545.242C677.118 544.906 677.211 544.53 677.211 544.116C677.211 543.701 677.118 543.33 676.933 543.001C676.754 542.672 676.507 542.411 676.193 542.218C675.885 542.025 675.539 541.929 675.153 541.929C674.767 541.929 674.417 542.025 674.102 542.218C673.795 542.411 673.548 542.672 673.362 543.001C673.176 543.33 673.083 543.701 673.083 544.116C673.083 544.53 673.176 544.906 673.362 545.242C673.548 545.578 673.795 545.842 674.102 546.035C674.417 546.228 674.767 546.325 675.153 546.325ZM682.082 547.129C681.546 547.129 681.063 547 680.634 546.743C680.206 546.478 679.866 546.121 679.616 545.67C679.373 545.213 679.251 544.698 679.251 544.127C679.251 543.548 679.373 543.033 679.616 542.583C679.866 542.132 680.202 541.778 680.624 541.521C681.053 541.257 681.539 541.124 682.082 541.124C682.575 541.124 683.015 541.232 683.401 541.446C683.787 541.661 684.09 541.95 684.312 542.315L684.183 542.54V538.884H684.988V547H684.183V545.713L684.312 545.831C684.112 546.246 683.812 546.568 683.411 546.796C683.018 547.018 682.575 547.129 682.082 547.129ZM682.125 546.325C682.511 546.325 682.857 546.228 683.165 546.035C683.479 545.842 683.726 545.581 683.905 545.252C684.09 544.916 684.183 544.541 684.183 544.127C684.183 543.712 684.09 543.34 683.905 543.011C683.726 542.676 683.479 542.411 683.165 542.218C682.857 542.025 682.511 541.929 682.125 541.929C681.746 541.929 681.403 542.025 681.096 542.218C680.788 542.411 680.545 542.672 680.366 543.001C680.195 543.33 680.109 543.705 680.109 544.127C680.109 544.541 680.195 544.916 680.366 545.252C680.545 545.581 680.785 545.842 681.085 546.035C681.392 546.228 681.739 546.325 682.125 546.325ZM688.301 547.129C687.936 547.129 687.611 547.061 687.325 546.925C687.039 546.782 686.814 546.589 686.649 546.346C686.485 546.103 686.403 545.824 686.403 545.51C686.403 545.209 686.467 544.938 686.596 544.695C686.724 544.445 686.925 544.234 687.196 544.062C687.468 543.891 687.814 543.769 688.236 543.698L690.488 543.322V544.052L688.429 544.395C688.015 544.466 687.714 544.598 687.529 544.791C687.35 544.984 687.26 545.213 687.26 545.478C687.26 545.735 687.361 545.953 687.561 546.132C687.768 546.31 688.032 546.4 688.354 546.4C688.747 546.4 689.09 546.317 689.383 546.153C689.676 545.981 689.905 545.753 690.07 545.467C690.234 545.181 690.316 544.863 690.316 544.513V543.054C690.316 542.711 690.191 542.433 689.941 542.218C689.691 542.004 689.366 541.896 688.965 541.896C688.615 541.896 688.308 541.986 688.043 542.164C687.779 542.336 687.582 542.561 687.453 542.84L686.724 542.443C686.832 542.2 687 541.979 687.228 541.778C687.464 541.578 687.732 541.421 688.032 541.307C688.333 541.185 688.644 541.124 688.965 541.124C689.387 541.124 689.759 541.207 690.08 541.371C690.409 541.535 690.663 541.764 690.842 542.057C691.027 542.343 691.12 542.676 691.12 543.054V547H690.316V545.853L690.434 545.971C690.334 546.185 690.177 546.382 689.962 546.56C689.755 546.732 689.508 546.871 689.223 546.979C688.944 547.079 688.636 547.129 688.301 547.129ZM692.892 549.359C692.778 549.359 692.66 549.348 692.538 549.327C692.424 549.312 692.31 549.284 692.195 549.241V548.49C692.267 548.497 692.356 548.508 692.463 548.522C692.578 548.544 692.692 548.555 692.806 548.555C693.157 548.555 693.425 548.48 693.611 548.33C693.796 548.187 693.979 547.908 694.157 547.493L694.522 546.635L694.501 547.343L692.067 541.253H692.935L694.929 546.282H694.704L696.688 541.253H697.578L694.951 547.729C694.836 548.008 694.69 548.272 694.511 548.522C694.34 548.773 694.122 548.973 693.857 549.123C693.593 549.28 693.271 549.359 692.892 549.359ZM698.834 544.706L698.78 539.012H699.638L699.584 544.706H698.834ZM698.78 547V545.821H699.638V547H698.78Z" fill="#7B7B7B"/>
<g opacity="0.4">
<rect x="525.443" y="562.422" width="102.623" height="30.6337" rx="7.65842" fill="url(#paint0_linear_2910_27691)"/>
</g>
<g opacity="0.4">
<rect x="629.598" y="562.422" width="102.623" height="30.6337" rx="7.65842" fill="url(#paint1_linear_2910_27691)"/>
</g>
<g clip-path="url(#clip0_2910_27691)">
<rect x="530" y="417" width="199" height="85.1808" rx="11.7491" fill="#FFBC0B" fill-opacity="0.14"/>
<g clip-path="url(#clip1_2910_27691)">
<rect x="619.587" y="461.059" width="29.2329" height="29.2329" rx="14.6164" fill="#FF0000"/>
<path fill-rule="evenodd" clip-rule="evenodd" d="M631.155 471.338C633.186 471.179 635.227 471.179 637.259 471.338L638.623 471.445C639.383 471.504 640.005 472.074 640.131 472.826C640.445 474.707 640.445 476.628 640.131 478.51C640.005 479.262 639.383 479.831 638.623 479.891L637.259 479.998C635.227 480.156 633.186 480.156 631.155 479.998L629.79 479.891C629.03 479.831 628.408 479.262 628.283 478.51C627.968 476.628 627.968 474.707 628.283 472.826C628.408 472.074 629.03 471.504 629.79 471.445L631.155 471.338ZM632.989 477.172V474.163C632.989 474.021 633.144 473.934 633.265 474.007L635.773 475.511C635.891 475.582 635.891 475.753 635.773 475.824L633.265 477.329C633.144 477.402 632.989 477.314 632.989 477.172Z" fill="white"/>
<rect x="619.587" y="461.059" width="29.2329" height="29.2329" rx="14.6164" fill="#785600"/>
<g opacity="0.48" clip-path="url(#clip2_2910_27691)">
<rect width="17.5397" height="17.5397" transform="translate(625.437 466.906)" fill="#785600"/>
<path d="M631.279 470.583V471.679H637.126V470.583C637.126 469.775 636.471 469.121 635.664 469.121H632.741C631.934 469.121 631.279 469.775 631.279 470.583Z" stroke="#FFD874" stroke-width="0.730822"/>
<path d="M628.354 481.188V475.707H640.413V481.188C640.413 481.995 639.759 482.65 638.951 482.65H629.816C629.009 482.65 628.354 481.995 628.354 481.188Z" fill="#FFD874" stroke="#FFD874" stroke-width="0.730822"/>
<path d="M640.413 471.316H628.354C627.547 471.316 626.893 471.971 626.893 472.778V473.874C626.893 475.489 628.201 476.798 629.816 476.798H638.951C640.566 476.798 641.874 475.489 641.874 473.874V472.778C641.874 471.971 641.22 471.316 640.413 471.316Z" fill="#FFBB0A" stroke="#FFBB0A" stroke-width="0.730822"/>
<circle cx="634.929" cy="474.985" r="0.730823" fill="#FFD874"/>
</g>
<path d="M632.014 470.583V471.679H637.86V470.583C637.86 469.775 637.206 469.121 636.399 469.121H633.475C632.668 469.121 632.014 469.775 632.014 470.583Z" stroke="#FFD874" stroke-width="0.730822"/>
<path d="M629.089 481.188V475.707H641.147V481.188C641.147 481.995 640.493 482.65 639.686 482.65H630.551C629.743 482.65 629.089 481.995 629.089 481.188Z" fill="#FFD874" stroke="#FFD874" stroke-width="0.730822"/>
<path d="M641.147 471.316H629.089C628.281 471.316 627.627 471.971 627.627 472.778V473.874C627.627 475.489 628.936 476.798 630.55 476.798H639.686C641.3 476.798 642.609 475.489 642.609 473.874V472.778C642.609 471.971 641.954 471.316 641.147 471.316Z" fill="#FFBB0A" stroke="#FFBB0A" stroke-width="0.730822"/>
<circle cx="635.663" cy="474.985" r="0.730823" fill="#FFD874"/>
</g>
<g clip-path="url(#clip3_2910_27691)">
<rect x="518.675" y="433.988" width="34.8958" height="34.8958" rx="17.4479" fill="#FF0000"/>
<path fill-rule="evenodd" clip-rule="evenodd" d="M532.483 446.259C534.908 446.07 537.344 446.07 539.769 446.259L541.398 446.387C542.305 446.458 543.047 447.138 543.197 448.036C543.573 450.282 543.573 452.574 543.197 454.82C543.047 455.718 542.305 456.398 541.398 456.469L539.769 456.597C537.344 456.786 534.908 456.786 532.483 456.597L530.854 456.469C529.946 456.398 529.204 455.718 529.054 454.82C528.679 452.574 528.679 450.282 529.054 448.036C529.204 447.138 529.946 446.458 530.854 446.387L532.483 446.259ZM534.672 453.224V449.632C534.672 449.463 534.857 449.358 535.002 449.445L537.995 451.241C538.136 451.326 538.136 451.53 537.995 451.615L535.002 453.411C534.857 453.498 534.672 453.393 534.672 453.224Z" fill="white"/>
<rect x="518.675" y="433.988" width="34.8958" height="34.8958" rx="17.4479" fill="#785600"/>
<g opacity="0.48">
<rect width="20.9375" height="20.9375" transform="translate(525.656 440.969)" fill="#785600"/>
<path d="M532.63 445.346V446.655H539.609V445.346C539.609 444.383 538.828 443.602 537.864 443.602H534.375C533.411 443.602 532.63 444.383 532.63 445.346Z" stroke="#FFD874" stroke-width="0.872396"/>
<path d="M529.139 458.004V451.461H543.533V458.004C543.533 458.968 542.752 459.749 541.788 459.749H530.883C529.92 459.749 529.139 458.968 529.139 458.004Z" fill="#FFD874" stroke="#FFD874" stroke-width="0.872396"/>
<path d="M543.532 446.227H529.137C528.174 446.227 527.393 447.008 527.393 447.971V449.28C527.393 451.207 528.955 452.77 530.882 452.77H541.787C543.714 452.77 545.277 451.207 545.277 449.28V447.971C545.277 447.008 544.496 446.227 543.532 446.227Z" fill="#FFBB0A" stroke="#FFBB0A" stroke-width="0.872396"/>
<circle cx="536.986" cy="450.599" r="0.872396" fill="#FFD874"/>
</g>
<path d="M533.507 445.346V446.655H540.486V445.346C540.486 444.383 539.705 443.602 538.741 443.602H535.252C534.288 443.602 533.507 444.383 533.507 445.346Z" stroke="#FFD874" stroke-width="0.872396"/>
<path d="M530.016 458.004V451.461H544.41V458.004C544.41 458.968 543.629 459.749 542.665 459.749H531.76C530.797 459.749 530.016 458.968 530.016 458.004Z" fill="#FFD874" stroke="#FFD874" stroke-width="0.872396"/>
<path d="M544.409 446.227H530.014C529.051 446.227 528.27 447.008 528.27 447.971V449.28C528.27 451.207 529.832 452.77 531.759 452.77H542.664C544.591 452.77 546.154 451.207 546.154 449.28V447.971C546.154 447.008 545.372 446.227 544.409 446.227Z" fill="#FFBB0A" stroke="#FFBB0A" stroke-width="0.872396"/>
<circle cx="537.863" cy="450.599" r="0.872396" fill="#FFD874"/>
</g>
<g clip-path="url(#clip4_2910_27691)">
<rect x="578.465" y="490.43" width="16.0194" height="16.0194" rx="8.00969" fill="#FF0000"/>
<path fill-rule="evenodd" clip-rule="evenodd" d="M584.803 496.061C585.916 495.974 587.034 495.974 588.148 496.061L588.895 496.12C589.312 496.153 589.653 496.465 589.722 496.877C589.894 497.908 589.894 498.96 589.722 499.991C589.653 500.404 589.312 500.716 588.895 500.748L588.148 500.807C587.034 500.894 585.916 500.894 584.803 500.807L584.055 500.748C583.638 500.716 583.298 500.404 583.229 499.991C583.057 498.96 583.057 497.908 583.229 496.877C583.298 496.465 583.638 496.153 584.055 496.12L584.803 496.061ZM585.808 499.258V497.61C585.808 497.532 585.893 497.484 585.959 497.524L587.333 498.348C587.398 498.387 587.398 498.481 587.333 498.52L585.959 499.344C585.893 499.384 585.808 499.336 585.808 499.258Z" fill="white"/>
<rect x="578.465" y="490.43" width="16.0194" height="16.0194" rx="8.00969" fill="#785600"/>
<g opacity="0.48">
<rect width="9.61163" height="9.61163" transform="translate(581.67 493.637)" fill="#785600"/>
<path d="M584.87 495.649V496.249H588.074V495.649C588.074 495.206 587.715 494.848 587.273 494.848H585.671C585.229 494.848 584.87 495.206 584.87 495.649Z" stroke="#FFD874" stroke-width="0.400485"/>
<path d="M583.268 501.457V498.453H589.876V501.457C589.876 501.899 589.517 502.258 589.075 502.258H584.069C583.626 502.258 583.268 501.899 583.268 501.457Z" fill="#FFD874" stroke="#FFD874" stroke-width="0.400485"/>
<path d="M589.875 496.051H583.267C582.824 496.051 582.466 496.409 582.466 496.852V497.452C582.466 498.337 583.183 499.054 584.068 499.054H589.074C589.959 499.054 590.676 498.337 590.676 497.452V496.852C590.676 496.409 590.317 496.051 589.875 496.051Z" fill="#FFBB0A" stroke="#FFBB0A" stroke-width="0.400485"/>
<circle cx="586.869" cy="498.061" r="0.400484" fill="#FFD874"/>
</g>
<g clip-path="url(#clip5_2910_27691)">
<path d="M585.274 495.649V496.249H588.478V495.649C588.478 495.206 588.12 494.848 587.677 494.848H586.075C585.633 494.848 585.274 495.206 585.274 495.649Z" stroke="#FFD874" stroke-width="0.400485"/>
<path d="M583.671 501.457V498.453H590.279V501.457C590.279 501.899 589.92 502.258 589.478 502.258H584.472C584.03 502.258 583.671 501.899 583.671 501.457Z" fill="#FFD874" stroke="#FFD874" stroke-width="0.400485"/>
<path d="M590.279 496.051H583.671C583.229 496.051 582.87 496.409 582.87 496.852V497.452C582.87 498.337 583.587 499.054 584.472 499.054H589.478C590.363 499.054 591.08 498.337 591.08 497.452V496.852C591.08 496.409 590.721 496.051 590.279 496.051Z" fill="#FFBB0A" stroke="#FFBB0A" stroke-width="0.400485"/>
<circle cx="587.273" cy="498.061" r="0.400484" fill="#FFD874"/>
</g>
</g>
<g clip-path="url(#clip6_2910_27691)">
<rect x="668.052" y="409.34" width="38.1845" height="38.1845" rx="19.0923" fill="#FF0000"/>
<path fill-rule="evenodd" clip-rule="evenodd" d="M683.16 422.773C685.814 422.565 688.48 422.565 691.133 422.773L692.916 422.912C693.908 422.99 694.721 423.734 694.885 424.716C695.295 427.174 695.295 429.683 694.885 432.141C694.721 433.123 693.908 433.867 692.916 433.945L691.133 434.084C688.48 434.292 685.814 434.292 683.16 434.084L681.378 433.945C680.385 433.867 679.573 433.123 679.409 432.141C678.998 429.683 678.998 427.174 679.409 424.716C679.573 423.734 680.385 422.99 681.378 422.912L683.16 422.773ZM685.556 430.394V426.464C685.556 426.278 685.758 426.163 685.917 426.259L689.192 428.224C689.347 428.317 689.347 428.541 689.192 428.633L685.917 430.598C685.758 430.694 685.556 430.579 685.556 430.394Z" fill="white"/>
<rect x="668.052" y="409.34" width="38.1845" height="38.1845" rx="19.0923" fill="#785600"/>
<g opacity="0.48">
<rect width="22.9107" height="22.9107" transform="translate(675.694 416.984)" fill="#785600"/>
<path d="M683.321 421.776V423.208H690.958V421.776C690.958 420.722 690.103 419.867 689.049 419.867H685.231C684.176 419.867 683.321 420.722 683.321 421.776Z" stroke="#FFD874" stroke-width="0.954613"/>
<path d="M679.501 435.621V428.461H695.252V435.621C695.252 436.675 694.397 437.53 693.343 437.53H681.41C680.356 437.53 679.501 436.675 679.501 435.621Z" fill="#FFD874" stroke="#FFD874" stroke-width="0.954613"/>
<path d="M695.25 422.73H679.499C678.445 422.73 677.59 423.585 677.59 424.64V426.072C677.59 428.18 679.299 429.89 681.408 429.89H693.341C695.45 429.89 697.159 428.18 697.159 426.072V424.64C697.159 423.585 696.305 422.73 695.25 422.73Z" fill="#FFBB0A" stroke="#FFBB0A" stroke-width="0.954613"/>
<circle cx="688.087" cy="427.517" r="0.954613" fill="#FFD874"/>
</g>
<path d="M684.284 421.776V423.208H691.921V421.776C691.921 420.722 691.066 419.867 690.012 419.867H686.193C685.139 419.867 684.284 420.722 684.284 421.776Z" stroke="#FFD874" stroke-width="0.954613"/>
<path d="M680.46 435.621V428.461H696.211V435.621C696.211 436.675 695.356 437.53 694.302 437.53H682.369C681.315 437.53 680.46 436.675 680.46 435.621Z" fill="#FFD874" stroke="#FFD874" stroke-width="0.954613"/>
<path d="M696.213 422.73H680.462C679.408 422.73 678.553 423.585 678.553 424.64V426.072C678.553 428.18 680.262 429.89 682.371 429.89H694.304C696.413 429.89 698.122 428.18 698.122 426.072V424.64C698.122 423.585 697.268 422.73 696.213 422.73Z" fill="#FFBB0A" stroke="#FFBB0A" stroke-width="0.954613"/>
<circle cx="689.046" cy="427.517" r="0.954613" fill="#FFD874"/>
</g>
<g clip-path="url(#clip7_2910_27691)">
<rect x="599.025" y="414.797" width="16.0194" height="16.0194" rx="8.00969" fill="#FF0000"/>
<path fill-rule="evenodd" clip-rule="evenodd" d="M605.363 420.433C606.477 420.345 607.595 420.345 608.708 420.433L609.456 420.491C609.872 420.524 610.213 420.836 610.282 421.248C610.454 422.279 610.454 423.331 610.282 424.363C610.213 424.775 609.872 425.087 609.456 425.119L608.708 425.178C607.595 425.265 606.477 425.265 605.363 425.178L604.615 425.119C604.199 425.087 603.858 424.775 603.789 424.363C603.617 423.331 603.617 422.279 603.789 421.248C603.858 420.836 604.199 420.524 604.615 420.491L605.363 420.433ZM606.368 423.63V421.981C606.368 421.903 606.453 421.855 606.52 421.895L607.894 422.719C607.959 422.758 607.959 422.852 607.894 422.891L606.52 423.715C606.453 423.755 606.368 423.707 606.368 423.63Z" fill="white"/>
<rect x="599.025" y="414.797" width="16.0194" height="16.0194" rx="8.00969" fill="#785600"/>
<g opacity="0.48" clip-path="url(#clip8_2910_27691)">
<rect width="9.61163" height="9.61163" transform="translate(602.232 418.012)" fill="#785600"/>
<path d="M605.434 420.02V420.62H608.637V420.02C608.637 419.577 608.279 419.219 607.836 419.219H606.235C605.792 419.219 605.434 419.577 605.434 420.02Z" stroke="#FFD874" stroke-width="0.400485"/>
<path d="M603.831 425.828V422.824H610.439V425.828C610.439 426.27 610.08 426.629 609.638 426.629H604.632C604.19 426.629 603.831 426.27 603.831 425.828Z" fill="#FFD874" stroke="#FFD874" stroke-width="0.400485"/>
<path d="M610.438 420.422H603.83C603.388 420.422 603.029 420.78 603.029 421.223V421.824C603.029 422.708 603.747 423.426 604.631 423.426H609.637C610.522 423.426 611.239 422.708 611.239 421.824V421.223C611.239 420.78 610.881 420.422 610.438 420.422Z" fill="#FFBB0A" stroke="#FFBB0A" stroke-width="0.400485"/>
<circle cx="607.433" cy="422.432" r="0.400484" fill="#FFD874"/>
</g>
<path d="M605.836 420.02V420.62H609.04V420.02C609.04 419.577 608.681 419.219 608.239 419.219H606.637C606.195 419.219 605.836 419.577 605.836 420.02Z" stroke="#FFD874" stroke-width="0.400485"/>
<path d="M604.232 425.828V422.824H610.84V425.828C610.84 426.27 610.482 426.629 610.039 426.629H605.033C604.591 426.629 604.232 426.27 604.232 425.828Z" fill="#FFD874" stroke="#FFD874" stroke-width="0.400485"/>
<path d="M610.841 420.422H604.233C603.79 420.422 603.432 420.78 603.432 421.223V421.824C603.432 422.708 604.149 423.426 605.034 423.426H610.04C610.924 423.426 611.642 422.708 611.642 421.824V421.223C611.642 420.78 611.283 420.422 610.841 420.422Z" fill="#FFBB0A" stroke="#FFBB0A" stroke-width="0.400485"/>
<circle cx="607.834" cy="422.432" r="0.400484" fill="#FFD874"/>
</g>
<g clip-path="url(#clip9_2910_27691)">
<rect x="717.251" y="460.324" width="16.0194" height="16.0194" rx="8.00969" fill="#FF0000"/>
<path fill-rule="evenodd" clip-rule="evenodd" d="M723.589 465.96C724.702 465.873 725.82 465.873 726.934 465.96L727.682 466.018C728.098 466.051 728.439 466.363 728.508 466.775C728.68 467.806 728.68 468.859 728.508 469.89C728.439 470.302 728.098 470.614 727.682 470.647L726.934 470.705C725.82 470.792 724.702 470.792 723.589 470.705L722.841 470.647C722.425 470.614 722.084 470.302 722.015 469.89C721.843 468.859 721.843 467.806 722.015 466.775C722.084 466.363 722.425 466.051 722.841 466.018L723.589 465.96ZM724.594 469.157V467.508C724.594 467.43 724.679 467.382 724.745 467.422L726.119 468.247C726.184 468.286 726.184 468.38 726.119 468.418L724.745 469.243C724.679 469.283 724.594 469.235 724.594 469.157Z" fill="white"/>
<rect x="717.251" y="460.324" width="16.0194" height="16.0194" rx="8.00969" fill="#785600"/>
<g opacity="0.48">
<rect width="9.61163" height="9.61163" transform="translate(720.456 463.531)" fill="#785600"/>
<path d="M723.657 465.539V466.14H726.861V465.539C726.861 465.097 726.502 464.738 726.06 464.738H724.458C724.016 464.738 723.657 465.097 723.657 465.539Z" stroke="#FFD874" stroke-width="0.400485"/>
<path d="M722.055 471.347V468.344H728.663V471.347C728.663 471.79 728.304 472.148 727.862 472.148H722.856C722.413 472.148 722.055 471.79 722.055 471.347Z" fill="#FFD874" stroke="#FFD874" stroke-width="0.400485"/>
<path d="M728.662 465.941H722.054C721.612 465.941 721.253 466.3 721.253 466.742V467.343C721.253 468.228 721.97 468.945 722.855 468.945H727.861C728.746 468.945 729.463 468.228 729.463 467.343V466.742C729.463 466.3 729.104 465.941 728.662 465.941Z" fill="#FFBB0A" stroke="#FFBB0A" stroke-width="0.400485"/>
<circle cx="725.656" cy="467.951" r="0.400484" fill="#FFD874"/>
</g>
<g clip-path="url(#clip10_2910_27691)">
<path d="M724.061 465.539V466.14H727.264V465.539C727.264 465.097 726.906 464.738 726.463 464.738H724.862C724.419 464.738 724.061 465.097 724.061 465.539Z" stroke="#FFD874" stroke-width="0.400485"/>
<path d="M722.457 471.347V468.344H729.065V471.347C729.065 471.79 728.706 472.148 728.264 472.148H723.258C722.816 472.148 722.457 471.79 722.457 471.347Z" fill="#FFD874" stroke="#FFD874" stroke-width="0.400485"/>
<path d="M729.065 465.941H722.457C722.015 465.941 721.656 466.3 721.656 466.742V467.343C721.656 468.228 722.373 468.945 723.258 468.945H728.264C729.149 468.945 729.866 468.228 729.866 467.343V466.742C729.866 466.3 729.508 465.941 729.065 465.941Z" fill="#FFBB0A" stroke="#FFBB0A" stroke-width="0.400485"/>
<circle cx="726.059" cy="467.951" r="0.400484" fill="#FFD874"/>
</g>
</g>
</g>
</g>
<defs>
<filter id="filter0_ddddd_2910_27691" x="0.728821" y="0.0176468" width="1256.97" height="1240.89" filterUnits="userSpaceOnUse" color-interpolation-filters="sRGB">
<feFlood flood-opacity="0" result="BackgroundImageFix"/>
<feColorMatrix in="SourceAlpha" type="matrix" values="0 0 0 0 0 0 0 0 0 0 0 0 0 0 0 0 0 0 127 0" result="hardAlpha"/>
<feOffset dy="2.89106"/>
<feGaussianBlur stdDeviation="11.6759"/>
<feColorMatrix type="matrix" values="0 0 0 0 0 0 0 0 0 0 0 0 0 0 0 0 0 0 0.022144 0"/>
<feBlend mode="normal" in2="BackgroundImageFix" result="effect1_dropShadow_2910_27691"/>
<feColorMatrix in="SourceAlpha" type="matrix" values="0 0 0 0 0 0 0 0 0 0 0 0 0 0 0 0 0 0 127 0" result="hardAlpha"/>
<feOffset dy="12.9247"/>
<feGaussianBlur stdDeviation="26.9753"/>
<feColorMatrix type="matrix" values="0 0 0 0 0 0 0 0 0 0 0 0 0 0 0 0 0 0 0.035072 0"/>
<feBlend mode="normal" in2="effect1_dropShadow_2910_27691" result="effect2_dropShadow_2910_27691"/>
<feColorMatrix in="SourceAlpha" type="matrix" values="0 0 0 0 0 0 0 0 0 0 0 0 0 0 0 0 0 0 127 0" result="hardAlpha"/>
<feOffset dy="32.1417"/>
<feGaussianBlur stdDeviation="61.6004"/>
<feColorMatrix type="matrix" values="0 0 0 0 0 0 0 0 0 0 0 0 0 0 0 0 0 0 0.044928 0"/>
<feBlend mode="normal" in2="effect2_dropShadow_2910_27691" result="effect3_dropShadow_2910_27691"/>
<feColorMatrix in="SourceAlpha" type="matrix" values="0 0 0 0 0 0 0 0 0 0 0 0 0 0 0 0 0 0 127 0" result="hardAlpha"/>
<feOffset dy="62.5829"/>
<feGaussianBlur stdDeviation="131.253"/>
<feColorMatrix type="matrix" values="0 0 0 0 0 0 0 0 0 0 0 0 0 0 0 0 0 0 0.057856 0"/>
<feBlend mode="normal" in2="effect3_dropShadow_2910_27691" result="effect4_dropShadow_2910_27691"/>
<feColorMatrix in="SourceAlpha" type="matrix" values="0 0 0 0 0 0 0 0 0 0 0 0 0 0 0 0 0 0 127 0" result="hardAlpha"/>
<feOffset dy="106.289"/>
<feGaussianBlur stdDeviation="251.636"/>
<feColorMatrix type="matrix" values="0 0 0 0 0 0 0 0 0 0 0 0 0 0 0 0 0 0 0.08 0"/>
<feBlend mode="normal" in2="effect4_dropShadow_2910_27691" result="effect5_dropShadow_2910_27691"/>
<feBlend mode="normal" in="SourceGraphic" in2="effect5_dropShadow_2910_27691" result="shape"/>
</filter>
<linearGradient id="paint0_linear_2910_27691" x1="525.443" y1="577.739" x2="628.066" y2="577.739" gradientUnits="userSpaceOnUse">
<stop stop-color="white"/>
<stop offset="1" stop-color="#FFBB0A" stop-opacity="0.16"/>
</linearGradient>
<linearGradient id="paint1_linear_2910_27691" x1="629.598" y1="577.739" x2="732.22" y2="577.739" gradientUnits="userSpaceOnUse">
<stop stop-color="white"/>
<stop offset="1" stop-color="#FFBB0A" stop-opacity="0.16"/>
</linearGradient>
<clipPath id="clip0_2910_27691">
<rect x="530" y="417" width="199" height="85.1808" rx="11.7491" fill="white"/>
</clipPath>
<clipPath id="clip1_2910_27691">
<rect x="619.587" y="461.059" width="29.2329" height="29.2329" rx="14.6164" fill="white"/>
</clipPath>
<clipPath id="clip2_2910_27691">
<rect width="17.5397" height="17.5397" fill="white" transform="translate(625.437 466.906)"/>
</clipPath>
<clipPath id="clip3_2910_27691">
<rect x="518.675" y="433.988" width="34.8958" height="34.8958" rx="17.4479" fill="white"/>
</clipPath>
<clipPath id="clip4_2910_27691">
<rect x="578.465" y="490.43" width="16.0194" height="16.0194" rx="8.00969" fill="white"/>
</clipPath>
<clipPath id="clip5_2910_27691">
<rect width="9.61163" height="9.61163" fill="white" transform="translate(582.068 493.637)"/>
</clipPath>
<clipPath id="clip6_2910_27691">
<rect x="668.052" y="409.34" width="38.1845" height="38.1845" rx="19.0923" fill="white"/>
</clipPath>
<clipPath id="clip7_2910_27691">
<rect x="599.025" y="414.797" width="16.0194" height="16.0194" rx="8.00969" fill="white"/>
</clipPath>
<clipPath id="clip8_2910_27691">
<rect width="9.61163" height="9.61163" fill="white" transform="translate(602.232 418.012)"/>
</clipPath>
<clipPath id="clip9_2910_27691">
<rect x="717.251" y="460.324" width="16.0194" height="16.0194" rx="8.00969" fill="white"/>
</clipPath>
<clipPath id="clip10_2910_27691">
<rect width="9.61163" height="9.61163" fill="white" transform="translate(720.854 463.531)"/>
</clipPath>
</defs>
</svg>
