<svg width="32" height="32" viewBox="0 0 32 32" fill="none" xmlns="http://www.w3.org/2000/svg">
<path d="M13.3335 16.4418C13.3335 16.0285 13.3335 15.8219 13.3789 15.6523C13.5022 15.1922 13.8616 14.8328 14.3217 14.7095C14.4913 14.6641 14.698 14.6641 15.1113 14.6641H16.8891C17.3024 14.6641 17.509 14.6641 17.6786 14.7095C18.1387 14.8328 18.4981 15.1922 18.6214 15.6523C18.6668 15.8219 18.6668 16.0285 18.6668 16.4418V17.3307C18.6668 18.8035 17.4729 19.9974 16.0002 19.9974C14.5274 19.9974 13.3335 18.8035 13.3335 17.3307V16.4418Z" stroke="white" stroke-width="2" stroke-linecap="round" stroke-linejoin="round"/>
<path d="M18.4022 17.3333C18.8177 17.2126 19.289 17.0673 19.8402 16.8973L25.4017 15.1822C27.3812 14.5717 28.35 13.508 28.5607 11.6664C28.655 10.8426 28.7022 10.4308 28.6359 10.0936C28.4467 9.13152 27.6387 8.35139 26.5619 8.09118C26.1845 8 25.7108 8 24.7634 8H7.23692C6.2895 8 5.81579 8 5.43844 8.09118C4.36164 8.35139 3.55364 9.13152 3.36447 10.0936C3.29817 10.4308 3.34531 10.8426 3.43958 11.6664C3.65035 13.508 4.61915 14.5717 6.59859 15.1822L12.1601 16.8973C12.7113 17.0673 13.1826 17.2126 13.5981 17.3333" stroke="white" stroke-width="2"/>
<path d="M4.61711 14.6641L4.35545 17.5604C3.88641 22.7523 3.65189 25.3482 5.15645 27.0061C6.66101 28.6641 9.25135 28.6641 14.432 28.6641H17.568C22.7486 28.6641 25.339 28.6641 26.8435 27.0061C28.3481 25.3482 28.1136 22.7523 27.6446 17.5604L27.3829 14.6641" stroke="white" stroke-width="2" stroke-linecap="round" stroke-linejoin="round"/>
<path d="M20.6668 7.33203L20.5638 6.97882C20.0505 5.21877 19.7938 4.33874 19.1827 3.83539C18.5716 3.33203 17.76 3.33203 16.1366 3.33203H15.8637C14.2404 3.33203 13.4287 3.33203 12.8176 3.83539C12.2065 4.33874 11.9499 5.21877 11.4365 6.97882L11.3335 7.33203" stroke="white" stroke-width="2"/>
</svg>
