<svg width="32" height="32" viewBox="0 0 32 32" fill="none" xmlns="http://www.w3.org/2000/svg">
<path d="M4 13.332V23.9802C4 26.5677 6.38781 28.6654 9.33333 28.6654H22.6667C25.6122 28.6654 28 26.5677 28 23.9802V13.332" stroke="white" stroke-width="2" stroke-linecap="round"/>
<path d="M25.4097 4.66406C26.0825 4.66406 26.4189 4.66406 26.6972 4.73092C27.6459 4.95886 28.3868 5.73868 28.6033 6.73734C28.6668 7.03027 28.6668 7.38439 28.6668 8.09263C28.6668 9.86324 28.6668 10.7485 28.508 11.4809C27.9667 13.9775 26.1146 15.9271 23.7428 16.4969C23.0471 16.6641 22.2061 16.6641 20.524 16.6641H11.4764C9.79427 16.6641 8.95323 16.6641 8.25753 16.4969C5.88572 15.9271 4.03364 13.9775 3.49229 11.4809C3.3335 10.7485 3.3335 9.86324 3.3335 8.09263C3.3335 7.38439 3.3335 7.03027 3.39701 6.73734C3.61355 5.73868 4.35439 4.95886 5.30311 4.73092C5.58139 4.66406 5.91781 4.66406 6.59064 4.66406M12.2002 4.66406H19.8002" stroke="white" stroke-width="2"/>
<path d="M6.66699 5.33203C6.66699 4.71078 6.66699 4.40015 6.76849 4.15512C6.90381 3.82842 7.16338 3.56885 7.49008 3.43353C7.73511 3.33203 8.04574 3.33203 8.66699 3.33203H10.0003C10.6216 3.33203 10.9322 3.33203 11.1772 3.43353C11.5039 3.56885 11.7635 3.82842 11.8988 4.15512C12.0003 4.40015 12.0003 4.71078 12.0003 5.33203C12.0003 5.95329 12.0003 6.26391 11.8988 6.50894C11.7635 6.83565 11.5039 7.09521 11.1772 7.23054C10.9322 7.33203 10.6216 7.33203 10.0003 7.33203H8.66699C8.04574 7.33203 7.73511 7.33203 7.49008 7.23054C7.16338 7.09521 6.90381 6.83565 6.76849 6.50894C6.66699 6.26391 6.66699 5.95329 6.66699 5.33203Z" stroke="white" stroke-width="2"/>
<path d="M20.0003 5.33203C20.0003 4.71078 20.0003 4.40015 20.1018 4.15512C20.2371 3.82842 20.4967 3.56885 20.8234 3.43353C21.0684 3.33203 21.3791 3.33203 22.0003 3.33203H23.3337C23.9549 3.33203 24.2655 3.33203 24.5106 3.43353C24.8373 3.56885 25.0968 3.82842 25.2322 4.15512C25.3337 4.40015 25.3337 4.71078 25.3337 5.33203C25.3337 5.95329 25.3337 6.26391 25.2322 6.50894C25.0968 6.83565 24.8373 7.09521 24.5106 7.23054C24.2655 7.33203 23.9549 7.33203 23.3337 7.33203H22.0003C21.3791 7.33203 21.0684 7.33203 20.8234 7.23054C20.4967 7.09521 20.2371 6.83565 20.1018 6.50894C20.0003 6.26391 20.0003 5.95329 20.0003 5.33203Z" stroke="white" stroke-width="2"/>
<path d="M9.3335 24H13.3335" stroke="white" stroke-width="2" stroke-linecap="round" stroke-linejoin="round"/>
</svg>
