<svg width="493" height="588" viewBox="0 0 493 588" fill="none" xmlns="http://www.w3.org/2000/svg">
<g opacity="0.8">
<g opacity="0.48" clip-path="url(#clip0_2788_10370)">
<path d="M213.23 198.461L220.706 233.632L408.285 193.761L400.809 158.59C395.304 132.691 369.846 116.158 343.947 121.663L250.157 141.599C224.258 147.104 207.725 172.562 213.23 198.461Z" stroke="#FFD874" stroke-width="23.9712"/>
<path d="M191.717 558.453L154.338 382.598L541.219 300.363L578.599 476.219C584.104 502.118 567.571 527.576 541.672 533.081L248.58 595.38C222.68 600.885 197.222 584.352 191.717 558.453Z" fill="#FFD874" stroke="#FFD874" stroke-width="23.9712"/>
<path d="M511.264 159.646L124.382 241.88C98.4828 247.385 81.95 272.843 87.4551 298.742L94.9309 333.913C105.941 385.712 156.858 418.777 208.656 407.767L501.748 345.469C553.546 334.459 586.612 283.542 575.602 231.744L568.126 196.573C562.621 170.673 537.163 154.141 511.264 159.646Z" fill="#FFBB0A" stroke="#FFBB0A" stroke-width="23.9712"/>
<circle cx="360.345" cy="314.71" r="23.9712" transform="rotate(-12 360.345 314.71)" fill="#FFD874"/>
</g>
<g clip-path="url(#clip1_2788_10370)">
<path d="M233.708 200.496L241.184 235.667L428.763 195.796L421.287 160.625C415.782 134.726 390.324 118.193 364.424 123.698L270.635 143.634C244.736 149.139 228.203 174.597 233.708 200.496Z" stroke="#FFD874" stroke-width="23.9712"/>
<path d="M212.114 560.508L174.734 384.652L561.616 302.418L598.995 478.273C604.5 504.173 587.967 529.631 562.068 535.136L268.976 597.435C243.077 602.94 217.619 586.407 212.114 560.508Z" fill="#FFD874" stroke="#FFD874" stroke-width="23.9712"/>
<path d="M531.741 161.681L144.86 243.915C118.96 249.42 102.428 274.878 107.933 300.777L115.408 335.949C126.419 387.747 177.335 420.813 229.134 409.802L522.226 347.504C574.024 336.494 607.09 285.577 596.079 233.779L588.604 198.608C583.099 172.709 557.64 156.176 531.741 161.681Z" fill="#FFBB0A" stroke="#FFBB0A" stroke-width="23.9712"/>
<circle cx="380.741" cy="316.764" r="23.9712" transform="rotate(-12 380.741 316.764)" fill="#FFD874"/>
</g>
</g>
<defs>
<clipPath id="clip0_2788_10370">
<rect width="575.308" height="575.308" fill="white" transform="translate(0.857422 120.508) rotate(-12)"/>
</clipPath>
<clipPath id="clip1_2788_10370">
<rect width="575.308" height="575.308" fill="white" transform="translate(21 122.613) rotate(-12)"/>
</clipPath>
</defs>
</svg>
