<svg width="22" height="22" viewBox="0 0 22 22" fill="none" xmlns="http://www.w3.org/2000/svg">
<g clip-path="url(#clip0_2788_10386)">
<rect width="21.8153" height="21.8153" rx="10.9077" fill="#FF0000"/>
<path fill-rule="evenodd" clip-rule="evenodd" d="M8.63186 7.67099C10.1479 7.55238 11.6708 7.55238 13.1869 7.67099L14.2052 7.75066C14.7725 7.79504 15.2365 8.22016 15.3303 8.78135C15.5649 10.1855 15.5649 11.6188 15.3303 13.0229C15.2365 13.5841 14.7725 14.0093 14.2052 14.0536L13.1869 14.1333C11.6708 14.2519 10.1479 14.2519 8.63186 14.1333L7.61349 14.0536C7.04626 14.0093 6.58222 13.5841 6.48846 13.0229C6.25385 11.6188 6.25385 10.1855 6.48846 8.78135C6.58222 8.22016 7.04626 7.79504 7.61349 7.75066L8.63186 7.67099ZM10.0004 12.0248V9.7795C10.0004 9.67352 10.116 9.60806 10.2069 9.66259L12.0779 10.7852C12.1662 10.8382 12.1662 10.9661 12.0779 11.0191L10.2069 12.1417C10.116 12.1962 10.0004 12.1308 10.0004 12.0248Z" fill="white"/>
<rect width="21.8153" height="21.8153" rx="10.9077" fill="#785600"/>
<g style="mix-blend-mode:luminosity">
<path d="M15.861 7.58908C16.0345 8.07521 15.7912 8.40805 15.3204 8.7359C14.9406 9.00043 14.4566 9.287 13.9438 9.77694C13.4411 10.2572 12.9505 10.8357 12.5145 11.4051C11.9861 12.0951 11.4865 12.8158 11.0467 13.5662C10.8809 13.8504 10.5827 14.0225 10.263 14.0182C9.94326 14.0138 9.64955 13.8339 9.49088 13.5452C9.0853 12.8071 8.77233 12.5156 8.62849 12.4109C8.22939 12.1204 7.79199 12.0701 7.79199 11.4364C7.79199 10.9179 8.1962 10.4975 8.69481 10.4975C9.05163 10.5118 9.37829 10.6647 9.66396 10.8726C9.84928 11.0075 10.0456 11.1859 10.2498 11.4208C10.4894 11.0667 10.7782 10.6582 11.102 10.2354C11.5721 9.62144 12.127 8.96279 12.7222 8.39421C13.3072 7.83527 13.9836 7.31207 14.7005 7.03545C15.168 6.85508 15.6876 7.10295 15.861 7.58908Z" fill="#FFE090" stroke="#FFBB0A" stroke-width="0.8125" stroke-linecap="round" stroke-linejoin="round"/>
<path d="M6.40544 10.5383C6.31962 10.5102 6.24205 10.4925 6.1741 10.4818C6.14021 10.4765 6.10896 10.473 6.08052 10.4709L6.00421 10.4678C5.49598 10.4678 5.08398 10.8917 5.08398 11.4146C5.08398 11.8878 5.42141 12.2799 5.86222 12.3502C5.87764 12.3583 5.90264 12.3729 5.9366 12.3973C6.08322 12.5029 6.40222 12.7969 6.81562 13.5412C6.97734 13.8324 7.27671 14.0138 7.60264 14.0181C7.82591 14.0211 8.03887 13.9406 8.20521 13.7974M12.1257 6.97656C11.3949 7.25552 10.7055 7.78313 10.1092 8.34678C9.90096 8.5436 9.69756 8.75112 9.50083 8.96385" stroke="#FFBB0A" stroke-width="0.8125" stroke-linecap="round" stroke-linejoin="round"/>
</g>
<path d="M16.403 7.58908C16.5764 8.07521 16.3332 8.40805 15.8624 8.7359C15.4825 9.00043 14.9986 9.287 14.4858 9.77694C13.9831 10.2572 13.4925 10.8357 13.0565 11.4051C12.5281 12.0951 12.0285 12.8158 11.5887 13.5662C11.4229 13.8504 11.1247 14.0225 10.805 14.0182C10.4852 14.0138 10.1915 13.8339 10.0329 13.5452C9.6273 12.8071 9.31432 12.5156 9.17048 12.4109C8.77138 12.1204 8.33398 12.0701 8.33398 11.4364C8.33398 10.9179 8.73819 10.4975 9.23681 10.4975C9.59362 10.5118 9.92028 10.6647 10.206 10.8726C10.3913 11.0075 10.5876 11.1859 10.7918 11.4208C11.0314 11.0667 11.3202 10.6582 11.644 10.2354C12.1141 9.62144 12.669 8.96279 13.2642 8.39421C13.8492 7.83527 14.5256 7.31207 15.2425 7.03545C15.71 6.85508 16.2295 7.10295 16.403 7.58908Z" fill="#FFE090" stroke="#FFBB0A" stroke-width="0.8125" stroke-linecap="round" stroke-linejoin="round"/>
<path d="M6.94743 10.5383C6.86161 10.5102 6.78404 10.4925 6.71609 10.4818C6.6822 10.4765 6.65095 10.473 6.62251 10.4709L6.5462 10.4678C6.03797 10.4678 5.62598 10.8917 5.62598 11.4146C5.62598 11.8878 5.9634 12.2799 6.40421 12.3502C6.41963 12.3583 6.44463 12.3729 6.4786 12.3973C6.62521 12.5029 6.94421 12.7969 7.35761 13.5412C7.51933 13.8324 7.8187 14.0138 8.14463 14.0181C8.3679 14.0211 8.58086 13.9406 8.7472 13.7974M12.6676 6.97656C11.9369 7.25552 11.2475 7.78313 10.6512 8.34678C10.443 8.5436 10.2396 8.75112 10.0428 8.96385" stroke="#FFBB0A" stroke-width="0.8125" stroke-linecap="round" stroke-linejoin="round"/>
</g>
<defs>
<clipPath id="clip0_2788_10386">
<rect width="21.8153" height="21.8153" rx="10.9077" fill="white"/>
</clipPath>
</defs>
</svg>
